<?xml version="1.0" encoding="utf-8"?>
<!-- Generator: Adobe Illustrator 22.0.1, SVG Export Plug-In . SVG Version: 6.00 Build 0)  -->
<svg version="1.1" id="Capa_1" xmlns="http://www.w3.org/2000/svg" xmlns:xlink="http://www.w3.org/1999/xlink" x="0px" y="0px"
	 viewBox="0 0 1000 1000" style="enable-background:new 0 0 1000 1000;" xml:space="preserve">
<style type="text/css">
	.st2{fill:#000;fill-opacity:0;}
	.st3{fill:none;stroke:#1D1E1C;stroke-width:0.5;stroke-miterlimit:10;}
	.st4{fill:#1D1E1C;}
	.st5{fill:none;}
	.st6{fill:#1E1E1C;}
	.st7{font-family:'ArialMT';}
	.st8{font-size:13.7466px;}
	.st9{fill:none;stroke:#CC1719;stroke-width:0.5;stroke-linecap:round;stroke-linejoin:round;}
	.st10{fill:none;stroke:#CC1719;stroke-width:0.5;stroke-linecap:round;stroke-linejoin:round;stroke-dasharray:2.0036,2.0036;}
	.st11{fill:none;stroke:#1D1D1B;stroke-width:0.25;stroke-miterlimit:10;}
	.st12{fill:#1D1D1B;}
	.st13{fill:none;stroke:#1D1D1B;stroke-width:0.5;stroke-linecap:round;stroke-miterlimit:10;}
	.st14{opacity:0.2;fill:#43413F;enable-background:new    ;}
</style>
<g>
	<defs>
		<polygon id="SVGID_1_" points="1,1 2,1 1,2 		"/>
	</defs>
	<defs>
		<polygon id="SVGID_2_" points="-1,-1 -2,-1 -1,-2 		"/>
	</defs>
	<clipPath id="SVGID_3_">
		<use xlink:href="#SVGID_1_"  style="overflow:visible;"/>
	</clipPath>
	<clipPath id="SVGID_4_" class="st0">
		<use xlink:href="#SVGID_2_"  style="overflow:visible;"/>
	</clipPath>
</g>
<image style="overflow:visible;enable-background:new    ;" width="849" height="728" id="imagen" xlink:href="bicicleta.png"  transform="matrix(1 0 0 1 31.5224 133.9122)">
</image>
<g id="texto" class="st1">
	<path class="st2" d="M865.9,617c-22.4-51.1-71.8-89.2-126.1-102.3c-20.6-5.8-73.2-4.9-106.8,9.7c1,2.4-2.6-3.2-6-11
		c-0.8,0.1-1-0.7,0.3-0.9c10.3-0.5,23.6-4,34.2-10.4c9.3-5.6,18.1-13.9,22.2-22.1c1.3-6.3,2.9-14.3,0.5-20.6
		c-1.1-2.9-0.7-5.4-1.1-8.3c-0.3-2.3-1.9-4.5-4.2-6.6c0.8,0.6,1.7,1.2,2.7,1.9c0.5,0.2,1.1,0.2,1.6,0.1v0.1c1.5,0.5,7.4,1,9,1.4
		c1.5,0.4,2.9,0.2,4.3-0.7c0.6-0.4,1-0.9,1-1.6c0.2-2,0.2-4.2-1.2-5.7c0.6,0.7,1.2,1.3,1.7,1.7c2.4,2.2,6.2,3.3,9.5,2.5
		c0.4-0.1,0.8-0.3,1.2-0.6c-0.2,0.3-0.5,0.6-0.7,0.9c0.2,1.2,0.2,3.1,0.3,4.3c0.2,1.6,0.5,1-0.5,2.2c-0.3,0.4-0.6,0.8-0.9,1.2
		c-0.3,0.4-1.2,0.9-1.1,1.3c0.8,4-2.8,7.8-0.7,11.8c5.2,10.7,14.9,16.4,24.7,22.2h1.7c-4.8-6.2-8.2-13.6-10.4-21.4
		c0.7,1.5,2.1,4.1,3,4.4c1.3,0.4,2-0.4,1.5-1.1c-0.4-0.6-3.8-3.4-4.7-4.1c-1.8-6.8-2.7-14-3-21c0-5.1-1.6-9.8-4.1-14.1
		c0-0.2,0.1-0.4,0.1-0.6c0.6,0.8,2.6,1.1,3.5,0.8c1.3-0.5,2.3-1.3,2.7-2.6c0.7-2.1,0.8-4.2-0.1-6.3c-0.4-1.1-0.9-2.1-1.2-3.2
		c-0.2-0.8-0.3-1.5-0.3-2.1c0.2,0.2,0.4,0.5,0.6,0.7c0.4,0.3,1.7-0.5,2-0.9c1-1.2,1.2-2.7,1.6-4.1c0-2-0.3-4.7-1.9-6.3
		c1.4-4.5,3.9-9.8-8.5-15.3c-14.7-6.5-17.3-11.5-25.1-9.5l0,0c-0.8,0-1.6,0-2.3,0c-2.8,0.4-5.9,0.5-8.5,1.5c-1.8,0.7-3.9,2-5.8,2.4
		c-3.8,1-7.3,1.8-10.8,3.6c-1.3,0.7-3.1,2-4.6,2.1c-4.8,0.3-9.2,1-13.9,0.2c-0.8-0.1-2.6-0.7-3.4-0.6c0,0-4-0.9-6.9-1.1
		c-2.5-0.1-4,1.1-6.1,1.9c-3.9-0.4-8.7-1.1-12.3-1.7c-0.3-0.1-8.3-0.1-11.8-0.7c-6.9-1.2-13.4-3.3-19.7-6.4
		c-3.4-1.7-6.9-2.7-10.3-4.5c-3.9-2.1-7.9-4.2-12-5.9c-1.5-0.6-3.5-1.2-5-1.8c-2.5-1.1-4.1-1.7-4.8-4.3c-0.4-1.6-0.2-3.5-1-4.9
		c-1-2.1-1.5-3.9-0.9-6c0.7-2.5,0.5-4.9,0.3-7.4c-0.2-1.5-0.4-2.9-0.5-4.4c-0.1-1.1,0.1-2.4-0.8-3c-0.7-0.5-1.5-1.1-2.3-1.7
		c2.4,1.6,3.8,2.7,3.8,2.7s-0.1,0.9,1.2-3.3c-0.1-2-0.7-3.9-1.5-5.7c0.9-1.9,2.2-4,3.6-6c0.9,1.4,1.4,2.3,1.4,2.3s1.7-1.8,1.1-4.9
		c0-0.2-0.1-0.4-0.3-0.6c1.2-1.7,2.2-3.2,3-4.5c2.6-4.1,5.3-8.1,8-12c3.6-5.2,7.4-10.4,8.8-16.8c0.8-2.9,0.8-5.8,0.6-8.7
		c0.3-0.1,0.6-0.1,0.9-0.2c0.1,0.2,0.1,0.5,0.2,0.7c0.6,0,1-0.6,1.7-1c0.8-0.1,1.6-0.1,2.4,0c0.2,0.1,0.3,0.2,0.5,0.3
		c0-0.1,0.1-0.1,0.1-0.2c5.8,0.5,9,3.9,9,3.9c-0.1,0.7,4.5,3.7,5.1,4.7c0.7,1.1,1.9,2.2,2.6,3.3c1.1,1.6,2.8,1.8,4.7,2
		c2,0.2,3.9,0.4,5.9,0.4c1.5,0.1,5.6-3.3,5.8-4.5c0.2-1.6,1.1-2.7,2.5-3.5c0.7-0.4,2.8-1.3,3.1-2.2c0.3-1-1.6-1.5-2-2.1
		c-0.9-1.3-1.6-1.8-1.6-3.3c0-0.5-0.4-3.6,1-5.2c2.2-2.5,2.9-3.8,6-5.1c0.4-0.2,3.5,1.8,4,2.6c0.8,1.3,2.6,1.2,4.1,0.8
		c1.8-0.4,3.5-1.1,4.5-2.7c0.6-2,1.3-1.8,2.3-1.7c1.6,0.2,1.4,1.1,4.9,1.4c0.9,0.2,1.7,0.3,2.6,0.1c0.3,0,0.6-0.1,0.8-0.2
		c0.4-0.2,0.8-0.5,1-0.9s0.3-0.9,0.3-1.4c0-3.1,0.1-6.2,0.6-9.3c0-0.1,0.3-0.9,0.5-1.6c0.1-0.3,0.2-0.6,0.3-0.9
		c0.1-0.3,0.1-0.5,0.1-0.7c1.4-11.8,18.9-20.4,18.9-20.4c15,0.3,11.9-37.9,8.9-41.8c-2.4-7-4.7-13.9-10.7-18.3c0.1,0,0.1,0,0.1,0
		c-21.7-33.2-65.7-35.8-100.8-26.7c-1.5,0.3-7.9,2-9.6,4h-0.1c-0.1,0.1-0.1,0.2-0.1,0.3l0,0c-0.3,0.6-0.3,1.2,0.4,1.8
		c0,0,0,0,0.1,0.1l0,0c0.4,0.5,0.9,1.1,1.5,1.7c1.6,2,2.2,3.6,2.1,5l0,0c-0.2,0.9-0.5,1.7-0.9,2.4c-3,4.2-12.7,6.4-11.9,13.6
		c0.3,0.4,0.5,0.7,0.5,1l0,0c-1.1,0.1-1.3,0.9-0.9,2.4l0,0c0,0.2,0.1,0.5,0.2,0.8c0.5,1.6,1.3,3.3,2.2,5.2c0.4,0.9,0.9,1.8,1.5,2.8
		c0,0,0,0,0,0.1c1.5,2.7,3.3,5.3,5.2,7.2c1,1.3,1.8,2.1,1.8,2.1l0.2-0.3c0.3,0.2,0.5,0.4,0.8,0.5c-0.3,0.8-0.5,1.5-0.6,2.2
		c-0.7,2-0.7,3.5-0.1,4.6c0.4,1.3,1.3,2,2.5,2.3c-1,0-1.7,0.5-2.3,1.3c-0.5,0.7-2.9,1.3-2.9,2.3c0.3,0.2,1.3,0.8,2,1.3
		c-0.6-0.2-1.3-0.4-2-0.5c1.2,1.3,2.4,2.7,3.5,4.2l-0.1,0.2c-2.4-2.7-5.4-4.3-8.5-2.2c-3.9,1.7-7.8-0.5-11.7-1.3
		c-7.2-2.8-15.5,0.8-22.7-0.5c-26.1-1.3-49.8-13.1-76.1-11.6c-20.4,1.4-41.5,2.7-60.2,11.5c-3.7,1.7-7.6,3.8-11.4,5.4
		c-2.5,1.1-5.1,1.8-5.3,2.9c0,0.3,0.1,0.6,0.3,0.9c-1-0.3-2.7-1.4-3.2-2.2c-2.4-3.6-6.6-0.1-9.6,0.7c-1.5,0.6-4.1,0.1-10.3,3.6
		l-10.9,6.8c-5.9,5.6-46.2,23.6-36.7,33.8c2.7,1.3,6.6,6,6.9,8.3c0.2,1.5-1.6,3.4-3.1,5.1c-0.4,1-12.3,16.1-15.5,24.9
		c-4.3,9.9-11.1,19.6-13.9,30.1c-0.6,2.2-1,4.5-1.3,6.8l0,0c-0.3,1.3-0.4,3.8-0.3,4c0,0.1,0,0.3,0,0.4c0,0,0.1,6.3,0.7,9.4
		c0,0.2,0.1,0.4,0.1,0.6l0,0c0.2,3.2,0.5,7,0.7,10.9c0.1,2.1,0.1,4.3,0.1,6.4v0.2c-0.1,7.4,0.1,14,4.4,18.3
		c-4.1-2.7-10.8-2.5-15.1-3.5c-1.8-0.1-8.5-1.8-13.9-1.4c-4.2,0.3-8,2.1-6.1,4.9c4,6.7,14.7,7.8,19.9,13.3c2.3,1.6,4.6,4.6,8.1,5.9
		c0.2,0.1,0.5,0.2,0.7,0.2l0,0c8.4,5.2,18.4,6.9,24,7.9c-0.2,2.4,0.2,5.5,1.5,10c2.8,4.4,8.6,5.6,10.2,7.6c-0.5,0,7.3,20.2,12.7,38
		c-1.5,3.7-1.1,6.4-0.3,9.2c0.9,3.2,2.1,5.7,2.6,8.4c0.9,2.5,4,1.1,4.6,3.9c1.3,4.9,4.3,11.5,5.1,16.5c2.7,14.7,8.6,28.1,12.9,42.4
		c0,0.1,0.3,2,0.4,4c-1.1,0.4-2.1,0.8-3.2,1.4c-3.7,1.9-7.3,5.4-10.9,8.5c-3.2,2.6-8.1,6.8-7.4,6c-24.3-26.8-59-41.2-94.6-45.1
		c-40.3-4.3-82.6,5.8-115.3,27.8c-21.6,14.2-35.9,35-48.5,56.2c-10.7,15.3-13.3,28.9-17.5,44.5c-6.4,20-6.3,41.7-2.7,62.2
		c3.5,1.5,8.7,9.8,9.9,14.4c2.1,8.2,3.4,14.9,6.3,22.7c1.1,2.9,3.5,6.9,4.5,9.8c0.7,2.1,17.6,58.3,73.1,80.4
		c14.3,8.7,29.7,14,46.2,16.3c-61.1,0.2-107.5,1.3-107.5,2.6c0,1.4,58.5,2.6,130.7,2.6s130.7-1.2,130.7-2.6
		c0-1.3-47.7-2.4-110.2-2.6c15.8-1.9,32.5-5.7,50-11C296.1,842,326,815,342,790c0.3-0.4,0.5-0.9,0.8-1.3c7.2,0.2,14.8,0.6,20.2,1
		c2.4,0.2,36.4,0.5,39.4,0.3c24.1-1.5,32.6-8.1,33.3-8.4c4.7-2.3,11.6-10.6,15-14.5c1.9-2.1,3.6-4.4,5.1-6.6
		c1.5,2.1,3.7,4.3,6.8,6.8c16,12.3,24.2,13.8,25.8,6.3c0-0.1,0-0.2,0-0.3s0-0.2,0-0.4c0-0.1-0.1-0.2-0.1-0.3s0-0.1-0.1-0.2
		c0,0,0-0.1-0.1-0.1c0-0.1-0.1-0.1-0.1-0.2c-0.3-0.6-0.8-1.2-1.4-1.9c-0.2-0.2-0.3-0.4-0.5-0.5c-0.1-0.1-0.3-0.3-0.4-0.4
		c-0.3-0.3-0.5-0.5-0.8-0.8l0,0c-0.2-0.2-0.5-0.4-0.7-0.6c-2.3-2-5.5-4.4-9.5-7.3c-1.2-0.9-2.5-1.8-3.9-2.8
		c-0.4-0.3-0.8-0.6-1.3-0.9c-0.4-0.3-0.9-0.6-1.4-1c2.2,1.2,4.5,2.1,6.8,2.8c-0.7,1.3,6.6,5.5,6.6,5.5l6.9,5l2.1-0.5
		c-1.4-1.1,1.2-4.6-2.1-5.9c-1.5-0.6-3.9-1.8-6.2-2.8c15.5,1.5,32.9-5.1,46.1-11.8c3.4-1.7,2.9-8.4,0.5-11.3
		c-5.1-5.2-13.4-2.1-20.1-3.2c-1.2,0-3.9,0.1-4.9,0.7c-2.6,1.6-3.3-1.7-7.2-1.1c-0.7,0.1-1.2-1.5-4.3-1.9c-1.2,0.1-2.9,0.7-3.6,1.5
		c-2.7-1.1-7.5-3-10.9-4.6c-7.2-2-14.9-10-16.4-9.9c0.6,4.5,2,8.5,1.8,15.1c-0.3-16.5-14.3-39.2-13-37.4c2.7,0.6,8.7-11.3,11.5-13.9
		c10.6-14.1,23.2-26.6,33.7-40.9c21.9-27.5,45.4-53.6,67.3-81.1c5.6-9.9,12.6-19.3,17.7-29.6c1-10,8.9-13.8,16.9-18.1
		c-0.5-2.1,15.1,20.4,7.3,25.8c-11.9,7.1-23.3,15.8-32.6,26.2c-17.9,19.8-32.2,46.1-40,73.1c-4.3,15-6.1,30.2-6.7,44.7
		c6.2-5.9,11.6,50,21,70.6c12.8,27.8,33.8,52.6,59.5,70.2c15.8,10.8,33.5,18.3,51.6,23.9c105.9,32.2,219.3-52.8,215.1-160.7
		c-0.3-9,4.8-17.1,6.8-13.2l0.9-2.2C878.2,657.4,871.3,629.3,865.9,617z M714.3,403.8L714.3,403.8c0,0.1,0,0.1,0,0.2
		C714.3,403.9,714.3,403.8,714.3,403.8z M557.7,212L557.7,212c-0.1,0-0.2,0-0.2,0C557.5,211.9,557.6,212,557.7,212z"/>
	<g>
		<g>
			<line class="st3" x1="675.1" y1="306.7" x2="555.2" y2="306.7"/>
			<g>
				<circle class="st4" cx="555.2" cy="306.7" r="0.8"/>
			</g>
		</g>
	</g>
	<g>
		<g>
			<line class="st3" x1="122.4" y1="306.8" x2="286.9" y2="306.8"/>
			<g>
				<circle class="st4" cx="286.9" cy="306.8" r="0.8"/>
			</g>
		</g>
	</g>
	<g>
		<g>
			<line class="st3" x1="454" y1="793.6" x2="454" y2="679.3"/>
			<g>
				<circle class="st4" cx="454" cy="679.3" r="0.8"/>
			</g>
		</g>
	</g>
	<g>
		<g>
			<line class="st3" x1="840.9" y1="496.4" x2="749.9" y2="496.4"/>
			<g>
				<circle class="st4" cx="749.9" cy="496.4" r="0.8"/>
			</g>
		</g>
	</g>
	<g>
		<g>
			<polyline class="st3" points="675.3,150.2 655,150.2 639.6,150.2 			"/>
			<g>
				<circle class="st4" cx="639.6" cy="150.2" r="0.8"/>
			</g>
		</g>
	</g>
	<g>
		<g>
			<polyline class="st3" points="767.8,394.3 721.6,394.3 685.7,394.3 			"/>
			<g>
				<circle class="st4" cx="685.7" cy="394.3" r="0.8"/>
			</g>
		</g>
	</g>
	<g>
		<g>
			<line class="st3" x1="665.4" y1="239.4" x2="765.5" y2="239.4"/>
			<g>
				<circle class="st4" cx="665.4" cy="239.4" r="0.8"/>
			</g>
		</g>
	</g>
	<g>
		<rect x="774.1" y="386.8" class="st5" width="141.2" height="54.7"/>
		<text transform="matrix(1 0 0 1 774.1279 398.446)" class="st6 st7 st8">Guantes</text>
		<text transform="matrix(1 0 0 1 774.1279 415.646)" class="st6 st7 st8">No deben restringir el </text>
		<text transform="matrix(1 0 0 1 774.1279 432.846)" class="st6 st7 st8">movimiento de los dedos.</text>
	</g>
	<g>
		<rect x="772.3" y="197.7" class="st5" width="133.7" height="52.6"/>
		<text transform="matrix(1 0 0 1 772.3096 209.4172)" class="st6 st7 st8">Lentes</text>
		<text transform="matrix(1 0 0 1 772.3096 226.6172)" class="st6 st7 st8">Protege del sol, viento e </text>
		<text transform="matrix(1 0 0 1 772.3096 243.8172)" class="st6 st7 st8">impacto con partículas.</text>
	</g>
	<g>
		<rect x="899.9" y="678.4" class="st5" width="60.1" height="62.5"/>
		<text transform="matrix(1 0 0 1 899.873 690.1042)" class="st6 st7 st8">Ruedas</text>
		<text transform="matrix(1 0 0 1 899.873 707.3042)" class="st6 st7 st8">Equivalente </text>
		<text transform="matrix(1 0 0 1 899.873 724.5042)" class="st6 st7 st8">a un aro 28.</text>
	</g>
	<g>
		<rect x="32" y="303" class="st5" width="220.1" height="78.8"/>
		<text transform="matrix(1 0 0 1 32.0005 312.5828)" class="st6 st7 st8">Shorts o culotte</text>
		<text transform="matrix(1 0 0 1 32.0005 329.7828)" class="st6 st7 st8">Materiales compresivos, con un acolchado </text>
		<text transform="matrix(1 0 0 1 32.0005 346.9828)" class="st6 st7 st8">que soporta la estructura ósea y amortigua </text>
		<text transform="matrix(1 0 0 1 32.0005 364.0828)" class="st6 st7 st8">zonas sensibles.</text>
	</g>
	<g>
		<rect x="682.2" y="113.9" class="st5" width="197" height="56"/>
		<text transform="matrix(1 0 0 1 682.2197 123.4749)" class="st6 st7 st8">Casco</text>
		<text transform="matrix(1 0 0 1 682.2197 140.6749)" class="st6 st7 st8">Obligatorio durante las competencias, </text>
		<text transform="matrix(1 0 0 1 682.2197 157.8749)" class="st6 st7 st8">su composición no está regulada.</text>
	</g>
	<g>
		<rect x="682.7" y="302.9" class="st5" width="195.9" height="57.7"/>
		<text transform="matrix(1 0 0 1 682.707 312.5662)" class="st6 st7 st8">Jersey o maillot</text>
		<text transform="matrix(1 0 0 1 682.707 329.7662)" class="st6 st7 st8">Telas de alto rendimiento con bolsillos </text>
		<text transform="matrix(1 0 0 1 682.707 346.9662)" class="st6 st7 st8">traseros y agarres de silicona.</text>
	</g>
	<text transform="matrix(1 0 0 1 589.2803 678.5427)" class="st6 st7 st8">Ø 70 cm</text>
	<g>
		<rect x="185.4" y="440.5" class="st5" width="119.9" height="74"/>
		<text transform="matrix(1 0 0 1 185.3643 450.073)" class="st6 st7 st8">Pedal automático</text>
		<text transform="matrix(1 0 0 1 185.3643 467.273)" class="st6 st7 st8">y zapatillas</text>
		<text transform="matrix(1 0 0 1 185.3643 484.473)" class="st6 st7 st8">Mantienen el pie en la </text>
		<text transform="matrix(1 0 0 1 185.3643 501.573)" class="st6 st7 st8">posición correcta.</text>
	</g>
	<g>
		<g>
			<line class="st9" x1="700.4" y1="858.1" x2="700.4" y2="857.1"/>
			<line class="st10" x1="700.4" y1="855.1" x2="700.4" y2="503.5"/>
			<line class="st9" x1="700.4" y1="502.5" x2="700.4" y2="501.5"/>
		</g>
	</g>
	<g>
		<g>
			<line class="st9" x1="747.1" y1="858.1" x2="747.1" y2="857.1"/>
			<line class="st10" x1="747.1" y1="855.1" x2="747.1" y2="503.5"/>
			<line class="st9" x1="747.1" y1="502.5" x2="747.1" y2="501.5"/>
		</g>
	</g>
	<g>
		<text transform="matrix(1 0 0 1 709.5293 501.511)" class="st6 st7 st8">10 cm</text>
	</g>
	<g>
		<g>
			<line class="st11" x1="703.3" y1="507.7" x2="744.6" y2="507.7"/>
			<g>
				<polygon class="st12" points="703.4,508.1 702.8,507.7 703.4,507.3 				"/>
			</g>
			<g>
				<polygon class="st12" points="744.5,508.1 745.2,507.7 744.5,507.3 				"/>
			</g>
		</g>
	</g>
	<g>
		<rect x="377.7" y="799.3" class="st5" width="166.2" height="59.7"/>
		<text transform="matrix(1 0 0 1 377.6851 810.9353)" class="st6 st7 st8">Marco de carbono</text>
		<text transform="matrix(1 0 0 1 377.6851 828.1353)" class="st6 st7 st8">Peso mínimo 6,8 kg, incluyendo </text>
		<text transform="matrix(1 0 0 1 377.6851 845.3353)" class="st6 st7 st8">fijaciones para accesorios.</text>
	</g>
	<g>
		<rect x="847.9" y="489.6" class="st5" width="120.1" height="97.9"/>
		<text transform="matrix(1 0 0 1 847.9482 501.2473)" class="st6 st7 st8">Zona de control</text>
		<text transform="matrix(1 0 0 1 847.9482 518.4473)" class="st6 st7 st8">Cuanto más adelante </text>
		<text transform="matrix(1 0 0 1 847.9482 535.6473)" class="st6 st7 st8">se coloque el manillar, </text>
		<text transform="matrix(1 0 0 1 847.9482 552.7473)" class="st6 st7 st8">menos maniobrable </text>
		<text transform="matrix(1 0 0 1 847.9482 569.9473)" class="st6 st7 st8">será la bicicleta.</text>
	</g>
	<g>
		<g>
			<line class="st3" x1="893.1" y1="684.9" x2="876.7" y2="684.9"/>
			<g>
				<circle class="st4" cx="876.7" cy="684.9" r="0.8"/>
			</g>
		</g>
	</g>
	<g>
		<line class="st13" x1="878.1" y1="863.1" x2="38.7" y2="863.1"/>
		<line class="st13" x1="878.1" y1="828.7" x2="878.1" y2="863.1"/>
		<line class="st13" x1="38.7" y1="843.8" x2="38.7" y2="863"/>
	</g>
	<g>
		<polygon class="st5" points="479.2,886.1 443.7,886 443.7,870 479.2,870.2 		"/>
		<text transform="matrix(1 0 0 1 444.5 879.6326)" class="st6 st7 st8">185 cm</text>
	</g>
	<g>
		<g>
			<line class="st3" x1="293.9" y1="508.3" x2="293.9" y2="599.3"/>
			<g>
				<circle class="st4" cx="293.9" cy="599.3" r="0.8"/>
			</g>
		</g>
	</g>
	<path class="st14" d="M709.5,855.2c-71.5,0-129.4,1-129.4,2.2s57.9,2.2,129.4,2.2s129.4-1,129.4-2.2S781,855.2,709.5,855.2z"/>
	<path class="st14" d="M207.5,855.2c-71.5,0-129.4,1-129.4,2.2s57.9,2.2,129.4,2.2s129.4-1,129.4-2.2S279,855.2,207.5,855.2z"/>
</g>
</svg>
