<svg xmlns="http://www.w3.org/2000/svg" xmlns:xlink="http://www.w3.org/1999/xlink" x="0px" y="0px" viewBox="0 0 880 900" style="enable-background: new 0 0 880 900;" xml:space="preserve">
    <style type="text/css">
        @import url("https://fonts.googleapis.com/css2?family=Barlow+Semi+Condensed:wght@300;500");
        .st0 {
            opacity: 0.2;
            fill: #43413f;
        }
        .st1 {
            fill: #ffffff;
            stroke: #6f6b6a;
            stroke-width: 0.5;
            stroke-miterlimit: 10;
        }
        .st2 {
            fill: #6f6b6a;
        }
        .st3 {
            fill: #a19d9d;
        }
        .st4 {
            fill: #c6c6c5;
        }
        .st5 {
            fill: #2f2e2d;
        }
        .st6 {
            fill: #575756;
        }
        .st7 {
            fill: #43413f;
        }
        .st8 {
            fill: #868282;
        }
        .st9 {
            fill: #dddbdc;
        }
        .st10 {
            fill: #ececec;
        }
        .st11 {
            fill: #ececec;
            stroke: #6f6b6a;
            stroke-width: 1e-4;
            stroke-miterlimit: 10;
        }
        .st12 {
            fill: #ffffff;
            stroke: #6f6b6a;
            stroke-width: 0.25;
            stroke-miterlimit: 10;
        }
        .st13 {
            fill: #585554;
        }
        .st14 {
            fill: #dddbdc;
            stroke: #6f6b6a;
            stroke-width: 0.25;
            stroke-miterlimit: 10;
        }
        .st15 {
            fill: #bebbbc;
        }
        .st16 {
            fill: #ffffff;
            stroke: #6f6b6a;
            stroke-width: 1e-3;
            stroke-miterlimit: 10;
        }
        .st17 {
            fill: none;
            stroke: #6f6b6a;
            stroke-width: 0.75;
            stroke-miterlimit: 10;
        }
        .st18 {
            fill: none;
        }
        .st19 {
            fill: #1e1e1c;
        }
        .st20 {
            font-family: "Barlow Semi Condensed", sans-serif;
            font-weight: 500;
            font-style: italic;
        }
        .st21 {
            font-size: 20px;
        }
        .st22 {
            font-family: "Barlow Semi Condensed", sans-serif;
            font-weight: 300;
            font-style: italic;
        }
        .st23 {
            fill: none;
            stroke: #1d1d1b;
            stroke-linecap: round;
            stroke-linejoin: round;
        }
        .st24 {
            fill: #1d1d1b;
        }
        #textos {
            opacity: 0;
        }
        svg:hover #textos {
            opacity: 1;
        }
    </style>
    <g id="grafica">
        <ellipse class="st0" cx="201.8" cy="671.9" rx="78.9" ry="2" />
        <ellipse class="st0" cx="524" cy="671.9" rx="78.9" ry="2" />
        <g>
            <g>
                <line class="st1" x1="539.4" y1="576.7" x2="591.6" y2="615" />
                <line class="st1" x1="603" y1="596.8" x2="547.1" y2="559.1" />
                <line class="st1" x1="609.8" y1="576.3" x2="547.1" y2="557.7" />
                <line class="st1" x1="611.7" y1="553.9" x2="546.8" y2="562.9" />
                <line class="st1" x1="608" y1="531.8" x2="546.9" y2="555.7" />
                <line class="st1" x1="598.9" y1="510.7" x2="542.5" y2="545.1" />
                <line class="st1" x1="585.2" y1="493.3" x2="538.8" y2="537.8" />
                <line class="st1" x1="565.5" y1="479" x2="545.8" y2="543" />
                <line class="st1" x1="547.1" y1="472.3" x2="537.2" y2="538.5" />
                <line class="st1" x1="525.9" y1="470.4" x2="527" y2="535.7" />
                <line class="st1" x1="468.8" y1="500" x2="507.9" y2="534.2" />
                <line class="st1" x1="457.5" y1="517.7" x2="506.4" y2="545.2" />
                <line class="st1" x1="450.3" y1="539" x2="508.8" y2="554.6" />
                <line class="st1" x1="448.4" y1="561.5" x2="509.5" y2="554.5" />
                <line class="st1" x1="452.3" y1="584.2" x2="510.4" y2="560.8" />
                <line class="st1" x1="462" y1="605.9" x2="515.7" y2="572.7" />
                <line class="st1" x1="476.4" y1="623.4" x2="519" y2="577.3" />
                <line class="st1" x1="494.9" y1="636.5" x2="519.2" y2="577.2" />
                <line class="st1" x1="515.5" y1="643.6" x2="515.5" y2="572.1" />
                <line class="st1" x1="535.4" y1="644.7" x2="539.4" y2="576.7" />
                <line class="st1" x1="558" y1="639.7" x2="539.4" y2="576.7" />
                <line class="st1" x1="577.4" y1="628.7" x2="542.7" y2="577.3" />
            </g>
            <g>
                <path
                    class="st2"
                    d="M397,629.2c0.1,10-29.5,12.2-47.5,5.5c-18-6.7-15.6-10.2-33.7-16.2c-18.1-6-19.5-11.2-18.4-16.7
				c1.1-5.5,9.8-21.1,13.4-18.6c0.3,0.2,0.6,0.6,0.9,1.2c0.4,0.7,0.8,1.6,1.3,2.7c1.8,3.9,4.2,9.4,8.3,11.3c0.1,0.1,1.4-7,1.6-7
				c2.4,1,2.8,3.6,10,0.8c0.8-0.3,2.8-0.2,3.7-0.6c1.6-0.7,3,2.3,2.7,1c-0.2-0.7-0.5-1.4-0.7-2c0.2,0.5,0.5,1.1,0.8,1.8
				c1.8,3.5,5,8.8,6.5,10.2c2.1,2,23.5,19.1,26.2,20c2.7,0.9,12.1-0.3,12.1-0.3s2.3-1.6,1.3-2.4C391.5,623.3,397,626.1,397,629.2z"
                />
                <path
                    class="st3"
                    d="M392.5,410l-46.7,8.6l-43.4-81.9v0c-1.3-1.9-2.4-4-3.3-6.3c-5.1-12.6-2.1-26.5,6.5-35.9
				c2.6-2.8,5.6-5.2,9.1-7c1-0.5,2.1-1.1,3.2-1.5c11.8-4.8,24.8-2.4,34.1,5c0.1,0,0.1,0.1,0.2,0.1c4.3,3.5,7.9,8.2,10.1,13.7l2,6.8
				v0L392.5,410z"
                />
                <path
                    class="st4"
                    d="M401.7,454.3c-0.1,0.4-0.3,0.7-0.4,1.1c0,0.1,0,0.1-0.1,0.2l-0.4,0.8c0,0,0,0.1-0.1,0.1l-61.3,135.8
				c-0.3-0.7-0.6-1.3-0.8-1.8c0.2,0.6,0.6,1.3,0.7,2l-1.4,3.2c-0.9,0.4-1.8,0.8-2.7,1.1c-7.2,2.8-11.1,2.6-13.5,1.6
				c-0.1-0.1-0.3-0.1-0.4-0.2c-4.1-1.8-6.5-7.4-8.3-11.3c-0.5-1.1-0.9-2-1.3-2.7l50.4-135.1l-16.2-30.6l46.7-8.6l8.8,30.6
				C403,444.8,403.3,449.6,401.7,454.3z"
                />
                <path
                    class="st3"
                    d="M384.3,622.1c0,0-9.4,1.2-12.1,0.3c-2.7-0.8-24.1-18-26.2-20c-1.7-1.6-6-8.8-7.3-12c0-0.1-0.1-0.2-0.1-0.3
				c0-0.1-0.1-0.2-0.1-0.3c0,0,0,0,0,0c-0.1-0.3-0.2-0.6-0.2-0.8c0,0,0,0,0,0c0.1-0.3,0.4-0.7,1-1c0,0,0,0,0,0
				c1.6-0.8,3.7-1.4,5.9-1.8c0.1,0,0.2,0,0.3-0.1c0.6-0.1,1.3-0.2,2.1-0.4c0.2,0,0.3-0.1,0.5-0.1c3.1-0.5,5.9-0.9,6.9-1.3
				c0,0,0,0,0,0s0.2,0.2,0.4,0.6c0.1,0.1,0.1,0.1,0.2,0.2c3.1,4.4,17.4,24.7,20.4,27.3c0,0,0,0,0,0c1.6,1.6,3.5,3.1,5.4,4.4
				c1.2,0.8,2.5,1.6,3.7,2.4c0.1,0,0.1,0.1,0.2,0.1c0.1,0,0.1,0.1,0.1,0.1c0.1,0,0.1,0.1,0.2,0.1c0,0,0,0,0,0
				C386.6,620.5,384.3,622.1,384.3,622.1z"
                />
            </g>
            <g>
                <path
                    class="st5"
                    d="M344,639.2c0-2.1,2.5-3.9,4.8-3.9l11.8-0.1c0.9,0,1.9,0.3,2.8,0.8c1.2,0.7,2,1.8,2,3c0,1.3-0.9,2.4-2,3.1
				c-0.8,0.5-1.7,0.8-2.7,0.8l-11.8,0.1C346.5,643,344,641.3,344,639.2z"
                />
                <path
                    class="st5"
                    d="M337.6,586.2c-0.2-13.5,17.4-12.4,16.9,0.2c0,1.5-0.3,8.1-0.6,16.7c0,0.1,0,0.2,0,0.2c0,0.8-0.1,1.6-0.1,2.5
				c-0.2,6.1-0.5,13.1-0.7,19.7c0,0.1,0,0.2,0,0.3c-0.2,5.5-0.4,7.1-0.6,11.6c-0.4,6.6-1.7,8.6-6.5,8.5c-3.4,0-5.7-3.1-5.4-8.5
				c0-5.5-0.3-25.3-0.7-31.6c-0.1-0.8-1.4-1.4-1.5-2.2c0-0.2,0-0.4,0-0.6C338,596.4,337.6,590.4,337.6,586.2z"
                />
            </g>
            <path
                class="st6"
                d="M346.2,543.3c-22.8,0-41.3,18.5-41.3,41.3c0,22.8,18.5,41.3,41.3,41.3s41.3-18.5,41.3-41.3
			C387.6,561.8,369.1,543.3,346.2,543.3z M346.2,605c-11.1,0-20.1-9-20.1-20.1c0-11.1,9-20.1,20.1-20.1s20.1,9,20.1,20.1
			C366.3,596,357.3,605,346.2,605z"
            />
            <g>
                <g>
                    <circle class="st7" cx="203.3" cy="559.1" r="112.9" />
                    <circle class="st3" cx="203.3" cy="559.1" r="104.5" />
                </g>
                <path
                    class="st8"
                    d="M203.3,536.7c-12.3,0-22.3,10-22.3,22.3c0,12.3,10,22.3,22.3,22.3s22.3-10,22.3-22.3
				C225.6,546.7,215.6,536.7,203.3,536.7z M217.6,556.5l-2.9,5.2l0.4,5.9c0.3,4.9-4.9,8.2-9.2,5.8l-5.2-2.9l-5.9,0.4
				c-4.9,0.3-8.2-4.9-5.8-9.2l2.9-5.2l-0.4-5.9c-0.3-4.9,4.9-8.2,9.2-5.8l5.2,2.9l5.9-0.4C216.7,547,220,552.2,217.6,556.5z"
                />
            </g>
            <path
                class="st9"
                d="M509.1,436.1l-13.9-39.9l-214.6,6c0,0,10.9,58.4,9.5,60.6c-1.4,2.2-93.7,94.8-93.7,98.2
			c0,4.4,35.6,24,41.8,25.7c4.5,1.2,101.9,9,110.2,7.5c9.7-1.6,89.2-102.9,94.9-108.9s20.4-23.6,25.8-26.9
			c5.4-3.3,11.6-5.2,11.6-5.2l-1.8-7.3L509.1,436.1z M318.9,576c0,0-75.8,0.8-79.1,0c-3.3-0.8-24.4-11.7-26.1-12.8
			c-1.6-1.1-2.7-3.8,1.2-7.3c4-3.5,75.7-75,77-73.9c1.4,1.1,20.1,31.1,24.4,47.2C321,546.1,322.6,567.5,318.9,576z M432.7,446.4
			c-4.6,4.2-56.7,67.8-57.6,69.3c-0.6,1.1-2.8,4.5-11.1,4c-11.4-0.7-40,3.6-40.5,1.9c-0.2-1-3.4-26-7.6-51
			c-4.3-25.6-9.6-51.1-9-51.4c2.3-1.2,3.4-4,4.6-5.7c0.8-1.1,95.6,7.9,95.6,7.9s15.2,1.9,18.7,2.2c3.5,0.3,4.1,0.5,5.2,4.3
			c1.1,3.8,2.7,8,3.6,10.5C435.7,441,435.3,444,432.7,446.4z"
            />
            <g>
                <path
                    class="st3"
                    d="M498.1,305.1l-27.8,8.9l-11.7-22.5l-18.2-34.9l-1.5-2.9l37.2-15.7l0,0l0.1,0.3l0.9,2.8l1.6,4.8l5,15.1
				c0,0,0,0,0,0.1l0.4,1.2c0,0,0,0.1,0,0.1L498.1,305.1z"
                />
                <polygon class="st9" points="504.9,326 481.6,335.8 470.3,314.1 498.1,305.1 			" />
            </g>
            <path
                class="st10"
                d="M549.7,243c0,17-13.8,30.8-30.8,30.8c-1.7,0-3.4-0.1-5-0.4c-1.1-0.2-2.2-0.4-3.2-0.7
			c-4.2-1.2-8.1-3.2-11.4-5.9c-0.2-0.2-0.3-0.4-0.5-0.6c-0.4-0.5-0.9-0.9-1.4-1.2c-0.2-0.2-0.4-0.3-0.6-0.4c-1.6-1-3.5-1.6-5.5-1.6
			c-1,0-1.9,0.1-2.8,0.4c-0.9,0.3-1.8,0.7-2.6,1.2c-11.8,4.5-24.9-0.1-31.4-10.5c-0.7-1.2-1.4-2.4-1.9-3.7
			c-5.6-13.3,0.6-28.6,13.9-34.1c10.5-4.4,22.2-1.5,29.5,6.5c0.3-0.4,0.6-0.7,1-1.1c5.6-5.8,13.4-9.3,22.1-9.3
			C535.9,212.2,549.7,226,549.7,243z"
            />
            <polyline class="st11" points="547.8,253.6 546.4,268.6 534.5,263.8 		" />
            <path
                class="st9"
                d="M272.1,356.2c1.4,7.7,8.3,46,8.3,46l22.1-0.6c0,0-7.9-38.6-7.9-41.3s0.2-7.1,2.6-9.6c2.4-2.4,4.3-7.5,1.4-8.4
			s-22.8,0.9-24.7,1.2C270.6,344.1,270,344.8,272.1,356.2z"
            />
            <g>
                <path class="st7" d="M521.3,409.2c-14.9-0.2-35,0-40.1-5.7c-5.1-5.7-0.1-5.9,4.8-6.1s32.7,0,33.5,0L521.3,409.2z" />
                <path
                    class="st7"
                    d="M512.3,432.1c1.1-0.4-0.8-2.2,0.8-2.7c1.6-0.5,18.2-6,20.4-7.8c2.5-2,6.8-6.1,6.6-14.3
				c0-2.6-0.7-2.6-2.2-2.3c-1.5,0.3-0.5,3.3-2.2,4.3s2.4,7.5-11.1,13c-13.6,5.4-15.9,6.9-14.8,8.8
				C510.9,432.9,512.3,432.1,512.3,432.1z"
                />
                <path
                    class="st13"
                    d="M540,405.9c0-1.3-2.2-8.4-10.5-8.5c-8.3-0.1-10.1,0-10.1,0s1.7,11.4,1.8,11.8c0.1,0.4,1.4-1.6,3.7-1.7
				c4.2-0.2,4.5,2.4,6.4,2.4c1.9,0,3.9,0,3.9,0s0.8-0.7,1.3-1.9c0.4-1.1,0.6-2.7,0.9-3C539.8,403.5,540,405.9,540,405.9z"
                />
            </g>
            <g>
                <path
                    class="st8"
                    d="M531,536.7c-12.3,0-22.3,10-22.3,22.3c0,12.3,10,22.3,22.3,22.3s22.3-10,22.3-22.3
				C553.4,546.7,543.4,536.7,531,536.7z M545.3,556.5l-2.9,5.2l0.4,5.9c0.3,4.9-4.9,8.2-9.2,5.8l-5.2-2.9l-5.9,0.4
				c-4.9,0.3-8.2-4.9-5.8-9.2l2.9-5.2l-0.4-5.9c-0.3-4.9,4.9-8.2,9.2-5.8l5.2,2.9l5.9-0.4C544.4,547,547.7,552.2,545.3,556.5z"
                />
                <g>
                    <path
                        class="st7"
                        d="M531,446.2c-62.3,0-112.9,50.5-112.9,112.9c0,62.3,50.5,112.9,112.9,112.9c62.3,0,112.9-50.5,112.9-112.9
					C643.9,496.7,593.4,446.2,531,446.2z M531,664.4c-58.2,0-105.3-47.2-105.3-105.3c0-58.2,47.2-105.3,105.3-105.3
					c58.2,0,105.3,47.2,105.3,105.3C636.4,617.2,589.2,664.4,531,664.4z"
                    />
                    <path
                        class="st3"
                        d="M531,453.7c-58.2,0-105.3,47.2-105.3,105.3c0,58.2,47.2,105.3,105.3,105.3c58.2,0,105.3-47.2,105.3-105.3
					C636.4,500.9,589.2,453.7,531,453.7z M531,638c-43.6,0-78.9-35.3-78.9-78.9c0-43.6,35.3-78.9,78.9-78.9
					c43.6,0,78.9,35.3,78.9,78.9C609.9,602.6,574.6,638,531,638z"
                    />
                </g>
            </g>
            <g>
                <g>
                    <g>
                        <path
                            class="st7"
                            d="M281.5,328c-9.4,0-22.7-0.3-25,0c-2.2,0.3,1.6,1.5,3.9,3.3c2.2,1.7-1.4,4.8,3.4,5.1s29.7,0,29.7,0
						L281.5,328z"
                        />
                    </g>
                    <g>
                        <path
                            class="st7"
                            d="M277.7,343.2c4.4-1.6,15.7-6.8,17.8-6.3c2.1,0.5,7.6,5.3,7.6,5.3l-3.4,1.1c0,0,0.2-1.3-5-1.1
						C289.6,342.4,277.7,343.2,277.7,343.2z"
                        />
                    </g>
                    <polygon class="st5" points="276.4,336.5 282.9,341.1 283.6,340.8 277.4,336.5 				" />
                </g>
            </g>
            <polygon class="st12" points="288,339 285.6,336.5 286.8,336.5 288.7,338.8 		" />
            <circle class="st14" cx="279.9" cy="347.1" r="1.9" />
            <circle class="st14" cx="289.3" cy="347.1" r="1.9" />
            <path
                class="st10"
                d="M448.9,381.2c-0.3,0.3-0.5,0.6-0.8,0.8l-102.5,96.6c-3.3-0.9-7-1.7-9.6-1.4c-1.8,0.2,0.7,6.4-3.6,6.4
			c-10.2-0.1-14.2-2.3-16.2-4.5c-3.8-4.3-2.6-12.9-3-16.7l86.7-87l-19.4-7.3l22.8-43.2l40.1,25.5c1.7,0.8,3.4,2,4.9,3.4
			C456,361.2,456.3,373.5,448.9,381.2z"
            />
            <path
                class="st15"
                d="M387.6,439.1l-42,39.6c-3.3-0.9-7-1.7-9.6-1.4c-1.8,0.2,0.7,6.4-3.6,6.4c-10.2-0.1-14.2-2.3-16.2-4.5
			c-3.8-4.3-2.6-12.9-3-16.7l48.8-49L387.6,439.1z"
            />
            <path
                class="st7"
                d="M484.1,396.5l9-11c0,0,1.6-16,0-19c-1.6-3-4.4-4.2-5-7.3c-0.7-3.1-1.1-6.7,8.7-10.1
			c9.8-3.4,29.7-8.1,43.9-11.4c14.1-3.3,22.2-5.2,30.1-6.5s16-2.2,17.2-2.7c1.2-0.5,12.5-10.1,15.2-14.9c2.7-4.9,13.6-0.8,13.6-0.8
			s-9.9,19.7-17.7,23.4s-69.4,20.5-77.8,26.1c1,13.3,1,23,1,23l-7.7,9.1l1.2,3.4l-33.4,0.8L484.1,396.5z"
            />
            <path class="st12" d="M577.2,303.6c5-0.4,9.8,2.7,11.2,7.8c1.2,4.4-0.5,8.9-3.9,11.5" />
            <path
                class="st11"
                d="M625.5,317.6c-9.2,12.3-32.3,6.1-36.1,4.4c-1.4-0.6-8.5,2.3-8.5,2.3l-5.7-20.3c0,0,16-12.4,21.9-18.4l0,0
			c0.8-0.8,16-4.7,17.1-3.6c0.6,0.7,1.3,1.4,1.9,2l0,0c2.6,2.5,5,4.2,5.2,4.4c0,0,0,0,0,0c0.6,0.3,1.1,1,1.1,1.8c0,1.1-0.9,1.9-2,2
			c-4.4,0.7-5.2-4-7.7-3.7c-3.3,0.4-6.8,0.5-8.5,2c-1.2,1.1,0,2.5,2.8,4.1c2.9,1.5,15.3,2.3,15.3,2.3l1.6,0.1l6.6,1.1
			c1.1,0,2,1.1,2,2.2c0,1.1-0.6,2.7-1.8,2.7l-6.6,1.8l-16.1-0.8h-1l17.1,0.8l7.3-2l1-0.3c1.1,0,2,0.9,2,2c0,1.1-0.7,1.8-1.9,2.5
			l-5.4,2.7l-3,1.8l-22.3,0c0,0,22.3,0,22.3,0c0,0,2.3-1.3,3-1.8c1.7-1.2,3.7,2.2,3.7,3.3c0,1.1-0.8,1.9-1.9,2.6l-4.6,2.3l-3.1,1.9
			l-19.5-1.5"
            />
            <path
                class="st11"
                d="M631.5,298.5c1.3,0.6,4.4-2.6,4.6-5c0.1-2.4-1.2-0.4-7.4-2c-2.2-0.6-4.3-1.1-6.2-1.5c0,1.7-1.8,2.2-3,2.2
			c-3,0-4.4-2.9-4.6-2.7c-2.3,0.7-2.9,0.8-9.9,3.5c0,0,1.2,1.5,4.3,2.3c3.1,0.7,8.7,1.3,9.6,1.3c0.9,0.1,5.1,0.4,6.3,0.6
			C626.4,297.5,631.3,298.4,631.5,298.5z"
            />
            <path
                class="st2"
                d="M495,227.6c0,0,2,22.9,5.7,24.5l6.9-7.4l4.5,3.7c0,0-9.3,8.3-10.1,11.5s-2.4,7.4,1.6,10.7c0,0-9-4.9-9-6.6
			c0-1.8,1.2-3.4,1.3-8.4c0.1-5.1-0.4-7.8-1.9-9.9s-5.7-20-3.7-22.5L495,227.6z"
            />
            <path
                class="st9"
                d="M530.9,253.6c0,0,7.1,3.7,13.3,2.8c5.3-0.7,5,1.8,6.2,1.7c1.2-0.1,15.2-4.5,21.8-21.6c0,0-19.6-11-27-12.6
			s-11.5-3.1-15.8,1.5C525,230,523.8,248.3,530.9,253.6z"
            />
            <line class="st16" x1="528.8" y1="272.2" x2="523" y2="268.6" />
            <line class="st12" x1="490.2" y1="314.1" x2="489.7" y2="314.3" />
            <g>
                <g>
                    <g>
                        <path
                            class="st9"
                            d="M539,563c0,0-25.3,2.4-26.9,0c-1.6-2.4-10.3-26.6-10.3-26.6l5.4-9l-26.4-70.1c0,0-0.8-11.4-2.2-11.4
						s30.2-9.8,30.2-9.8s3.5,1.6,2.2,4.2c-1.4,2.6-1.4,15.6,4.1,33.3S539,563,539,563z"
                        />
                    </g>
                </g>
            </g>
            <path
                class="st10"
                d="M581.8,323.9c-21.4,7.4-86.1,25.4-86.1,25.4l-0.5,0.2c-6.2,1.7-12.7-1.5-15.1-7.3l-13.9-26.5l27.5-12.5
			l6.2,19l75.4-19.5c0.7-0.2,1.3-0.3,2-0.4"
            />
            <path
                class="st15"
                d="M476.2,249.6l0.9,2.7l5,15.1c0,0,0,0,0,0.1l0.4,1.2c0,0,0,0.1,0,0.1l11.3,34.5l-27.5,12.5L457,298
			l-18.2-34.9"
            />
            <polyline class="st15" points="466.2,315.6 457,298 452.6,289.5 		" />
            <path
                class="st15"
                d="M445.8,196.6c0-4.8,63.3-28,85.8-23.9c22.5,4.1,43.5,23.1,43.5,44s-3,19.8-3,19.8s-25.8-15.5-37.6-14.1
			c-11.8,1.4-9.6,28.3-3.7,31.3c0,0-19,0.3-26.1-12.8s-17.9-21.5-25-23.1S446.7,205.8,445.8,196.6z"
            />
            <g>
                <g>
                    <path
                        class="st5"
                        d="M351.8,580.7c0.2,13.3-16.8,11.9-16.3-0.5c0.1-1.5,5.3-46.2,5.5-50.6c2.9-0.1,2.1,0.1,2.1,0.1
					s3.5-0.1,7.4,0C350.8,534.1,351.7,576.7,351.8,580.7z"
                    />
                    <path class="st5" d="M341,539.1l-6.1-2.6c-4.7-2-8.3-5.8-9.9-10.3l-1.1-3.1H341V539.1z" />
                </g>
            </g>
            <path
                class="st7"
                d="M372.4,538.6c-4.1,9.2-31.9-1.1-45.5-14.7c-13.6-13.5-10-15.8-23.9-28.7c-14-12.9-13.2-18.2-9.9-22.8
			c3.3-4.6,17.6-15.1,19.9-11.4c0.2,0.3,0.3,0.8,0.4,1.5c0.4,3.8-0.8,12.4,3,16.7c1.9,2.2,6,4.4,16.2,4.5c4.3,0.1,1.8-6.2,3.6-6.4
			c2.6-0.3,6.3,0.5,9.6,1.4c3.1,0.8,5.9,1.7,7,1.7c0,0,4.3,22.2,6.6,31.5c0.8,3.2,2.3,6.3,4,9.2
			C367.7,528.7,373.9,535.1,372.4,538.6z"
            />
            <path
                class="st15"
                d="M363.7,526.9c0,0-9.1-2.8-11.2-4.7c-2.1-1.9-14.5-26.4-15.6-29.1c-1.1-2.7-2.2-14.4-1.5-15.4
			s4.5-0.4,7.4,0.3c2.9,0.7,9.7,2.3,9.7,2.3s5.7,30.5,7.5,34.4c2.2,4.7,4.9,9.2,5.8,10.4C366.6,526.3,363.7,526.9,363.7,526.9z"
            />
            <path
                class="st15"
                d="M375.9,307.4c1.7-0.7,3.4-1.4,5-2.2c-4.7-2.7-14.3-7.9-24.8-10.4c-1.1-0.3-2.2-0.5-3.3-0.7
			c-6.6-1.2-11.5-4.3-15.4-8.2c-1.7-1.7-3.3-3.6-4.7-5.5c-0.7-0.6-0.7-0.9-0.7-0.9c-2.7-3.8-5-7.7-7.2-10.8
			c-6.1-8.4-14.7-6.7-21.6-7.5c-3.6-0.4-6.6-1.8-8.8-3c-1.8,3-3.5,6.1-5.2,9.4c-4.5,8.2-9.2,16.3-11.9,25.7
			c-1.4,3.7-2.1,7.5-2.2,11.3c-0.2,12.7,6.7,25.1,18.9,31.2c2.2,1.1,4.4,1.9,6.7,2.5l79.8,30l33.2-36.6L375.9,307.4z"
            />
            <path
                class="st15"
                d="M478.3,230.7c-0.5,1.3-2.6,12.4-2.4,15c0.2,3.7,1.2,7.8,0.5,11.3c-1.8,10.2-7.1,19.6-15,26.5
			c-3.9,3.4-8.4,6.1-13.5,8c-0.8,0.3-1.5,0.6-2.3,0.8c-0.6,0.2-1.2,0.4-1.8,0.6c-5.6,1.5-11.2,2-16.7,1.4c-0.1,0.6-10-2.5-15.6-2.7
			c-0.4,0-0.8,0-1.2,0c-6.6,0-12.7,1.9-17.8,5.3c-1.9,1.3-3.7,2.7-5.4,4.4c-2,1.4-4,2.6-6.2,3.8c-4.7-2.7-14.3-7.9-24.8-10.4
			c-1.1-0.3-2.2-0.5-3.3-0.7c-6.6-1.2-11.5-4.3-15.4-8.2c-1.5-1.5-2.9-3.2-4.7-5.5c-0.6-0.7-0.7-0.9-0.7-0.9
			c-2.7-3.8-5-7.7-7.2-10.8c-6.1-8.4-14.7-6.7-21.6-7.5c-3.6-0.4-6.6-1.8-8.8-3c5.7-9.4,12.2-17.6,19.4-26.5
			c7.7-8.7,16-14.1,26.9-20.7c0,0,13-6,19.9-8.4c11.1-3.8,21.8-7.3,33.9-7.3c6.6,0,47.4,3.8,55.9,8.5c7.5,4.1,12.7,9.1,25.4,12.7
			C478.6,217.4,479.3,227.9,478.3,230.7z"
            />
            <path
                class="st17"
                d="M380.8,305.2c-4.7-2.7-14.3-7.9-24.8-10.4c-1.1-0.3-2.2-0.5-3.3-0.7c-6.6-1.2-11.5-4.3-15.4-8.2
			c-1.5-1.5-2.9-3.2-4.7-5.5c-0.6-0.7-0.7-0.9-0.7-0.9c-2.7-3.8-5-7.7-7.2-10.8c-6.1-8.4-14.7-6.7-21.6-7.5c-3.6-0.4-6.6-1.8-8.8-3"
            />
            <line class="st17" x1="452.6" y1="289.5" x2="438.8" y2="263.1" />
        </g>
    </g>
    <g id="textos">
        <g>
            <rect x="410" y="731.2" class="st18" width="284.1" height="155.9" />
            <text transform="matrix(1 0 0 1 410.0337 751.8857)">
                <tspan x="0" y="0" class="st19 st20 st21">Geometría</tspan>
                <tspan x="0" y="37" class="st19 st22 st21">Con forma de kammtail</tspan>
                <tspan x="0" y="74" class="st19 st22 st21">para ofrecer la mínima</tspan>
                <tspan x="0" y="111" class="st19 st22 st21">resistencia al viento.</tspan>
            </text>
        </g>
        <g>
            <rect x="643.7" y="287.8" class="st18" width="187.5" height="242.7" />
            <text transform="matrix(1 0 0 1 643.6816 308.5015)">
                <tspan x="0" y="0" class="st19 st20 st21">Extensiones de</tspan>
                <tspan x="0" y="37" class="st19 st20 st21">manillar</tspan>
                <tspan x="0" y="74" class="st19 st22 st21">Posición ayuda a</tspan>
                <tspan x="0" y="111" class="st19 st22 st21">cortar el viento y</tspan>
                <tspan x="0" y="148" class="st19 st22 st21">ahorrar energía.</tspan>
            </text>
        </g>
        <g>
            <rect x="55.5" y="732.4" class="st18" width="270.6" height="140.1" />
            <text transform="matrix(1 0 0 1 55.5005 753.1318)">
                <tspan x="0" y="0" class="st19 st20 st21">Rueda lenticular</tspan>
                <tspan x="0" y="37" class="st19 st22 st21">Reduce las turbulencias</tspan>
                <tspan x="0" y="74" class="st19 st22 st21">producidas por el paso</tspan>
                <tspan x="0" y="111" class="st19 st22 st21">del aire.</tspan>
            </text>
        </g>
        <g>
            <rect x="58.5" y="249.5" class="st18" width="197.3" height="205.3" />
            <text transform="matrix(1 0 0 1 58.5376 270.187)">
                <tspan x="0" y="0" class="st19 st22 st21">El cuerpo del</tspan>
                <tspan x="0" y="37" class="st19 st22 st21">ciclista genera</tspan>
                <tspan x="0" y="74" class="st19 st22 st21">una resistencia</tspan>
                <tspan x="0" y="111" class="st19 st22 st21">del 80% al</tspan>
                <tspan x="0" y="148" class="st19 st22 st21">atravesar el aire.</tspan>
            </text>
        </g>
        <g>
            <rect x="55.5" y="38.9" class="st18" width="340.2" height="110.3" />
            <text transform="matrix(1 0 0 1 55.5405 59.6323)">
                <tspan x="0" y="0" class="st19 st22 st21">Se usan materiales que</tspan>
                <tspan x="0" y="37" class="st19 st22 st21">reduzcan al máximo la fricción</tspan>
                <tspan x="0" y="74" class="st19 st22 st21">que se genera con el aire.</tspan>
            </text>
        </g>
        <g>
            <rect x="691.1" y="547" class="st18" width="180.4" height="132.8" />
            <text transform="matrix(1 0 0 1 691.0938 567.7646)">
                <tspan x="0" y="0" class="st19 st20 st21">Rueda</tspan>
                <tspan x="0" y="37" class="st19 st20 st21">delantera</tspan>
                <tspan x="0" y="74" class="st19 st22 st21">Mínimo de 12</tspan>
                <tspan x="0" y="111" class="st19 st22 st21">rayos.</tspan>
            </text>
        </g>
        <g>
            <rect x="612.7" y="28.2" class="st18" width="216.4" height="208.4" />
            <text transform="matrix(1 0 0 1 612.7402 48.9194)">
                <tspan x="0" y="0" class="st19 st20 st21">Casco</tspan>
                <tspan x="0" y="37" class="st19 st22 st21">Guía el flujo de aire,</tspan>
                <tspan x="0" y="74" class="st19 st22 st21">para que continúe</tspan>
                <tspan x="0" y="111" class="st19 st22 st21">ceñido al cuerpo</tspan>
                <tspan x="0" y="148" class="st19 st22 st21">del ciclista.</tspan>
            </text>
        </g>
        <path
            class="st18"
            d="M530,446.7c-7.1,0-14,0.7-20.7,1.9c-0.8-6,3.1-10.1-1.5-11.9c0,0-0.1,0-0.2,0.1l0.4-0.1l-9.6-27.5
		c7.1,0.5,15,0.5,21.8,0.6c0.1,0.4,1.4-1.6,3.7-1.7c4.2-0.2,4.5,2.4,6.4,2.4s3.9,0,3.9,0c-0.4,2.1,0.9,7.6-10.7,12.2
		c-13.6,5.4-15.9,6.9-14.8,8.8c1.1,1.9,2.4,1.1,2.4,1.1c1.1-0.4-0.8-2.2,0.8-2.7c10-4.3,29.4-5.2,27-22.1c-0.1-0.7-0.1-1.4-0.1-1.4
		c-1.2-11.6-19.1-8-24.3-8.5l-1.2-3.2l7.7-9.1c0,0,0-9.6-1-23c17.1-11.5,78.9-17.5,88.2-37.2c6.1-0.4,12.2-2.4,16-7.4
		c1.6-0.9,5.6-2.1,5.5-4.4c0-1-1.8-4-3.4-3.5c1.6-1.1,7.2-2.6,7-5.1c0-1.8-1.9-2.4-3.3-1.7c1.4-0.9,1.7-3.6,0.2-4.5
		c1.3,0.6,4.4-2.6,4.6-5c0.1-2.4-1.2-0.4-7.4-2c-2.2-0.6-4.3-1.1-6.2-1.5c0,0,0,0,0,0c-0.5-2.4-5.7-4.5-8.2-8.2
		c-1.1-1.1-16.3,2.8-17.1,3.6c-4.6,4.7-15.3,13.2-19.8,16.7c-1.7,0-72.1,18.6-73.9,19c-3.5-10.6-14.8-45.3-18.5-56.5
		c3-1.4,6.4-2.7,9.7-1.3c-1,2.3,8.9,7,8.9,7.3c-0.8-0.7-1.3-1.4-1.7-2.1c11.2,7.9,28.2,6.5,37.8-2.8l6.7,2.7l1.2-12
		c1.9,0.5,2,1.7,2.9,1.6c1.2-0.1,15.2-4.5,21.8-21.6l0,0c11.7-23.7-6.4-58-40.5-63.8c-21.1-2.6-107.1,19-79.8,32
		c-8.9-5.9-50-9.1-57.4-9.4c-30.2,1.9-61.5,15.8-80.7,36.3c-23.4,28.4-67.1,90.8-9.9,107.8l32.5,61.2l-33.9,0.9
		c-0.2-8.1-12.6-43-5.3-50.8c2.3-2.3,4-6.9,1.9-8.1c0.7,0.3,0.6,0.6,0.6,0.6l3.4-1.1c-4.6-3.6-6.5-7.4-14.8-3.2l0.4-0.2l-1.9-2.3
		l-1.2-0.1l2.5,2.6c-1.5,0.6-3.1,1.3-4.6,1.9l0.2-0.1l-6.2-4.3c7.9,0,16.1-0.1,16.1-0.1l-12-8.4c-9.4,0-22.7-0.3-25,0
		s1.6,1.5,3.9,3.3s-1.4,4.8,3.4,5.1c1.9,0.1,7.2,0.1,12.7,0.1l-0.1,0l6.5,4.6c-2.1,0.9-3.9,1.6-5.2,2.1c0,0,0,0,0,0
		c-7.5,1.1-7.9-1.2-5.6,13c1.4,7.7,8.3,46,8.3,46l0.2,0c0.4,2.1,10.8,58.4,9.5,60.5c-0.3,0.5-4.8,5.1-11.6,12.1
		c-67.8-64.8-191.3-11.1-188,84.2C87.4,675.4,250,714.5,301.7,613.1c2.9,1.9,7,3.8,13.1,5.8c14.4,4.8,15.8,8,24.8,12.5
		c0.1,6.1-1.1,15.2,5.4,15.2c3,0,4.6-0.8,5.5-3.1c3.6-0.4,14.7,1.8,13.6-4.8c15.7,1.6,31.9-1.5,31.8-8.9c-0.7-5.4-16-10.7-20.7-16.2
		c13-12.8,15-36.6,4.1-51.5c26.3-30.7,59.3-72.4,62.9-76.1c9.3-10.2,25-30.3,37.2-32c0.4,2.9,0.2,3.8,0.6,4.6
		c-105,49.2-68,216.1,50,214.1C678.4,669.9,678.4,449.2,530,446.7z"
        />
        <g>
            <g>
                <polyline class="st23" points="356.3,140.3 356.3,164.3 356.3,195.3 			" />
                <g>
                    <path
                        class="st24"
                        d="M354.8,195.3c0,0.8,0.7,1.5,1.5,1.5c0.8,0,1.5-0.7,1.5-1.5c0-0.8-0.7-1.5-1.5-1.5
					C355.4,193.8,354.8,194.5,354.8,195.3z"
                    />
                </g>
            </g>
        </g>
        <g>
            <g>
                <polyline class="st23" points="147.4,715.9 147.4,670.8 147.4,635.8 			" />
                <g>
                    <circle class="st24" cx="147.4" cy="635.8" r="1.5" />
                </g>
            </g>
        </g>
        <g>
            <g>
                <polyline class="st23" points="410.7,711.1 410.7,600.9 410.7,515.6 			" />
                <g>
                    <circle class="st24" cx="410.7" cy="515.6" r="1.5" />
                </g>
            </g>
        </g>
        <g>
            <g>
                <polyline class="st23" points="238,258.1 282.7,258.1 317.3,258.1 			" />
                <g>
                    <circle class="st24" cx="317.3" cy="258.1" r="1.5" />
                </g>
            </g>
        </g>
        <g>
            <g>
                <polyline class="st23" points="634.6,343 598.6,343 570.7,343 			" />
                <g>
                    <circle class="st24" cx="570.7" cy="343" r="1.5" />
                </g>
            </g>
        </g>
        <g>
            <g>
                <polyline class="st23" points="685,559.1 652.4,559.1 627.2,559.1 			" />
                <g>
                    <circle class="st24" cx="627.2" cy="559.1" r="1.5" />
                </g>
            </g>
        </g>
        <g>
            <g>
                <polyline class="st23" points="600.5,181.6 562.1,181.6 532.2,181.6 			" />
                <g>
                    <path
                        class="st24"
                        d="M532.2,180.1c-0.8,0-1.5,0.7-1.5,1.5c0,0.8,0.7,1.5,1.5,1.5c0.8,0,1.5-0.7,1.5-1.5
					C533.7,180.8,533.1,180.1,532.2,180.1z"
                    />
                </g>
            </g>
        </g>
    </g>
</svg>
