<svg xmlns="http://www.w3.org/2000/svg" xmlns:xlink="http://www.w3.org/1999/xlink" viewBox="0 0 690 510">
<style type="text/css">
	@import url('https://fonts.googleapis.com/css2?family=Barlow+Semi+Condensed:wght@500;700');
	.st0{opacity:0.2;fill:#43413F;}
	.st1{fill:none;stroke:#1D1E1C;stroke-width:0.5;stroke-miterlimit:10;}
	.st2{fill:#1D1E1C;}
	.st3{fill:none;}
	.st4{fill:#1E1E1C;}
	.st5{font-family:'Barlow Semi Condensed', sans-serif;
		font-weight: 700;
		font-style: bold;}
	.st6{font-size:11px;}
	.st7{font-family:'Barlow Semi Condensed', sans-serif;
		font-weight: 500;
		font-style: medium;}
	.st8{font-size:10px;}
	.st9{fill:none;stroke:#CC1719;stroke-linecap:round;stroke-linejoin:round;}
	.st10{fill:none;stroke:#CC1719;stroke-linecap:round;stroke-linejoin:round;stroke-dasharray:1.9986,1.9986;}
	.st11{fill:none;stroke:#1D1D1B;stroke-width:0.5;stroke-miterlimit:10;}
	.st12{fill:#1D1D1B;}
	.st13{fill:#FFFFFF;stroke:#1D1D1B;stroke-width:0.5;stroke-linecap:round;stroke-miterlimit:10;}
	.st14{fill:none;stroke:#1D1D1B;stroke-width:0.5;stroke-linecap:round;stroke-miterlimit:10;}
	.st15{fill:none;stroke:#000000;stroke-width:0.5;stroke-linecap:round;stroke-linejoin:round;}
	#texto1{
		opacity:0;
	}
	svg:hover #texto1{
		opacity:100;
	}
</style>
	<g id="Capa_1">
	<g id="imagen2">
		
			<image style="overflow:visible;" width="3538" height="3034" xlink:href="C317E60C.png"  transform="matrix(0.1482 0 0 0.1482 43.9798 31.9618)">
		</image>
		<path class="st0" d="M462.6,477.4c-44.1,0-79.9,0.6-79.9,1.4c0,0.8,35.8,1.4,79.9,1.4s79.9-0.6,79.9-1.4
			C542.5,478,506.7,477.4,462.6,477.4z"/>
		<path class="st0" d="M152.6,477.4c-44.1,0-79.9,0.6-79.9,1.4c0,0.8,35.8,1.4,79.9,1.4s79.9-0.6,79.9-1.4
			C232.6,478,196.8,477.4,152.6,477.4z"/>
	</g>
	<g id="texto1">
		<g>
			<g>
				<line class="st1" x1="441.4" y1="138.7" x2="367.3" y2="138.7"/>
				<g>
					<path class="st2" d="M367.3,138c-0.4,0-0.8,0.3-0.8,0.8c0,0.4,0.3,0.8,0.8,0.8s0.8-0.3,0.8-0.8
						C368.1,138.3,367.7,138,367.3,138z"/>
				</g>
			</g>
		</g>
		<g>
			<g>
				<line class="st1" x1="102" y1="139.4" x2="201.6" y2="139.4"/>
				<g>
					<circle class="st2" cx="201.6" cy="139.4" r="0.8"/>
				</g>
			</g>
		</g>
		<g>
			<g>
				<line class="st1" x1="304.8" y1="439.4" x2="304.8" y2="369"/>
				<g>
					<circle class="st2" cx="304.8" cy="369.1" r="0.8"/>
				</g>
			</g>
		</g>
		<g>
			<g>
				<line class="st1" x1="543.7" y1="255.8" x2="487.5" y2="255.8"/>
				<g>
					<circle class="st2" cx="487.5" cy="255.8" r="0.8"/>
				</g>
			</g>
		</g>
		<g>
			<g>
				<polyline class="st1" points="345.7,45.8 358.3,45.8 367.7,45.8 				"/>
				<g>
					<circle class="st2" cx="367.7" cy="45.8" r="0.8"/>
				</g>
			</g>
		</g>
		<g>
			<g>
				<polyline class="st1" points="498.6,192.9 470,192.9 447.9,192.9 				"/>
				<g>
					<circle class="st2" cx="447.9" cy="192.9" r="0.8"/>
				</g>
			</g>
		</g>
		<g>
			<g>
				<line class="st1" x1="435.6" y1="97.2" x2="497.2" y2="97.2"/>
				<g>
					<circle class="st2" cx="435.6" cy="97.2" r="0.8"/>
				</g>
			</g>
		</g>
		<g>
			<rect x="502.5" y="188.2" class="st3" width="101.5" height="33.8"/>
			<text transform="matrix(1 0 0 1 502.4795 197.5195)"><tspan x="0" y="0" class="st4 st5 st6">Guantes</tspan><tspan x="0" y="11" class="st4 st7 st8">No deben restringir el </tspan><tspan x="0" y="22" class="st4 st7 st8">movimiento de los dedos.</tspan></text>
		</g>
		<g>
			<rect x="501.4" y="71.5" class="st3" width="102.6" height="32.5"/>
			<text transform="matrix(1 0 0 1 501.3574 80.8096)"><tspan x="0" y="0" class="st4 st5 st6">Lentes</tspan><tspan x="0" y="11" class="st4 st7 st8">Protege del sol, viento e </tspan><tspan x="0" y="22" class="st4 st7 st8">impacto con partículas.</tspan></text>
		</g>
		<g>
			<rect x="6" y="281.4" class="st3" width="57" height="34.1"/>
			<text transform="matrix(1 0 0 1 6 290.7539)"><tspan x="0" y="0" class="st4 st5 st6">Ruedas</tspan><tspan x="0" y="11" class="st4 st7 st8">Equivalente a </tspan><tspan x="0" y="22" class="st4 st7 st8">un aro 28.</tspan></text>
		</g>
		<g>
			<rect x="30" y="135.4" class="st3" width="150.2" height="58.1"/>
			<text transform="matrix(1 0 0 1 30 143.1294)"><tspan x="0" y="0" class="st4 st5 st6">Shorts o culotte</tspan><tspan x="0" y="11" class="st4 st7 st8">Materiales compresivos, con un </tspan><tspan x="0" y="22" class="st4 st7 st8">acolchado que soporta la estructura </tspan><tspan x="0" y="33" class="st4 st7 st8">ósea y amortigua zonas sensibles.</tspan></text>
		</g>
		<g>
			<rect x="195" y="29.5" class="st3" width="150.4" height="41.6"/>
			<text transform="matrix(1 0 0 1 195 37.2002)"><tspan x="0" y="0" class="st4 st5 st6">Casco</tspan><tspan x="0" y="11" class="st4 st7 st8">Obligatorio durante las competencias, </tspan><tspan x="0" y="22" class="st4 st7 st8">su composición no está regulada.</tspan></text>
		</g>
		<g>
			<rect x="445" y="135.4" class="st3" width="155" height="39.5"/>
			<text transform="matrix(1 0 0 1 445.0352 143.1191)"><tspan x="0" y="0" class="st4 st5 st6">Jersey o maillot</tspan><tspan x="0" y="11" class="st4 st7 st8">Telas de alto rendimiento con bolsillos </tspan><tspan x="0" y="22" class="st4 st7 st8">traseros y agarres de silicona.</tspan></text>
		</g>
		<g>
			<text transform="matrix(1 0 0 1 383.0957 368.3213)" class="st4 st7 st8">Ø 70 cm</text>
		</g>
		<g>
			<rect x="120.1" y="216.9" class="st3" width="82.9" height="55.6"/>
			<text transform="matrix(1 0 0 1 120.0537 224.5776)"><tspan x="0" y="0" class="st4 st5 st6">Pedal automático </tspan><tspan x="0" y="11" class="st4 st5 st6">y zapatillas</tspan><tspan x="0" y="22" class="st4 st7 st8">Mantienen el pie en </tspan><tspan x="0" y="33" class="st4 st7 st8">la posición correcta.</tspan></text>
		</g>
		<g>
			<g>
				<line class="st9" x1="457" y1="477.3" x2="457" y2="476.3"/>
				<line class="st10" x1="457" y1="474.4" x2="457" y2="259.5"/>
				<line class="st9" x1="457" y1="258.5" x2="457" y2="257.5"/>
			</g>
		</g>
		<g>
			<g>
				<line class="st9" x1="485.8" y1="477.3" x2="485.8" y2="476.3"/>
				<line class="st10" x1="485.8" y1="474.4" x2="485.8" y2="259.5"/>
				<line class="st9" x1="485.8" y1="258.5" x2="485.8" y2="257.5"/>
			</g>
		</g>
		<g>
			<text transform="matrix(1 0 0 1 460.6113 258.166)" class="st4 st7 st8">10 cm</text>
		</g>
		<g>
			<g>
				<line class="st11" x1="459.5" y1="259.5" x2="483.5" y2="259.5"/>
				<g>
					<polygon class="st12" points="459.7,260.3 458.4,259.5 459.7,258.8 					"/>
				</g>
				<g>
					<polygon class="st12" points="483.3,260.3 484.6,259.5 483.3,258.8 					"/>
				</g>
			</g>
		</g>
		<g>
			<rect x="249.7" y="439.8" class="st3" width="127.3" height="36.8"/>
			<text transform="matrix(1 0 0 1 249.708 449.1982)"><tspan x="0" y="0" class="st4 st5 st6">Marco de carbono</tspan><tspan x="0" y="11" class="st4 st7 st8">Peso mínimo 6,8 kg, incluyendo </tspan><tspan x="0" y="22" class="st4 st7 st8">fijaciones para accesorios.</tspan></text>
		</g>
		<g>
			<rect x="548.1" y="251.6" class="st3" width="137.9" height="60.4"/>
			<text transform="matrix(1 0 0 1 548.0576 260.9907)"><tspan x="0" y="0" class="st4 st5 st6">Zona de control</tspan><tspan x="0" y="11" class="st4 st7 st8">Cuanto más adelante se coloque el </tspan><tspan x="0" y="22" class="st4 st7 st8">manillar, menos maniobrable será </tspan><tspan x="0" y="33" class="st4 st7 st8">la bicicleta.</tspan></text>
		</g>
		<g>
			<g>
				<line class="st1" x1="44" y1="288.1" x2="91.5" y2="288.1"/>
				<g>
					<circle class="st2" cx="91.5" cy="288.1" r="0.8"/>
				</g>
			</g>
		</g>
		<g>
			<line class="st13" x1="566.6" y1="482.3" x2="48.4" y2="482.3"/>
			<line class="st14" x1="566.6" y1="461" x2="566.6" y2="482.3"/>
			<line class="st13" x1="48.4" y1="470.4" x2="48.4" y2="482.2"/>
		</g>
		<g>
			<polygon class="st3" points="338,496.5 298.5,496.4 298.5,486.5 338,486.7 			"/>
			<text transform="matrix(1 0 0 1 298.4785 493.5361)" class="st4 st7 st8">185 cm</text>
		</g>
		<g>
			<g>
				<line class="st1" x1="203" y1="258.5" x2="203" y2="317.4"/>
				<g>
					<circle class="st2" cx="203" cy="317.4" r="0.8"/>
				</g>
			</g>
		</g>
		<line class="st15" x1="347.9" y1="370.9" x2="564.6" y2="370.9"/>
	</g>
</g>
<g id="Capa_2">
</g>
</svg>
