<svg xmlns="http://www.w3.org/2000/svg" xmlns:xlink="http://www.w3.org/1999/xlink" viewBox="0 0 657.5 831">
<style type="text/css">
	@import url('https://fonts.googleapis.com/css2?family=Barlow+Semi+Condensed:wght@500;700');
	.st0{opacity:0.2;fill:#43413F;}
	.st1{fill:none;stroke:#1D1E1C;stroke-width:0.5;stroke-miterlimit:10;}
	.st2{fill:#1D1E1C;}
	.st3{fill:none;stroke:#CC1719;stroke-linecap:round;stroke-linejoin:round;}
	.st4{fill:none;stroke:#CC1719;stroke-linecap:round;stroke-linejoin:round;stroke-dasharray:1.9986,1.9986;}
	.st5{fill:none;stroke:#1D1D1B;stroke-width:0.5;stroke-miterlimit:10;}
	.st6{fill:#1D1D1B;}
	.st7{fill:#FFFFFF;stroke:#1D1D1B;stroke-width:0.5;stroke-linecap:round;stroke-miterlimit:10;}
	.st8{fill:none;stroke:#1D1D1B;stroke-width:0.5;stroke-linecap:round;stroke-miterlimit:10;}
	.st9{fill:none;stroke:#000000;stroke-width:0.5;stroke-linecap:round;stroke-linejoin:round;}
	.st10{fill:none;}
	.st11{fill:#1E1E1C;}
	.st12{font-family:'Barlow Semi Condensed', sans-serif;
		font-weight: 700;
		font-style: bold;}
	.st13{font-size:14px;}
	.st14{font-family:'Barlow Semi Condensed', sans-serif;
		font-weight: 500;
		font-style: medium;}
	.st15{font-size:12px;}
</style>
	<g id="Capa_1">
</g>
<g id="Capa_2">
	<g id="imagen3">
		
			<image style="overflow:visible;" width="2709" height="3039" xlink:href="CC60252D.png"  transform="matrix(0.24 0 0 0.24 0.34 83.8)">
		</image>
		<path class="st0" d="M479,806.2c-71.5,0-129.4,1-129.4,2.2s57.9,2.2,129.4,2.2s129.4-1,129.4-2.2S550.5,806.2,479,806.2z"/>
		<path class="st0" d="M-23,806.2c-71.5,0-129.4,1-129.4,2.2s57.9,2.2,129.4,2.2s129.4-1,129.4-2.2S48.5,806.2-23,806.2z"/>
	</g>
	<g id="texto2">
		<g>
			<g>
				<line class="st1" x1="410.5" y1="249.7" x2="324.7" y2="249.7"/>
				<g>
					<circle class="st2" cx="324.7" cy="249.7" r="0.8"/>
				</g>
			</g>
		</g>
		<g>
			<g>
				<line class="st1" x1="46.4" y1="144" x2="46.4" y2="258.8"/>
				<g>
					<circle class="st2" cx="46.4" cy="258.8" r="0.8"/>
				</g>
			</g>
		</g>
		<g>
			<g>
				<line class="st1" x1="508.5" y1="397.5" x2="364.5" y2="397.5"/>
				<g>
					<circle class="st2" cx="364.5" cy="397.5" r="0.8"/>
				</g>
			</g>
		</g>
		<g>
			<g>
				<polyline class="st1" points="422.7,85.2 422.7,103.2 422.7,116.8 				"/>
				<g>
					<path class="st2" d="M422,116.8c0,0.4,0.3,0.8,0.8,0.8s0.8-0.3,0.8-0.8c0-0.4-0.3-0.8-0.8-0.8S422,116.4,422,116.8z"/>
				</g>
			</g>
		</g>
		<g>
			<g>
				<polyline class="st1" points="410.3,322 410.3,335.2 410.3,345.4 				"/>
				<g>
					<path class="st2" d="M409.5,345.4c0,0.4,0.3,0.8,0.8,0.8c0.4,0,0.8-0.3,0.8-0.8c0-0.4-0.3-0.8-0.8-0.8
						C409.8,344.6,409.5,345,409.5,345.4z"/>
				</g>
			</g>
		</g>
		<g>
			<g>
				<line class="st1" x1="427.9" y1="190.4" x2="457.5" y2="190.4"/>
				<g>
					<path class="st2" d="M427.9,191.1c-0.4,0-0.8-0.3-0.8-0.8c0-0.4,0.3-0.8,0.8-0.8c0.4,0,0.8,0.3,0.8,0.8
						C428.7,190.8,428.3,191.1,427.9,191.1z"/>
				</g>
			</g>
		</g>
		<g>
			<rect x="381.6" y="286.4" class="st10" width="243.9" height="33.6"/>
			<text transform="matrix(1 0 0 1 381.6279 298.326)"><tspan x="0" y="0" class="st11 st12 st13">Guantes</tspan><tspan x="0" y="13" class="st11 st14 st15">No deben restringir el movimiento de los dedos.</tspan></text>
		</g>
		<g>
			<rect x="463.8" y="156" class="st10" width="133.7" height="48"/>
			<text transform="matrix(1 0 0 1 463.8096 167.8564)"><tspan x="0" y="0" class="st11 st12 st13">Lentes</tspan><tspan x="0" y="13" class="st11 st14 st15">Protege del sol, viento e </tspan><tspan x="0" y="26" class="st11 st14 st15">impacto con partículas.</tspan></text>
		</g>
		<g>
			<rect x="512.4" y="428.4" class="st10" width="130.1" height="36.6"/>
			<text transform="matrix(1 0 0 1 512.373 440.3191)"><tspan x="0" y="0" class="st11 st12 st13">Ruedas</tspan><tspan x="0" y="13" class="st11 st14 st15">Equivalente a un aro 28.</tspan></text>
		</g>
		<g>
			<rect x="45.5" y="91" class="st10" width="217" height="78.8"/>
			<text transform="matrix(1 0 0 1 45.5 100.7595)"><tspan x="0" y="0" class="st11 st12 st13">Shorts o culotte</tspan><tspan x="0" y="13" class="st11 st14 st15">Materiales compresivos, con un acolchado </tspan><tspan x="0" y="26" class="st11 st14 st15">que soporta la estructura ósea y amortigua </tspan><tspan x="0" y="39" class="st11 st14 st15">zonas sensibles.</tspan></text>
		</g>
		<g>
			<rect x="286.7" y="43.9" class="st10" width="183.8" height="44.1"/>
			<text transform="matrix(1 0 0 1 286.7207 53.6516)"><tspan x="0" y="0" class="st11 st12 st13">Casco</tspan><tspan x="0" y="13" class="st11 st14 st15">Obligatorio durante las competencias, </tspan><tspan x="0" y="26" class="st11 st14 st15">su composición no está regulada.</tspan></text>
		</g>
		<g>
			<rect x="417.2" y="227.7" class="st10" width="195.9" height="43.3"/>
			<text transform="matrix(1 0 0 1 417.207 237.458)"><tspan x="0" y="0" class="st11 st12 st13">Jersey o maillot</tspan><tspan x="0" y="13" class="st11 st14 st15">Telas de alto rendimiento con bolsillos </tspan><tspan x="0" y="26" class="st11 st14 st15">traseros y agarres de silicona.</tspan></text>
		</g>
		<g>
			<rect x="130.9" y="755.5" class="st10" width="218.6" height="36.5"/>
			<text transform="matrix(1 0 0 1 130.8643 765.2498)"><tspan x="0" y="0" class="st11 st12 st13">Pedal automático y zapatillas</tspan><tspan x="0" y="13" class="st11 st14 st15">Mantienen el pie en la posición correcta.</tspan></text>
		</g>
		<g>
			<rect x="512.2" y="348.3" class="st10" width="120.3" height="75.7"/>
			<text transform="matrix(1 0 0 1 512.1846 360.1511)"><tspan x="0" y="0" class="st11 st12 st13">Marco de carbono</tspan><tspan x="0" y="13" class="st11 st14 st15">Peso mínimo 6,8 kg, </tspan><tspan x="0" y="26" class="st11 st14 st15">incluyendo fijaciones </tspan><tspan x="0" y="39" class="st11 st14 st15">para accesorios.</tspan></text>
		</g>
		<g>
			<g>
				<line class="st1" x1="549.5" y1="458" x2="549.5" y2="483.9"/>
				<g>
					<circle class="st2" cx="549.5" cy="483.9" r="0.8"/>
				</g>
			</g>
		</g>
		<g>
			<g>
				<line class="st1" x1="133.4" y1="751" x2="133.4" y2="637.3"/>
				<g>
					<circle class="st2" cx="133.4" cy="637.3" r="0.8"/>
				</g>
			</g>
		</g>
	</g>
</g>
</svg>
