<?xml version="1.0" encoding="utf-8"?>
<!-- Generator: Adobe Illustrator 27.2.0, SVG Export Plug-In . SVG Version: 6.00 Build 0)  -->
<svg version="1.1" id="Capa_1" xmlns="http://www.w3.org/2000/svg" xmlns:xlink="http://www.w3.org/1999/xlink" x="0px" y="0px"
	 viewBox="0 0 1000 1000" style="enable-background:new 0 0 1000 1000;" xml:space="preserve">
<style type="text/css">
	.st0{fill:#CC1719;}
	.st1{fill:#D3D1D1;}
	.st2{fill:#F4D2C4;}
	.st3{fill:#1E1E1C;}
	.st4{font-family:'Arial';}
	.st5{font-size:89.2832px;}
</style>
	<g>
	<g>
		<g>
			<text transform="matrix(1 0 0 1 576.3282 386.0839)" class="st3 st4 st5">39</text>
		</g>
		<g>
			<g>
				<g>
					<rect x="411.1" y="176.3" class="st1" width="11.2" height="347.8"/>
				</g>
				<rect x="442.9" y="222.2" class="st0" width="11.2" height="256.2"/>
			</g>
		</g>
	</g>
	<g>
		<g>
			<text transform="matrix(1 0 0 1 576.3107 757.8173)" class="st3 st4 st5">28</text>
		</g>
		<g>
			<g>
				<g>
					<rect x="343.4" y="695.6" class="st1" width="11.2" height="72.3"/>
				</g>
				<g>
					<rect x="361.3" y="692.3" class="st1" width="11.2" height="78.9"/>
				</g>
				<g>
					<rect x="379.2" y="689.2" class="st1" width="11.2" height="85"/>
				</g>
				<g>
					<rect x="397.2" y="685.9" class="st1" width="11.2" height="91.6"/>
				</g>
				<g>
					<rect x="415.2" y="682.6" class="st1" width="11.2" height="98.3"/>
				</g>
				<g>
					<rect x="433.2" y="676" class="st2" width="11.2" height="111.5"/>
				</g>
				<g>
					<rect x="451.2" y="669.4" class="st2" width="11.2" height="124.8"/>
				</g>
				<g>
					<rect x="469.2" y="662.7" class="st2" width="11.2" height="138"/>
				</g>
				<g>
					<rect x="487.2" y="656.4" class="st2" width="11.2" height="150.7"/>
				</g>
				<g>
					<rect x="505.2" y="649.8" class="st2" width="11.2" height="164"/>
				</g>
				<rect x="523.2" y="639.8" class="st0" width="11.2" height="183.8"/>
			</g>
		</g>
	</g>
</g>
</svg>
