<?xml version="1.0" encoding="utf-8"?>
<!-- Generator: Adobe Illustrator 27.2.0, SVG Export Plug-In . SVG Version: 6.00 Build 0)  -->
<svg version="1.1" id="Capa_1" xmlns="http://www.w3.org/2000/svg" xmlns:xlink="http://www.w3.org/1999/xlink" x="0px" y="0px"
	 viewBox="0 0 1000 1000" style="enable-background:new 0 0 1000 1000;" xml:space="preserve">
<style type="text/css">
	.st0{fill:#1E1E1C;}
	.st1{font-family:'Arial';}
	.st2{font-size:89.2832px;}
	.st3{fill:#CC1719;}
	.st4{fill:#D3D1D1;}
	.st5{fill:#F4D2C4;}
</style>
	<g>
	<g>
		<g>
			<text transform="matrix(1 0 0 1 338.7577 386.0898)" class="st0 st1 st2">54</text>
		</g>
		<g>
			<g>
				<rect x="538" y="176.3" class="st3" width="11.2" height="347.8"/>
				<g>
					<rect x="569.8" y="222.2" class="st4" width="11.2" height="256.2"/>
				</g>
			</g>
		</g>
	</g>
	<g>
		<g>
			<text transform="matrix(1 0 0 1 353.4012 757.8173)" class="st0 st1 st2">11</text>
		</g>
		<g>
			<g>
				<rect x="470.3" y="695.6" class="st3" width="11.2" height="72.3"/>
				<g>
					<rect x="488.2" y="692.3" class="st5" width="11.2" height="78.9"/>
				</g>
				<g>
					<rect x="506.1" y="689.2" class="st5" width="11.2" height="85"/>
				</g>
				<g>
					<rect x="524.1" y="685.9" class="st5" width="11.2" height="91.6"/>
				</g>
				<g>
					<rect x="542.1" y="682.6" class="st5" width="11.2" height="98.3"/>
				</g>
				<g>
					<rect x="560.1" y="676" class="st5" width="11.2" height="111.5"/>
				</g>
				<g>
					<rect x="578.1" y="669.4" class="st4" width="11.2" height="124.8"/>
				</g>
				<g>
					<rect x="596.1" y="662.7" class="st4" width="11.2" height="138"/>
				</g>
				<g>
					<rect x="614.1" y="656.4" class="st4" width="11.2" height="150.7"/>
				</g>
				<g>
					<rect x="632.1" y="649.8" class="st4" width="11.2" height="164"/>
				</g>
				<g>
					<rect x="650.1" y="639.8" class="st4" width="11.2" height="183.8"/>
				</g>
			</g>
		</g>
	</g>
</g>
</svg>
