<?xml version="1.0" encoding="utf-8"?>
<!-- Generator: Adobe Illustrator 22.0.1, SVG Export Plug-In . SVG Version: 6.00 Build 0)  -->
<svg version="1.1" id="Capa_1" xmlns="http://www.w3.org/2000/svg" xmlns:xlink="http://www.w3.org/1999/xlink" x="0px" y="0px"
	 viewBox="0 0 602.3 642.6" style="enable-background:new 0 0 602.3 642.6;" xml:space="preserve">
<style type="text/css">
	.st0{opacity:0.2;fill:#434140;enable-background:new    ;}
	.st1{fill:none;}
	.st2{fill:#1F1F1D;}
	.st3{font-family:'ArialMT';}
	.st4{font-size:12px;}
	.st5{font-size:11px;}
	.st6{fill:none;stroke:#706C6B;stroke-width:1.000000e-02;stroke-miterlimit:10;}
	.st7{fill:#706C6B;}
	.st8{fill:#A19D9D;}
	.st9{fill:#C7C7C6;}
	.st10{fill:#302F2E;}
	.st11{fill:#585857;}
	.st12{fill:#434140;}
	.st13{fill:#868383;}
	.st14{fill:#DDDBDC;}
	.st15{fill:#ECECEC;}
	.st16{fill:#ECECEC;stroke:#706C6B;stroke-width:1.000000e-04;stroke-miterlimit:10;}
	.st17{fill:#595655;}
	.st18{fill:#FFFFFF;stroke:#706C6B;stroke-width:0.25;stroke-miterlimit:10;}
	.st19{fill:#DDDBDC;stroke:#706C6B;stroke-width:0.25;stroke-miterlimit:10;}
	.st20{fill:#BEBBBC;}
	.st21{fill:none;stroke:#706C6B;stroke-width:1.000000e-03;stroke-miterlimit:10;}
	.st22{fill:none;stroke:#706C6B;stroke-width:0.25;stroke-miterlimit:10;}
	.st23{fill:none;stroke:#1E1E1C;stroke-width:0.25;stroke-linecap:round;stroke-linejoin:round;}
	.st24{fill:#1E1E1C;}
</style>
<g>
	<ellipse class="st0" cx="125.4" cy="471.9" rx="55.5" ry="1.4"/>
	<ellipse class="st0" cx="351.8" cy="471.9" rx="55.5" ry="1.4"/>
	<g>
		<rect x="271.7" y="513.5" class="st1" width="199.6" height="109.6"/>
		<text transform="matrix(1 0 0 1 271.7194 528.0952)" class="st2 st3 st4">Geometría</text>
		<text transform="matrix(1 0 0 1 271.7194 554.0874)" class="st2 st3 st4">Con forma de kammtail </text>
		<text transform="matrix(1 0 0 1 271.7194 580.0786)" class="st2 st3 st4">para ofrecer la mínima </text>
		<text transform="matrix(1 0 0 1 271.7194 606.1499)" class="st2 st3 st4">resistencia al viento.</text>
	</g>
	<g>
		<text transform="matrix(1 0 0 1 444.9127 216.5122)" class="st2 st3 st5">Extensiones de </text>
		<text transform="matrix(1 0 0 1 524.5189 216.5122)" class="st2 st3 st5">manillar</text>
		<text transform="matrix(1 0 0 1 444.9124 231.3359)" class="st2 st3 st5">Posición ayuda a </text>
		<text transform="matrix(1 0 0 1 445.0996 246.1602)" class="st2 st3 st5">cortar el viento y </text>
		<text transform="matrix(1 0 0 1 444.912 260.9841)" class="st2 st3 st5">ahorrar energía.</text>
	</g>
	<g>
		<rect x="22.6" y="514.4" class="st1" width="190.2" height="98.5"/>
		<text transform="matrix(1 0 0 1 22.5738 528.9722)" class="st2 st3 st4">Rueda lenticular</text>
		<text transform="matrix(1 0 0 1 22.5738 554.9624)" class="st2 st3 st4">Reduce las turbulencias </text>
		<text transform="matrix(1 0 0 1 22.5738 580.9546)" class="st2 st3 st4">producidas por el paso </text>
		<text transform="matrix(1 0 0 1 22.5738 607.0249)" class="st2 st3 st4">del aire.</text>
	</g>
	<g>
		<rect x="24.7" y="175.1" class="st1" width="138.7" height="144.2"/>
		<text transform="matrix(1 0 0 1 24.7096 189.5874)" class="st2 st3 st4">El cuerpo del </text>
		<text transform="matrix(1 0 0 1 24.7096 215.5796)" class="st2 st3 st4">ciclista genera </text>
		<text transform="matrix(1 0 0 1 24.7096 241.5698)" class="st2 st3 st4">una resistencia </text>
		<text transform="matrix(1 0 0 1 24.7096 267.6411)" class="st2 st3 st4">del 80% al </text>
		<text transform="matrix(1 0 0 1 24.7096 293.6323)" class="st2 st3 st4">atravesar el aire.</text>
	</g>
	<g>
		<rect x="122.6" y="18.6" class="st1" width="139.1" height="77.5"/>
		<text transform="matrix(1 0 0 1 122.6031 33.189)" class="st2 st3 st4">Se usan materiales que </text>
		<text transform="matrix(1 0 0 1 122.6031 59.1802)" class="st2 st3 st4">reduzcan al máximo la fricción </text>
		<text transform="matrix(1 0 0 1 122.6031 85.1714)" class="st2 st3 st4">que se genera con el aire.</text>
	</g>
	<g>
		<rect x="469.2" y="384.2" class="st1" width="126.8" height="93.3"/>
		<text transform="matrix(1 0 0 1 469.2311 398.7065)" class="st2 st3 st4">Rueda </text>
		<text transform="matrix(1 0 0 1 469.2311 424.6987)" class="st2 st3 st4">delantera</text>
		<text transform="matrix(1 0 0 1 469.2311 450.6899)" class="st2 st3 st4">Mínimo de 12 </text>
		<text transform="matrix(1 0 0 1 469.2311 476.7612)" class="st2 st3 st4">rayos.</text>
	</g>
	<g>
		<text transform="matrix(1 0 0 1 414.1705 104.0933)" class="st2 st3 st5">Casco</text>
		<text transform="matrix(1 0 0 1 414.1705 116.4548)" class="st2 st3 st5">Guía el flujo de aire, </text>
		<text transform="matrix(1 0 0 1 414.1705 128.8162)" class="st2 st3 st5">para que continúe </text>
		<text transform="matrix(1 0 0 1 414.1705 141.1777)" class="st2 st3 st5">ceñido al cuerpo </text>
		<text transform="matrix(1 0 0 1 414.1705 153.5392)" class="st2 st3 st5">del ciclista.</text>
	</g>
	<g>
		<g>
			<line class="st6" x1="362.6" y1="404.9" x2="399.3" y2="431.9"/>
			<line class="st6" x1="407.3" y1="419.1" x2="368" y2="392.7"/>
			<line class="st6" x1="412.1" y1="404.7" x2="368" y2="391.6"/>
			<line class="st6" x1="413.4" y1="389" x2="367.9" y2="395.3"/>
			<line class="st6" x1="410.9" y1="373.4" x2="367.9" y2="390.2"/>
			<line class="st6" x1="404.4" y1="358.7" x2="364.8" y2="382.7"/>
			<line class="st6" x1="394.8" y1="346.4" x2="362.2" y2="377.6"/>
			<line class="st6" x1="380.9" y1="336.4" x2="367.1" y2="381.3"/>
			<line class="st6" x1="368" y1="331.6" x2="361" y2="378.2"/>
			<line class="st6" x1="353.1" y1="330.3" x2="353.9" y2="376.2"/>
			<line class="st6" x1="313" y1="351.1" x2="340.4" y2="375.1"/>
			<line class="st6" x1="305.1" y1="363.6" x2="339.4" y2="382.9"/>
			<line class="st6" x1="300" y1="378.5" x2="341.1" y2="389.5"/>
			<line class="st6" x1="298.7" y1="394.3" x2="341.6" y2="389.4"/>
			<line class="st6" x1="301.4" y1="410.2" x2="342.3" y2="393.8"/>
			<line class="st6" x1="308.3" y1="425.5" x2="346" y2="402.2"/>
			<line class="st6" x1="318.4" y1="437.8" x2="348.3" y2="405.4"/>
			<line class="st6" x1="331.4" y1="447" x2="348.4" y2="405.3"/>
			<line class="st6" x1="345.8" y1="451.9" x2="345.8" y2="401.8"/>
			<line class="st6" x1="359.8" y1="452.8" x2="362.6" y2="404.9"/>
			<line class="st6" x1="375.7" y1="449.2" x2="362.6" y2="404.9"/>
			<line class="st6" x1="389.3" y1="441.5" x2="364.9" y2="405.4"/>
		</g>
		<g>
			<path class="st7" d="M262.5,441.9c0.1,7.1-20.8,8.6-33.4,3.9c-12.7-4.7-10.9-7.2-23.6-11.4c-12.7-4.2-13.7-7.8-13-11.7
				c0.8-3.9,6.9-14.8,9.4-13.1c0.2,0.2,0.4,0.5,0.6,0.9c0.3,0.5,0.6,1.1,1,1.9c1.3,2.7,2.9,6.7,5.9,7.9c0.1,0.1,1-4.9,1.1-4.9
				c1.7,0.6,2,2.5,7.1,0.6c0.6-0.2,2-0.1,2.6-0.4c1.2-0.5,2.1,1.6,1.9,0.7c-0.2-0.5-0.3-1-0.5-1.4c0.2,0.3,0.3,0.8,0.6,1.3
				c1.3,2.5,3.5,6.2,4.5,7.1c1.5,1.4,16.6,13.5,18.5,14c1.9,0.6,8.6-0.2,8.6-0.2s1.7-1.1,0.9-1.7
				C258.7,437.7,262.5,439.6,262.5,441.9z"/>
			<path class="st8" d="M259.4,287.8l-32.8,6l-30.5-57.5l0,0c-1-1.3-1.7-2.9-2.4-4.4c-3.6-8.9-1.5-18.6,4.6-25.2
				c1.8-2,4-3.6,6.4-4.9c0.7-0.4,1.5-0.7,2.3-1c8.3-3.3,17.4-1.7,23.9,3.5c0.1,0,0.1,0.1,0.2,0.1c3.1,2.5,5.5,5.7,7.1,9.7l1.3,4.8
				l0,0L259.4,287.8z"/>
			<path class="st9" d="M265.9,319c-0.1,0.2-0.2,0.5-0.3,0.8c0,0.1,0,0.1-0.1,0.1l-0.2,0.6c0,0,0,0.1-0.1,0.1l-43,95.4
				c-0.2-0.5-0.5-0.9-0.6-1.3c0.2,0.5,0.4,1,0.5,1.4l-1,2.2c-0.6,0.3-1.3,0.6-1.9,0.8c-5.1,2-7.8,1.8-9.5,1.1
				c-0.1,0-0.2-0.1-0.3-0.1c-2.9-1.3-4.6-5.2-5.9-7.9c-0.3-0.7-0.6-1.4-1-1.9l35.4-94.9l-11.4-21.6l32.8-6l6.2,21.5
				C266.8,312.3,267,315.7,265.9,319z"/>
			<path class="st8" d="M253.6,436.9c0,0-6.7,0.8-8.6,0.2c-1.9-0.6-17-12.7-18.5-14c-1.2-1.1-4.2-6.2-5.2-8.4c0-0.1-0.1-0.2-0.1-0.2
				c0-0.1-0.1-0.2-0.1-0.2l0,0c-0.1-0.2-0.1-0.4-0.1-0.6l0,0c0.1-0.2,0.3-0.5,0.6-0.6l0,0c1.1-0.6,2.6-1,4.1-1.3c0.1,0,0.2,0,0.2,0
				c0.4-0.1,1-0.2,1.5-0.3c0.1,0,0.2-0.1,0.3-0.1c2.2-0.4,4.1-0.6,4.8-1l0,0c0,0,0.1,0.2,0.3,0.5c0,0.1,0.1,0.1,0.1,0.2
				c2.1,3.1,12.2,17.4,14.3,19.2l0,0c1.2,1.2,2.5,2.2,3.8,3.1c0.9,0.6,1.7,1.2,2.6,1.7l0.1,0.1l0.1,0.1c0.1,0,0.1,0.1,0.2,0.1l0,0
				C255.2,435.8,253.6,436.9,253.6,436.9z"/>
		</g>
		<g>
			<path class="st10" d="M225.3,448.9c0-1.5,1.7-2.7,3.3-2.8l8.3-0.1c0.6,0,1.3,0.2,1.9,0.6c0.8,0.5,1.4,1.3,1.4,2.1
				s-0.6,1.7-1.4,2.2c-0.6,0.3-1.2,0.6-1.9,0.6l-8.3,0.1C227.1,451.6,225.3,450.4,225.3,448.9z"/>
			<path class="st10" d="M220.8,411.7c-0.2-9.4,12.2-8.7,11.9,0.2c0,1-0.2,5.7-0.4,11.7c0,0.1,0,0.1,0,0.2c0,0.6-0.1,1.2-0.1,1.7
				c-0.2,4.3-0.3,9.2-0.5,13.9c0,0.1,0,0.2,0,0.2c-0.2,3.9-0.3,5-0.4,8.2c-0.3,4.6-1.3,6-4.5,6c-2.5,0-4-2.2-3.8-6
				c0-3.9-0.2-17.8-0.5-22.2c-0.1-0.6-1-1-1-1.5c0-0.2,0-0.2,0-0.4C221.1,418.8,220.9,414.6,220.8,411.7z"/>
		</g>
		<path class="st11" d="M226.9,381.5c-16,0-29.1,13-29.1,29.1c0,16,13,29.1,29.1,29.1s29.1-13,29.1-29.1S243,381.5,226.9,381.5z
			 M226.9,424.9c-7.8,0-14.1-6.3-14.1-14.1s6.3-14.1,14.1-14.1S241,403,241,410.8S234.7,424.9,226.9,424.9z"/>
		<g>
			<g>
				<ellipse class="st12" cx="126.5" cy="392.6" rx="79.3" ry="79.3"/>
				<circle class="st8" cx="126.5" cy="392.6" r="73.5"/>
			</g>
			<path class="st13" d="M126.5,376.9c-8.6,0-15.7,7.1-15.7,15.7s7.1,15.7,15.7,15.7s15.7-7.1,15.7-15.7
				C142.2,383.9,135.1,376.9,126.5,376.9z M136.5,390.7l-2.1,3.6l0.2,4.2c0.2,3.4-3.4,5.7-6.4,4l-3.6-2.1l-4.1,0.2
				c-3.4,0.2-5.7-3.4-4-6.4l2.1-3.6l-0.2-4.2c-0.2-3.4,3.4-5.7,6.4-4l3.6,2.1l4.1-0.2C135.8,384.1,138.1,387.7,136.5,390.7z"/>
		</g>
		<path class="st14" d="M341.3,306.2l-9.7-28.1l-150.8,4.2c0,0,7.6,41,6.7,42.6c-1,1.5-65.9,66.6-65.9,69c0,3.1,25,16.9,29.4,18.1
			c3.2,0.9,71.6,6.3,77.4,5.3c6.8-1.2,62.7-72.3,66.7-76.5c4-4.3,14.3-16.6,18.1-18.9c3.8-2.3,8.2-3.6,8.2-3.6l-1.3-5.2L341.3,306.2
			z M207.7,404.5c0,0-53.3,0.6-55.5,0s-17.2-8.2-18.3-9s-1.9-2.6,0.9-5.2c2.8-2.5,53.2-52.7,54.1-52c1,0.8,14.1,21.9,17.2,33.1
			C209.2,383.5,210.3,398.5,207.7,404.5z M287.7,313.4c-3.2,3-39.9,47.6-40.5,48.7c-0.5,0.8-2,3.2-7.8,2.9c-8-0.5-28.1,2.5-28.4,1.3
			c-0.2-0.7-2.4-18.3-5.3-35.8c-3-18-6.7-35.9-6.3-36.1c1.6-0.9,2.4-2.9,3.2-4c0.6-0.8,67.2,5.5,67.2,5.5s10.7,1.3,13.2,1.5
			s2.9,0.4,3.6,3.1c0.8,2.7,1.9,5.6,2.5,7.4C289.7,309.6,289.5,311.7,287.7,313.4z"/>
		<g>
			<path class="st8" d="M333.5,214.1l-19.5,6.3l-8.2-15.8L293,180l-1-2.1l26.1-11l0,0l0.1,0.2l0.6,2l1.1,3.3l3.5,10.6c0,0,0,0,0,0.1
				l0.2,0.8c0,0,0,0,0,0.1L333.5,214.1z"/>
			<polygon class="st14" points="338.4,228.8 322,235.7 314,220.5 333.5,214.1 			"/>
		</g>
		<path class="st15" d="M369.9,170.5c0,12-9.7,21.6-21.6,21.6c-1.2,0-2.4-0.1-3.5-0.3c-0.8-0.2-1.5-0.3-2.3-0.5
			c-2.9-0.8-5.7-2.3-8-4.2c-0.1-0.2-0.2-0.3-0.3-0.4c-0.3-0.3-0.6-0.6-1-0.9c-0.2-0.1-0.3-0.2-0.4-0.3c-1.1-0.7-2.5-1.2-3.9-1.2
			c-0.7,0-1.3,0.1-2,0.2c-0.6,0.2-1.3,0.5-1.8,0.8c-8.2,3.2-17.5-0.1-22.1-7.4c-0.6-0.8-1-1.7-1.3-2.6c-4-9.4,0.5-20,9.7-24
			c7.4-3.1,15.6-1,20.7,4.6c0.2-0.2,0.5-0.5,0.7-0.7c4-4,9.4-6.6,15.5-6.6C360.2,148.8,369.9,158.6,369.9,170.5z"/>
		<polyline class="st16" points="368.6,178 367.5,188.4 359.2,185.1 		"/>
		<path class="st14" d="M174.8,250.1c1,5.4,5.8,32.3,5.8,32.3l15.5-0.4c0,0-5.5-27.2-5.5-29s0.2-5,1.8-6.7c1.7-1.7,3-5.3,1-5.9
			c-2-0.6-16.1,0.6-17.4,0.9C173.7,241.5,173.3,242,174.8,250.1z"/>
		<g>
			<path class="st12" d="M349.9,287.3c-10.5-0.2-24.6,0-28.2-4s-0.1-4.1,3.4-4.3c3.4-0.2,23,0,23.5,0L349.9,287.3z"/>
			<path class="st12" d="M343.5,303.3c0.8-0.3-0.6-1.5,0.6-1.9c1.1-0.4,12.8-4.2,14.3-5.5c1.7-1.4,4.8-4.3,4.7-10.1
				c0-1.8-0.5-1.8-1.5-1.6c-1,0.2-0.4,2.3-1.5,3s1.7,5.3-7.8,9.1c-9.5,3.8-11.2,4.8-10.4,6.2C342.6,304,343.5,303.3,343.5,303.3z"/>
			<path class="st17" d="M363,285c0-1-1.6-5.9-7.4-5.9s-7.1,0-7.1,0s1.2,8,1.3,8.3s1-1.1,2.6-1.2c2.9-0.2,3.2,1.7,4.5,1.7
				s2.8,0,2.8,0s0.6-0.6,0.9-1.3c0.3-0.8,0.4-1.9,0.6-2.1C362.9,283.2,363,285,363,285z"/>
		</g>
		<g>
			<path class="st13" d="M356.8,376.9c-8.6,0-15.7,7.1-15.7,15.7s7.1,15.7,15.7,15.7s15.7-7.1,15.7-15.7
				C372.4,383.9,365.4,376.9,356.8,376.9z M366.8,390.7l-2.1,3.6l0.2,4.1c0.2,3.4-3.4,5.7-6.4,4l-3.6-2.1l-4.1,0.2
				c-3.4,0.2-5.7-3.4-4-6.4l2.1-3.6l-0.2-4.1c-0.2-3.4,3.4-5.7,6.4-4l3.6,2.1l4.1-0.2C366.2,384.1,368.5,387.7,366.8,390.7z"/>
			<g>
				<path class="st12" d="M356.8,313.3c-43.8,0-79.3,35.5-79.3,79.3s35.5,79.3,79.3,79.3s79.3-35.5,79.3-79.3
					C436.1,348.8,400.6,313.3,356.8,313.3z M356.8,466.6c-40.9,0-74-33.1-74-74s33.1-74,74-74s74,33.1,74,74
					S397.6,466.6,356.8,466.6z"/>
				<path class="st8" d="M356.8,318.6c-40.9,0-74,33.1-74,74s33.1,74,74,74s74-33.1,74-74S397.6,318.6,356.8,318.6z M356.8,448
					c-30.6,0-55.5-24.8-55.5-55.5c0-30.6,24.8-55.5,55.5-55.5c30.6,0,55.5,24.8,55.5,55.5S387.3,448,356.8,448z"/>
			</g>
		</g>
		<g>
			<g>
				<g>
					<path class="st12" d="M181.4,230.2c-6.6,0-15.9-0.2-17.5,0s1.1,1.1,2.7,2.3c1.6,1.2-1,3.3,2.4,3.6c3.4,0.2,20.9,0,20.9,0
						L181.4,230.2z"/>
				</g>
				<g>
					<path class="st12" d="M178.7,240.9c3.1-1.1,11-4.8,12.5-4.4c1.5,0.3,5.3,3.7,5.3,3.7l-2.4,0.7c0,0,0.2-0.9-3.5-0.7
						C187,240.3,178.7,240.9,178.7,240.9z"/>
				</g>
				<polygon class="st10" points="177.8,236.2 182.3,239.5 182.9,239.2 178.5,236.1 				"/>
			</g>
		</g>
		<polygon class="st18" points="186,238 184.2,236.1 185.1,236.2 186.4,237.8 		"/>
		<circle class="st19" cx="180.3" cy="243.7" r="1.3"/>
		<circle class="st19" cx="186.9" cy="243.7" r="1.3"/>
		<path class="st15" d="M299.1,267.6c-0.2,0.2-0.4,0.4-0.6,0.6l-72,67.8c-2.3-0.6-4.9-1.2-6.7-1c-1.3,0.2,0.5,4.5-2.5,4.4
			c-7.2-0.1-10-1.7-11.3-3.2c-2.6-3-1.8-9.1-2.1-11.7l60.9-61.2l-13.6-5.1l16-30.4l28.1,17.9c1.2,0.6,2.4,1.3,3.4,2.4
			C304.1,253.5,304.2,262.1,299.1,267.6z"/>
		<path class="st20" d="M256,308.3l-29.6,27.8c-2.3-0.6-4.9-1.2-6.7-1c-1.3,0.2,0.5,4.5-2.5,4.4c-7.2-0.1-10-1.7-11.3-3.2
			c-2.6-3-1.8-9.1-2.1-11.7l34.2-34.4L256,308.3z"/>
		<path class="st12" d="M323.8,278.3l6.3-7.7c0,0,1.1-11.3,0-13.4s-3.1-2.9-3.6-5.2s-0.8-4.7,6.1-7.1c6.9-2.4,20.9-5.7,30.8-8
			s15.6-3.6,21.2-4.6c5.5-1,11.3-1.5,12-1.9c0.9-0.4,8.8-7.1,10.7-10.5c1.9-3.4,9.5-0.6,9.5-0.6s-7,13.9-12.4,16.4
			c-5.5,2.6-48.8,14.4-54.7,18.3c0.6,9.4,0.6,16.2,0.6,16.2l-5.4,6.3l0.9,2.4l-23.5,0.6L323.8,278.3z"/>
		<path class="st18" d="M389.2,213.1c3.5-0.3,6.9,1.9,7.8,5.5c0.9,3.1-0.3,6.3-2.8,8.1"/>
		<path class="st16" d="M423.1,222.9c-6.5,8.6-22.7,4.3-25.4,3.1c-1-0.5-6,1.7-6,1.7l-4-14.3c0,0,11.3-8.7,15.4-12.9l0,0
			c0.6-0.6,11.3-3.3,12-2.5c0.5,0.5,0.9,1,1.3,1.4l0,0c1.8,1.8,3.6,3,3.6,3.1l0,0c0.5,0.2,0.8,0.7,0.8,1.3c0,0.8-0.6,1.3-1.4,1.4
			c-3.1,0.5-3.6-2.8-5.4-2.6c-2.3,0.2-4.8,0.4-6,1.4c-0.9,0.7,0,1.8,2,2.9c2,1,10.8,1.7,10.8,1.7l1.1,0.1l4.6,0.8
			c0.8,0,1.4,0.8,1.4,1.6s-0.5,1.9-1.3,1.9l-4.6,1.3l-11.3-0.6H410l12,0.6l5.2-1.4l0.7-0.2c0.8,0,1.4,0.6,1.4,1.4
			c0,0.8-0.5,1.3-1.3,1.7l-3.8,1.9l-2.1,1.3h-15.7h15.7c0,0,1.7-1,2.1-1.3c1.2-0.8,2.6,1.5,2.6,2.3s-0.6,1.3-1.3,1.8l-3.2,1.6
			l-2.1,1.3l-13.7-1"/>
		<path class="st16" d="M427.4,209.4c0.9,0.4,3.1-1.8,3.2-3.5s-0.9-0.3-5.2-1.3c-1.6-0.4-3-0.7-4.4-1c0,1.2-1.3,1.6-2.1,1.6
			c-2.1,0-3.1-2-3.2-1.9c-1.6,0.5-2.1,0.6-7,2.5c0,0,0.9,1.1,3,1.6s6.1,0.9,6.7,1s3.6,0.3,4.4,0.4
			C423.7,208.7,427.2,209.4,427.4,209.4z"/>
		<path class="st7" d="M331.4,159.7c0,0,1.4,16.1,4,17.3l4.8-5.2l3.2,2.6c0,0-6.5,5.8-7.1,8.1s-1.7,5.2,1.1,7.5c0,0-6.3-3.5-6.3-4.7
			c0-1.3,0.9-2.4,1-5.9c0.1-3.6-0.3-5.5-1.3-7s-4-14-2.6-15.8L331.4,159.7z"/>
		<path class="st14" d="M356.6,178c0,0,5,2.5,9.4,2c3.7-0.5,3.5,1.3,4.4,1.2s10.7-3.2,15.3-15.2c0,0-13.8-7.7-18.9-8.8
			s-8.1-2.2-11.1,1C352.6,161.3,351.7,174.3,356.6,178z"/>
		<line class="st21" x1="355.2" y1="191.1" x2="351.1" y2="188.4"/>
		<line class="st22" x1="328.1" y1="220.5" x2="327.7" y2="220.5"/>
		<g>
			<g>
				<g>
					<path class="st14" d="M362.4,395.4c0,0-17.8,1.7-18.9,0s-7.3-18.7-7.3-18.7l3.8-6.3l-18.5-49.3c0,0-0.6-8-1.5-8
						s21.2-6.9,21.2-6.9s2.5,1.2,1.5,2.9c-1,1.8-1,10.9,2.9,23.4C349.2,344.9,362.4,395.4,362.4,395.4z"/>
				</g>
			</g>
		</g>
		<path class="st15" d="M392.4,227.4c-15.1,5.2-60.5,17.8-60.5,17.8l-0.4,0.1c-4.4,1.3-8.9-1-10.6-5.2l-9.7-18.6l19.3-8.8l4.4,13.4
			l53-13.7c0.5-0.2,1-0.2,1.4-0.2"/>
		<path class="st20" d="M318.2,175.1l0.6,1.9l3.5,10.6c0,0,0,0,0,0.1l0.2,0.8c0,0,0,0,0,0.1l7.9,24.2l-19.3,8.8l-6.5-12.4
			l-12.8-24.6"/>
		<polyline class="st20" points="311.2,221.5 304.8,209.1 301.6,203.2 		"/>
		<path class="st20" d="M296.9,137.9c0-3.4,44.5-19.7,60.3-16.8s30.6,16.2,30.6,30.9s-2.1,13.9-2.1,13.9s-18.1-10.9-26.5-9.9
			c-8.3,1-6.7,19.9-2.5,22c0,0-13.4,0.2-18.3-9c-5-9.2-12.6-15.1-17.6-16.2C315.7,151.6,297.5,144.4,296.9,137.9z"/>
		<g>
			<g>
				<path class="st10" d="M230.8,407.9c0.2,9.4-11.8,8.4-11.5-0.3c0-1,3.7-32.5,3.8-35.6c2.1-0.1,1.5,0.1,1.5,0.1s2.5-0.1,5.2,0
					C230,375.1,230.8,405,230.8,407.9z"/>
				<path class="st10" d="M223.2,378.5l-4.3-1.8c-3.3-1.4-5.9-4-7-7.3l-0.7-2.2h12V378.5L223.2,378.5z"/>
			</g>
		</g>
		<path class="st12" d="M245.3,378.2c-2.9,6.4-22.4-0.8-32-10.3s-7-11.1-16.8-20.2s-9.3-12.8-7-16.1c2.3-3.2,12.4-10.6,13.9-8
			c0.2,0.2,0.2,0.6,0.2,1c0.2,2.6-0.6,8.7,2.1,11.7c1.3,1.6,4.2,3.1,11.3,3.2c3,0.1,1.3-4.4,2.5-4.4c1.8-0.2,4.4,0.4,6.7,1
			c2.2,0.6,4.1,1.2,4.9,1.2c0,0,3,15.6,4.6,22.1c0.6,2.2,1.6,4.4,2.9,6.4C242,371.3,246.4,375.7,245.3,378.2z"/>
		<path class="st20" d="M239.2,370c0,0-6.3-2-7.8-3.3s-10.2-18.5-11-20.4s-1.6-10.1-1-10.8c0.6-0.6,3.2-0.3,5.2,0.2
			c2.1,0.5,6.8,1.7,6.8,1.7s4,21.4,5.2,24.2c1.6,3.3,3.5,6.5,4,7.3C241.2,369.6,239.2,370,239.2,370z"/>
		<path class="st20" d="M247.7,215.7c1.2-0.5,2.4-1,3.5-1.6c-3.2-1.9-10.1-5.5-17.4-7.3c-0.8-0.2-1.5-0.3-2.3-0.5
			c-4.7-0.9-8.1-3.1-10.9-5.8c-1.3-1.2-2.3-2.5-3.3-3.9c-0.5-0.5-0.5-0.6-0.5-0.6c-1.9-2.7-3.5-5.5-5.1-7.6
			c-4.3-5.9-10.3-4.7-15.2-5.2c-2.5-0.3-4.7-1.3-6.2-2.1c-1.3,2.1-2.5,4.3-3.6,6.6c-3.2,5.8-6.5,11.5-8.3,18.1
			c-1,2.6-1.5,5.3-1.5,7.9c-0.2,9,4.7,17.7,13.2,21.9c1.5,0.8,3.1,1.3,4.8,1.7l56.1,21.1l23.4-25.8L247.7,215.7z"/>
		<path class="st21" d="M251.2,214.2c-3.2-1.9-10.1-5.5-17.4-7.3c-0.8-0.2-1.5-0.3-2.3-0.5c-4.7-0.9-8.1-3.1-10.9-5.8
			c-1-1.1-2.1-2.3-3.3-3.9c-0.4-0.5-0.5-0.6-0.5-0.6c-1.9-2.7-3.5-5.5-5.1-7.6c-4.3-5.9-10.3-4.7-15.2-5.2c-2.5-0.3-4.7-1.3-6.2-2.1
			"/>
		<path class="st20" d="M319.7,161.9c-0.3,1-1.8,8.7-1.7,10.5c0.2,2.6,0.8,5.5,0.4,7.9c-1.3,7.2-5,13.8-10.5,18.6
			c-2.7,2.4-5.9,4.3-9.4,5.6c-0.6,0.2-1.1,0.4-1.7,0.6c-0.4,0.2-0.9,0.2-1.3,0.4c-3.9,1.1-7.9,1.4-11.7,1c-0.1,0.5-7.1-1.7-10.9-1.9
			c-0.3,0-0.6,0-0.9,0c-4.6,0-9,1.3-12.5,3.7c-1.3,0.9-2.6,1.9-3.8,3.1c-1.3,1-2.9,1.8-4.4,2.6c-3.2-1.9-10.1-5.5-17.4-7.3
			c-0.8-0.2-1.5-0.3-2.3-0.5c-4.7-0.9-8.1-3.1-10.9-5.8c-1-1.1-2.1-2.3-3.3-3.9c-0.4-0.5-0.5-0.6-0.5-0.6c-1.9-2.7-3.5-5.5-5.1-7.6
			c-4.3-5.9-10.3-4.7-15.2-5.2c-2.5-0.3-4.7-1.3-6.2-2.1c4-6.7,8.6-12.4,13.6-18.6c5.5-6.1,11.3-9.9,18.9-14.5c0,0,9.1-4.2,14-5.9
			c7.8-2.7,15.4-5.2,23.9-5.2c4.7,0,33.3,2.7,39.3,6c5.2,2.9,9,6.4,17.8,9C319.9,152.5,320.4,159.8,319.7,161.9z"/>
		<line class="st21" x1="301.6" y1="203.2" x2="291.9" y2="184.6"/>
	</g>
	<g>
		<g>
			<polyline class="st23" points="233.9,98.3 233.9,115.2 233.9,136.9 			"/>
			<g>
				<circle class="st24" cx="233.9" cy="136.9" r="0.3"/>
			</g>
		</g>
	</g>
	<g>
		<g>
			<polyline class="st23" points="87.1,502.8 87.1,471.1 87.1,446.5 			"/>
			<g>
				<circle class="st24" cx="87.1" cy="446.5" r="0.3"/>
			</g>
		</g>
	</g>
	<g>
		<g>
			<polyline class="st23" points="272.2,499.5 272.2,422.1 272.2,362 			"/>
			<g>
				<circle class="st24" cx="272.2" cy="362" r="0.3"/>
			</g>
		</g>
	</g>
	<g>
		<g>
			<polyline class="st23" points="150.8,181.2 182.2,181.2 206.5,181.2 			"/>
			<g>
				<circle class="st24" cx="206.5" cy="181.2" r="0.3"/>
			</g>
		</g>
	</g>
	<g>
		<g>
			<polyline class="st23" points="429.5,240.7 404.2,240.7 384.7,240.7 			"/>
			<g>
				<circle class="st24" cx="384.7" cy="240.7" r="0.3"/>
			</g>
		</g>
	</g>
	<g>
		<g>
			<polyline class="st23" points="464.9,392.6 442,392.6 424.4,392.6 			"/>
			<g>
				<circle class="st24" cx="424.4" cy="392.6" r="0.3"/>
			</g>
		</g>
	</g>
	<g>
		<g>
			<polyline class="st23" points="405.6,127.3 378.5,127.3 357.6,127.3 			"/>
			<g>
				<circle class="st24" cx="357.6" cy="127.3" r="0.3"/>
			</g>
		</g>
	</g>
</g>
</svg>
