<svg xmlns="http://www.w3.org/2000/svg" viewBox="0 0 470 400">
<style type="text/css">
	@import url('https://fonts.googleapis.com/css2?family=Barlow+Semi+Condensed:wght@500;700');
	.st0{fill:#ECECEC;stroke:#6F6B6A;stroke-width:0.25;stroke-miterlimit:10;}
	.st1{opacity:0.2;fill:#43413F;}
	.st2{fill:#FFFFFF;stroke:#6F6B6A;stroke-width:0.5;stroke-miterlimit:10;}
	.st3{fill:#6F6B6A;stroke:#6F6B6A;stroke-width:0.25;stroke-miterlimit:10;}
	.st4{fill:#A19D9D;stroke:#6F6B6A;stroke-width:0.25;stroke-miterlimit:10;}
	.st5{fill:#C6C6C5;stroke:#6F6B6A;stroke-width:0.25;stroke-miterlimit:10;}
	.st6{fill:#2F2E2D;}
	.st7{fill:#575756;}
	.st8{fill:#43413F;}
	.st9{fill:#A19D9D;}
	.st10{fill:#868282;}
	.st11{fill:#DDDBDC;stroke:#6F6B6A;stroke-width:0.25;stroke-miterlimit:10;}
	.st12{fill:#FFFFFF;stroke:#6F6B6A;stroke-width:0.25;stroke-miterlimit:10;}
	.st13{fill:#43413F;stroke:#6F6B6A;stroke-width:0.25;stroke-miterlimit:10;}
	.st14{fill:#6F6B6A;}
	.st15{fill:#FFFFFF;stroke:#6F6B6A;stroke-width:1.000000e-03;stroke-miterlimit:10;}
	.st16{fill:#BEBBBC;}
	.st17{fill:#BEBBBC;stroke:#6F6B6A;stroke-width:0.25;stroke-miterlimit:10;}
	.st18{fill:none;stroke:#6F6B6A;stroke-width:0.5;stroke-miterlimit:10;}
	.st19{fill:none;}
	.st20{fill:#1E1E1C;}
	.st21{font-family:'Barlow Semi Condensed', sans-serif;
		font-weight: 700;
		font-style: bold;}
	.st22{font-size:11px;}
	.st23{font-family:'Barlow Semi Condensed', sans-serif;
		font-weight: 500;
		font-style: medium;}
	.st24{font-size:10px;}
	.st25{font-size:10px;}
	.st26{fill:none;stroke:#1D1D1B;stroke-width:0.5;stroke-linecap:round;stroke-linejoin:round;}
	.st27{fill:#1D1D1B;}
	#textos{
		opacity:0;
	}
	svg:hover #textos{
		opacity:1;
	}
</style>
<g id="Capa_1">
	<g id="grafica">
		<path class="st0" d="M350.8,114.4c0.8,0.3,2.7-1.6,2.7-3c0.1-1.4-0.7-0.2-4.4-1.2c-1.3-0.3-2.6-0.6-3.7-0.9c0,1-1.1,1.3-1.8,1.3
			c-1.8,0-2.6-1.7-2.8-1.6c-1.4,0.4-1.7,0.5-5.9,2.1c0,0,0.7,0.9,2.6,1.3s5.2,0.7,5.8,0.8c0.6,0.1,3.1,0.2,3.8,0.4
			S350.7,114.4,350.8,114.4z"/>
		<ellipse class="st1" cx="93.3" cy="338.2" rx="47.3" ry="1.2"/>
		<ellipse class="st1" cx="286.4" cy="338.2" rx="47.3" ry="1.2"/>
		<g>
			<line class="st2" x1="295.6" y1="281.1" x2="326.8" y2="304"/>
			<line class="st2" x1="333.7" y1="293.1" x2="300.2" y2="270.6"/>
			<line class="st2" x1="337.8" y1="280.9" x2="300.2" y2="269.7"/>
			<line class="st2" x1="338.9" y1="267.5" x2="300" y2="272.8"/>
			<line class="st2" x1="336.7" y1="254.2" x2="300.1" y2="268.5"/>
			<line class="st2" x1="331.2" y1="241.6" x2="297.5" y2="262.1"/>
			<line class="st2" x1="323" y1="231.2" x2="295.2" y2="257.8"/>
			<line class="st2" x1="311.2" y1="222.6" x2="299.4" y2="260.9"/>
			<line class="st2" x1="300.2" y1="218.6" x2="294.3" y2="258.2"/>
			<line class="st2" x1="287.5" y1="217.4" x2="288.2" y2="256.5"/>
			<line class="st2" x1="253.3" y1="235.2" x2="276.7" y2="255.6"/>
			<line class="st2" x1="246.5" y1="245.8" x2="275.8" y2="262.2"/>
			<line class="st2" x1="242.2" y1="258.5" x2="277.3" y2="267.9"/>
			<line class="st2" x1="241.1" y1="272" x2="277.7" y2="267.8"/>
			<line class="st2" x1="243.4" y1="285.6" x2="278.2" y2="271.6"/>
			<line class="st2" x1="249.2" y1="298.6" x2="281.4" y2="278.7"/>
			<line class="st2" x1="257.9" y1="309.1" x2="283.4" y2="281.5"/>
			<line class="st2" x1="268.9" y1="316.9" x2="283.5" y2="281.4"/>
			<line class="st2" x1="281.3" y1="321.1" x2="281.3" y2="278.3"/>
			<line class="st2" x1="293.2" y1="321.9" x2="295.6" y2="281.1"/>
			<line class="st2" x1="306.7" y1="318.8" x2="295.6" y2="281.1"/>
			<line class="st2" x1="318.4" y1="312.3" x2="297.5" y2="281.5"/>
		</g>
		<path class="st3" d="M210.3,312c0,6-17.7,7.3-28.5,3.3c-10.8-4-9.3-6.1-20.2-9.7c-10.8-3.6-11.7-6.7-11.1-10
			c0.6-3.3,5.9-12.6,8-11.1c0.2,0.1,0.4,0.4,0.6,0.7c0.2,0.4,0.5,1,0.8,1.6c1.1,2.3,2.5,5.6,5,6.7c0.1,0,0.9-4.2,0.9-4.2
			c1.5,0.6,1.7,2.1,6,0.5c0.5-0.2,1.7-0.1,2.2-0.3c1-0.4,1.8,1.4,1.6,0.6c-0.1-0.4-0.3-0.8-0.4-1.2c0.1,0.3,0.3,0.7,0.5,1.1
			c1.1,2.1,3,5.3,3.9,6.1c1.3,1.2,14.1,11.5,15.7,12c1.6,0.5,7.3-0.2,7.3-0.2s1.4-1,0.8-1.5C207,308.4,210.3,310.1,210.3,312z"/>
		<path class="st4" d="M207.6,180.6l-28,5.1l-26-49v0c-0.8-1.2-1.5-2.4-2-3.8c-3-7.6-1.3-15.9,3.9-21.5c1.5-1.7,3.4-3.1,5.5-4.2
			c0.6-0.3,1.3-0.6,1.9-0.9c7.1-2.9,14.8-1.5,20.4,3c0,0,0.1,0.1,0.1,0.1c2.6,2.1,4.7,4.9,6.1,8.2l1.2,4.1v0L207.6,180.6z"/>
		<path class="st5" d="M213.1,207.2c-0.1,0.2-0.2,0.4-0.3,0.6c0,0,0,0.1,0,0.1l-0.2,0.5c0,0,0,0,0,0.1l-36.7,81.3
			c-0.2-0.4-0.4-0.8-0.5-1.1c0.1,0.4,0.3,0.8,0.4,1.2l-0.9,1.9c-0.6,0.2-1.1,0.5-1.6,0.7c-4.3,1.7-6.6,1.5-8.1,1
			c-0.1,0-0.2-0.1-0.2-0.1c-2.4-1.1-3.9-4.4-5-6.7c-0.3-0.6-0.5-1.2-0.8-1.6l30.2-80.9l-9.7-18.3l28-5.1l5.3,18.3
			C213.9,201.5,214,204.4,213.1,207.2z"/>
		<path class="st4" d="M202.7,307.7c0,0-5.7,0.7-7.3,0.2c-1.6-0.5-14.4-10.8-15.7-12c-1-1-3.6-5.2-4.4-7.2c0-0.1,0-0.1-0.1-0.2
			c0-0.1,0-0.1-0.1-0.2c0,0,0,0,0,0c-0.1-0.2-0.1-0.4-0.1-0.5c0,0,0,0,0,0c0-0.2,0.3-0.4,0.6-0.6c0,0,0,0,0,0c1-0.5,2.2-0.8,3.5-1.1
			c0.1,0,0.1,0,0.2,0c0.4-0.1,0.8-0.1,1.3-0.2c0.1,0,0.2,0,0.3-0.1c1.9-0.3,3.5-0.5,4.1-0.8c0,0,0,0,0,0s0.1,0.1,0.3,0.4
			c0,0,0.1,0.1,0.1,0.1c1.9,2.6,10.4,14.8,12.2,16.4c0,0,0,0,0,0c1,1,2.1,1.9,3.3,2.7c0.7,0.5,1.5,1,2.2,1.4c0,0,0.1,0,0.1,0.1
			s0.1,0,0.1,0.1c0,0,0.1,0,0.1,0.1c0,0,0,0,0,0C204,306.7,202.7,307.7,202.7,307.7z"/>
		<path class="st6" d="M188.7,316c-0.5-0.3-1.1-0.5-1.6-0.5l-4.7,0c0.1-1.8,0.2-2.9,0.3-5.6c0-0.1,0-0.1,0-0.2
			c0.1-4,0.3-8.1,0.4-11.8c0-0.5,0-1,0.1-1.5c0,0,0-0.1,0-0.1c0.2-5.2,0.3-9.1,0.4-10c0.3-7.5-10.3-8.2-10.2-0.1
			c0,2.5,0.3,6.1,0.5,10.2c0,0.1,0,0.2,0,0.3c0,0.5,0.8,0.8,0.9,1.3c0.3,3.8,0.5,15.6,0.4,18.9c-0.2,3.2,1.2,5.1,3.2,5.1
			c1.8,0,2.8-0.5,3.3-1.9l5.4-0.1c0.5,0,1.1-0.2,1.6-0.5c0.7-0.4,1.2-1.1,1.2-1.9C189.9,317.1,189.4,316.4,188.7,316z"/>
		<path class="st7" d="M179.9,261.1c-13.7,0-24.8,11.1-24.8,24.8c0,13.7,11.1,24.8,24.8,24.8s24.8-11.1,24.8-24.8
			C204.6,272.2,193.6,261.1,179.9,261.1z M179.9,298.1c-6.6,0-12-5.4-12-12c0-6.6,5.4-12,12-12s12,5.4,12,12
			C191.9,292.7,186.5,298.1,179.9,298.1z"/>
		<g>
			<g>
				<circle class="st8" cx="94.3" cy="270.5" r="67.6"/>
				<circle class="st9" cx="94.3" cy="270.5" r="62.6"/>
			</g>
			<path class="st10" d="M94.3,257.1c-7.4,0-13.4,6-13.4,13.4c0,7.4,6,13.4,13.4,13.4c7.4,0,13.4-6,13.4-13.4
				C107.6,263.1,101.6,257.1,94.3,257.1z M102.8,269l-1.7,3.1l0.2,3.5c0.2,2.9-2.9,4.9-5.5,3.5l-3.1-1.7l-3.5,0.2
				c-2.9,0.2-4.9-2.9-3.5-5.5l1.7-3.1l-0.2-3.5c-0.2-2.9,2.9-4.9,5.5-3.5l3.1,1.7l3.5-0.2C102.3,263.3,104.2,266.4,102.8,269z"/>
		</g>
		<g>
			<path class="st4" d="M270.8,118.4l-16.6,5.4l-7-13.5l-10.9-20.9l-0.9-1.7l22.3-9.4l0,0l0,0.2l0.6,1.7l0.9,2.9l3,9c0,0,0,0,0,0
				l0.2,0.7c0,0,0,0,0,0L270.8,118.4z"/>
			<polygon class="st11" points="274.9,130.9 261,136.8 254.2,123.8 270.8,118.4 			"/>
		</g>
		<path class="st0" d="M301.8,81.2c0-10.2-8.3-18.5-18.5-18.5c-5.2,0-9.9,2.1-13.2,5.6c-0.2,0.2-0.4,0.4-0.6,0.6
			c-4.3-4.8-11.4-6.6-17.6-3.9c-7.9,3.3-11.7,12.5-8.3,20.5c0.3,0.8,0.7,1.5,1.2,2.2c3.9,6.2,11.8,9,18.8,6.3c0.5-0.3,1-0.5,1.6-0.7
			c0.5-0.2,1.1-0.2,1.7-0.2c1.2,0,2.4,0.4,3.3,1c0.1,0.1,0.2,0.2,0.4,0.3c0.3,0.2,0.6,0.5,0.8,0.7c0.1,0.1,0.2,0.2,0.3,0.4
			c2,1.6,4.3,2.9,6.8,3.6c0.6,0.2,1.3,0.3,1.9,0.4c1,0.2,2,0.2,3,0.2c4.8,0,9.1-1.8,12.4-4.8l4.1,1.6l0.9-8.9l0,0
			C301.4,85.6,301.8,83.5,301.8,81.2z"/>
		<g>
			<path class="st10" d="M290.6,257.1c-7.4,0-13.4,6-13.4,13.4s6,13.4,13.4,13.4c7.4,0,13.4-6,13.4-13.4S298,257.1,290.6,257.1z
				 M299.1,269l-1.7,3.1l0.2,3.5c0.2,2.9-2.9,4.9-5.5,3.5l-3.1-1.7l-3.5,0.2c-2.9,0.2-4.9-2.9-3.5-5.5l1.7-3.1l-0.2-3.5
				c-0.2-2.9,2.9-4.9,5.5-3.5l3.1,1.7l3.5-0.2C298.6,263.3,300.6,266.4,299.1,269z"/>
			<g>
				<path class="st8" d="M290.6,202.9c-37.3,0-67.6,30.3-67.6,67.6c0,37.3,30.3,67.6,67.6,67.6c37.3,0,67.6-30.3,67.6-67.6
					C358.2,233.2,327.9,202.9,290.6,202.9z M290.6,333.6c-34.9,0-63.1-28.3-63.1-63.1c0-34.8,28.2-63.1,63.1-63.1
					c34.8,0,63.1,28.3,63.1,63.1C353.7,305.4,325.4,333.6,290.6,333.6z"/>
				<path class="st9" d="M290.6,207.4c-34.9,0-63.1,28.3-63.1,63.1c0,34.9,28.2,63.1,63.1,63.1c34.8,0,63.1-28.3,63.1-63.1
					C353.7,235.7,325.4,207.4,290.6,207.4z M290.6,317.8c-26.1,0-47.3-21.2-47.3-47.3c0-26.1,21.2-47.3,47.3-47.3
					c26.1,0,47.3,21.2,47.3,47.3C337.8,296.6,316.7,317.8,290.6,317.8z"/>
			</g>
		</g>
		<path class="st13" d="M154,138c0,0-2.7-0.8-4.1-1.1l-6.8-4.7c-5.6,0-15.6-0.2-16.9,0c-1.3,0.2,1,0.9,2.3,2c1.3,1-0.9,2.9,2,3.1
			c1.1,0.1,4.2,0.1,7.6,0.1l0,0l3.8,2.7c-1.2,0.6-2.3,1-3,1.3c0,0,7.1-0.5,10.2-0.6c3.1-0.1,3,0.6,3,0.6L154,138z M148.2,137.1
			c-0.8,0.3-1.9,0.7-3,1.2l-0.9-1.2l-0.6,0C145.5,137.2,147,137.2,148.2,137.1z M138.7,137.2c1.6,0,3.3,0,4.9,0l1.3,1.4
			c-0.9,0.4-1.7,0.8-2.6,1.2L138.7,137.2z"/>
		<circle class="st11" cx="140.2" cy="143.6" r="1.1"/>
		<circle class="st11" cx="145.8" cy="143.6" r="1.1"/>
		<path class="st12" d="M318.2,117.5c3-0.3,5.8,1.6,6.7,4.6c0.7,2.6-0.3,5.3-2.4,6.9"/>
		<path class="st14" d="M269,71.9c0,0,1.2,13.7,3.4,14.7l4.1-4.4l2.7,2.2c0,0-5.6,5-6.1,6.9c-0.5,2-1.1,4,1.3,6c0,0-5.7-2.9-5.7-3.9
			c0-1.1,0.7-1.6,0.8-4.7s-0.2-4.7-1.1-5.9c-0.9-1.2-3.4-12-2.2-13.5L269,71.9z"/>
		<path class="st11" d="M290.5,87.6c0,0,4.2,2.2,8,1.7c3.2-0.4,3,1.1,3.7,1c0.7-0.1,9.1-2.7,13-13c0,0-11.7-6.6-16.2-7.5
			s-6.9-1.9-9.5,0.9C287,73.4,286.2,84.4,290.5,87.6z"/>
		<line class="st15" x1="289.2" y1="98.7" x2="285.8" y2="96.5"/>
		<line class="st12" x1="266.1" y1="123.8" x2="265.8" y2="123.9"/>
		<path class="st11" d="M281,219.4c-3.3-10.6-3.3-18.4-2.4-19.9c0.8-1.5-1.2-2.6-1.2-2.6l-8.3-23.9l-115.5,3.2
			c-0.2-0.8-4.8-23.1-4.8-24.7c0-1.6,0.1-4.3,1.6-5.7s2.6-4.5,0.9-5c-1.7-0.5-13.7,0.6-14.8,0.7c-2,0.3-2.4,0.7-1.1,7.6
			c0.9,4.6,5,27.5,5,27.5l0.1,0c0.2,0.9,6.5,35,5.7,36.3c-0.8,1.3-56.1,56.8-56.1,58.8c0,2.6,21.3,14.4,25.1,15.4
			c2.7,0.7,61,5.4,66,4.5c5.8-1,53.4-61.6,56.9-65.2s12.2-14.2,15.5-16.1c2.9-1.8,6.2-2.9,6.8-3.1c0.2,1.3,0.2,2.5,0.2,2.5l15.8,42
			l-3.3,5.4c0,0,5.2,14.5,6.2,15.9s16.1,0,16.1,0S284.3,229.9,281,219.4z M163.5,280.7c0,0-45.4,0.5-47.4,0c-2-0.5-14.6-7-15.6-7.6
			c-1-0.7-1.6-2.3,0.7-4.4c2.4-2.1,45.3-44.9,46.1-44.3c0.8,0.7,12,18.6,14.6,28.3C164.8,262.7,165.7,275.6,163.5,280.7z
			 M231.7,203.1c-2.8,2.5-34,40.6-34.5,41.5c-0.4,0.7-1.7,2.7-6.7,2.4c-6.8-0.4-24,2.1-24.2,1.1c-0.1-0.6-2-15.6-4.6-30.6
			c-2.6-15.3-5.7-30.6-5.4-30.8c1.3-0.7,2-2.4,2.8-3.4c0.5-0.6,57.3,4.7,57.3,4.7s9.1,1.1,11.2,1.3c2.1,0.2,2.5,0.3,3.1,2.6
			c0.7,2.3,1.6,4.8,2.2,6.3C233.5,199.8,233.3,201.6,231.7,203.1z"/>
		<polyline class="st16" points="251.8,124.7 246.3,114.1 243.6,109.1 		"/>
		<path class="st17" d="M239.5,53.4c0-2.9,37.9-16.8,51.4-14.3S317,52.9,317,65.4c0,12.5-1.8,11.9-1.8,11.9s-15.5-9.3-22.5-8.5
			s-5.8,16.9-2.2,18.7c0,0-11.4,0.2-15.6-7.7s-10.7-12.9-15-13.8C255.7,65.1,240,58.9,239.5,53.4z"/>
		<path class="st6" d="M182.4,253c-2.3,0-4.4,0-4.4,0s0.5-0.2-1.2-0.1V249h-10.2l0.6,1.9c0.9,2.7,3.1,5,5.9,6.2l3.1,1.3
			c-0.9,8.6-2.7,24.2-2.8,24.9c-0.3,7.4,9.9,8.2,9.8,0.3C183.2,281.1,182.6,255.6,182.4,253z"/>
		<path class="st17" d="M261.5,96.6C261.5,96.6,261.5,96.5,261.5,96.6l-0.2-0.7c0,0,0,0,0,0l-3-9l-0.5-1.4c-0.1-0.8-0.2-1.7-0.3-2.5
			c-0.1-1.6,1.2-8.2,1.4-9c0.6-1.7,0.2-8-1.5-8.5c-7.6-2.2-10.7-5.2-15.2-7.6c-5.1-2.8-29.6-5.1-33.5-5.1c-7.2,0-13.6,2.1-20.3,4.4
			c-4.2,1.4-11.9,5-11.9,5c-6.5,4-11.5,7.2-16.1,12.4c-4.3,5.3-8.2,10.2-11.6,15.8c-1.1,1.8-2.1,3.7-3.1,5.6
			c-2.7,4.9-5.5,9.8-7.1,15.4c-0.8,2.2-1.3,4.5-1.3,6.8c-0.1,7.6,4,15,11.3,18.7c1.3,0.7,2.7,1.2,4,1.5l47.8,17.9l19.9-21.9
			l-22.7-14.4c1-0.4,2-0.8,3-1.3c1.3-0.7,2.6-1.4,3.7-2.3c1-1,2.1-1.9,3.2-2.6c3.1-2,6.7-3.2,10.7-3.2c0.3,0,0.5,0,0.7,0
			c3.4,0.1,9.3,2,9.3,1.6c3.3,0.3,6.7,0.1,10-0.9c0.4-0.1,0.7-0.2,1.1-0.3c0.5-0.2,0.9-0.3,1.4-0.5c1-0.4,1.9-0.8,2.8-1.3l2.7,5.1
			l5.5,10.6l16.5-7.5L261.5,96.6z M171.3,103c0,0,0.1,0.1,0.4,0.6c0.8,1,1.4,1.8,2,2.5c-0.7-0.8-1.4-1.6-2-2.5
			C171.3,103.2,171.3,103,171.3,103z"/>
		<path class="st18" d="M200.6,118.4c-2.8-1.6-8.6-4.7-14.9-6.2c-0.7-0.2-1.3-0.3-2-0.4c-4-0.7-6.9-2.6-9.2-4.9
			c-0.9-0.9-1.8-1.9-2.8-3.3c-0.3-0.4-0.4-0.5-0.4-0.6c-1.6-2.3-3-4.6-4.3-6.5c-3.7-5-8.8-4-12.9-4.5c-2.1-0.3-4-1.1-5.2-1.8"/>
		<line class="st18" x1="243.6" y1="109.1" x2="235.3" y2="93.2"/>
		<path class="st0" d="M241.4,164c-0.2,0.2-0.3,0.3-0.5,0.5l-61.4,57.9c-2-0.5-4.2-1-5.7-0.8c-1.1,0.1,0.4,3.8-2.1,3.8
			c-6.1-0.1-8.5-1.4-9.7-2.7c-2.3-2.6-1.6-7.7-1.8-10l51.9-52.1l-11.6-4.4l13.7-25.9l24,15.3c1,0.5,2,1.2,2.9,2
			C245.6,152,245.8,159.4,241.4,164z"/>
		<path class="st17" d="M204.6,198.6l-25.2,23.7c-2-0.5-4.2-1-5.7-0.8c-1.1,0.1,0.4,3.8-2.1,3.8c-6.1-0.1-8.5-1.4-9.7-2.7
			c-2.3-2.6-1.6-7.7-1.8-10l29.2-29.3L204.6,198.6z"/>
		<path class="st13" d="M195.5,258.3c-2.4,5.5-19.1-0.7-27.3-8.8c-8.2-8.1-6-9.4-14.3-17.2c-8.4-7.8-7.9-10.9-5.9-13.7
			c2-2.8,10.6-9.1,11.9-6.8c0.1,0.2,0.2,0.5,0.2,0.9c0.2,2.3-0.5,7.4,1.8,10c1.2,1.3,3.6,2.6,9.7,2.7c2.6,0,1.1-3.7,2.1-3.8
			c1.6-0.2,3.8,0.3,5.7,0.8c1.9,0.5,3.5,1,4.2,1c0,0,2.6,13.3,3.9,18.9c0.5,1.9,1.4,3.8,2.4,5.5
			C192.8,252.3,196.5,256.2,195.5,258.3z"/>
		<path class="st0" d="M190.3,251.2c0,0-5.4-1.7-6.7-2.8s-8.7-15.8-9.4-17.4s-1.3-8.7-0.9-9.2c0.5-0.6,2.7-0.3,4.4,0.2
			c1.7,0.4,5.8,1.4,5.8,1.4s3.4,18.2,4.5,20.6c1.3,2.8,3,5.5,3.5,6.2C192.1,250.9,190.3,251.2,190.3,251.2z"/>
		<path class="st13" d="M333.8,123.4c-1.6,2.9-8.4,8.6-9.1,9c-0.7,0.3-5.6,0.8-10.3,1.6c-4.7,0.8-9.5,2-18,3.9
			c-8.5,2-20.4,4.8-26.3,6.8c-5.9,2-5.6,4.1-5.2,6c0.4,1.9,2,2.6,3,4.4c1,1.8,0,11.4,0,11.4l-5.4,6.6l-0.6,0.6
			c-2.2,0.2-3.6,0.8-1.2,3.6c3.1,3.4,15.1,3.3,24,3.4c0.1,0.2,0.9-1,2.2-1c2.5-0.1,2.7,1.5,3.8,1.5s2.4,0,2.4,0
			c-0.2,1.3,0.6,4.5-6.4,7.3c-8.1,3.3-9.5,4.1-8.9,5.3c0.7,1.1,1.5,0.7,1.5,0.7c0.7-0.2-0.5-1.3,0.5-1.6s10.9-3.6,12.2-4.7
			c1.5-1.2,4.1-3.6,4-8.6c0-1.5-0.4-1.5-1.3-1.4c-0.1,0-0.2,0.1-0.3,0.1c0,0,0,0,0,0c1.4-1,1.5,0.5,1.5,0.5c0-0.8-1.3-5-6.3-5.1
			c-5,0-6,0-6,0c-0.1,0-0.9,0-2.2,0l-0.7-1.9l4.6-5.4c0,0,0-5.8-0.6-13.8c5-3.3,41.9-13.4,46.6-15.6c4.6-2.2,10.6-14,10.6-14
			S335.4,120.5,333.8,123.4z"/>
		<path class="st0" d="M347.2,125.9c-5.5,7.4-19.4,3.7-21.6,2.6c-0.8-0.4-5.1,1.4-5.1,1.4l-3.4-12.2c0,0,9.6-7.4,13.1-11l0,0
			c0.5-0.5,9.6-2.8,10.2-2.2c0.4,0.4,0.8,0.8,1.1,1.2l0,0c1.5,1.5,3,2.5,3.1,2.6c0,0,0,0,0,0c0.4,0.2,0.7,0.6,0.7,1.1
			c0,0.7-0.6,1.1-1.2,1.2c-2.7,0.4-3.1-2.4-4.6-2.2c-2,0.2-4.1,0.3-5.1,1.2c-0.7,0.6,0,1.5,1.7,2.4c1.7,0.9,9.2,1.4,9.2,1.4l1,0.1
			l3.9,0.7c0.7,0,1.2,0.7,1.2,1.3c0,0.7-0.4,1.6-1.1,1.6l-3.9,1.1l-9.6-0.5l-0.6,0l10.2,0.5l4.4-1.2l0.6-0.2c0.7,0,1.2,0.5,1.2,1.2
			c0,0.7-0.4,1.1-1.2,1.5l-3.2,1.6l-1.8,1.1l-13.4,0c0,0,13.4,0,13.4,0c0,0,1.4-0.8,1.8-1.1c1-0.7,2.2,1.3,2.2,2
			c0,0.7-0.5,1.1-1.1,1.6l-2.8,1.4l-1.8,1.2l-11.7-0.9"/>
		<path class="st0" d="M321,129.7c-12.8,4.4-51.6,15.2-51.6,15.2l-0.3,0.1c-3.7,1-7.6-0.9-9-4.4l-8.3-15.9l16.5-7.5l3.7,11.4
			l45.2-11.7c0.4-0.1,0.8-0.2,1.2-0.2"/>
	</g>
	<g id="textos">
		<g>
			<rect x="216.7" y="344.3" class="st19" width="131.5" height="44.6"/>
			<text transform="matrix(1 0 0 1 216.6774 352.0157)"><tspan x="0" y="0" class="st20 st21 st22">Geometría</tspan><tspan x="0" y="10.6" class="st20 st23 st24">Con forma de kammtail para ofrecer </tspan><tspan x="0" y="21.2" class="st20 st23 st24">la mínima resistencia al viento.</tspan></text>
		</g>
		<g>
			<rect x="358.1" y="135" class="st19" width="113.2" height="34.2"/>
			<text transform="matrix(1 0 0 1 358.0646 142.7101)"><tspan x="0" y="0" class="st20 st21 st22">Extensiones de manillar</tspan><tspan x="0" y="11" class="st20 st23 st25">Posición ayuda a cortar el </tspan><tspan x="0" y="22" class="st20 st23 st25">viento y ahorrar energía.</tspan></text>
		</g>
		<g>
			<rect x="28.8" y="344.3" class="st19" width="112.5" height="44.6"/>
			<text transform="matrix(1 0 0 1 28.7946 352.0157)"><tspan x="0" y="0" class="st20 st21 st22">Rueda lenticular</tspan><tspan x="0" y="10.6" class="st20 st23 st24">Reduce las turbulencias </tspan><tspan x="0" y="21.2" class="st20 st23 st24">producidas por el paso del aire.</tspan></text>
		</g>
		<g>
			<rect x="17.1" y="99.2" class="st19" width="100.8" height="34.1"/>
			<text transform="matrix(1 0 0 1 17.1295 105.5066)"><tspan x="0" y="0" class="st20 st23 st24">El cuerpo del ciclista genera </tspan><tspan x="0" y="10.6" class="st20 st23 st24">una resistencia del 80% al </tspan><tspan x="0" y="21.2" class="st20 st23 st24">atravesar el aire.</tspan></text>
		</g>
		<g>
			<rect x="105.5" y="14.6" class="st19" width="113.1" height="39.4"/>
			<text transform="matrix(1 0 0 1 105.4645 20.9133)"><tspan x="0" y="0" class="st20 st23 st24">Se usan materiales que </tspan><tspan x="0" y="10.6" class="st20 st23 st24">reduzcan al máximo la fricción </tspan><tspan x="0" y="21.2" class="st20 st23 st24">que se genera con el aire.</tspan></text>
		</g>
		<g>
			<rect x="386.5" y="263.3" class="st19" width="93.8" height="27.9"/>
			<text transform="matrix(1 0 0 1 386.4679 271.0251)"><tspan x="0" y="0" class="st20 st21 st22">Rueda delantera</tspan><tspan x="0" y="11" class="st20 st23 st25">Mínimo de 12 rayos.</tspan></text>
		</g>
		<g>
			<rect x="339.5" y="42.1" class="st19" width="117.8" height="43.1"/>
			<text transform="matrix(1 0 0 1 339.5294 49.7536)"><tspan x="0" y="0" class="st20 st21 st22">Casco</tspan><tspan x="0" y="10.6" class="st20 st23 st24">Guía el flujo de aire, para que </tspan><tspan x="0" y="21.2" class="st20 st23 st24">continúe ceñido al cuerpo del </tspan><tspan x="0" y="31.8" class="st20 st23 st24">ciclista.</tspan></text>
		</g>
		<g>
			<g>
				<polyline class="st26" points="183.9,46.2 183.9,54.2 183.9,64.5 				"/>
				<g>
					<circle class="st27" cx="183.9" cy="64.5" r="0.8"/>
				</g>
			</g>
		</g>
		<g>
			<g>
				<polyline class="st26" points="60.7,339.4 60.7,321.3 60.7,307.3 				"/>
				<g>
					<circle class="st27" cx="60.7" cy="307.3" r="0.8"/>
				</g>
			</g>
		</g>
		<g>
			<g>
				<polyline class="st26" points="218.5,339.4 218.5,285.9 218.5,244.5 				"/>
				<g>
					<circle class="st27" cx="218.5" cy="244.5" r="0.8"/>
				</g>
			</g>
		</g>
		<g>
			<g>
				<polyline class="st26" points="120.9,102.3 136.3,102.3 148.3,102.3 				"/>
				<g>
					<circle class="st27" cx="148.3" cy="102.3" r="0.8"/>
				</g>
			</g>
		</g>
		<g>
			<g>
				<polyline class="st26" points="352.6,141.1 331,141.1 314.3,141.1 				"/>
				<g>
					<circle class="st27" cx="314.3" cy="141.1" r="0.8"/>
				</g>
			</g>
		</g>
		<g>
			<g>
				<polyline class="st26" points="382.8,270.5 363.3,270.5 348.2,270.5 				"/>
				<g>
					<circle class="st27" cx="348.2" cy="270.5" r="0.8"/>
				</g>
			</g>
		</g>
		<g>
			<g>
				<polyline class="st26" points="332.2,46.4 314.8,46.4 301.3,46.4 				"/>
				<g>
					<circle class="st27" cx="301.3" cy="46.4" r="0.8"/>
				</g>
			</g>
		</g>
	</g>
</g>
<g id="Capa_2">
</g>
</svg>
