<svg xmlns="http://www.w3.org/2000/svg" viewBox="0 0 660 700">
<style type="text/css">
	@import url('https://fonts.googleapis.com/css2?family=Barlow+Semi+Condensed:wght@500;700');
	.st0{fill:#ECECEC;stroke:#6F6B6A;stroke-width:0.25;stroke-miterlimit:10;}
	.st1{opacity:0.2;fill:#43413F;}
	.st2{fill:#FFFFFF;stroke:#6F6B6A;stroke-width:0.5;stroke-miterlimit:10;}
	.st3{fill:#6F6B6A;stroke:#6F6B6A;stroke-width:0.25;stroke-miterlimit:10;}
	.st4{fill:#A19D9D;stroke:#6F6B6A;stroke-width:0.25;stroke-miterlimit:10;}
	.st5{fill:#C6C6C5;stroke:#6F6B6A;stroke-width:0.25;stroke-miterlimit:10;}
	.st6{fill:#2F2E2D;}
	.st7{fill:#575756;}
	.st8{fill:#43413F;}
	.st9{fill:#A19D9D;}
	.st10{fill:#868282;}
	.st11{fill:#DDDBDC;stroke:#6F6B6A;stroke-width:0.25;stroke-miterlimit:10;}
	.st12{fill:#FFFFFF;stroke:#6F6B6A;stroke-width:0.25;stroke-miterlimit:10;}
	.st13{fill:#43413F;stroke:#6F6B6A;stroke-width:0.25;stroke-miterlimit:10;}
	.st14{fill:#6F6B6A;}
	.st15{fill:#FFFFFF;stroke:#6F6B6A;stroke-width:1.000000e-03;stroke-miterlimit:10;}
	.st16{fill:#BEBBBC;}
	.st17{fill:#BEBBBC;stroke:#6F6B6A;stroke-width:0.25;stroke-miterlimit:10;}
	.st18{fill:none;stroke:#6F6B6A;stroke-width:0.5;stroke-miterlimit:10;}
	.st19{fill:none;stroke:#1D1D1B;stroke-width:0.5;stroke-linecap:round;stroke-linejoin:round;}
	.st20{fill:#1D1D1B;}
	.st21{fill:none;}
	.st22{fill:#1E1E1C;}
	.st23{font-family:'Barlow Semi Condensed', sans-serif;
		font-weight: 700;
		font-style: bold;}
	.st24{font-size:18.4639px;}
	.st25{font-family:'Barlow Semi Condensed', sans-serif;
		font-weight: 500;
		font-style: medium;}
	.st26{font-size:16.7854px;}
	.st27{font-size:16.7854px;}
</style>
<g id="Capa_1">
</g>
<g id="Capa_2">
	<g>
		<g id="grafica_00000016055756722853688490000016082078129778601351_">
			<path class="st0" d="M575,222.6c1.3,0.6,4.4-2.6,4.6-5c0.1-2.4-1.2-0.4-7.4-2c-2.2-0.6-4.3-1.1-6.3-1.5c0,1.7-1.8,2.2-3.1,2.2
				c-3,0-4.4-2.9-4.7-2.7c-2.3,0.7-2.9,0.8-9.9,3.5c0,0,1.2,1.5,4.3,2.3s8.7,1.3,9.7,1.3c0.9,0.1,5.2,0.4,6.4,0.6
				C569.8,221.6,574.8,222.5,575,222.6z"/>
			<ellipse class="st1" cx="142.8" cy="598.1" rx="79.4" ry="2"/>
			<ellipse class="st1" cx="466.9" cy="598.1" rx="79.4" ry="2"/>
			<g>
				<line class="st2" x1="482.3" y1="502.3" x2="534.8" y2="540.9"/>
				<line class="st2" x1="546.3" y1="522.6" x2="490.1" y2="484.7"/>
				<line class="st2" x1="553.1" y1="502" x2="490.1" y2="483.2"/>
				<line class="st2" x1="555" y1="479.5" x2="489.8" y2="488.5"/>
				<line class="st2" x1="551.3" y1="457.2" x2="489.8" y2="481.2"/>
				<line class="st2" x1="542.1" y1="436" x2="485.5" y2="470.6"/>
				<line class="st2" x1="528.4" y1="418.5" x2="481.7" y2="463.2"/>
				<line class="st2" x1="508.5" y1="404.2" x2="488.8" y2="468.5"/>
				<line class="st2" x1="490.1" y1="397.4" x2="480.1" y2="463.9"/>
				<line class="st2" x1="468.7" y1="395.5" x2="469.9" y2="461.1"/>
				<line class="st2" x1="411.3" y1="425.3" x2="450.6" y2="459.7"/>
				<line class="st2" x1="400" y1="443.1" x2="449.1" y2="470.7"/>
				<line class="st2" x1="392.8" y1="464.4" x2="451.6" y2="480.2"/>
				<line class="st2" x1="390.9" y1="487.1" x2="452.3" y2="480.1"/>
				<line class="st2" x1="394.7" y1="509.9" x2="453.2" y2="486.4"/>
				<line class="st2" x1="404.5" y1="531.7" x2="458.5" y2="498.3"/>
				<line class="st2" x1="419" y1="549.4" x2="461.8" y2="503"/>
				<line class="st2" x1="437.6" y1="562.5" x2="462.1" y2="502.8"/>
				<line class="st2" x1="458.3" y1="569.6" x2="458.3" y2="497.7"/>
				<line class="st2" x1="478.3" y1="570.8" x2="482.3" y2="502.3"/>
				<line class="st2" x1="501" y1="565.7" x2="482.3" y2="502.3"/>
				<line class="st2" x1="520.6" y1="554.7" x2="485.6" y2="503"/>
			</g>
			<path class="st3" d="M339.1,554.2c0.1,10.1-29.7,12.2-47.8,5.5c-18.1-6.7-15.7-10.3-33.8-16.3c-18.2-6-19.6-11.2-18.5-16.8
				c1.1-5.6,9.9-21.2,13.4-18.7c0.3,0.2,0.6,0.6,0.9,1.2c0.4,0.7,0.8,1.6,1.3,2.7c1.8,3.9,4.2,9.5,8.3,11.3c0.1,0.1,1.4-7.1,1.6-7
				c2.4,1,2.9,3.6,10.1,0.8c0.9-0.3,2.8-0.2,3.8-0.6c1.7-0.7,3.1,2.3,2.7,1c-0.2-0.7-0.5-1.4-0.7-2c0.2,0.5,0.5,1.1,0.8,1.8
				c1.8,3.6,5,8.9,6.5,10.2c2.1,2,23.7,19.2,26.4,20.1c2.7,0.9,12.2-0.3,12.2-0.3s2.3-1.6,1.3-2.4
				C333.6,548.3,339.1,551.1,339.1,554.2z"/>
			<path class="st4" d="M334.6,333.8l-46.9,8.6l-43.6-82.3v0c-1.3-1.9-2.4-4-3.3-6.3c-5.1-12.7-2.1-26.6,6.6-36.1
				c2.6-2.8,5.7-5.2,9.2-7.1c1-0.5,2.1-1.1,3.2-1.5c11.9-4.8,24.9-2.5,34.3,5c0.1,0,0.1,0.1,0.2,0.1c4.4,3.5,7.9,8.2,10.2,13.8
				l2,6.9v0L334.6,333.8z"/>
			<path class="st5" d="M343.8,378.3c-0.1,0.4-0.3,0.7-0.4,1.1c0,0.1,0,0.1-0.1,0.2l-0.4,0.8c0,0,0,0.1-0.1,0.1L281.3,517
				c-0.3-0.7-0.6-1.3-0.8-1.8c0.2,0.6,0.6,1.3,0.7,2l-1.4,3.2c-0.9,0.4-1.8,0.8-2.7,1.1c-7.2,2.8-11.1,2.6-13.6,1.6
				c-0.1-0.1-0.3-0.1-0.4-0.2c-4.1-1.9-6.6-7.4-8.3-11.3c-0.5-1.1-0.9-2-1.3-2.7L304,373.2l-16.3-30.8l46.9-8.6l8.8,30.8
				C345.2,368.8,345.5,373.6,343.8,378.3z"/>
			<path class="st4" d="M326.3,547.1c0,0-9.5,1.2-12.2,0.3c-2.7-0.9-24.2-18.1-26.4-20.1c-1.7-1.6-6-8.8-7.3-12
				c0-0.1-0.1-0.2-0.1-0.3c0-0.1-0.1-0.2-0.1-0.3c0,0,0,0,0,0c-0.1-0.3-0.2-0.6-0.2-0.8c0,0,0,0,0,0c0.1-0.3,0.4-0.7,1-1
				c0,0,0,0,0,0c1.6-0.8,3.7-1.4,5.9-1.8c0.1,0,0.2,0,0.3-0.1c0.6-0.1,1.3-0.2,2.1-0.4c0.2,0,0.3-0.1,0.5-0.1
				c3.1-0.5,5.9-0.9,6.9-1.3c0,0,0,0,0,0s0.2,0.2,0.4,0.6c0.1,0.1,0.1,0.1,0.2,0.2c3.1,4.4,17.5,24.8,20.5,27.5c0,0,0,0,0,0
				c1.6,1.6,3.5,3.1,5.5,4.5c1.2,0.9,2.5,1.7,3.7,2.4c0.1,0,0.1,0.1,0.2,0.1c0.1,0,0.1,0.1,0.1,0.1c0.1,0,0.1,0.1,0.2,0.1
				c0,0,0,0,0,0C328.7,545.4,326.3,547.1,326.3,547.1z"/>
			<path class="st6" d="M302.9,561c-0.8-0.5-1.8-0.8-2.8-0.8l-8,0.1c0.1-3,0.3-4.9,0.5-9.4c0-0.1,0-0.2,0-0.3
				c0.2-6.7,0.5-13.6,0.7-19.8c0-0.8,0.1-1.7,0.1-2.5c0-0.1,0-0.2,0-0.2c0.3-8.7,0.5-15.3,0.6-16.8c0.5-12.7-17.2-13.7-17-0.2
				c0.1,4.1,0.4,10.2,0.9,17.1c0,0.2,0,0.4,0,0.6c0,0.8,1.4,1.4,1.5,2.2c0.5,6.3,0.8,26.3,0.7,31.8c-0.3,5.5,1.9,8.6,5.4,8.6
				c3,0,4.7-0.8,5.6-3.1l9.1-0.1c0.9,0,1.9-0.3,2.7-0.8c1.2-0.7,2.1-1.9,2.1-3.1C304.9,562.8,304,561.7,302.9,561z"/>
			<path class="st7" d="M288.1,468.8c-23,0-41.6,18.6-41.6,41.6s18.6,41.6,41.6,41.6s41.6-18.6,41.6-41.6S311.1,468.8,288.1,468.8z
				 M288.1,530.8c-11.2,0-20.2-9-20.2-20.2c0-11.2,9-20.2,20.2-20.2s20.2,9,20.2,20.2C308.3,521.8,299.3,530.8,288.1,530.8z"/>
			<g>
				<g>
					<circle class="st8" cx="144.4" cy="484.6" r="113.5"/>
					<circle class="st9" cx="144.4" cy="484.6" r="105.1"/>
				</g>
				<path class="st10" d="M144.4,462.2c-12.4,0-22.5,10.1-22.5,22.5c0,12.4,10.1,22.5,22.5,22.5c12.4,0,22.5-10.1,22.5-22.5
					C166.8,472.2,156.8,462.2,144.4,462.2z M158.7,482l-2.9,5.2l0.4,6c0.3,4.9-4.9,8.2-9.2,5.8l-5.2-2.9l-5.9,0.4
					c-4.9,0.3-8.2-4.9-5.8-9.2l2.9-5.2l-0.4-6c-0.3-4.9,4.9-8.2,9.2-5.8l5.2,2.9l5.9-0.4C157.8,472.5,161.1,477.7,158.7,482z"/>
			</g>
			<g>
				<path class="st4" d="M440.8,229.3l-27.9,9L401,215.6l-18.3-35.1l-1.5-2.9l37.4-15.8l0,0l0.1,0.3l0.9,2.8l1.6,4.8l5,15.2
					c0,0,0,0,0,0.1l0.4,1.2c0,0,0,0.1,0,0.1L440.8,229.3z"/>
				<polygon class="st11" points="447.6,250.3 424.2,260.1 412.8,238.3 440.8,229.3 				"/>
			</g>
			<path class="st0" d="M492.7,166.9c0-17.1-13.9-31-31-31c-8.7,0-16.6,3.6-22.2,9.4c-0.3,0.3-0.7,0.7-1,1.1
				c-7.3-8-19.1-11-29.6-6.6c-13.3,5.6-19.6,21-14,34.3c0.6,1.3,1.2,2.6,2,3.8c6.6,10.5,19.8,15.1,31.6,10.5
				c0.8-0.5,1.7-0.9,2.6-1.2c0.9-0.3,1.8-0.4,2.8-0.4c2.1,0,4,0.6,5.6,1.7c0.2,0.1,0.4,0.3,0.6,0.4c0.5,0.4,0.9,0.8,1.4,1.2
				c0.2,0.2,0.4,0.4,0.5,0.6c3.3,2.7,7.2,4.8,11.4,6c1.1,0.3,2.1,0.5,3.3,0.7c1.6,0.3,3.3,0.4,5,0.4c8,0,15.3-3.1,20.8-8.1l6.8,2.7
				l1.5-15l-0.1,0C492,174.2,492.7,170.6,492.7,166.9z"/>
			<g>
				<path class="st10" d="M473.9,462.2c-12.4,0-22.5,10.1-22.5,22.5c0,12.4,10.1,22.5,22.5,22.5s22.5-10.1,22.5-22.5
					C496.4,472.2,486.3,462.2,473.9,462.2z M488.3,482l-2.9,5.2l0.4,5.9c0.3,4.9-4.9,8.2-9.2,5.8l-5.2-2.9l-5.9,0.4
					c-4.9,0.3-8.2-4.9-5.8-9.2l2.9-5.2l-0.4-5.9c-0.3-4.9,4.9-8.2,9.2-5.8l5.2,2.9l5.9-0.4C487.4,472.5,490.7,477.7,488.3,482z"/>
				<g>
					<path class="st8" d="M473.9,371.1c-62.7,0-113.5,50.8-113.5,113.5s50.8,113.5,113.5,113.5c62.7,0,113.5-50.8,113.5-113.5
						S536.6,371.1,473.9,371.1z M473.9,590.5c-58.5,0-105.9-47.4-105.9-105.9c0-58.5,47.4-105.9,105.9-105.9
						c58.5,0,105.9,47.4,105.9,105.9C579.8,543.1,532.4,590.5,473.9,590.5z"/>
					<path class="st9" d="M473.9,378.7c-58.5,0-105.9,47.4-105.9,105.9c0,58.5,47.4,105.9,105.9,105.9
						c58.5,0,105.9-47.4,105.9-105.9C579.8,426.1,532.4,378.7,473.9,378.7z M473.9,564c-43.8,0-79.3-35.5-79.3-79.3
						c0-43.8,35.5-79.3,79.3-79.3c43.8,0,79.3,35.5,79.3,79.3C553.3,528.4,517.7,564,473.9,564z"/>
				</g>
			</g>
			<path class="st13" d="M244.6,262.1c0,0-4.6-1.3-6.8-1.8l-11.5-8c-9.4,0-26.2-0.3-28.4,0c-2.3,0.3,1.6,1.5,3.9,3.3
				c2.3,1.7-1.4,4.8,3.4,5.1c1.8,0.1,7,0.1,12.7,0.1l0,0l6.4,4.6c-2,0.9-3.9,1.8-5.1,2.2c0,0,12-0.9,17.2-1.1c5.2-0.2,5,1.1,5,1.1
				L244.6,262.1z M234.9,260.7c-1.4,0.5-3.1,1.2-5,2.1l-1.6-2l-0.9,0C230.3,260.8,233,260.8,234.9,260.7z M218.9,260.8
				c2.7,0,5.6,0,8.2,0l2.2,2.3c-1.4,0.6-2.9,1.3-4.3,2L218.9,260.8z"/>
			<circle class="st11" cx="221.4" cy="271.5" r="1.9"/>
			<circle class="st11" cx="230.8" cy="271.5" r="1.9"/>
			<path class="st12" d="M520.3,227.8c5-0.4,9.8,2.8,11.2,7.8c1.2,4.4-0.5,9-3.9,11.6"/>
			<path class="st14" d="M437.7,151.3c0,0,2,23,5.7,24.7l7-7.4l4.5,3.8c0,0-9.3,8.3-10.2,11.6c-0.8,3.3-1.9,6.7,2.1,10.1
				c0,0-9.5-4.9-9.5-6.6c0-1.8,1.2-2.7,1.3-7.8c0.1-5.1-0.4-7.8-1.9-9.9c-1.5-2.1-5.7-20.1-3.8-22.6L437.7,151.3z"/>
			<path class="st11" d="M473.8,177.5c0,0,7.1,3.7,13.4,2.9c5.3-0.7,5,1.8,6.3,1.7s15.3-4.5,21.9-21.7c0,0-19.7-11-27.1-12.6
				c-7.4-1.6-11.5-3.1-15.9,1.5C467.9,153.7,466.7,172.2,473.8,177.5z"/>
			<line class="st15" x1="471.6" y1="196.2" x2="465.8" y2="192.5"/>
			<line class="st12" x1="432.9" y1="238.3" x2="432.3" y2="238.5"/>
			<path class="st11" d="M457.9,398.8c-5.5-17.8-5.5-30.9-4.1-33.5c1.4-2.6-2-4.3-2-4.3l-13.9-40.2l-193.8,5.4
				c-0.3-1.4-8-38.8-8-41.5c0-2.7,0.2-7.2,2.7-9.6c2.5-2.5,4.3-7.6,1.4-8.4c-2.9-0.8-23,1-24.8,1.2c-3.4,0.5-4,1.2-1.8,12.7
				c1.4,7.7,8.3,46.2,8.3,46.2l0.2,0c0.3,1.4,10.9,58.7,9.5,60.9c-1.4,2.2-94.2,95.4-94.2,98.7c0,4.4,35.8,24.1,42.1,25.8
				c4.5,1.2,102.4,9,110.8,7.6c9.7-1.7,89.7-103.5,95.4-109.5c5.7-6,20.5-23.8,26-27c4.9-2.9,10.4-4.8,11.4-5.2
				c0.3,2.2,0.4,4.1,0.4,4.1l26.5,70.5l-5.5,9c0,0,8.7,24.3,10.4,26.8s27,0,27,0S463.4,416.5,457.9,398.8z M260.6,501.7
				c0,0-76.2,0.8-79.5,0c-3.3-0.8-24.6-11.7-26.2-12.8c-1.6-1.1-2.8-3.8,1.2-7.3c4-3.6,76.1-75.4,77.5-74.3
				c1.4,1.1,20.2,31.3,24.6,47.4C262.8,471.6,264.4,493.1,260.6,501.7z M375.1,371.4c-4.6,4.3-57,68.1-57.9,69.7
				c-0.6,1.1-2.8,4.5-11.2,4c-11.5-0.7-40.3,3.6-40.7,1.9c-0.2-1-3.4-26.2-7.6-51.3c-4.3-25.7-9.6-51.3-9-51.7
				c2.3-1.3,3.4-4.1,4.6-5.7c0.8-1.1,96.2,7.9,96.2,7.9s15.3,1.9,18.8,2.2c3.6,0.3,4.2,0.5,5.3,4.4c1.1,3.8,2.7,8,3.6,10.6
				C378,365.9,377.7,369,375.1,371.4z"/>
			<polyline class="st16" points="408.8,239.9 399.5,222.1 395.1,213.6 			"/>
			<path class="st17" d="M388.3,120.1c0-4.9,63.6-28.1,86.3-24c22.7,4.1,43.8,23.2,43.7,44.3s-3,19.9-3,19.9s-26-15.6-37.8-14.2
				c-11.9,1.4-9.7,28.4-3.7,31.4c0,0-19.1,0.3-26.2-12.8c-7.1-13.1-18-21.6-25.1-23.2C415.3,139.8,389.1,129.4,388.3,120.1z"/>
			<path class="st6" d="M292.3,455.2c-3.9-0.1-7.4,0-7.4,0s0.8-0.3-2.1-0.1v-6.6h-17.2l1.1,3.1c1.6,4.6,5.2,8.3,9.9,10.4l5.2,2.2
				c-1.5,14.5-4.6,40.7-4.6,41.8c-0.5,12.5,16.6,13.8,16.4,0.5C293.6,502.4,292.7,459.6,292.3,455.2z"/>
			<path class="st17" d="M425.1,192.6C425.1,192.6,425.1,192.6,425.1,192.6l-0.4-1.2c0,0,0-0.1,0-0.1l-5-15.2l-0.8-2.4
				c-0.2-1.4-0.3-2.8-0.4-4.2c-0.2-2.7,1.9-13.8,2.4-15.1c1-2.9,0.3-13.4-2.6-14.2c-12.7-3.7-18-8.7-25.5-12.8
				c-8.6-4.7-49.6-8.6-56.2-8.6c-12.2,0-22.9,3.5-34.1,7.3c-7,2.4-20,8.4-20,8.4c-10.9,6.6-19.3,12-27,20.8
				c-7.2,8.9-13.8,17.1-19.5,26.6c-1.8,3-3.6,6.1-5.2,9.5c-4.5,8.2-9.3,16.4-11.9,25.9c-1.4,3.7-2.1,7.6-2.2,11.4
				c-0.2,12.8,6.7,25.2,19,31.3c2.2,1.1,4.5,1.9,6.8,2.5l80.3,30.1l33.4-36.8l-38.1-24.3c1.7-0.7,3.4-1.4,5-2.2
				c2.2-1.1,4.3-2.4,6.3-3.8c1.6-1.7,3.4-3.1,5.4-4.4c5.1-3.4,11.3-5.3,17.9-5.3c0.4,0,0.8,0,1.2,0c5.6,0.2,15.6,3.3,15.7,2.7
				c5.5,0.6,11.2,0.1,16.8-1.4c0.6-0.2,1.2-0.4,1.8-0.6c0.8-0.3,1.6-0.5,2.3-0.8c1.6-0.6,3.2-1.4,4.7-2.1l4.5,8.5l9.3,17.7
				l27.7-12.6L425.1,192.6z M273.7,203.4c0,0,0.1,0.2,0.7,0.9c1.3,1.6,2.4,2.9,3.4,4.1c-1.2-1.3-2.4-2.7-3.4-4.1
				C273.7,203.7,273.7,203.5,273.7,203.4z"/>
			<path class="st18" d="M322.9,229.3c-4.7-2.7-14.4-7.9-25-10.5c-1.1-0.3-2.2-0.5-3.3-0.7c-6.7-1.2-11.6-4.4-15.5-8.2
				c-1.5-1.5-2.9-3.2-4.7-5.5c-0.6-0.7-0.7-0.9-0.7-0.9c-2.8-3.8-5-7.8-7.3-10.9c-6.1-8.5-14.7-6.7-21.7-7.5
				c-3.6-0.4-6.7-1.8-8.8-3.1"/>
			<line class="st18" x1="395.1" y1="213.6" x2="381.2" y2="187"/>
			<path class="st0" d="M391.3,305.8c-0.3,0.3-0.5,0.6-0.8,0.8l-103.1,97.1c-3.3-0.9-7-1.7-9.6-1.4c-1.8,0.2,0.7,6.5-3.6,6.4
				c-10.3-0.1-14.3-2.3-16.3-4.5c-3.8-4.3-2.6-13-3-16.8l87.2-87.5l-19.5-7.3l23-43.5l40.3,25.6c1.7,0.9,3.4,2,4.9,3.4
				C398.5,285.7,398.8,298,391.3,305.8z"/>
			<path class="st17" d="M329.7,364l-42.2,39.8c-3.3-0.9-7-1.7-9.6-1.4c-1.8,0.2,0.7,6.5-3.6,6.4c-10.3-0.1-14.3-2.3-16.3-4.5
				c-3.8-4.3-2.6-13-3-16.8l49-49.2L329.7,364z"/>
			<path class="st13" d="M314.4,464c-4.1,9.2-32.1-1.1-45.8-14.7c-13.7-13.6-10-15.8-24.1-28.9c-14-13-13.2-18.4-9.9-23
				c3.3-4.6,17.7-15.2,20-11.5c0.2,0.3,0.3,0.8,0.4,1.5c0.4,3.8-0.8,12.5,3,16.8c1.9,2.2,6,4.4,16.3,4.5c4.3,0.1,1.8-6.2,3.6-6.4
				c2.6-0.3,6.3,0.5,9.6,1.4c3.1,0.8,5.9,1.7,7,1.7c0,0,4.3,22.4,6.6,31.7c0.8,3.2,2.3,6.3,4,9.2C309.7,454.1,315.9,460.5,314.4,464
				z"/>
			<path class="st0" d="M305.7,452.3c0,0-9.1-2.9-11.2-4.8c-2.1-1.9-14.6-26.5-15.7-29.2c-1.1-2.7-2.2-14.5-1.5-15.5
				c0.8-1,4.5-0.4,7.4,0.3c2.9,0.7,9.7,2.4,9.7,2.4s5.7,30.6,7.5,34.5c2.2,4.7,5,9.3,5.8,10.5S305.7,452.3,305.7,452.3z"/>
			<path class="st13" d="M546.4,237.7c-2.7,4.9-14.1,14.5-15.3,15c-1.2,0.5-9.4,1.4-17.3,2.7c-7.9,1.4-16,3.3-30.2,6.6
				c-14.2,3.3-34.3,8.1-44.1,11.5c-9.8,3.4-9.4,7-8.7,10.1c0.7,3.1,3.4,4.4,5.1,7.4c1.6,3,0,19.1,0,19.1l-9,11l-1,1.1
				c-3.7,0.3-6.1,1.4-2,6c5.1,5.7,25.4,5.5,40.4,5.7c0.1,0.4,1.4-1.6,3.8-1.7c4.2-0.2,4.5,2.4,6.4,2.4c1.9,0,4,0,4,0
				c-0.4,2.1,0.9,7.6-10.8,12.3c-13.7,5.5-16,7-14.9,8.9c1.1,1.9,2.5,1.1,2.5,1.1c1.1-0.4-0.8-2.2,0.8-2.7c1.6-0.5,18.3-6,20.5-7.8
				c2.5-2,6.8-6.1,6.7-14.4c0-2.6-0.7-2.6-2.2-2.3c-0.2,0-0.3,0.1-0.4,0.2c0,0,0,0,0,0c2.3-1.6,2.5,0.8,2.5,0.8
				c0-1.3-2.2-8.5-10.6-8.5c-8.3-0.1-10.1,0-10.1,0c-0.2,0-1.6,0-3.7,0l-1.2-3.2l7.7-9.1c0,0,0-9.7-1-23.1
				c8.4-5.6,70.4-22.5,78.2-26.2c7.8-3.7,17.8-23.5,17.8-23.5S549.1,232.8,546.4,237.7z"/>
			<path class="st0" d="M568.9,241.8c-9.3,12.4-32.5,6.2-36.3,4.4c-1.4-0.6-8.6,2.3-8.6,2.3l-5.7-20.4c0,0,16.1-12.5,22.1-18.5l0,0
				c0.8-0.8,16.1-4.8,17.2-3.6c0.6,0.7,1.3,1.4,1.9,2l0,0c2.6,2.6,5.1,4.3,5.2,4.4c0,0,0,0,0,0c0.7,0.3,1.1,1,1.1,1.8
				c0,1.1-0.9,1.9-2.1,2c-4.5,0.7-5.3-4-7.8-3.7c-3.3,0.4-6.8,0.5-8.6,2c-1.2,1.1,0,2.6,2.9,4.1c2.9,1.5,15.4,2.3,15.4,2.3l1.6,0.1
				l6.6,1.1c1.1,0,2,1.1,2,2.3c0,1.1-0.6,2.7-1.8,2.7l-6.6,1.8l-16.1-0.8l-1,0l17.2,0.8l7.3-2l1-0.3c1.1,0,2.1,0.9,2.1,2.1
				c0,1.1-0.7,1.9-1.9,2.5l-5.4,2.7l-3,1.8l-22.4,0c0,0,22.4,0,22.4,0c0,0,2.3-1.3,3-1.8c1.7-1.2,3.8,2.2,3.8,3.3
				c0,1.1-0.8,1.9-1.9,2.6l-4.7,2.3l-3.1,2l-19.6-1.5"/>
			<path class="st0" d="M524.9,248.2c-21.5,7.4-86.6,25.6-86.6,25.6l-0.5,0.2c-6.2,1.8-12.7-1.5-15.2-7.3l-13.9-26.7l27.7-12.6
				l6.3,19.1l75.8-19.6c0.7-0.2,1.3-0.3,2-0.4"/>
		</g>
		<g>
			<rect x="216.7" y="612.1" class="st21" width="160.9" height="74.9"/>
			<text transform="matrix(1 0 0 1 216.7345 625.0343)"><tspan x="0" y="0" class="st22 st23 st24">Geometría</tspan><tspan x="0" y="17.8" class="st22 st25 st26">Con forma de kammtail </tspan><tspan x="0" y="35.6" class="st22 st25 st26">para ofrecer la mínima </tspan><tspan x="0" y="53.4" class="st22 st25 st26">resistencia al viento.</tspan></text>
		</g>
		<g>
			<rect x="511.7" y="279.4" class="st21" width="117.4" height="93.1"/>
			<text transform="matrix(1 0 0 1 511.7205 295.1036)"><tspan x="0" y="0" class="st22 st23 st24">Extensiones de  </tspan><tspan x="0" y="18.5" class="st22 st23 st24">manillar</tspan><tspan x="0" y="36.9" class="st22 st25 st27">Posición ayuda a  </tspan><tspan x="0" y="55.4" class="st22 st25 st27">cortar el viento y  </tspan><tspan x="0" y="73.9" class="st22 st25 st27">ahorrar energía.</tspan></text>
		</g>
		<g>
			<rect x="67.4" y="284.5" class="st21" width="143.6" height="74.9"/>
			<text transform="matrix(1 0 0 1 67.3869 297.412)"><tspan x="0" y="0" class="st22 st23 st24">Rueda lenticular</tspan><tspan x="0" y="17.8" class="st22 st25 st26">Reduce las turbulencias </tspan><tspan x="0" y="35.6" class="st22 st25 st26">producidas por el paso </tspan><tspan x="0" y="53.4" class="st22 st25 st26">del aire.</tspan></text>
		</g>
		<g>
			<rect x="74.7" y="143.4" class="st21" width="116.8" height="85.9"/>
			<text transform="matrix(1 0 0 1 74.6558 153.9597)"><tspan x="0" y="0" class="st22 st25 st26">El cuerpo del </tspan><tspan x="0" y="17.8" class="st22 st25 st26">ciclista genera una </tspan><tspan x="0" y="35.6" class="st22 st25 st26">resistencia del </tspan><tspan x="0" y="53.4" class="st22 st25 st26">80% al atravesar el </tspan><tspan x="0" y="71.2" class="st22 st25 st26">aire.</tspan></text>
		</g>
		<g>
			<rect x="180.9" y="52" class="st21" width="189.8" height="66.1"/>
			<text transform="matrix(1 0 0 1 180.8546 62.5344)"><tspan x="0" y="0" class="st22 st25 st26">Se usan materiales que </tspan><tspan x="0" y="17.8" class="st22 st25 st26">reduzcan al máximo la fricción </tspan><tspan x="0" y="35.6" class="st22 st25 st26">que se genera con el aire.</tspan></text>
		</g>
		<g>
			<rect x="445.4" y="612.1" class="st21" width="157.4" height="46.8"/>
			<text transform="matrix(1 0 0 1 445.4158 625.0338)"><tspan x="0" y="0" class="st22 st23 st24">Rueda delantera</tspan><tspan x="0" y="18.5" class="st22 st25 st27">Mínimo de 12 rayos.</tspan></text>
		</g>
		<g>
			<rect x="438.1" y="13" class="st21" width="176.9" height="72.3"/>
			<text transform="matrix(1 0 0 1 438.1453 28.6759)"><tspan x="0" y="0" class="st22 st23 st24">Casco</tspan><tspan x="0" y="17.8" class="st22 st25 st26">Guía el flujo de aire, para que  </tspan><tspan x="0" y="35.6" class="st22 st25 st26">continúe ceñido al cuerpo del  </tspan><tspan x="0" y="53.4" class="st22 st25 st26">ciclista.</tspan></text>
		</g>
		<g>
			<g>
				<polyline class="st19" points="294.8,101.2 294.8,117.7 294.8,138.9 				"/>
				<g>
					<circle class="st20" cx="294.8" cy="138.9" r="0.8"/>
				</g>
			</g>
		</g>
		<g>
			<g>
				<polyline class="st19" points="93.1,355.7 93.1,382.1 93.1,402.6 				"/>
				<g>
					<path class="st20" d="M92.3,402.6c0,0.4,0.3,0.8,0.8,0.8c0.4,0,0.8-0.3,0.8-0.8c0-0.4-0.3-0.8-0.8-0.8
						C92.7,401.8,92.3,402.2,92.3,402.6z"/>
				</g>
			</g>
		</g>
		<g>
			<g>
				<polyline class="st19" points="253.4,606 253.4,552.1 253.4,510.3 				"/>
				<g>
					<path class="st20" d="M254.1,510.3c0-0.4-0.3-0.8-0.8-0.8s-0.8,0.3-0.8,0.8c0,0.4,0.3,0.8,0.8,0.8S254.1,510.7,254.1,510.3z"/>
				</g>
			</g>
		</g>
		<g>
			<g>
				<polyline class="st19" points="189.1,202.2 215,202.2 235.1,202.2 				"/>
				<g>
					<circle class="st20" cx="235.1" cy="202.2" r="0.8"/>
				</g>
			</g>
		</g>
		<g>
			<g>
				<polyline class="st19" points="532,278.2 532,268 532,260.1 				"/>
				<g>
					<circle class="st20" cx="532" cy="260.1" r="0.8"/>
				</g>
			</g>
		</g>
		<g>
			<g>
				<polyline class="st19" points="465.8,606 465.8,594.4 465.8,585.4 				"/>
				<g>
					<circle class="st20" cx="465.8" cy="585.4" r="0.8"/>
				</g>
			</g>
		</g>
		<g>
			<g>
				<polyline class="st19" points="471.6,86.6 471.6,93.8 471.6,99.4 				"/>
				<g>
					<path class="st20" d="M470.9,99.4c0,0.4,0.3,0.8,0.8,0.8c0.4,0,0.8-0.3,0.8-0.8c0-0.4-0.3-0.8-0.8-0.8
						C471.2,98.7,470.9,99,470.9,99.4z"/>
				</g>
			</g>
		</g>
	</g>
</g>
</svg>
