<?xml version="1.0" encoding="utf-8"?>
<!-- Generator: Adobe Illustrator 22.0.1, SVG Export Plug-In . SVG Version: 6.00 Build 0)  -->
<svg version="1.1" id="Capa_1" xmlns="http://www.w3.org/2000/svg" xmlns:xlink="http://www.w3.org/1999/xlink" x="0px" y="0px"
	 viewBox="0 0 602.3 642.6" style="enable-background:new 0 0 602.3 642.6;" xml:space="preserve">
<style type="text/css">
	.st0{opacity:0.2;fill:#434140;enable-background:new    ;}
	.st1{fill:none;}
	.st2{fill:#1F1F1D;}
	.st3{font-family:'ArialMT';}
	.st4{font-size:20px;}
	.st5{font-family:'MyriadPro-Regular';}
	.st6{font-size:20.8075px;}
	.st7{fill:none;stroke:#706C6B;stroke-width:1.000000e-02;stroke-miterlimit:10;}
	.st8{fill:#706C6B;}
	.st9{fill:#A19D9D;}
	.st10{fill:#C7C7C6;}
	.st11{fill:#302F2E;}
	.st12{fill:#585857;}
	.st13{fill:#434140;}
	.st14{fill:#868383;}
	.st15{fill:#DDDBDC;}
	.st16{fill:#ECECEC;}
	.st17{fill:#ECECEC;stroke:#706C6B;stroke-width:1.000000e-04;stroke-miterlimit:10;}
	.st18{fill:#595655;}
	.st19{fill:#FFFFFF;stroke:#706C6B;stroke-width:0.25;stroke-miterlimit:10;}
	.st20{fill:#DDDBDC;stroke:#706C6B;stroke-width:0.25;stroke-miterlimit:10;}
	.st21{fill:#BEBBBC;}
	.st22{fill:none;stroke:#706C6B;stroke-width:1.000000e-03;stroke-miterlimit:10;}
	.st23{fill:none;stroke:#706C6B;stroke-width:0.25;stroke-miterlimit:10;}
	.st24{fill:none;stroke:#1E1E1C;stroke-width:0.25;stroke-linecap:round;stroke-linejoin:round;}
	.st25{fill:#1E1E1C;}
</style>
<g>
	<ellipse class="st0" cx="115.4" cy="471.9" rx="55.5" ry="1.4"/>
	<ellipse class="st0" cx="341.8" cy="471.9" rx="55.5" ry="1.4"/>
	<g>
		<rect x="261.7" y="513.5" class="st1" width="199.6" height="109.6"/>
		<text transform="matrix(1 0 0 1 261.7194 528.0952)" class="st2 st3 st4">Geometría</text>
		<text transform="matrix(1 0 0 1 261.7194 554.0874)" class="st2 st3 st4">Con forma de kammtail </text>
		<text transform="matrix(1 0 0 1 261.7194 580.0786)" class="st2 st3 st4">para ofrecer la mínima </text>
		<text transform="matrix(1 0 0 1 261.7194 606.1499)" class="st2 st3 st4">resistencia al viento.</text>
	</g>
	<g>
		<rect x="425.9" y="201.9" class="st1" width="131.8" height="170.5"/>
		<text transform="matrix(1 0 0 1 425.9127 216.5122)" class="st2 st3 st4">Extensiones de </text>
		<text transform="matrix(1 0 0 1 425.9127 242.5034)" class="st2 st5 st6">manillar</text>
		<text transform="matrix(1 0 0 1 425.9127 268.4956)" class="st2 st3 st4">Posición ayuda a </text>
		<text transform="matrix(1 0 0 1 425.9127 294.5659)" class="st2 st3 st4">cortar el viento y </text>
		<text transform="matrix(1 0 0 1 425.9127 320.5571)" class="st2 st3 st4">ahorrar energía.</text>
	</g>
	<g>
		<rect x="12.6" y="514.4" class="st1" width="190.2" height="98.5"/>
		<text transform="matrix(1 0 0 1 12.5738 528.9722)" class="st2 st3 st4">Rueda lenticular</text>
		<text transform="matrix(1 0 0 1 12.5738 554.9624)" class="st2 st3 st4">Reduce las turbulencias </text>
		<text transform="matrix(1 0 0 1 12.5738 580.9546)" class="st2 st3 st4">producidas por el paso </text>
		<text transform="matrix(1 0 0 1 12.5738 607.0249)" class="st2 st3 st4">del aire.</text>
	</g>
	<g>
		<rect x="14.7" y="175.1" class="st1" width="138.7" height="144.2"/>
		<text transform="matrix(1 0 0 1 14.7096 189.5874)" class="st2 st3 st4">El cuerpo del </text>
		<text transform="matrix(1 0 0 1 14.7096 215.5796)" class="st2 st3 st4">ciclista genera </text>
		<text transform="matrix(1 0 0 1 14.7096 241.5698)" class="st2 st3 st4">una resistencia </text>
		<text transform="matrix(1 0 0 1 14.7096 267.6411)" class="st2 st3 st4">del 80% al </text>
		<text transform="matrix(1 0 0 1 14.7096 293.6323)" class="st2 st3 st4">atravesar el aire.</text>
	</g>
	<g>
		<rect x="12.6" y="18.6" class="st1" width="239.1" height="77.5"/>
		<text transform="matrix(1 0 0 1 12.6031 33.189)" class="st2 st3 st4">Se usan materiales que </text>
		<text transform="matrix(1 0 0 1 12.6031 59.1802)" class="st2 st3 st4">reduzcan al máximo la fricción </text>
		<text transform="matrix(1 0 0 1 12.6031 85.1714)" class="st2 st3 st4">que se genera con el aire.</text>
	</g>
	<g>
		<rect x="459.2" y="384.2" class="st1" width="126.8" height="93.3"/>
		<text transform="matrix(1 0 0 1 459.2311 398.7065)" class="st2 st3 st4">Rueda </text>
		<text transform="matrix(1 0 0 1 459.2311 424.6987)" class="st2 st3 st4">delantera</text>
		<text transform="matrix(1 0 0 1 459.2311 450.6899)" class="st2 st3 st4">Mínimo de 12 </text>
		<text transform="matrix(1 0 0 1 459.2311 476.7612)" class="st2 st5 st6">rayos.</text>
	</g>
	<g>
		<rect x="404.1" y="19.5" class="st1" width="152.1" height="146.4"/>
		<text transform="matrix(1 0 0 1 404.1705 34.0933)" class="st2 st5 st6">Casco</text>
		<text transform="matrix(1 0 0 1 404.1705 60.0845)" class="st2 st3 st4">Guía el flujo de aire, </text>
		<text transform="matrix(1 0 0 1 404.1705 86.0757)" class="st2 st3 st4">para que continúe </text>
		<text transform="matrix(1 0 0 1 404.1705 112.147)" class="st2 st3 st4">ceñido al cuerpo </text>
		<text transform="matrix(1 0 0 1 404.1705 138.1382)" class="st2 st3 st4">del ciclista.</text>
	</g>
	<g>
		<g>
			<line class="st7" x1="352.6" y1="404.9" x2="389.3" y2="431.9"/>
			<line class="st7" x1="397.3" y1="419.1" x2="358" y2="392.7"/>
			<line class="st7" x1="402.1" y1="404.7" x2="358" y2="391.6"/>
			<line class="st7" x1="403.4" y1="389" x2="357.9" y2="395.3"/>
			<line class="st7" x1="400.9" y1="373.4" x2="357.9" y2="390.2"/>
			<line class="st7" x1="394.4" y1="358.7" x2="354.8" y2="382.7"/>
			<line class="st7" x1="384.8" y1="346.4" x2="352.2" y2="377.6"/>
			<line class="st7" x1="370.9" y1="336.4" x2="357.1" y2="381.3"/>
			<line class="st7" x1="358" y1="331.6" x2="351" y2="378.2"/>
			<line class="st7" x1="343.1" y1="330.3" x2="343.9" y2="376.2"/>
			<line class="st7" x1="303" y1="351.1" x2="330.4" y2="375.1"/>
			<line class="st7" x1="295.1" y1="363.6" x2="329.4" y2="382.9"/>
			<line class="st7" x1="290" y1="378.5" x2="331.1" y2="389.5"/>
			<line class="st7" x1="288.7" y1="394.3" x2="331.6" y2="389.4"/>
			<line class="st7" x1="291.4" y1="410.2" x2="332.3" y2="393.8"/>
			<line class="st7" x1="298.3" y1="425.5" x2="336" y2="402.2"/>
			<line class="st7" x1="308.4" y1="437.8" x2="338.3" y2="405.4"/>
			<line class="st7" x1="321.4" y1="447" x2="338.4" y2="405.3"/>
			<line class="st7" x1="335.8" y1="451.9" x2="335.8" y2="401.8"/>
			<line class="st7" x1="349.8" y1="452.8" x2="352.6" y2="404.9"/>
			<line class="st7" x1="365.7" y1="449.2" x2="352.6" y2="404.9"/>
			<line class="st7" x1="379.3" y1="441.5" x2="354.9" y2="405.4"/>
		</g>
		<g>
			<path class="st8" d="M252.5,441.9c0.1,7.1-20.8,8.6-33.4,3.9c-12.7-4.7-10.9-7.2-23.6-11.4c-12.7-4.2-13.7-7.8-13-11.7
				c0.8-3.9,6.9-14.8,9.4-13.1c0.2,0.2,0.4,0.5,0.6,0.9c0.3,0.5,0.6,1.1,1,1.9c1.3,2.7,2.9,6.7,5.9,7.9c0.1,0.1,1-4.9,1.1-4.9
				c1.7,0.6,2,2.5,7.1,0.6c0.6-0.2,2-0.1,2.6-0.4c1.2-0.5,2.1,1.6,1.9,0.7c-0.2-0.5-0.3-1-0.5-1.4c0.2,0.3,0.3,0.8,0.6,1.3
				c1.3,2.5,3.5,6.2,4.5,7.1c1.5,1.4,16.6,13.5,18.5,14c1.9,0.6,8.6-0.2,8.6-0.2s1.7-1.1,0.9-1.7
				C248.7,437.7,252.5,439.6,252.5,441.9z"/>
			<path class="st9" d="M249.4,287.8l-32.8,6l-30.5-57.5l0,0c-1-1.3-1.7-2.9-2.4-4.4c-3.6-8.9-1.5-18.6,4.6-25.2
				c1.8-2,4-3.6,6.4-4.9c0.7-0.4,1.5-0.7,2.3-1c8.3-3.3,17.4-1.7,23.9,3.5c0.1,0,0.1,0.1,0.2,0.1c3.1,2.5,5.5,5.7,7.1,9.7l1.3,4.8
				l0,0L249.4,287.8z"/>
			<path class="st10" d="M255.9,319c-0.1,0.2-0.2,0.5-0.3,0.8c0,0.1,0,0.1-0.1,0.1l-0.2,0.6c0,0,0,0.1-0.1,0.1l-43,95.4
				c-0.2-0.5-0.5-0.9-0.6-1.3c0.2,0.5,0.4,1,0.5,1.4l-1,2.2c-0.6,0.3-1.3,0.6-1.9,0.8c-5.1,2-7.8,1.8-9.5,1.1
				c-0.1,0-0.2-0.1-0.3-0.1c-2.9-1.3-4.6-5.2-5.9-7.9c-0.3-0.7-0.6-1.4-1-1.9l35.4-94.9l-11.4-21.6l32.8-6l6.2,21.5
				C256.8,312.3,257,315.7,255.9,319z"/>
			<path class="st9" d="M243.6,436.9c0,0-6.7,0.8-8.6,0.2c-1.9-0.6-17-12.7-18.5-14c-1.2-1.1-4.2-6.2-5.2-8.4c0-0.1-0.1-0.2-0.1-0.2
				c0-0.1-0.1-0.2-0.1-0.2l0,0c-0.1-0.2-0.1-0.4-0.1-0.6l0,0c0.1-0.2,0.3-0.5,0.6-0.6l0,0c1.1-0.6,2.6-1,4.1-1.3c0.1,0,0.2,0,0.2,0
				c0.4-0.1,1-0.2,1.5-0.3c0.1,0,0.2-0.1,0.3-0.1c2.2-0.4,4.1-0.6,4.8-1l0,0c0,0,0.1,0.2,0.3,0.5c0,0.1,0.1,0.1,0.1,0.2
				c2.1,3.1,12.2,17.4,14.3,19.2l0,0c1.2,1.2,2.5,2.2,3.8,3.1c0.9,0.6,1.7,1.2,2.6,1.7l0.1,0.1l0.1,0.1c0.1,0,0.1,0.1,0.2,0.1l0,0
				C245.2,435.8,243.6,436.9,243.6,436.9z"/>
		</g>
		<g>
			<path class="st11" d="M215.3,448.9c0-1.5,1.7-2.7,3.3-2.8l8.3-0.1c0.6,0,1.3,0.2,1.9,0.6c0.8,0.5,1.4,1.3,1.4,2.1
				s-0.6,1.7-1.4,2.2c-0.6,0.3-1.2,0.6-1.9,0.6l-8.3,0.1C217.1,451.6,215.3,450.4,215.3,448.9z"/>
			<path class="st11" d="M210.8,411.7c-0.2-9.4,12.2-8.7,11.9,0.2c0,1-0.2,5.7-0.4,11.7c0,0.1,0,0.1,0,0.2c0,0.6-0.1,1.2-0.1,1.7
				c-0.2,4.3-0.3,9.2-0.5,13.9c0,0.1,0,0.2,0,0.2c-0.2,3.9-0.3,5-0.4,8.2c-0.3,4.6-1.3,6-4.5,6c-2.5,0-4-2.2-3.8-6
				c0-3.9-0.2-17.8-0.5-22.2c-0.1-0.6-1-1-1-1.5c0-0.2,0-0.2,0-0.4C211.1,418.8,210.9,414.6,210.8,411.7z"/>
		</g>
		<path class="st12" d="M216.9,381.5c-16,0-29.1,13-29.1,29.1c0,16,13,29.1,29.1,29.1s29.1-13,29.1-29.1
			C246,394.5,233,381.5,216.9,381.5z M216.9,424.9c-7.8,0-14.1-6.3-14.1-14.1s6.3-14.1,14.1-14.1c7.8,0,14.1,6.3,14.1,14.1
			S224.7,424.9,216.9,424.9z"/>
		<g>
			<g>
				
					<ellipse transform="matrix(3.327795e-02 -0.9994 0.9994 3.327795e-02 -279.7517 495.9232)" class="st13" cx="116.5" cy="392.6" rx="79.3" ry="79.3"/>
				<circle class="st9" cx="116.5" cy="392.6" r="73.5"/>
			</g>
			<path class="st14" d="M116.5,376.9c-8.6,0-15.7,7.1-15.7,15.7c0,8.6,7.1,15.7,15.7,15.7s15.7-7.1,15.7-15.7
				C132.2,383.9,125.1,376.9,116.5,376.9z M126.5,390.7l-2.1,3.6l0.2,4.2c0.2,3.4-3.4,5.7-6.4,4l-3.6-2.1l-4.1,0.2
				c-3.4,0.2-5.7-3.4-4-6.4l2.1-3.6l-0.2-4.2c-0.2-3.4,3.4-5.7,6.4-4l3.6,2.1l4.1-0.2C125.8,384.1,128.1,387.7,126.5,390.7z"/>
		</g>
		<path class="st15" d="M331.3,306.2l-9.7-28.1l-150.8,4.2c0,0,7.6,41,6.7,42.6c-1,1.5-65.9,66.6-65.9,69c0,3.1,25,16.9,29.4,18.1
			c3.2,0.9,71.6,6.3,77.4,5.3c6.8-1.2,62.7-72.3,66.7-76.5c4-4.3,14.3-16.6,18.1-18.9c3.8-2.3,8.2-3.6,8.2-3.6l-1.3-5.2L331.3,306.2
			z M197.7,404.5c0,0-53.3,0.6-55.5,0s-17.2-8.2-18.3-9c-1.1-0.8-1.9-2.6,0.9-5.2c2.8-2.5,53.2-52.7,54.1-52
			c1,0.8,14.1,21.9,17.2,33.1C199.2,383.5,200.3,398.5,197.7,404.5z M277.7,313.4c-3.2,3-39.9,47.6-40.5,48.7
			c-0.5,0.8-2,3.2-7.8,2.9c-8-0.5-28.1,2.5-28.4,1.3c-0.2-0.7-2.4-18.3-5.3-35.8c-3-18-6.7-35.9-6.3-36.1c1.6-0.9,2.4-2.9,3.2-4
			c0.6-0.8,67.2,5.5,67.2,5.5s10.7,1.3,13.2,1.5c2.5,0.2,2.9,0.4,3.6,3.1c0.8,2.7,1.9,5.6,2.5,7.4
			C279.7,309.6,279.5,311.7,277.7,313.4z"/>
		<g>
			<path class="st9" d="M323.5,214.1l-19.5,6.3l-8.2-15.8L283,180l-1-2.1l26.1-11l0,0l0.1,0.2l0.6,2l1.1,3.3l3.5,10.6c0,0,0,0,0,0.1
				l0.2,0.8c0,0,0,0,0,0.1L323.5,214.1z"/>
			<polygon class="st15" points="328.4,228.8 312,235.7 304,220.5 323.5,214.1 			"/>
		</g>
		<path class="st16" d="M359.9,170.5c0,12-9.7,21.6-21.6,21.6c-1.2,0-2.4-0.1-3.5-0.3c-0.8-0.2-1.5-0.3-2.3-0.5
			c-2.9-0.8-5.7-2.3-8-4.2c-0.1-0.2-0.2-0.3-0.3-0.4c-0.3-0.3-0.6-0.6-1-0.9c-0.2-0.1-0.3-0.2-0.4-0.3c-1.1-0.7-2.5-1.2-3.9-1.2
			c-0.7,0-1.3,0.1-2,0.2c-0.6,0.2-1.3,0.5-1.8,0.8c-8.2,3.2-17.5-0.1-22.1-7.4c-0.6-0.8-1-1.7-1.3-2.6c-4-9.4,0.5-20,9.7-24
			c7.4-3.1,15.6-1,20.7,4.6c0.2-0.2,0.5-0.5,0.7-0.7c4-4,9.4-6.6,15.5-6.6C350.2,148.8,359.9,158.6,359.9,170.5z"/>
		<polyline class="st17" points="358.6,178 357.5,188.4 349.2,185.1 		"/>
		<path class="st15" d="M164.8,250.1c1,5.4,5.8,32.3,5.8,32.3l15.5-0.4c0,0-5.5-27.2-5.5-29c0-1.8,0.2-5,1.8-6.7
			c1.7-1.7,3-5.3,1-5.9c-2-0.6-16.1,0.6-17.4,0.9C163.7,241.5,163.3,242,164.8,250.1z"/>
		<g>
			<path class="st13" d="M339.9,287.3c-10.5-0.2-24.6,0-28.2-4s-0.1-4.1,3.4-4.3c3.4-0.2,23,0,23.5,0L339.9,287.3z"/>
			<path class="st13" d="M333.5,303.3c0.8-0.3-0.6-1.5,0.6-1.9c1.1-0.4,12.8-4.2,14.3-5.5c1.7-1.4,4.8-4.3,4.7-10.1
				c0-1.8-0.5-1.8-1.5-1.6c-1,0.2-0.4,2.3-1.5,3c-1.1,0.7,1.7,5.3-7.8,9.1c-9.5,3.8-11.2,4.8-10.4,6.2
				C332.6,304,333.5,303.3,333.5,303.3z"/>
			<path class="st18" d="M353,285c0-1-1.6-5.9-7.4-5.9c-5.8,0-7.1,0-7.1,0s1.2,8,1.3,8.3s1-1.1,2.6-1.2c2.9-0.2,3.2,1.7,4.5,1.7
				s2.8,0,2.8,0s0.6-0.6,0.9-1.3c0.3-0.8,0.4-1.9,0.6-2.1C352.9,283.2,353,285,353,285z"/>
		</g>
		<g>
			<path class="st14" d="M346.8,376.9c-8.6,0-15.7,7.1-15.7,15.7c0,8.6,7.1,15.7,15.7,15.7c8.6,0,15.7-7.1,15.7-15.7
				C362.4,383.9,355.4,376.9,346.8,376.9z M356.8,390.7l-2.1,3.6l0.2,4.1c0.2,3.4-3.4,5.7-6.4,4l-3.6-2.1l-4.1,0.2
				c-3.4,0.2-5.7-3.4-4-6.4l2.1-3.6l-0.2-4.1c-0.2-3.4,3.4-5.7,6.4-4l3.6,2.1l4.1-0.2C356.2,384.1,358.5,387.7,356.8,390.7z"/>
			<g>
				<path class="st13" d="M346.8,313.3c-43.8,0-79.3,35.5-79.3,79.3c0,43.8,35.5,79.3,79.3,79.3s79.3-35.5,79.3-79.3
					C426.1,348.8,390.6,313.3,346.8,313.3z M346.8,466.6c-40.9,0-74-33.1-74-74s33.1-74,74-74s74,33.1,74,74
					C420.8,433.5,387.6,466.6,346.8,466.6z"/>
				<path class="st9" d="M346.8,318.6c-40.9,0-74,33.1-74,74s33.1,74,74,74s74-33.1,74-74C420.8,351.7,387.6,318.6,346.8,318.6z
					 M346.8,448c-30.6,0-55.5-24.8-55.5-55.5c0-30.6,24.8-55.5,55.5-55.5c30.6,0,55.5,24.8,55.5,55.5S377.3,448,346.8,448z"/>
			</g>
		</g>
		<g>
			<g>
				<g>
					<path class="st13" d="M171.4,230.2c-6.6,0-15.9-0.2-17.5,0c-1.6,0.2,1.1,1.1,2.7,2.3c1.6,1.2-1,3.3,2.4,3.6
						c3.4,0.2,20.9,0,20.9,0L171.4,230.2z"/>
				</g>
				<g>
					<path class="st13" d="M168.7,240.9c3.1-1.1,11-4.8,12.5-4.4c1.5,0.3,5.3,3.7,5.3,3.7l-2.4,0.7c0,0,0.2-0.9-3.5-0.7
						C177,240.3,168.7,240.9,168.7,240.9z"/>
				</g>
				<polygon class="st11" points="167.8,236.2 172.3,239.5 172.9,239.2 168.5,236.1 				"/>
			</g>
		</g>
		<polygon class="st19" points="176,238 174.2,236.1 175.1,236.2 176.4,237.8 		"/>
		<circle class="st20" cx="170.3" cy="243.7" r="1.3"/>
		<circle class="st20" cx="176.9" cy="243.7" r="1.3"/>
		<path class="st16" d="M289.1,267.6c-0.2,0.2-0.4,0.4-0.6,0.6l-72,67.8c-2.3-0.6-4.9-1.2-6.7-1c-1.3,0.2,0.5,4.5-2.5,4.4
			c-7.2-0.1-10-1.7-11.3-3.2c-2.6-3-1.8-9.1-2.1-11.7l60.9-61.2l-13.6-5.1l16-30.4l28.1,17.9c1.2,0.6,2.4,1.3,3.4,2.4
			C294.1,253.5,294.2,262.1,289.1,267.6z"/>
		<path class="st21" d="M246,308.3l-29.6,27.8c-2.3-0.6-4.9-1.2-6.7-1c-1.3,0.2,0.5,4.5-2.5,4.4c-7.2-0.1-10-1.7-11.3-3.2
			c-2.6-3-1.8-9.1-2.1-11.7l34.2-34.4L246,308.3z"/>
		<path class="st13" d="M313.8,278.3l6.3-7.7c0,0,1.1-11.3,0-13.4c-1.1-2.1-3.1-2.9-3.6-5.2s-0.8-4.7,6.1-7.1
			c6.9-2.4,20.9-5.7,30.8-8c9.9-2.3,15.6-3.6,21.2-4.6c5.5-1,11.3-1.5,12-1.9c0.9-0.4,8.8-7.1,10.7-10.5c1.9-3.4,9.5-0.6,9.5-0.6
			s-7,13.9-12.4,16.4c-5.5,2.6-48.8,14.4-54.7,18.3c0.6,9.4,0.6,16.2,0.6,16.2l-5.4,6.3l0.9,2.4l-23.5,0.6L313.8,278.3z"/>
		<path class="st19" d="M379.2,213.1c3.5-0.3,6.9,1.9,7.8,5.5c0.9,3.1-0.3,6.3-2.8,8.1"/>
		<path class="st17" d="M413.1,222.9c-6.5,8.6-22.7,4.3-25.4,3.1c-1-0.5-6,1.7-6,1.7l-4-14.3c0,0,11.3-8.7,15.4-12.9l0,0
			c0.6-0.6,11.3-3.3,12-2.5c0.5,0.5,0.9,1,1.3,1.4l0,0c1.8,1.8,3.6,3,3.6,3.1l0,0c0.5,0.2,0.8,0.7,0.8,1.3c0,0.8-0.6,1.3-1.4,1.4
			c-3.1,0.5-3.6-2.8-5.4-2.6c-2.3,0.2-4.8,0.4-6,1.4c-0.9,0.7,0,1.8,2,2.9c2,1,10.8,1.7,10.8,1.7l1.1,0.1l4.6,0.8
			c0.8,0,1.4,0.8,1.4,1.6s-0.5,1.9-1.3,1.9l-4.6,1.3l-11.3-0.6h-0.7l12,0.6l5.2-1.4l0.7-0.2c0.8,0,1.4,0.6,1.4,1.4
			c0,0.8-0.5,1.3-1.3,1.7l-3.8,1.9l-2.1,1.3h-15.7h15.7c0,0,1.7-1,2.1-1.3c1.2-0.8,2.6,1.5,2.6,2.3s-0.6,1.3-1.3,1.8l-3.2,1.6
			l-2.1,1.3l-13.7-1"/>
		<path class="st17" d="M417.4,209.4c0.9,0.4,3.1-1.8,3.2-3.5s-0.9-0.3-5.2-1.3c-1.6-0.4-3-0.7-4.4-1c0,1.2-1.3,1.6-2.1,1.6
			c-2.1,0-3.1-2-3.2-1.9c-1.6,0.5-2.1,0.6-7,2.5c0,0,0.9,1.1,3,1.6c2.1,0.5,6.1,0.9,6.7,1c0.6,0.1,3.6,0.3,4.4,0.4
			C413.7,208.7,417.2,209.4,417.4,209.4z"/>
		<path class="st8" d="M321.4,159.7c0,0,1.4,16.1,4,17.3l4.8-5.2l3.2,2.6c0,0-6.5,5.8-7.1,8.1c-0.6,2.3-1.7,5.2,1.1,7.5
			c0,0-6.3-3.5-6.3-4.7c0-1.3,0.9-2.4,1-5.9c0.1-3.6-0.3-5.5-1.3-7c-1-1.5-4-14-2.6-15.8L321.4,159.7z"/>
		<path class="st15" d="M346.6,178c0,0,5,2.5,9.4,2c3.7-0.5,3.5,1.3,4.4,1.2c0.9-0.1,10.7-3.2,15.3-15.2c0,0-13.8-7.7-18.9-8.8
			s-8.1-2.2-11.1,1C342.6,161.3,341.7,174.3,346.6,178z"/>
		<line class="st22" x1="345.2" y1="191.1" x2="341.1" y2="188.4"/>
		<line class="st23" x1="318.1" y1="220.5" x2="317.7" y2="220.5"/>
		<g>
			<g>
				<g>
					<path class="st15" d="M352.4,395.4c0,0-17.8,1.7-18.9,0c-1.1-1.7-7.3-18.7-7.3-18.7l3.8-6.3l-18.5-49.3c0,0-0.6-8-1.5-8
						s21.2-6.9,21.2-6.9s2.5,1.2,1.5,2.9c-1,1.8-1,10.9,2.9,23.4C339.2,344.9,352.4,395.4,352.4,395.4z"/>
				</g>
			</g>
		</g>
		<path class="st16" d="M382.4,227.4c-15.1,5.2-60.5,17.8-60.5,17.8l-0.4,0.1c-4.4,1.3-8.9-1-10.6-5.2l-9.7-18.6l19.3-8.8l4.4,13.4
			l53-13.7c0.5-0.2,1-0.2,1.4-0.2"/>
		<path class="st21" d="M308.2,175.1l0.6,1.9l3.5,10.6c0,0,0,0,0,0.1l0.2,0.8c0,0,0,0,0,0.1l7.9,24.2l-19.3,8.8l-6.5-12.4
			l-12.8-24.6"/>
		<polyline class="st21" points="301.2,221.5 294.8,209.1 291.6,203.2 		"/>
		<path class="st21" d="M286.9,137.9c0-3.4,44.5-19.7,60.3-16.8s30.6,16.2,30.6,30.9c0,14.7-2.1,13.9-2.1,13.9s-18.1-10.9-26.5-9.9
			c-8.3,1-6.7,19.9-2.5,22c0,0-13.4,0.2-18.3-9c-5-9.2-12.6-15.1-17.6-16.2C305.7,151.6,287.5,144.4,286.9,137.9z"/>
		<g>
			<g>
				<path class="st11" d="M220.8,407.9c0.2,9.4-11.8,8.4-11.5-0.3c0-1,3.7-32.5,3.8-35.6c2.1-0.1,1.5,0.1,1.5,0.1s2.5-0.1,5.2,0
					C220,375.1,220.8,405,220.8,407.9z"/>
				<path class="st11" d="M213.2,378.5l-4.3-1.8c-3.3-1.4-5.9-4-7-7.3l-0.7-2.2h12L213.2,378.5L213.2,378.5z"/>
			</g>
		</g>
		<path class="st13" d="M235.3,378.2c-2.9,6.4-22.4-0.8-32-10.3c-9.6-9.5-7-11.1-16.8-20.2c-9.8-9.1-9.3-12.8-7-16.1
			c2.3-3.2,12.4-10.6,13.9-8c0.2,0.2,0.2,0.6,0.2,1c0.2,2.6-0.6,8.7,2.1,11.7c1.3,1.6,4.2,3.1,11.3,3.2c3,0.1,1.3-4.4,2.5-4.4
			c1.8-0.2,4.4,0.4,6.7,1c2.2,0.6,4.1,1.2,4.9,1.2c0,0,3,15.6,4.6,22.1c0.6,2.2,1.6,4.4,2.9,6.4C232,371.3,236.4,375.7,235.3,378.2z
			"/>
		<path class="st21" d="M229.2,370c0,0-6.3-2-7.8-3.3c-1.5-1.3-10.2-18.5-11-20.4s-1.6-10.1-1-10.8c0.6-0.6,3.2-0.3,5.2,0.2
			c2.1,0.5,6.8,1.7,6.8,1.7s4,21.4,5.2,24.2c1.6,3.3,3.5,6.5,4,7.3C231.2,369.6,229.2,370,229.2,370z"/>
		<path class="st21" d="M237.7,215.7c1.2-0.5,2.4-1,3.5-1.6c-3.2-1.9-10.1-5.5-17.4-7.3c-0.8-0.2-1.5-0.3-2.3-0.5
			c-4.7-0.9-8.1-3.1-10.9-5.8c-1.3-1.2-2.3-2.5-3.3-3.9c-0.5-0.5-0.5-0.6-0.5-0.6c-1.9-2.7-3.5-5.5-5.1-7.6
			c-4.3-5.9-10.3-4.7-15.2-5.2c-2.5-0.3-4.7-1.3-6.2-2.1c-1.3,2.1-2.5,4.3-3.6,6.6c-3.2,5.8-6.5,11.5-8.3,18.1
			c-1,2.6-1.5,5.3-1.5,7.9c-0.2,9,4.7,17.7,13.2,21.9c1.5,0.8,3.1,1.3,4.8,1.7l56.1,21.1l23.4-25.8L237.7,215.7z"/>
		<path class="st22" d="M241.2,214.2c-3.2-1.9-10.1-5.5-17.4-7.3c-0.8-0.2-1.5-0.3-2.3-0.5c-4.7-0.9-8.1-3.1-10.9-5.8
			c-1-1.1-2.1-2.3-3.3-3.9c-0.4-0.5-0.5-0.6-0.5-0.6c-1.9-2.7-3.5-5.5-5.1-7.6c-4.3-5.9-10.3-4.7-15.2-5.2c-2.5-0.3-4.7-1.3-6.2-2.1
			"/>
		<path class="st21" d="M309.7,161.9c-0.3,1-1.8,8.7-1.7,10.5c0.2,2.6,0.8,5.5,0.4,7.9c-1.3,7.2-5,13.8-10.5,18.6
			c-2.7,2.4-5.9,4.3-9.4,5.6c-0.6,0.2-1.1,0.4-1.7,0.6c-0.4,0.2-0.9,0.2-1.3,0.4c-3.9,1.1-7.9,1.4-11.7,1c-0.1,0.5-7.1-1.7-10.9-1.9
			c-0.3,0-0.6,0-0.9,0c-4.6,0-9,1.3-12.5,3.7c-1.3,0.9-2.6,1.9-3.8,3.1c-1.3,1-2.9,1.8-4.4,2.6c-3.2-1.9-10.1-5.5-17.4-7.3
			c-0.8-0.2-1.5-0.3-2.3-0.5c-4.7-0.9-8.1-3.1-10.9-5.8c-1-1.1-2.1-2.3-3.3-3.9c-0.4-0.5-0.5-0.6-0.5-0.6c-1.9-2.7-3.5-5.5-5.1-7.6
			c-4.3-5.9-10.3-4.7-15.2-5.2c-2.5-0.3-4.7-1.3-6.2-2.1c4-6.7,8.6-12.4,13.6-18.6c5.5-6.1,11.3-9.9,18.9-14.5c0,0,9.1-4.2,14-5.9
			c7.8-2.7,15.4-5.2,23.9-5.2c4.7,0,33.3,2.7,39.3,6c5.2,2.9,9,6.4,17.8,9C309.9,152.5,310.4,159.8,309.7,161.9z"/>
		<line class="st22" x1="291.6" y1="203.2" x2="281.9" y2="184.6"/>
	</g>
	<g>
		<g>
			<polyline class="st24" points="223.9,98.3 223.9,115.2 223.9,136.9 			"/>
			<g>
				<circle class="st25" cx="223.9" cy="136.9" r="0.3"/>
			</g>
		</g>
	</g>
	<g>
		<g>
			<polyline class="st24" points="77.1,502.8 77.1,471.1 77.1,446.5 			"/>
			<g>
				<circle class="st25" cx="77.1" cy="446.5" r="0.3"/>
			</g>
		</g>
	</g>
	<g>
		<g>
			<polyline class="st24" points="262.2,499.5 262.2,422.1 262.2,362 			"/>
			<g>
				<circle class="st25" cx="262.2" cy="362" r="0.3"/>
			</g>
		</g>
	</g>
	<g>
		<g>
			<polyline class="st24" points="140.8,181.2 172.2,181.2 196.5,181.2 			"/>
			<g>
				<circle class="st25" cx="196.5" cy="181.2" r="0.3"/>
			</g>
		</g>
	</g>
	<g>
		<g>
			<polyline class="st24" points="419.5,240.7 394.2,240.7 374.7,240.7 			"/>
			<g>
				<circle class="st25" cx="374.7" cy="240.7" r="0.3"/>
			</g>
		</g>
	</g>
	<g>
		<g>
			<polyline class="st24" points="454.9,392.6 432,392.6 414.4,392.6 			"/>
			<g>
				<circle class="st25" cx="414.4" cy="392.6" r="0.3"/>
			</g>
		</g>
	</g>
	<g>
		<g>
			<polyline class="st24" points="395.6,127.3 368.5,127.3 347.6,127.3 			"/>
			<g>
				<circle class="st25" cx="347.6" cy="127.3" r="0.3"/>
			</g>
		</g>
	</g>
</g>
</svg>
