<?xml version="1.0" encoding="utf-8"?>
<!-- Generator: Adobe Illustrator 22.0.1, SVG Export Plug-In . SVG Version: 6.00 Build 0)  -->
<svg version="1.1" id="Capa_1" xmlns="http://www.w3.org/2000/svg" xmlns:xlink="http://www.w3.org/1999/xlink" x="0px" y="0px"
	 viewBox="0 0 800 1000" style="enable-background:new 0 0 800 1000;" xml:space="preserve">
<style type="text/css">
	.st0{fill:#1D1D1B;}
	.st1{font-family:'ArialMT';}
	.st2{font-size:21.0973px;}
	.st3{fill:none;}
	.st4{fill:#1E1E1C;}
	.st5{font-size:26.3716px;}
	.st6{fill:none;stroke:#DDDBDC;stroke-width:4;stroke-miterlimit:10;}
	.st7{fill:#DDDBDC;}
	.st8{fill:none;stroke:#1D1D1B;stroke-width:0.35;stroke-linecap:round;stroke-linejoin:round;}
	.st9{fill:#F4E6D2;stroke:#CC1719;stroke-miterlimit:10;}
	.st10{fill:#CC1719;}
	.st11{fill:none;stroke:#1D1E1C;stroke-miterlimit:10;}
	.st12{fill:#1D1E1C;}
</style>
<g>
	<text transform="matrix(1 0 0 1 331.2471 688.4626)" class="st0 st1 st2">1987</text>
</g>
<g>
	<text transform="matrix(1 0 0 1 330.6148 757.9641)" class="st0 st1 st2">1995</text>
</g>
<g>
	<rect x="425" y="636.8" class="st3" width="283.3" height="64.9"/>
	<text transform="matrix(1 0 0 1 424.9483 659.2002)" class="st4 st1 st5">Panamericanos</text>
	<text transform="matrix(1 0 0 1 424.9483 690.8002)" class="st4 st1 st5">Indianápolis, Estados Unidos</text>
</g>
<g>
	<rect x="425" y="736.6" class="st3" width="283.3" height="64.9"/>
	<text transform="matrix(1 0 0 1 424.9503 758.9854)" class="st4 st1 st5">Panamericanos</text>
	<text transform="matrix(1 0 0 1 424.9503 790.5854)" class="st4 st1 st5">Mar delPlata, Argentina</text>
</g>
<g>
	<rect x="31.6" y="636.8" class="st3" width="208.5" height="74.1"/>
	<text transform="matrix(1 0 0 1 31.5801 659.2002)" class="st4 st1 st5">Se suma la categoria </text>
	<text transform="matrix(1 0 0 1 31.5801 690.8002)" class="st4 st1 st5">femenina en ruta</text>
</g>
<g>
	<rect x="31.6" y="701.6" class="st3" width="213.9" height="64.9"/>
	<text transform="matrix(1 0 0 1 31.5811 723.9893)" class="st4 st1 st5">Se incluye la mujer en </text>
	<text transform="matrix(1 0 0 1 31.5811 755.5894)" class="st4 st1 st5">carrera contrarreloj</text>
</g>
<g>
	<g>
		<line class="st6" x1="406.4" y1="84.1" x2="406.4" y2="923.8"/>
		<g>
			<polygon class="st7" points="410.1,923.3 402.8,923.3 406.4,926.9 			"/>
		</g>
	</g>
</g>
<g>
	<text transform="matrix(1 0 0 1 424.9492 93.634)" class="st4 st1 st5">JJ.OO.</text>
	<text transform="matrix(1 0 0 1 424.9492 125.234)" class="st4 st1 st5">Atenas, Grecia</text>
</g>
<g>
	<text transform="matrix(1 0 0 1 428.535 444.7344)" class="st4 st1 st5">Panamericanos</text>
	<text transform="matrix(1 0 0 1 428.535 476.3344)" class="st4 st1 st5">Buenos Aires, Argentina</text>
</g>
<g>
	<text transform="matrix(1 0 0 1 330.3824 117.4511)" class="st0 st1 st2">1896</text>
</g>
<text transform="matrix(1 0 0 1 331.4366 279.8145)" class="st0 st1 st2">1925</text>
<g>
	<text transform="matrix(1 0 0 1 334.3585 444.7344)" class="st0 st1 st2">1951</text>
</g>
<g>
	<text transform="matrix(1 0 0 1 354.6356 924.3726)" class="st0 st1 st2">2023</text>
</g>
<line class="st8" x1="414.4" y1="109.6" x2="398.5" y2="109.6"/>
<line class="st8" x1="414.4" y1="273.1" x2="398.5" y2="273.1"/>
<line class="st8" x1="414.4" y1="436.5" x2="398.5" y2="436.5"/>
<line class="st8" x1="411.4" y1="681.7" x2="401.5" y2="681.7"/>
<line class="st8" x1="411.4" y1="736.2" x2="401.5" y2="736.2"/>
<ellipse class="st9" cx="406.5" cy="436.8" rx="7.3" ry="7.3"/>
<ellipse class="st10" cx="406.5" cy="84.1" rx="7.3" ry="7.3"/>
<g>
	<g>
		<line class="st11" x1="240.1" y1="681.7" x2="303.5" y2="681.7"/>
		<g>
			<circle class="st12" cx="303.5" cy="681.7" r="1.5"/>
		</g>
	</g>
</g>
<g>
	<g>
		<line class="st11" x1="266.6" y1="751.2" x2="303.5" y2="751.2"/>
		<g>
			<circle class="st12" cx="303.5" cy="751.2" r="1.5"/>
		</g>
	</g>
</g>
<ellipse class="st10" cx="406.5" cy="681.7" rx="7.3" ry="7.3"/>
<ellipse class="st10" cx="406.5" cy="751.2" rx="7.3" ry="7.3"/>
</svg>
