<?xml version="1.0" encoding="utf-8"?>
<!-- Generator: Adobe Illustrator 22.0.1, SVG Export Plug-In . SVG Version: 6.00 Build 0)  -->
<svg version="1.1" id="Capa_1" xmlns="http://www.w3.org/2000/svg" xmlns:xlink="http://www.w3.org/1999/xlink" x="0px" y="0px"
	 viewBox="0 0 1000 400" style="enable-background:new 0 0 1000 400;" xml:space="preserve">
<style type="text/css">
	.st0{fill:#1D1D1B;}
	.st1{font-family:'ArialMT';}
	.st2{font-size:21.0973px;}
	.st3{fill:none;}
	.st4{fill:#1E1E1C;}
	.st5{font-size:26.3716px;}
	.st6{fill:none;stroke:#DDDBDC;stroke-width:4;stroke-miterlimit:10;}
	.st7{fill:#DDDBDC;}
	.st8{fill:none;stroke:#1D1D1B;stroke-width:0.35;stroke-linecap:round;stroke-linejoin:round;}
	.st9{fill:#F4E6D2;stroke:#CC1719;stroke-miterlimit:10;}
	.st10{fill:#CC1719;}
	.st11{fill:none;stroke:#1D1E1C;stroke-miterlimit:10;}
	.st12{fill:#1D1E1C;}
</style>
<g>
	<text transform="matrix(1 0 0 1 644.9995 221.2756)" class="st0 st1 st2">1987</text>
</g>
<g>
	<text transform="matrix(1 0 0 1 699.1851 221.2756)" class="st0 st1 st2">1995</text>
</g>
<g>
	<rect x="474.1" y="24.7" class="st3" width="283.3" height="64.9"/>
	<text transform="matrix(1 0 0 1 537.1375 47.0784)" class="st4 st1 st5">Panamericanos</text>
	<text transform="matrix(1 0 0 1 475.2375 78.6784)" class="st4 st1 st5">Indianápolis, Estados Unidos</text>
</g>
<g>
	<rect x="421.5" y="305.6" class="st3" width="208.5" height="59.7"/>
	<text transform="matrix(1 0 0 1 421.5457 328.0352)" class="st4 st1 st5">Se suma la categoria </text>
	<text transform="matrix(1 0 0 1 421.5457 359.6352)" class="st4 st1 st5">femenina de ruta</text>
</g>
<g>
	<rect x="699.9" y="305.6" class="st3" width="228.9" height="59.7"/>
	<text transform="matrix(1 0 0 1 699.8601 328.0352)" class="st4 st1 st5">Se incluye a la mujer </text>
	<text transform="matrix(1 0 0 1 699.8601 359.6352)" class="st4 st1 st5">en carrera contrarreloj</text>
</g>
<g>
	<g>
		<line class="st6" x1="65.1" y1="187.7" x2="904.7" y2="187.7"/>
		<g>
			<polygon class="st7" points="904.3,184.1 904.3,191.4 907.9,187.7 			"/>
		</g>
	</g>
</g>
<g>
	<text transform="matrix(1 0 0 1 50.1304 130.9675)" class="st4 st1 st5">JJ.OO.</text>
	<text transform="matrix(1 0 0 1 50.1304 162.5675)" class="st4 st1 st5">Atenas, Grecia</text>
</g>
<g>
	<text transform="matrix(1 0 0 1 321.9692 129.3652)" class="st4 st1 st5">Panamericanos</text>
	<text transform="matrix(1 0 0 1 283.6692 160.9652)" class="st4 st1 st5">Buenos Aires, Argentina</text>
</g>
<g>
	<text transform="matrix(1 0 0 1 49.7388 221.0649)" class="st0 st1 st2">1896</text>
</g>
<text transform="matrix(1 0 0 1 236.4458 221.0649)" class="st0 st1 st2">1925</text>
<g>
	<text transform="matrix(1 0 0 1 402.7261 221.0649)" class="st0 st1 st2">1951</text>
</g>
<g>
	<text transform="matrix(1 0 0 1 878.0825 221.0649)" class="st0 st1 st2">2023</text>
</g>
<line class="st8" x1="90.6" y1="179.8" x2="90.6" y2="195.7"/>
<line class="st8" x1="254" y1="179.8" x2="254" y2="195.7"/>
<line class="st8" x1="417.5" y1="179.8" x2="417.5" y2="195.7"/>
<line class="st8" x1="662.7" y1="182.4" x2="662.7" y2="192.3"/>
<line class="st8" x1="717.2" y1="182.4" x2="717.2" y2="192.3"/>
<ellipse class="st9" cx="417.7" cy="187.7" rx="7.3" ry="7.3"/>
<ellipse class="st10" cx="65.1" cy="187.7" rx="7.3" ry="7.3"/>
<g>
	<g>
		<polyline class="st11" points="662.7,233.1 662.7,290.1 568.7,290.1 568.7,300.6 		"/>
		<g>
			<path class="st12" d="M661.2,233.1c0-0.8,0.7-1.5,1.5-1.5s1.5,0.7,1.5,1.5s-0.7,1.5-1.5,1.5S661.2,233.9,661.2,233.1z"/>
		</g>
	</g>
</g>
<g>
	<g>
		<polyline class="st11" points="717.2,233.1 717.2,290.1 803.6,290.1 803.6,300.6 		"/>
		<g>
			<path class="st12" d="M715.7,233.1c0-0.8,0.7-1.5,1.5-1.5s1.5,0.7,1.5,1.5s-0.7,1.5-1.5,1.5S715.7,233.9,715.7,233.1z"/>
		</g>
	</g>
</g>
<ellipse class="st10" cx="662.7" cy="187.7" rx="7.3" ry="7.3"/>
<ellipse class="st10" cx="717.2" cy="187.7" rx="7.3" ry="7.3"/>
<g>
	<rect x="667" y="106.6" class="st3" width="283.3" height="64.9"/>
	<text transform="matrix(1 0 0 1 730.0618 129.0405)" class="st4 st1 st5">Panamericanos</text>
	<text transform="matrix(1 0 0 1 694.9619 160.6405)" class="st4 st1 st5">Mar delPlata, Argentina</text>
</g>
</svg>
