<svg xmlns="http://www.w3.org/2000/svg" viewBox="0 0 450 900">
<style type="text/css">
	@import url('https://fonts.googleapis.com/css2?family=Barlow+Semi+Condensed:wght@400;600');
	.st0{fill:#CC1719;}
	.st1{fill:#D3D1D1;}
	.st2{fill:#1E1E1C;}
	.st3{font-family:'Barlow Semi Condensed', sans-serif;
		font-weight: 600;
		font-style: semibold;}
	.st4{font-size:26px;}
	.st5{font-family:'Barlow Semi Condensed', sans-serif;
		font-weight: 400;
		font-style: regular;}
	.st6{font-size:20px;}
	.st7{font-size:27.1023px;}
</style>
<circle class="st0" cx="68.6" cy="152.9" r="6.8"/>
<circle class="st0" cx="85.1" cy="152.9" r="6.8"/>
<circle class="st0" cx="101.5" cy="152.9" r="6.8"/>
<circle class="st0" cx="118" cy="152.9" r="6.8"/>
<circle class="st0" cx="134.5" cy="152.9" r="6.8"/>
<circle class="st0" cx="150.9" cy="152.9" r="6.8"/>
<circle class="st0" cx="167.4" cy="152.9" r="6.8"/>
<circle class="st1" cx="68.6" cy="134.4" r="6.8"/>
<circle class="st1" cx="85.1" cy="134.4" r="6.8"/>
<circle class="st1" cx="101.5" cy="134.4" r="6.8"/>
<circle class="st1" cx="118" cy="134.4" r="6.8"/>
<circle class="st1" cx="134.5" cy="134.4" r="6.8"/>
<circle class="st1" cx="150.9" cy="134.4" r="6.8"/>
<circle class="st1" cx="167.4" cy="134.4" r="6.8"/>
<circle class="st1" cx="183.8" cy="134.4" r="6.8"/>
<circle class="st1" cx="200.3" cy="134.4" r="6.8"/>
<circle class="st1" cx="216.8" cy="134.4" r="6.8"/>
<circle class="st1" cx="233.2" cy="134.4" r="6.8"/>
<circle class="st1" cx="249.7" cy="134.4" r="6.8"/>
<circle class="st1" cx="266.2" cy="134.4" r="6.8"/>
<circle class="st0" cx="282.6" cy="134.4" r="6.8"/>
<circle class="st0" cx="299.1" cy="134.4" r="6.8"/>
<circle class="st0" cx="315.5" cy="134.4" r="6.8"/>
<circle class="st0" cx="332" cy="134.4" r="6.8"/>
<circle class="st0" cx="348.5" cy="134.4" r="6.8"/>
<circle class="st0" cx="364.9" cy="134.4" r="6.8"/>
<circle class="st0" cx="381.4" cy="134.4" r="6.8"/>
<g>
	<text transform="matrix(1 0 0 1 61.8046 111.3047)" class="st2 st3 st4">Estados Unidos</text>
</g>
<g>
	<text transform="matrix(1 0 0 1 61.8051 188.7227)" class="st2 st5 st6">27 medallas</text>
</g>
<circle class="st1" cx="68.6" cy="285.7" r="6.8"/>
<circle class="st1" cx="85.1" cy="285.7" r="6.8"/>
<circle class="st1" cx="101.5" cy="285.7" r="6.8"/>
<circle class="st1" cx="118" cy="285.7" r="6.8"/>
<circle class="st1" cx="134.5" cy="285.7" r="6.8"/>
<circle class="st1" cx="150.9" cy="285.7" r="6.8"/>
<circle class="st1" cx="167.4" cy="285.7" r="6.8"/>
<circle class="st1" cx="183.8" cy="285.7" r="6.8"/>
<circle class="st0" cx="200.3" cy="285.7" r="6.8"/>
<circle class="st0" cx="216.8" cy="285.7" r="6.8"/>
<circle class="st0" cx="233.2" cy="285.7" r="6.8"/>
<circle class="st0" cx="249.7" cy="285.7" r="6.8"/>
<circle class="st0" cx="266.2" cy="285.7" r="6.8"/>
<circle class="st0" cx="282.6" cy="285.7" r="6.8"/>
<circle class="st0" cx="299.1" cy="285.7" r="6.8"/>
<circle class="st0" cx="315.5" cy="285.7" r="6.8"/>
<circle class="st0" cx="332" cy="285.7" r="6.8"/>
<circle class="st0" cx="348.5" cy="285.7" r="6.8"/>
<circle class="st0" cx="364.9" cy="285.7" r="6.8"/>
<circle class="st0" cx="381.4" cy="285.7" r="6.8"/>
<g>
	<text transform="matrix(1 0 0 1 61.8047 262.5498)" class="st2 st3 st4">Cuba</text>
</g>
<g>
	<text transform="matrix(1 0 0 1 61.8046 339.9678)" class="st2 st5 st6">20 medallas</text>
</g>
<circle class="st1" cx="68.6" cy="439.4" r="6.8"/>
<circle class="st1" cx="85.1" cy="439.4" r="6.8"/>
<circle class="st1" cx="101.5" cy="439.4" r="6.8"/>
<circle class="st1" cx="118" cy="439.4" r="6.8"/>
<circle class="st1" cx="134.5" cy="439.4" r="6.8"/>
<circle class="st1" cx="150.9" cy="439.4" r="6.8"/>
<circle class="st1" cx="167.4" cy="439.4" r="6.8"/>
<circle class="st1" cx="183.8" cy="439.4" r="6.8"/>
<circle class="st1" cx="200.3" cy="439.4" r="6.8"/>
<circle class="st1" cx="216.8" cy="439.4" r="6.8"/>
<circle class="st1" cx="233.2" cy="439.4" r="6.8"/>
<circle class="st0" cx="249.7" cy="439.4" r="6.8"/>
<circle class="st0" cx="266.2" cy="439.4" r="6.8"/>
<circle class="st0" cx="282.6" cy="439.4" r="6.8"/>
<circle class="st0" cx="299.1" cy="439.4" r="6.8"/>
<circle class="st0" cx="315.5" cy="439.4" r="6.8"/>
<circle class="st0" cx="332" cy="439.4" r="6.8"/>
<circle class="st0" cx="348.5" cy="439.4" r="6.8"/>
<g>
	<text transform="matrix(1 0 0 1 61.8046 413.7949)" class="st2 st3 st4">Canadá</text>
</g>
<g>
	<text transform="matrix(1 0 0 1 61.8046 477.8066)" class="st2 st5 st6">18 medallas</text>
</g>
<circle class="st1" cx="68.6" cy="577.2" r="6.8"/>
<circle class="st1" cx="85.1" cy="577.2" r="6.8"/>
<circle class="st1" cx="101.5" cy="577.2" r="6.8"/>
<circle class="st1" cx="118" cy="577.2" r="6.8"/>
<circle class="st1" cx="134.5" cy="577.2" r="6.8"/>
<circle class="st1" cx="150.9" cy="577.2" r="6.8"/>
<circle class="st1" cx="167.4" cy="577.2" r="6.8"/>
<circle class="st1" cx="183.8" cy="577.2" r="6.8"/>
<circle class="st1" cx="200.3" cy="577.2" r="6.8"/>
<circle class="st1" cx="216.8" cy="577.2" r="6.8"/>
<circle class="st1" cx="233.2" cy="577.2" r="6.8"/>
<circle class="st1" cx="249.7" cy="577.2" r="6.8"/>
<circle class="st1" cx="266.2" cy="577.2" r="6.8"/>
<circle class="st1" cx="282.6" cy="577.2" r="6.8"/>
<circle class="st1" cx="299.1" cy="577.2" r="6.8"/>
<g>
	<text transform="matrix(1 0 0 1 61.8047 551.6343)" class="st2 st3 st4">Argentina</text>
</g>
<g>
	<text transform="matrix(1 0 0 1 61.8046 614.146)" class="st2 st5 st6">15 medallas</text>
</g>
<circle class="st1" cx="68.6" cy="713.6" r="6.8"/>
<circle class="st1" cx="85.1" cy="713.6" r="6.8"/>
<circle class="st1" cx="101.5" cy="713.6" r="6.8"/>
<circle class="st1" cx="118" cy="713.6" r="6.8"/>
<circle class="st1" cx="134.5" cy="713.6" r="6.8"/>
<circle class="st1" cx="150.9" cy="713.6" r="6.8"/>
<circle class="st1" cx="167.4" cy="713.6" r="6.8"/>
<circle class="st1" cx="183.8" cy="713.6" r="6.8"/>
<circle class="st1" cx="200.3" cy="713.6" r="6.8"/>
<circle class="st1" cx="216.8" cy="713.6" r="6.8"/>
<circle class="st1" cx="233.2" cy="713.6" r="6.8"/>
<circle class="st1" cx="249.7" cy="713.6" r="6.8"/>
<circle class="st0" cx="266.2" cy="713.6" r="6.8"/>
<g>
	<text transform="matrix(1 0 0 1 61.8046 687.9727)" class="st2 st3 st4">Colombia</text>
</g>
<g>
	<text transform="matrix(1 0 0 1 61.8046 748.4844)" class="st2 st5 st6">13 medallas</text>
</g>
<circle class="st1" cx="68.6" cy="847.9" r="6.8"/>
<circle class="st1" cx="85.1" cy="847.9" r="6.8"/>
<circle class="st1" cx="101.5" cy="847.9" r="6.8"/>
<circle class="st1" cx="118" cy="847.9" r="6.8"/>
<circle class="st1" cx="134.5" cy="847.9" r="6.8"/>
<circle class="st1" cx="150.9" cy="847.9" r="6.8"/>
<circle class="st1" cx="167.4" cy="847.9" r="6.8"/>
<circle class="st1" cx="183.8" cy="847.9" r="6.8"/>
<circle class="st0" cx="200.3" cy="847.9" r="6.8"/>
<circle class="st0" cx="216.8" cy="847.9" r="6.8"/>
<circle class="st0" cx="233.2" cy="847.9" r="6.8"/>
<g>
	<text transform="matrix(1 0 0 1 61.8047 822.312)" class="st2 st3 st4">Brasil</text>
</g>
<g>
	<text transform="matrix(1 0 0 1 61.8046 882.8237)" class="st2 st5 st6">11 medallas</text>
</g>
<g>
	<text transform="matrix(1 0 0 1 84.0662 35.9722)" class="st2 st5 st7">Hombres</text>
</g>
<circle class="st1" cx="68.6" cy="24.9" r="6.8"/>
<g>
	<text transform="matrix(1 0 0 1 256.5349 35.9722)" class="st2 st5 st7">Mujeres</text>
</g>
<circle class="st0" cx="241.1" cy="24.9" r="6.8"/>
</svg>
