<svg xmlns="http://www.w3.org/2000/svg" viewBox="0 0 1000 470">
<style type="text/css">
	<!-- @import url('https://fonts.googleapis.com/css2?family=Barlow+Semi+Condensed:wght@0,400'); -->
	@import url('https://fonts.googleapis.com/css2?family=Barlow+Semi+Condensed:wght@300');
	.st0{fill:#D3D1D1;}
	.st1{fill:#CC1719;}
	.st2{fill:#1E1E1C;}
	.st3{font-family:'Barlow Semi Condensed', sans-serif;
		font-weight: 300;
		font-style: light;}
	.st4{font-size:27.1023p}
	.st4{font-size:27.1023px;}
	.st5{font-size:20px;}
</style>
<g>
	<g>
		<circle class="st0" cx="539.6" cy="135.3" r="6.8"/>
		<circle class="st0" cx="556" cy="135.3" r="6.8"/>
		<circle class="st0" cx="572.5" cy="135.3" r="6.8"/>
		<circle class="st0" cx="588.9" cy="135.3" r="6.8"/>
		<circle class="st0" cx="605.4" cy="135.3" r="6.8"/>
		<circle class="st0" cx="621.9" cy="135.3" r="6.8"/>
		<circle class="st0" cx="638.3" cy="135.3" r="6.8"/>
		<circle class="st0" cx="654.8" cy="135.3" r="6.8"/>
		<circle class="st1" cx="671.2" cy="135.3" r="6.8"/>
		<circle class="st1" cx="687.7" cy="135.3" r="6.8"/>
		<circle class="st1" cx="704.2" cy="135.3" r="6.8"/>
		<circle class="st1" cx="720.6" cy="135.3" r="6.8"/>
		<circle class="st1" cx="737.1" cy="135.3" r="6.8"/>
		<circle class="st1" cx="753.5" cy="135.3" r="6.8"/>
		<circle class="st1" cx="770" cy="135.3" r="6.8"/>
		<circle class="st1" cx="786.5" cy="135.3" r="6.8"/>
		<circle class="st1" cx="802.9" cy="135.3" r="6.8"/>
		<circle class="st1" cx="819.4" cy="135.3" r="6.8"/>
		<circle class="st1" cx="835.8" cy="135.3" r="6.8"/>
		<circle class="st1" cx="852.3" cy="135.3" r="6.8"/>
	</g>
	<g>
		<g>
			<circle class="st1" cx="146.8" cy="153.8" r="6.8"/>
			<circle class="st1" cx="163.3" cy="153.8" r="6.8"/>
			<circle class="st1" cx="179.7" cy="153.8" r="6.8"/>
			<circle class="st1" cx="196.2" cy="153.8" r="6.8"/>
			<circle class="st1" cx="212.7" cy="153.8" r="6.8"/>
			<circle class="st1" cx="229.1" cy="153.8" r="6.8"/>
			<circle class="st1" cx="245.6" cy="153.8" r="6.8"/>
		</g>
		<g>
			<circle class="st0" cx="146.8" cy="135.3" r="6.8"/>
			<circle class="st0" cx="163.3" cy="135.3" r="6.8"/>
			<circle class="st0" cx="179.7" cy="135.3" r="6.8"/>
			<circle class="st0" cx="196.2" cy="135.3" r="6.8"/>
			<circle class="st0" cx="212.7" cy="135.3" r="6.8"/>
			<circle class="st0" cx="229.1" cy="135.3" r="6.8"/>
			<circle class="st0" cx="245.6" cy="135.3" r="6.8"/>
			<circle class="st0" cx="262.1" cy="135.3" r="6.8"/>
			<circle class="st0" cx="278.5" cy="135.3" r="6.8"/>
			<circle class="st0" cx="295" cy="135.3" r="6.8"/>
			<circle class="st0" cx="311.4" cy="135.3" r="6.8"/>
			<circle class="st0" cx="327.9" cy="135.3" r="6.8"/>
			<circle class="st0" cx="344.4" cy="135.3" r="6.8"/>
			<circle class="st1" cx="360.8" cy="135.3" r="6.8"/>
			<circle class="st1" cx="377.3" cy="135.3" r="6.8"/>
			<circle class="st1" cx="393.7" cy="135.3" r="6.8"/>
			<circle class="st1" cx="410.2" cy="135.3" r="6.8"/>
			<circle class="st1" cx="426.7" cy="135.3" r="6.8"/>
			<circle class="st1" cx="443.1" cy="135.3" r="6.8"/>
			<circle class="st1" cx="459.6" cy="135.3" r="6.8"/>
		</g>
	</g>
	<g>
		<circle class="st0" cx="146.8" cy="275" r="6.8"/>
		<circle class="st0" cx="163.3" cy="275" r="6.8"/>
		<circle class="st0" cx="179.7" cy="275" r="6.8"/>
		<circle class="st0" cx="196.2" cy="275" r="6.8"/>
		<circle class="st0" cx="212.7" cy="275" r="6.8"/>
		<circle class="st0" cx="229.1" cy="275" r="6.8"/>
		<circle class="st0" cx="245.6" cy="275" r="6.8"/>
		<circle class="st0" cx="262.1" cy="275" r="6.8"/>
		<circle class="st0" cx="278.5" cy="275" r="6.8"/>
		<circle class="st0" cx="295" cy="275" r="6.8"/>
		<circle class="st0" cx="311.4" cy="275" r="6.8"/>
		<circle class="st1" cx="327.9" cy="275" r="6.8"/>
		<circle class="st1" cx="344.4" cy="275" r="6.8"/>
		<circle class="st1" cx="360.8" cy="275" r="6.8"/>
		<circle class="st1" cx="377.3" cy="275" r="6.8"/>
		<circle class="st1" cx="393.7" cy="275" r="6.8"/>
		<circle class="st1" cx="410.2" cy="275" r="6.8"/>
		<circle class="st1" cx="426.7" cy="275" r="6.8"/>
	</g>
	<g>
		<text transform="matrix(1 0 0 1 140.0067 112.2104)" class="st2 st3 st4">Estados Unidos</text>
	</g>
	<g>
		<text transform="matrix(1 0 0 1 140.0071 189.6284)" class="st2 st3 st5">27 medallas</text>
	</g>
	<g>
		<text transform="matrix(1 0 0 1 532.7352 112.2104)" class="st2 st3 st4">Cuba</text>
	</g>
	<g>
		<text transform="matrix(1 0 0 1 532.7351 189.6284)" class="st2 st3 st5">20 medallas</text>
	</g>
	<g>
		<text transform="matrix(1 0 0 1 140.0067 249.3638)" class="st2 st3 st4">Canadá</text>
	</g>
	<g>
		<text transform="matrix(1 0 0 1 140.0066 313.3755)" class="st2 st3 st5">18 medallas</text>
	</g>
	<g>
		<circle class="st0" cx="539.6" cy="275" r="6.8"/>
		<circle class="st0" cx="556" cy="275" r="6.8"/>
		<circle class="st0" cx="572.5" cy="275" r="6.8"/>
		<circle class="st0" cx="588.9" cy="275" r="6.8"/>
		<circle class="st0" cx="605.4" cy="275" r="6.8"/>
		<circle class="st0" cx="621.9" cy="275" r="6.8"/>
		<circle class="st0" cx="638.3" cy="275" r="6.8"/>
		<circle class="st0" cx="654.8" cy="275" r="6.8"/>
		<circle class="st0" cx="671.2" cy="275" r="6.8"/>
		<circle class="st0" cx="687.7" cy="275" r="6.8"/>
		<circle class="st0" cx="704.2" cy="275" r="6.8"/>
		<circle class="st0" cx="720.6" cy="275" r="6.8"/>
		<circle class="st0" cx="737.1" cy="275" r="6.8"/>
		<circle class="st0" cx="753.5" cy="275" r="6.8"/>
		<circle class="st0" cx="770" cy="275" r="6.8"/>
	</g>
	<g>
		<text transform="matrix(1 0 0 1 532.7352 249.3638)" class="st2 st3 st4">Argentina</text>
	</g>
	<g>
		<text transform="matrix(1 0 0 1 532.7351 311.8755)" class="st2 st3 st5">15 medallas</text>
	</g>
	<g>
		<circle class="st0" cx="146.8" cy="405.4" r="6.8"/>
		<circle class="st0" cx="163.3" cy="405.4" r="6.8"/>
		<circle class="st0" cx="179.7" cy="405.4" r="6.8"/>
		<circle class="st0" cx="196.2" cy="405.4" r="6.8"/>
		<circle class="st0" cx="212.7" cy="405.4" r="6.8"/>
		<circle class="st0" cx="229.1" cy="405.4" r="6.8"/>
		<circle class="st0" cx="245.6" cy="405.4" r="6.8"/>
		<circle class="st0" cx="262.1" cy="405.4" r="6.8"/>
		<circle class="st0" cx="278.5" cy="405.4" r="6.8"/>
		<circle class="st0" cx="295" cy="405.4" r="6.8"/>
		<circle class="st0" cx="311.4" cy="405.4" r="6.8"/>
		<circle class="st0" cx="327.9" cy="405.4" r="6.8"/>
		<circle class="st1" cx="344.4" cy="405.4" r="6.8"/>
	</g>
	<g>
		<text transform="matrix(1 0 0 1 140.0067 379.812)" class="st2 st3 st4">Colombia</text>
	</g>
	<g>
		<text transform="matrix(1 0 0 1 140.0066 440.3237)" class="st2 st3 st5">13 medallas</text>
	</g>
	<g>
		<circle class="st0" cx="539.6" cy="405.4" r="6.8"/>
		<circle class="st0" cx="556" cy="405.4" r="6.8"/>
		<circle class="st0" cx="572.5" cy="405.4" r="6.8"/>
		<circle class="st0" cx="588.9" cy="405.4" r="6.8"/>
		<circle class="st0" cx="605.4" cy="405.4" r="6.8"/>
		<circle class="st0" cx="621.9" cy="405.4" r="6.8"/>
		<circle class="st0" cx="638.3" cy="405.4" r="6.8"/>
		<circle class="st0" cx="654.8" cy="405.4" r="6.8"/>
		<circle class="st1" cx="671.2" cy="405.4" r="6.8"/>
		<circle class="st1" cx="687.7" cy="405.4" r="6.8"/>
		<circle class="st1" cx="704.2" cy="405.4" r="6.8"/>
	</g>
	<g>
		<text transform="matrix(1 0 0 1 532.7352 379.812)" class="st2 st3 st4">Brasil</text>
	</g>
	<g>
		<text transform="matrix(1 0 0 1 532.7351 440.3237)" class="st2 st3 st5">11 medallas</text>
	</g>
	<g>
		<g>
			<g>
				<text transform="matrix(1 0 0 1 377.7589 48.4722)" class="st2 st3 st4">Hombres</text>
			</g>
			<circle class="st0" cx="362.3" cy="37.4" r="6.8"/>
		</g>
		<g>
			<g>
				<text transform="matrix(1 0 0 1 550.2277 48.4722)" class="st2 st3 st4">Mujeres</text>
			</g>
			<circle class="st1" cx="534.8" cy="37.4" r="6.8"/>
		</g>
	</g>
</g>
</svg>
