<?xml version="1.0" encoding="utf-8"?>
<!-- Generator: Adobe Illustrator 22.0.1, SVG Export Plug-In . SVG Version: 6.00 Build 0)  -->
<svg version="1.1" id="Capa_1" xmlns="http://www.w3.org/2000/svg" xmlns:xlink="http://www.w3.org/1999/xlink" x="0px" y="0px"
	 viewBox="0 0 360 650" style="enable-background:new 0 0 360 650;" xml:space="preserve">
<style type="text/css">
	.st0{fill:#CC1719;}
	.st1{fill:#D3D1D1;}
	.st2{fill:#1E1E1C;}
	.st3{font-family:'ArialMT';}
	.st4{font-size:18px;}
	.st5{font-size:14px;}
	.st6{fill:#9B9B9B;}
	.st7{font-size:12px;}
</style>
<g id="eeuu">
	<g>
		<g>
			<circle class="st0" cx="23.7" cy="131.5" r="6.6"/>
			<circle class="st0" cx="39.7" cy="131.5" r="6.6"/>
			<circle class="st0" cx="55.7" cy="131.5" r="6.6"/>
			<circle class="st0" cx="71.8" cy="131.5" r="6.6"/>
			<circle class="st0" cx="87.8" cy="131.5" r="6.6"/>
			<circle class="st0" cx="103.8" cy="131.5" r="6.6"/>
			<circle class="st0" cx="119.8" cy="131.5" r="6.6"/>
		</g>
		<g>
			<circle class="st1" cx="23.7" cy="113.5" r="6.6"/>
			<circle class="st1" cx="39.7" cy="113.5" r="6.6"/>
			<circle class="st1" cx="55.7" cy="113.5" r="6.6"/>
			<circle class="st1" cx="71.8" cy="113.5" r="6.6"/>
			<circle class="st1" cx="87.8" cy="113.5" r="6.6"/>
			<circle class="st1" cx="103.8" cy="113.5" r="6.6"/>
			<circle class="st1" cx="119.8" cy="113.5" r="6.6"/>
			<circle class="st1" cx="135.9" cy="113.5" r="6.6"/>
			<circle class="st1" cx="151.9" cy="113.5" r="6.6"/>
			<circle class="st1" cx="167.9" cy="113.5" r="6.6"/>
			<ellipse class="st1" cx="183.9" cy="113.5" rx="6.6" ry="6.6"/>
			<circle class="st1" cx="199.9" cy="113.5" r="6.6"/>
			<circle class="st1" cx="216" cy="113.5" r="6.6"/>
			<circle class="st0" cx="232" cy="113.5" r="6.6"/>
			<circle class="st0" cx="248" cy="113.5" r="6.6"/>
			<circle class="st0" cx="264" cy="113.5" r="6.6"/>
			<circle class="st0" cx="280.1" cy="113.5" r="6.6"/>
			<circle class="st0" cx="296.1" cy="113.5" r="6.6"/>
			<circle class="st0" cx="312.1" cy="113.5" r="6.6"/>
			<circle class="st0" cx="328.1" cy="113.5" r="6.6"/>
		</g>
	</g>
	<g>
		<text transform="matrix(1 0 0 1 17.0001 91.0281)" class="st2 st3 st4">Estados Unidos</text>
	</g>
	<g>
		<text transform="matrix(1 0 0 1 17.0003 165.4944)" class="st2 st3 st5">27 medallas</text>
	</g>
</g>
<g id="cuba">
	<g>
		<circle class="st1" cx="23.7" cy="238.4" r="6.6"/>
		<circle class="st1" cx="39.7" cy="238.4" r="6.6"/>
		<circle class="st1" cx="55.7" cy="238.4" r="6.6"/>
		<circle class="st1" cx="71.8" cy="238.4" r="6.6"/>
		<circle class="st1" cx="87.8" cy="238.4" r="6.6"/>
		<circle class="st1" cx="103.8" cy="238.4" r="6.6"/>
		<circle class="st1" cx="119.8" cy="238.4" r="6.6"/>
		<circle class="st1" cx="135.9" cy="238.4" r="6.6"/>
		<circle class="st0" cx="151.9" cy="238.4" r="6.6"/>
		<circle class="st0" cx="167.9" cy="238.4" r="6.6"/>
		<ellipse class="st0" cx="183.9" cy="238.4" rx="6.6" ry="6.6"/>
		<circle class="st0" cx="199.9" cy="238.4" r="6.6"/>
		<circle class="st0" cx="216" cy="238.4" r="6.6"/>
		<circle class="st0" cx="232" cy="238.4" r="6.6"/>
		<circle class="st0" cx="248" cy="238.4" r="6.6"/>
		<circle class="st0" cx="264" cy="238.4" r="6.6"/>
		<circle class="st0" cx="280.1" cy="238.4" r="6.6"/>
		<circle class="st0" cx="296.1" cy="238.4" r="6.6"/>
		<circle class="st0" cx="312.1" cy="238.4" r="6.6"/>
		<circle class="st0" cx="328.1" cy="238.4" r="6.6"/>
	</g>
	<g>
		<text transform="matrix(1 0 0 1 17.003 210.0822)" class="st2 st3 st4">Cuba</text>
	</g>
	<g>
		<text transform="matrix(1 0 0 1 17.0034 272.8262)" class="st2 st3 st5">20 medallas</text>
	</g>
</g>
<g id="canada">
	<g>
		<circle class="st1" cx="24" cy="357" r="6.6"/>
		<circle class="st1" cx="40" cy="357" r="6.6"/>
		<circle class="st1" cx="56" cy="357" r="6.6"/>
		<circle class="st1" cx="72" cy="357" r="6.6"/>
		<circle class="st1" cx="88.1" cy="357" r="6.6"/>
		<circle class="st1" cx="104.1" cy="357" r="6.6"/>
		<circle class="st1" cx="120.1" cy="357" r="6.6"/>
		<circle class="st1" cx="136.1" cy="357" r="6.6"/>
		<circle class="st1" cx="152.2" cy="357" r="6.6"/>
		<circle class="st1" cx="168.2" cy="357" r="6.6"/>
		<ellipse class="st1" cx="184.2" cy="357" rx="6.6" ry="6.6"/>
		<circle class="st0" cx="200.2" cy="357" r="6.6"/>
		<circle class="st0" cx="216.3" cy="357" r="6.6"/>
		<circle class="st0" cx="232.3" cy="357" r="6.6"/>
		<circle class="st0" cx="248.3" cy="357" r="6.6"/>
		<circle class="st0" cx="264.3" cy="357" r="6.6"/>
		<circle class="st0" cx="280.3" cy="357" r="6.6"/>
		<circle class="st0" cx="296.4" cy="357" r="6.6"/>
	</g>
	<g>
		<text transform="matrix(1 0 0 1 17.0029 329.1355)" class="st2 st3 st4">Canadá</text>
	</g>
	<g>
		<text transform="matrix(1 0 0 1 17.0025 390.8889)" class="st2 st3 st5">18 medallas</text>
	</g>
</g>
<g id="argentina">
	<g>
		
			<ellipse transform="matrix(0.9999 -1.020247e-02 1.020247e-02 0.9999 -4.8408 0.2696)" class="st1" cx="24" cy="474.6" rx="6.6" ry="6.6"/>
		<circle class="st1" cx="40" cy="474.6" r="6.6"/>
		<circle class="st1" cx="56" cy="474.6" r="6.6"/>
		<circle class="st1" cx="72" cy="474.6" r="6.6"/>
		<circle class="st1" cx="88.1" cy="474.6" r="6.6"/>
		<circle class="st1" cx="104.1" cy="474.6" r="6.6"/>
		
			<ellipse transform="matrix(3.327787e-02 -0.9994 0.9994 3.327787e-02 -358.2338 578.8398)" class="st1" cx="120.1" cy="474.6" rx="6.6" ry="6.6"/>
		<circle class="st1" cx="136.1" cy="474.6" r="6.6"/>
		<circle class="st1" cx="152.2" cy="474.6" r="6.6"/>
		<circle class="st1" cx="168.2" cy="474.6" r="6.6"/>
		
			<ellipse transform="matrix(0.9239 -0.3827 0.3827 0.9239 -167.6034 106.6248)" class="st1" cx="184.2" cy="474.6" rx="6.6" ry="6.6"/>
		<circle class="st1" cx="200.2" cy="474.6" r="6.6"/>
		<circle class="st1" cx="216.3" cy="474.6" r="6.6"/>
		<circle class="st1" cx="232.3" cy="474.6" r="6.6"/>
		<circle class="st1" cx="248.3" cy="474.6" r="6.6"/>
	</g>
	<g>
		<text transform="matrix(1 0 0 1 17.043 448.1893)" class="st2 st3 st4">Argentina</text>
	</g>
	<g>
		<text transform="matrix(1 0 0 1 17.0034 508.9517)" class="st2 st3 st5">15 medallas</text>
	</g>
</g>
<g id="colombia">
	<g>
		
			<ellipse transform="matrix(0.9999 -1.020247e-02 1.020247e-02 0.9999 -6.0407 0.2757)" class="st1" cx="24" cy="592.2" rx="6.6" ry="6.6"/>
		<circle class="st1" cx="40" cy="592.2" r="6.6"/>
		<circle class="st1" cx="56" cy="592.2" r="6.6"/>
		<circle class="st1" cx="72" cy="592.2" r="6.6"/>
		<circle class="st1" cx="88.1" cy="592.2" r="6.6"/>
		<circle class="st1" cx="104.1" cy="592.2" r="6.6"/>
		
			<ellipse transform="matrix(3.327787e-02 -0.9994 0.9994 3.327787e-02 -475.7687 692.5264)" class="st1" cx="120.1" cy="592.2" rx="6.6" ry="6.6"/>
		<circle class="st1" cx="136.1" cy="592.2" r="6.6"/>
		<circle class="st1" cx="152.2" cy="592.2" r="6.6"/>
		<circle class="st1" cx="168.2" cy="592.2" r="6.6"/>
		
			<ellipse transform="matrix(0.9239 -0.3827 0.3827 0.9239 -212.6087 115.578)" class="st1" cx="184.2" cy="592.2" rx="6.6" ry="6.6"/>
		<circle class="st1" cx="200.2" cy="592.2" r="6.6"/>
		<circle class="st0" cx="216.3" cy="592.2" r="6.6"/>
	</g>
	<g>
		<text transform="matrix(1 0 0 1 17.003 567.2429)" class="st2 st3 st4">Colombia</text>
	</g>
	<g>
		<text transform="matrix(1 0 0 1 17.0025 626.0144)" class="st2 st3 st5">13 medallas</text>
	</g>
</g>
<g id="vineta">
	<g>
		<text transform="matrix(1 0 0 1 38.6257 32.9935)" class="st6 st3 st7">Hombres</text>
	</g>
	<circle class="st1" cx="23.6" cy="29.7" r="6.6"/>
	<g>
		<text transform="matrix(1 0 0 1 290.4929 32.9935)" class="st0 st3 st7">Mujeres</text>
	</g>
	<circle class="st0" cx="275.4" cy="29.7" r="6.6"/>
</g>
</svg>
