<svg xmlns="http://www.w3.org/2000/svg" viewBox="0 0 450 1000">
<style type="text/css">
	<!-- @import url('https://fonts.googleapis.com/css2?family=Barlow+Semi+Condensed:wght@0,400'); -->
	@import url('https://fonts.googleapis.com/css2?family=Barlow+Semi+Condensed:wght@300');
	.st0{fill:#D3D1D1;}
	.st1{fill:#CC1719;}
	.st2{fill:#1E1E1C;}
	.st3{font-family:'Barlow Semi Condensed', sans-serif;
		font-weight: 300;
		font-style: light;}
	.st4{font-size:20px;}
	.st5{font-size:15px;}
</style>
<g>
	<g>
		<g>
			<g>
				<circle class="st1" cx="68.6" cy="202.9" r="6.8"/>
				<circle class="st1" cx="85.1" cy="202.9" r="6.8"/>
				<circle class="st1" cx="101.5" cy="202.9" r="6.8"/>
				<circle class="st1" cx="118" cy="202.9" r="6.8"/>
				<circle class="st1" cx="134.5" cy="202.9" r="6.8"/>
				<circle class="st1" cx="150.9" cy="202.9" r="6.8"/>
				<circle class="st1" cx="167.4" cy="202.9" r="6.8"/>
			</g>
			<g>
				<circle class="st0" cx="68.6" cy="184.4" r="6.8"/>
				<circle class="st0" cx="85.1" cy="184.4" r="6.8"/>
				<circle class="st0" cx="101.5" cy="184.4" r="6.8"/>
				<circle class="st0" cx="118" cy="184.4" r="6.8"/>
				<circle class="st0" cx="134.5" cy="184.4" r="6.8"/>
				<circle class="st0" cx="150.9" cy="184.4" r="6.8"/>
				<circle class="st0" cx="167.4" cy="184.4" r="6.8"/>
				<circle class="st0" cx="183.8" cy="184.4" r="6.8"/>
				<circle class="st0" cx="200.3" cy="184.4" r="6.8"/>
				<circle class="st0" cx="216.8" cy="184.4" r="6.8"/>
				<circle class="st0" cx="233.2" cy="184.4" r="6.8"/>
				<circle class="st0" cx="249.7" cy="184.4" r="6.8"/>
				<circle class="st0" cx="266.2" cy="184.4" r="6.8"/>
				<circle class="st1" cx="282.6" cy="184.4" r="6.8"/>
				<circle class="st1" cx="299.1" cy="184.4" r="6.8"/>
				<circle class="st1" cx="315.5" cy="184.4" r="6.8"/>
				<circle class="st1" cx="332" cy="184.4" r="6.8"/>
				<circle class="st1" cx="348.5" cy="184.4" r="6.8"/>
				<circle class="st1" cx="364.9" cy="184.4" r="6.8"/>
				<circle class="st1" cx="381.4" cy="184.4" r="6.8"/>
			</g>
		</g>
		<g>
			<text transform="matrix(1 0 0 1 61.8046 161.3047)" class="st2 st3 st4">Estados Unidos</text>
		</g>
		<g>
			<text transform="matrix(1 0 0 1 61.8051 238.7227)" class="st2 st3 st5">27 medallas</text>
		</g>
	</g>
	<g>
		<g>
			<circle class="st0" cx="68.6" cy="335.7" r="6.8"/>
			<circle class="st0" cx="85.1" cy="335.7" r="6.8"/>
			<circle class="st0" cx="101.5" cy="335.7" r="6.8"/>
			<circle class="st0" cx="118" cy="335.7" r="6.8"/>
			<circle class="st0" cx="134.5" cy="335.7" r="6.8"/>
			<circle class="st0" cx="150.9" cy="335.7" r="6.8"/>
			<circle class="st0" cx="167.4" cy="335.7" r="6.8"/>
			<circle class="st0" cx="183.8" cy="335.7" r="6.8"/>
			<circle class="st1" cx="200.3" cy="335.7" r="6.8"/>
			<circle class="st1" cx="216.8" cy="335.7" r="6.8"/>
			<circle class="st1" cx="233.2" cy="335.7" r="6.8"/>
			<circle class="st1" cx="249.7" cy="335.7" r="6.8"/>
			<circle class="st1" cx="266.2" cy="335.7" r="6.8"/>
			<circle class="st1" cx="282.6" cy="335.7" r="6.8"/>
			<circle class="st1" cx="299.1" cy="335.7" r="6.8"/>
			<circle class="st1" cx="315.5" cy="335.7" r="6.8"/>
			<circle class="st1" cx="332" cy="335.7" r="6.8"/>
			<circle class="st1" cx="348.5" cy="335.7" r="6.8"/>
			<circle class="st1" cx="364.9" cy="335.7" r="6.8"/>
			<circle class="st1" cx="381.4" cy="335.7" r="6.8"/>
		</g>
		<g>
			<text transform="matrix(1 0 0 1 61.8047 312.5498)" class="st2 st3 st4">Cuba</text>
		</g>
		<g>
			<text transform="matrix(1 0 0 1 61.8046 389.9678)" class="st2 st3 st5">20 medallas</text>
		</g>
	</g>
	<g>
		<g>
			<circle class="st0" cx="68.6" cy="489.4" r="6.8"/>
			<circle class="st0" cx="85.1" cy="489.4" r="6.8"/>
			<circle class="st0" cx="101.5" cy="489.4" r="6.8"/>
			<circle class="st0" cx="118" cy="489.4" r="6.8"/>
			<circle class="st0" cx="134.5" cy="489.4" r="6.8"/>
			<circle class="st0" cx="150.9" cy="489.4" r="6.8"/>
			<circle class="st0" cx="167.4" cy="489.4" r="6.8"/>
			<circle class="st0" cx="183.8" cy="489.4" r="6.8"/>
			<circle class="st0" cx="200.3" cy="489.4" r="6.8"/>
			<circle class="st0" cx="216.8" cy="489.4" r="6.8"/>
			<circle class="st0" cx="233.2" cy="489.4" r="6.8"/>
			<circle class="st1" cx="249.7" cy="489.4" r="6.8"/>
			<circle class="st1" cx="266.2" cy="489.4" r="6.8"/>
			<circle class="st1" cx="282.6" cy="489.4" r="6.8"/>
			<circle class="st1" cx="299.1" cy="489.4" r="6.8"/>
			<circle class="st1" cx="315.5" cy="489.4" r="6.8"/>
			<circle class="st1" cx="332" cy="489.4" r="6.8"/>
			<circle class="st1" cx="348.5" cy="489.4" r="6.8"/>
		</g>
		<g>
			<text transform="matrix(1 0 0 1 61.8046 463.7949)" class="st2 st3 st4">Canadá</text>
		</g>
		<g>
			<text transform="matrix(1 0 0 1 61.8046 527.8066)" class="st2 st3 st5">18 medallas</text>
		</g>
	</g>
	<g>
		<g>
			<circle class="st0" cx="68.6" cy="627.2" r="6.8"/>
			<circle class="st0" cx="85.1" cy="627.2" r="6.8"/>
			<circle class="st0" cx="101.5" cy="627.2" r="6.8"/>
			<circle class="st0" cx="118" cy="627.2" r="6.8"/>
			<circle class="st0" cx="134.5" cy="627.2" r="6.8"/>
			<circle class="st0" cx="150.9" cy="627.2" r="6.8"/>
			<circle class="st0" cx="167.4" cy="627.2" r="6.8"/>
			<circle class="st0" cx="183.8" cy="627.2" r="6.8"/>
			<circle class="st0" cx="200.3" cy="627.2" r="6.8"/>
			<circle class="st0" cx="216.8" cy="627.2" r="6.8"/>
			<circle class="st0" cx="233.2" cy="627.2" r="6.8"/>
			<circle class="st0" cx="249.7" cy="627.2" r="6.8"/>
			<circle class="st0" cx="266.2" cy="627.2" r="6.8"/>
			<circle class="st0" cx="282.6" cy="627.2" r="6.8"/>
			<circle class="st0" cx="299.1" cy="627.2" r="6.8"/>
		</g>
		<g>
			<text transform="matrix(1 0 0 1 61.8047 601.6343)" class="st2 st3 st4">Argentina</text>
		</g>
		<g>
			<text transform="matrix(1 0 0 1 61.8046 664.146)" class="st2 st3 st5">15 medallas</text>
		</g>
	</g>
	<g>
		<g>
			<circle class="st0" cx="68.6" cy="763.6" r="6.8"/>
			<circle class="st0" cx="85.1" cy="763.6" r="6.8"/>
			<circle class="st0" cx="101.5" cy="763.6" r="6.8"/>
			<circle class="st0" cx="118" cy="763.6" r="6.8"/>
			<circle class="st0" cx="134.5" cy="763.6" r="6.8"/>
			<circle class="st0" cx="150.9" cy="763.6" r="6.8"/>
			<circle class="st0" cx="167.4" cy="763.6" r="6.8"/>
			<circle class="st0" cx="183.8" cy="763.6" r="6.8"/>
			<circle class="st0" cx="200.3" cy="763.6" r="6.8"/>
			<circle class="st0" cx="216.8" cy="763.6" r="6.8"/>
			<circle class="st0" cx="233.2" cy="763.6" r="6.8"/>
			<circle class="st0" cx="249.7" cy="763.6" r="6.8"/>
			<circle class="st1" cx="266.2" cy="763.6" r="6.8"/>
		</g>
		<g>
			<text transform="matrix(1 0 0 1 61.8046 737.9727)" class="st2 st3 st4">Colombia</text>
		</g>
		<g>
			<text transform="matrix(1 0 0 1 61.8046 798.4844)" class="st2 st3 st5">13 medallas</text>
		</g>
	</g>
	<g>
		<g>
			<circle class="st0" cx="68.6" cy="897.9" r="6.8"/>
			<circle class="st0" cx="85.1" cy="897.9" r="6.8"/>
			<circle class="st0" cx="101.5" cy="897.9" r="6.8"/>
			<circle class="st0" cx="118" cy="897.9" r="6.8"/>
			<circle class="st0" cx="134.5" cy="897.9" r="6.8"/>
			<circle class="st0" cx="150.9" cy="897.9" r="6.8"/>
			<circle class="st0" cx="167.4" cy="897.9" r="6.8"/>
			<circle class="st0" cx="183.8" cy="897.9" r="6.8"/>
			<circle class="st1" cx="200.3" cy="897.9" r="6.8"/>
			<circle class="st1" cx="216.8" cy="897.9" r="6.8"/>
			<circle class="st1" cx="233.2" cy="897.9" r="6.8"/>
		</g>
		<g>
			<text transform="matrix(1 0 0 1 61.8047 872.312)" class="st2 st3 st4">Brasil</text>
		</g>
		<g>
			<text transform="matrix(1 0 0 1 61.8046 932.8237)" class="st2 st3 st5">11 medallas</text>
		</g>
	</g>
	<g>
		<g>
			<g>
				<text transform="matrix(1 0 0 1 84.0662 85.9722)" class="st2 st3 st4">Hombres</text>
			</g>
			<circle class="st0" cx="68.6" cy="74.9" r="6.8"/>
		</g>
		<g>
			<g>
				<text transform="matrix(1 0 0 1 256.5349 85.9722)" class="st2 st3 st4">Mujeres</text>
			</g>
			<circle class="st1" cx="241.1" cy="74.9" r="6.8"/>
		</g>
	</g>
</g>
</svg>
