<?xml version="1.0" encoding="utf-8"?>
<!-- Generator: Adobe Illustrator 22.0.1, SVG Export Plug-In . SVG Version: 6.00 Build 0)  -->
<svg version="1.1" id="Capa_1" xmlns="http://www.w3.org/2000/svg" xmlns:xlink="http://www.w3.org/1999/xlink" x="0px" y="0px"
	 viewBox="0 0 800 400" style="enable-background:new 0 0 800 400;" xml:space="preserve">
<style type="text/css">
	.st0{fill:#CC1719;}
	.st1{fill:#D3D1D1;}
	.st2{fill:#1E1E1C;}
	.st3{font-family:'ArialMT';}
	.st4{font-size:20px;}
	.st5{font-size:16px;}
	.st6{fill:#9B9B9B;}
	.st7{font-size:18px;}
</style>
<g id="eeuu">
	<g>
		<g>
			<circle class="st0" cx="37" cy="80.4" r="6.8"/>
			<circle class="st0" cx="53.4" cy="80.4" r="6.8"/>
			<circle class="st0" cx="69.9" cy="80.4" r="6.8"/>
			<circle class="st0" cx="86.3" cy="80.4" r="6.8"/>
			<circle class="st0" cx="102.8" cy="80.4" r="6.8"/>
			<circle class="st0" cx="119.3" cy="80.4" r="6.8"/>
			<circle class="st0" cx="135.7" cy="80.4" r="6.8"/>
		</g>
		<g>
			<circle class="st1" cx="37" cy="62" r="6.8"/>
			<circle class="st1" cx="53.4" cy="62" r="6.8"/>
			<circle class="st1" cx="69.9" cy="62" r="6.8"/>
			<circle class="st1" cx="86.3" cy="62" r="6.8"/>
			<circle class="st1" cx="102.8" cy="62" r="6.8"/>
			<circle class="st1" cx="119.3" cy="62" r="6.8"/>
			<circle class="st1" cx="135.7" cy="62" r="6.8"/>
			<circle class="st1" cx="152.2" cy="62" r="6.8"/>
			<circle class="st1" cx="168.7" cy="62" r="6.8"/>
			<circle class="st1" cx="185.1" cy="62" r="6.8"/>
			<circle class="st1" cx="201.6" cy="62" r="6.8"/>
			<circle class="st1" cx="218" cy="62" r="6.8"/>
			<circle class="st1" cx="234.5" cy="62" r="6.8"/>
			<ellipse transform="matrix(0.329 -0.9443 0.9443 0.329 109.8047 278.611)" class="st0" cx="251" cy="62" rx="6.8" ry="6.8"/>
			<circle class="st0" cx="267.4" cy="62" r="6.8"/>
			<circle class="st0" cx="283.9" cy="62" r="6.8"/>
			<circle class="st0" cx="300.3" cy="62" r="6.8"/>
			<circle class="st0" cx="316.8" cy="62" r="6.8"/>
			<circle class="st0" cx="333.3" cy="62" r="6.8"/>
			<circle class="st0" cx="349.7" cy="62" r="6.8"/>
		</g>
	</g>
	<g>
		<text transform="matrix(1 0 0 1 32.3641 39.9034)" class="st2 st3 st4">Estados Unidos</text>
	</g>
	<g>
		<text transform="matrix(1 0 0 1 32.3641 115.1433)" class="st2 st3 st5">27 medallas</text>
	</g>
</g>
<g id="cuba">
	<g>
		<circle class="st1" cx="441.5" cy="62" r="6.8"/>
		<circle class="st1" cx="457.9" cy="62" r="6.8"/>
		<circle class="st1" cx="474.4" cy="62" r="6.8"/>
		<circle class="st1" cx="490.8" cy="62" r="6.8"/>
		<circle class="st1" cx="507.3" cy="62" r="6.8"/>
		<circle class="st1" cx="523.8" cy="62" r="6.8"/>
		<circle class="st1" cx="540.2" cy="62" r="6.8"/>
		<circle class="st1" cx="556.7" cy="62" r="6.8"/>
		<circle class="st0" cx="573.2" cy="62" r="6.8"/>
		<circle class="st0" cx="589.6" cy="62" r="6.8"/>
		<circle class="st0" cx="606.1" cy="62" r="6.8"/>
		<circle class="st0" cx="622.5" cy="62" r="6.8"/>
		<circle class="st0" cx="639" cy="62" r="6.8"/>
		<circle class="st0" cx="655.5" cy="62" r="6.8"/>
		<circle class="st0" cx="671.9" cy="62" r="6.8"/>
		<circle class="st0" cx="688.4" cy="62" r="6.8"/>
		<circle class="st0" cx="704.8" cy="62" r="6.8"/>
		<circle class="st0" cx="721.3" cy="62" r="6.8"/>
		<circle class="st0" cx="737.8" cy="62" r="6.8"/>
		<circle class="st0" cx="754.2" cy="62" r="6.8"/>
	</g>
	<g>
		<text transform="matrix(1 0 0 1 434.6458 36.1465)" class="st2 st3 st4">Cuba</text>
	</g>
	<g>
		<text transform="matrix(1 0 0 1 434.6462 94.3193)" class="st2 st3 st5">20 medallas</text>
	</g>
</g>
<g id="canada">
	<g>
		<circle class="st1" cx="37" cy="203.6" r="6.8"/>
		<circle class="st1" cx="53.5" cy="203.6" r="6.8"/>
		<ellipse class="st1" cx="69.8" cy="203.6" rx="6.8" ry="6.8"/>
		<circle class="st1" cx="86.4" cy="203.6" r="6.8"/>
		<circle class="st1" cx="102.9" cy="203.6" r="6.8"/>
		<circle class="st1" cx="119.3" cy="203.6" r="6.8"/>
		<circle class="st1" cx="135.8" cy="203.6" r="6.8"/>
		<circle class="st1" cx="152.2" cy="203.6" r="6.8"/>
		<circle class="st1" cx="168.7" cy="203.6" r="6.8"/>
		<circle class="st1" cx="185.2" cy="203.6" r="6.8"/>
		<circle class="st1" cx="201.6" cy="203.6" r="6.8"/>
		<circle class="st0" cx="218.1" cy="203.6" r="6.8"/>
		<circle class="st0" cx="234.5" cy="203.6" r="6.8"/>
		<ellipse transform="matrix(0.1602 -0.9871 0.9871 0.1602 9.8232 418.7458)" class="st0" cx="251" cy="203.6" rx="6.8" ry="6.8"/>
		<circle class="st0" cx="267.5" cy="203.6" r="6.8"/>
		<circle class="st0" cx="283.9" cy="203.6" r="6.8"/>
		<circle class="st0" cx="300.4" cy="203.6" r="6.8"/>
		<circle class="st0" cx="316.8" cy="203.6" r="6.8"/>
	</g>
	<g>
		<text transform="matrix(1 0 0 1 32.3641 179.0567)" class="st2 st3 st4">Canadá</text>
	</g>
	<g>
		<text transform="matrix(1 0 0 1 32.3641 236.5684)" class="st2 st3 st5">18 medallas</text>
	</g>
</g>
<g id="argentina">
	<g>
		<circle class="st1" cx="441.5" cy="203.6" r="6.8"/>
		<circle class="st1" cx="458" cy="203.6" r="6.8"/>
		<circle class="st1" cx="474.4" cy="203.6" r="6.8"/>
		<circle class="st1" cx="490.9" cy="203.6" r="6.8"/>
		
			<ellipse transform="matrix(0.5257 -0.8506 0.8506 0.5257 67.4003 528.1629)" class="st1" cx="507.4" cy="203.6" rx="6.8" ry="6.8"/>
		<circle class="st1" cx="523.8" cy="203.6" r="6.8"/>
		<circle class="st1" cx="540.3" cy="203.6" r="6.8"/>
		<circle class="st1" cx="556.7" cy="203.6" r="6.8"/>
		<circle class="st1" cx="573.2" cy="203.6" r="6.8"/>
		<circle class="st1" cx="589.7" cy="203.6" r="6.8"/>
		<circle class="st1" cx="606.1" cy="203.6" r="6.8"/>
		<circle class="st1" cx="622.6" cy="203.6" r="6.8"/>
		<circle class="st1" cx="639" cy="203.6" r="6.8"/>
		<circle class="st1" cx="655.5" cy="203.6" r="6.8"/>
		<circle class="st1" cx="672" cy="203.6" r="6.8"/>
	</g>
	<g>
		<text transform="matrix(1 0 0 1 434.6917 179.0567)" class="st2 st3 st4">Argentina</text>
	</g>
	<g>
		<text transform="matrix(1 0 0 1 434.6458 236.5684)" class="st2 st3 st5">15 medallas</text>
	</g>
</g>
<g id="colombia">
	<g>
		<circle class="st1" cx="37" cy="342.1" r="6.8"/>
		<circle class="st1" cx="53.5" cy="342.1" r="6.8"/>
		
			<ellipse transform="matrix(6.652047e-02 -0.9978 0.9978 6.652047e-02 -276.1965 389.0715)" class="st1" cx="69.8" cy="342.1" rx="6.8" ry="6.8"/>
		<circle class="st1" cx="86.4" cy="342.1" r="6.8"/>
		<circle class="st1" cx="102.9" cy="342.1" r="6.8"/>
		<circle class="st1" cx="119.3" cy="342.1" r="6.8"/>
		<circle class="st1" cx="135.8" cy="342.1" r="6.8"/>
		<circle class="st1" cx="152.2" cy="342.1" r="6.8"/>
		<circle class="st1" cx="168.7" cy="342.1" r="6.8"/>
		<circle class="st1" cx="185.2" cy="342.1" r="6.8"/>
		<circle class="st1" cx="201.6" cy="342.1" r="6.8"/>
		<circle class="st1" cx="218.1" cy="342.1" r="6.8"/>
		<circle class="st0" cx="234.5" cy="342.1" r="6.8"/>
	</g>
	<g>
		<text transform="matrix(1 0 0 1 32.3641 317.5049)" class="st2 st3 st4">Colombia</text>
	</g>
	<g>
		<text transform="matrix(1 0 0 1 32.3644 375.0166)" class="st2 st3 st5">13 medallas</text>
	</g>
</g>
<g id="vineta">
	<g>
		<text transform="matrix(1 0 0 1 456.2712 347.5085)" class="st6 st3 st7">Hombres</text>
	</g>
	<circle class="st1" cx="441.2" cy="342.1" r="6.6"/>
	<g>
		<text transform="matrix(1 0 0 1 678.1384 347.5085)" class="st0 st3 st7">Mujeres</text>
	</g>
	<circle class="st0" cx="663" cy="342.1" r="6.6"/>
</g>
</svg>
