<?xml version="1.0" encoding="utf-8"?>
<!-- Generator: Adobe Illustrator 22.0.1, SVG Export Plug-In . SVG Version: 6.00 Build 0)  -->
<svg version="1.1" id="Capa_1" xmlns="http://www.w3.org/2000/svg" xmlns:xlink="http://www.w3.org/1999/xlink" x="0px" y="0px" viewBox="0 0 600 600" style="enable-background: new 0 0 600 600;" xml:space="preserve">
    <style type="text/css">
        .st0 {
            fill: #868282;
        }
        .st1 {
            fill: #bebbbc;
        }
        @keyframes vueltas{
            from{transform: rotate(0deg); transform-origin: 50% 50%;}
            to{transform: rotate(360deg); transform-origin: 50% 50%;}
        }
        #todo{
            animation: vueltas 2s infinite linear;
        }
    </style>
    <g id="todo">
        <path id="oscuro" class="st0" d="M351.1,502c0,11-12.3,20-23.4,20h-57.2c-10.7,0.1-23-8.7-23-20c0-11.2,12.2-20.1,23-20h57.2 C338.8,482,351.1,491,351.1,502z"
        />
        <path id="claro" class="st1" d="M349.7,95.4c0,11-12.3,20-23.4,20h-57.2c-10.7,0.1-23-8.7-23-20c0-11.2,12.2-20.1,23-20h57.2 C337.4,75.4,349.7,84.4,349.7,95.4z"
        />
        <g id="centro">
            <path
                class="st0"
                d="M283.4,481.9c-1.6-39-4.9-89.4-7.7-129.1c-1.2-20.2-2.1-38.2-2.1-50.3c-0.2-38.6,51-35,49.3,1.1
		c0,2-1.8,35.3-2.7,55.7c-2,36.4-3.8,87.1-4.8,122.9c-1.1,11.3-11,16.8-17.6,16.8C291.4,499.1,286.9,493.6,283.4,481.9z"
            />
            <path
                class="st1"
                d="M418.3,299.8c-4,158.9-237.3,158.8-241.1,0c-0.7-60.9,47.8-114.4,108.1-119.9
		C354.8,171.4,419.6,230.2,418.3,299.8z M352.2,276.7c-23.3-58.1-114.6-40.6-113.6,23.1c0,32.7,26.5,59.1,59.2,59.1
		C339.7,359.8,368.9,314,352.2,276.7z"
            />
            <path
                class="st1"
                d="M313.8,119.2c1.8,37.7,5.1,85.2,7.7,123.6c1.2,20.2,2.1,38.2,2.1,50.3c0.2,38.6-51,35-49.3-1.1
		c0-2,1.8-35.3,2.7-55.7c1.8-35.2,3.7-82.8,4.8-117.4C281.7,90.6,314.1,90.7,313.8,119.2z"
            />
        </g>
    </g>
</svg>