<?xml version="1.0" encoding="utf-8"?>
<!-- Generator: Adobe Illustrator 22.0.1, SVG Export Plug-In . SVG Version: 6.00 Build 0)  -->
<svg version="1.1" id="Capa_1" xmlns="http://www.w3.org/2000/svg" xmlns:xlink="http://www.w3.org/1999/xlink" x="0px" y="0px"
	 viewBox="0 0 600 500" style="enable-background:new 0 0 600 500;" xml:space="preserve">
<style type="text/css">
	.st0{fill:none;stroke:#6F6B6A;stroke-width:1.000000e-02;stroke-linecap:round;stroke-miterlimit:10;}
	.st1{fill:#BEBBBC;}
	.st2{fill:#C6C6C5;}
	.st3{fill:#BEBBBC;stroke:#868282;stroke-width:1.000000e-02;stroke-miterlimit:10;}
	.st4{fill:#A19D9D;}
	.st5{fill:#6F6B6A;}
	.st6{fill:#ECECEC;}
	.st7{fill:#DDDBDC;}
	.st8{fill:#868282;}
	.st9{fill:#575756;}
	.st10{fill:#43413F;}
	.st11{fill:#585554;}
	.st12{fill:#ECECEC;stroke:#6F6B6A;stroke-width:1.000000e-04;stroke-miterlimit:10;}
	.st13{fill:none;stroke:#6F6B6A;stroke-width:1.000000e-04;stroke-miterlimit:10;}
	.st14{fill:none;stroke:#6F6B6A;stroke-width:1.000000e-02;stroke-miterlimit:10;}
	.st15{fill:none;stroke:#CC1719;stroke-linecap:round;stroke-miterlimit:10;}
	.st16{fill:#CC1719;}
	.st17{fill:#1E1E1C;}
	.st18{font-family:'ArialMT';}
	.st19{font-size:17px;}
	.st20{fill:none;stroke:#1D1E1C;stroke-width:0.25;stroke-miterlimit:10;}
	.st21{fill:#1D1E1C;}
	.st22{fill:none;}
</style>
<g id="Capa_1_1_">
	<g id="grafica">
		<path class="st0" d="M226.5,316.3c0,29-23.5,52.5-52.5,52.5"/>
		<path class="st0" d="M116.6,307c0-29,23.5-52.5,52.5-52.5"/>
		<path class="st1" d="M276.8,122.4l47.4-15.3c0,0,3.5-1.1,5.3-1.7c17.9-5.8,27.7-24.9,21.9-42.8s-24.9-27.7-42.8-21.9
			c-1.8,0.6-72.7,23.8-75.6,25.2c-7.4,3.5-14,7.6-19.7,12.1L276.8,122.4z"/>
		<path class="st0" d="M376,312.2c0-29,23.5-52.5,52.5-52.5"/>
		<g>
			<g>
				<g>
					<g>
						<path class="st2" d="M299.9,229.3l-0.4,1c0,0.1,0,0.1-0.1,0.2l-40.1,108.8l0,0c-1.9,5.9-8.2,9.2-14.1,7.3
							c-6-1.9-9.3-8.2-7.4-14.2c0,0,0-0.1,0.1-0.1v-0.1l0,0l29.6-103.9l-67.3-75.9l-3.8-4.3c-8.9-12.4-6-29.6,6.4-38.5
							s29.6-6,38.5,6.4l2.8,5l53.6,94.3l0,0C300.6,219.2,301.5,224.4,299.9,229.3z"/>
					</g>
					<path class="st3" d="M200.3,152.4c-1.4-1.3-2.7-2.7-3.8-4.3L200.3,152.4z"/>
					<path class="st3" d="M244.2,121l-2.8-5C242.5,117.6,243.4,119.3,244.2,121z"/>
					<path class="st3" d="M263.3,329.4c0,0,14.7,19,21.9,21.9s13.5,4.5,13.2,8.8s-12.5,10.7-27,5.3s-12.6-8.3-27.2-13.1
						c-14.6-4.9-14.9-8-14-12.4c0.9-4.5,6.7-13.3,9.6-11.3c1.6,1.1-0.5,7.5,4.4,9.7C247.8,339.8,257.5,344.2,263.3,329.4z"/>
					<circle class="st3" cx="269.9" cy="348.8" r="2"/>
					<circle class="st3" cx="257.1" cy="344.5" r="2"/>
					<g>
						<path class="st4" d="M276.4,293.6l-17.1,45.8v0.1c-1.7,5.2-7,8.5-12.6,7.6c-6.2-1-10.3-6.8-9.3-13c0.1-0.6,0.2-1.2,0.4-1.7
							l13-44.6L276.4,293.6z"/>
					</g>
				</g>
				<g>
					<g>
						<path class="st4" d="M274.8,174.9L244.2,121l-2.8-5c-8.9-12.4-26.1-15.2-38.5-6.4c-12.4,8.9-15.2,26.1-6.4,38.5l3.8,4.3
							l38,42.9L274.8,174.9z"/>
					</g>
					<g>
						<path class="st5" d="M263.3,329.4c0,0,14.7,19,21.9,21.9s13.5,4.5,13.2,8.8s-12.5,10.7-27,5.3s-12.6-8.3-27.2-13.1
							c-14.6-4.9-14.9-8-14-12.4c0.9-4.5,6.7-13.3,9.6-11.3c1.6,1.1-0.5,7.5,4.4,9.7C247.8,339.8,257.5,344.2,263.3,329.4z"/>
					</g>
					<circle class="st3" cx="269.9" cy="348.8" r="2"/>
					<circle class="st3" cx="257.1" cy="344.5" r="2"/>
				</g>
			</g>
		</g>
		<path class="st6" d="M398.6,43.4c0,15-12.2,27.2-27.2,27.2c-1.5,0-3-0.1-4.4-0.4c-1-0.2-1.9-0.4-2.9-0.6c-0.3-0.1-0.5-0.2-0.8-0.2
			c-0.1,0-0.1,0-0.2-0.1c-0.1,0-0.2-0.1-0.2-0.1l0,0c-6.1-1-8.4,10.5-8.3,10.9l-1.8-11.8c-0.2-1.2-1.6-7.2-4.1-12
			c-2.7-5.3-7.2-8.9-8.5-9.9c-3.4-2.8-8.5-5.3-13-6.4c1.3,0.3,5.9,1,7.1,1c3.7,0,6.8-1.7,9.4-3.9c0.7-0.6,1.3-1.2,1.8-2.1
			c0.3-0.5,0.5-1.1,0.6-1.8c0.6-1.4,1.2-2.7,2-4c1.1-1.8,2.3-3.4,3.8-4.9c4.9-5.1,11.9-8.3,19.5-8.3
			C386.5,16.1,398.6,28.3,398.6,43.4z"/>
		<g>
			<path class="st7" d="M432.2,309.3c-1.2-3-13.4-35.1-23.4-61c-2.8-7.4-5.5-14.2-7.7-19.8c-1.5-3.8-2.8-7-3.8-9.4c0,0,0,0-0.1,0
				c-0.7-0.1-1.6,0-2.6,0.1c-0.1,0-0.3,0-0.4,0.1c-2,0.3-4.4,0.9-6.4,1.4c-0.1,0-0.3,0.1-0.4,0.1s-0.3,0.1-0.4,0.1
				c-0.3,0.1-0.5,0.2-0.8,0.3c-0.7,0.3-1.2,0.5-1.5,0.7l-0.1,0.1v0.1c1.3,2.8,2.9,6.6,4.8,11.1c2.4,5.7,5.2,12.5,8.1,19.7
				c10.6,25.9,23,57,25.5,61.1c0.7,1.8,6.2,2,8.5,0.8C433.5,314,433,311,432.2,309.3z"/>
			<path class="st7" d="M428.3,314.5c-1.3,0-2.4-1.1-2.4-2.4s1.1-2.4,2.4-2.4s2.4,1.1,2.4,2.4C430.8,313.5,429.6,314.5,428.3,314.5z
				"/>
			<path class="st8" d="M266.5,368.2c0-2.4,2.7-4.4,5.2-4.4h12.7c1,0,2.1,0.3,2.9,0.9c1.2,0.8,2.1,2.1,2.1,3.5
				c0,1.5-0.9,2.8-2.2,3.6c-0.9,0.5-1.9,0.9-2.9,0.9h-12.7C269.2,372.6,266.5,370.6,266.5,368.2z"/>
			<path class="st8" d="M272.3,331.1c0-8.5,11.3-7.7,10.9,0.2c0,0.9-0.2,5.2-0.5,10.6c0,0.1,0,0.1,0,0.2c0,0.5-0.1,1-0.1,1.6
				c-0.2,3.9-0.4,8.3-0.6,12.5c0,0.1,0,0.1,0,0.2c-0.2,3.5-0.3,4.5-0.5,7.4c-1.9,0.1-3.6,0.1-3.6,0.1s-1,0-3.5-0.1
				c-0.2-2.8-0.5-3.9-0.7-7.3c0-0.1,0-0.2,0-0.3c-0.3-4.1-0.6-8.4-0.9-12.4c0-0.5-0.1-1-0.1-1.6c0-0.1,0-0.2,0-0.4
				C272.5,337.5,272.3,333.7,272.3,331.1z"/>
			<g>
				<path class="st1" d="M254,342.2c-12.4,33.2-44.4,56.8-81.9,56.8c-48.2,0-87.4-39.1-87.4-87.4s39.1-87.4,87.4-87.4
					c20.5,0,39.4,7.1,54.3,18.9c-4.3,4.1-9.6,9.4-15.2,15c-10.9-8-24.4-12.7-39-12.7c-36.5,0-66.1,29.6-66.1,66.1
					s29.6,66.1,66.1,66.1c31.2,0,57.4-21.7,64.3-50.8c5.2,1.1,10.2,2.2,14.7,3.3C251.1,334.6,252.2,338.6,254,342.2z"/>
				<path class="st1" d="M259.5,310.9c-2.2,2.1-4,4.5-5.4,7.1c-4.6-0.7-10.1-1.4-16-2.3c0.1-1.4,0.1-2.7,0.1-4.1
					c0-18.6-7.6-35.3-20-47.3c6.2-6,11.7-11.4,15.2-14.7C249.4,265.2,259.3,286.9,259.5,310.9z"/>
			</g>
			<path class="st1" d="M515.2,311.6c0,48.2-39.1,87.4-87.4,87.4c-48.2,0-87.3-39.1-87.3-87.4c0-34.5,19.9-64.2,48.9-78.5
				c2.4,5.7,5.2,12.5,8.1,19.7c-21.3,11-35.8,33.2-35.8,58.8c0,36.5,29.6,66.1,66.1,66.1s66.1-29.6,66.1-66.1s-29.6-66.1-66.1-66.1
				c-6.6,0-13,1-19.1,2.8c-2.8-7.4-5.5-14.2-7.7-19.8c8.4-2.7,17.5-4.2,26.8-4.2C476.1,224.3,515.2,263.4,515.2,311.6z"/>
			<path class="st7" d="M397.3,219.1L397.3,219.1c-0.6-0.1-1.6-0.1-2.7,0.1c-0.1,0-0.3,0-0.4,0.1c-2.1,0.3-4.5,0.9-6.4,1.4
				c-0.1,0-0.3,0.1-0.4,0.1s-0.3,0.1-0.4,0.1c-0.3,0.1-0.5,0.2-0.8,0.3c-0.7,0.3-1.3,0.5-1.5,0.7l-0.1,0.1l0,0
				c-3.7-0.7-7.4,3.7-7.4,3.7l-77.9,88.7c-4.1-5.5-10.2-9.4-17.3-10.6c18.9-21.3,83.1-93.5,85.5-97.2c1.6-2.5-1.9-12.2-4.3-12.2
				c-9.4,0.1-110.3,8.2-113.1,8.2c-1.8,0-5.2,1.3-2,10c2.7,7.3,21.2,71,27,91.1c-3.4,0.3-6.5,1.3-9.4,2.8
				c-3-16.7-10.5-44.8-28.2-60.8c0,0-1.5,1.4-3.9,3.8c-3.5,3.4-9,8.7-15.2,14.7c-16.6,16.1-38.1,37-38.7,37.9c-1,1.5-1.3,5.6,3.1,6
				c2.7,0.2,32,4.3,55.4,7.7c5.9,0.8,11.4,1.6,16,2.3c-1.9,3.7-3,7.8-3,12.2l0,0c-4.5-1-9.5-2.1-14.7-3.3
				c-21.5-4.7-46.6-10-58.9-12.4c0.9-1.1,1.4-2.5,1.4-4.1c0-3.7-3-6.6-6.6-6.6c-1.2,0-2.3,0.3-3.3,0.9c0.1-4.3,1.3-5,1.8-5.7
				c4.1-4.5,23.6-24.3,40.3-40.8c5.7-5.6,11-10.9,15.2-15c4.5-4.4,7.8-7.5,9.1-8.6c5.6-4.6-6.3-25.1-6.9-35.6l14.6-2.5l0,0
				C280,192,368.5,185.7,374,185.3l0,0c0.2,0,0.3,0,0.3,0s0.3-0.1,0.7-0.2l0,0l10.3-2.1c1.9,2.6,4.7,11.5,7.1,19.8
				c-2.6,0.3-4.9,0.5-5.6,0.6c-2.2,0.1-2.6,7.4,0.1,7.7c1,0.1,4-0.1,7.7-0.7C395.8,214.3,396.8,217.6,397.3,219.1z"/>
			<circle class="st7" cx="172.3" cy="310.6" r="2.2"/>
			<path class="st7" d="M385.2,182.9L385.2,182.9L375,185l0,0l-0.9,0.2l0,0v-3.7l11.2,0.2c0,0,0,0,0,0.1L385.2,182.9z"/>
			<path class="st4" d="M414,204c-4.3,3.4-12.9,5.4-19.4,6.4c-3.7,0.6-6.7,0.8-7.7,0.7c-2.7-0.2-2.3-7.6-0.1-7.7
				c0.7,0,3-0.2,5.6-0.6c2.2-0.3,4.6-0.7,6.7-1.1c20.1-4.6,19-16.5,18.7-18.2c-0.2-1.7-4.1-6.1-5.3-7.4c-1-1.1-4.6-0.1-11.4-1.2
				c-0.7-0.1-1.3-0.2-1.8-0.3l0,0c-5.8-1.1-6.2-3.7-4.1-5.6c0.2-0.2,0.5-0.3,1-0.5l0,0c3.4-1.1,12.9-1,14.7-0.5
				c0.2,0,0.3,0.1,0.3,0.1c0.2,0.4,0.9,1.3,1.9,2.5c0.1,0.1,0.2,0.2,0.2,0.3c1.3,1.6,3.3,3.6,5.8,5.8c0.1,0.1,0.2,0.2,0.3,0.3
				c1.6,1.3,3.4,2.7,5.5,4C427.5,189.4,420.8,198.6,414,204z"/>
			<path class="st7" d="M372.3,172.5c1.6-1,24.1-4.3,24.6-4.5c-2.3,0.4-6,4.5,2.4,6.3c0,0-14.5,1-14.3,4.1c0.2,4.1,0.2,3.2,0.2,3.2
				l-11.2-0.2C374,179.3,370.2,173.8,372.3,172.5z"/>
			<path class="st4" d="M442.3,200.9c0,0,0.5-0.9,0.3-1.7s-1.9,0.7-1.6-5.8s3.9-17.8,0.6-22.5l-4,2.3c0.7,4.6,2.4,4.9-4.2,11.1
				C431,190.7,442.3,200.9,442.3,200.9z"/>
			<path class="st4" d="M445.3,161.6c0,0-3.8-1-4.5-0.2s-6.3,11.4-5.4,11.5c0.3,0,0.1-0.9,2.3,0.2c1.4-0.8,4-2.3,4-2.3
				S445.3,161.9,445.3,161.6z"/>
			<path class="st4" d="M445.3,161.6c0.5-1.7-0.8-2.9-3-3.7c-1.6-0.6-3.4-1-6.2-0.5c-1.6,0.3-4.8,9.3-9.2,9.8s-16.2,0.5-16.2,0.5
				s5.8,8,14,13c0,0,0.6-4,5-4.8c4-0.7,5.4,0,5.4-1.1c0-2.2,0-2.7,2.7-7.9c1-2,2.2-4.1,3-5.4C441.3,160.6,445.3,161.6,445.3,161.6z"
				/>
			<polygon class="st7" points="243.9,196.4 243.2,196.5 243.2,196.5 228.6,199 228.6,199 227.2,192.8 242.1,192.5 			"/>
			<polygon class="st7" points="229,150.3 242.1,192.5 227.2,192.8 215.2,150.7 217.4,149.7 			"/>
			<path class="st4" d="M192.4,144c7.4,0.4,13.2-0.2,17.9,5.4c4.5,5.3,12-4.7,18.3-6.2c9.2-2.1,24.3,0.4,25.8-0.6
				c1-0.7,3.7-3-10.6-3.2c-14.3-0.2-36.6-0.1-49.3-0.4C191.5,139,189.8,142.6,192.4,144z"/>
			<path class="st4" d="M246,142.6c0,0-10.9,7.1-11.8,7.4c-3.2,0.9-16.9-0.3-16.9-0.3l3.1-1.9c0,0,10.2,0.9,13.2,0.1
				c3-0.9,9-5.5,9-5.5L246,142.6z"/>
			<path class="st7" d="M179,310.6c0,1.5-0.5,3-1.4,4.1c-1.2,1.6-3.1,2.5-5.2,2.5c-3.7,0-6.6-3-6.6-6.6c0-2.5,1.3-4.6,3.3-5.8
				c1-0.6,2.1-0.9,3.3-0.9C176,303.9,179,306.9,179,310.6z"/>
			<path class="st1" d="M289.1,291.9c0,2.4-2.7,4.4-5.2,4.4h-12.7c-1,0-2.1-0.3-2.9-0.9c-1.2-0.8-2.1-2.1-2.1-3.5
				c0-1.5,0.9-2.8,2.2-3.6c0.9-0.5,1.9-0.9,2.9-0.9H284C286.4,287.4,289.1,289.4,289.1,291.9z"/>
			<circle class="st9" cx="277.8" cy="330" r="2.3"/>
			<path class="st1" d="M281.9,303.9h0.1c7.1,1.1,13.2,5,17.3,10.6c2.4,3.3,4.1,7.2,4.8,11.4c0.2,1.4,0.4,2.9,0.4,4.4
				c0,1.3-0.1,2.6-0.3,3.8c-1.9,12.9-13,22.8-26.4,22.8c-10.4,0-19.5-6-23.9-14.7c-1.8-3.6-2.8-7.6-2.8-11.9l0,0
				c0-4.4,1.1-8.6,3-12.2c1.4-2.7,3.2-5.1,5.4-7.1c1.9-1.7,3.9-3.2,6.2-4.4c2.5-1.3,5.1-2.1,8-2.6c-0.2,4.2-0.4,8.6-0.6,12.5
				c0,0.5-0.1,1.1-0.1,1.6c0,0.1,0,0.1,0,0.2c-4.8,1.9-8.2,6.6-8.2,12.2c0,7.2,5.9,13.1,13.1,13.1c5.5,0,10.3-3.4,12.2-8.3
				c0.6-1.5,0.9-3.1,0.9-4.8c0-1.8-0.4-3.5-1-5.1c-1.3-3.1-3.8-5.6-7-7"/>
			<path class="st1" d="M283.4,329c0,8.5-11.3,7.7-10.9-0.2c0-0.9,0.2-5.2,0.5-10.6c0-0.1,0-0.1,0-0.2c0-0.5,0.1-1,0.1-1.6
				c0.2-3.9,0.4-8.3,0.6-12.5c0-0.1,0-0.1,0-0.2c0.2-3.5,0.3-4.5,0.5-7.4c1.9-0.1,3.6-0.1,3.6-0.1s1,0,3.5,0.1
				c0.2,2.8,0.5,3.9,0.7,7.3c0,0.1,0,0.2,0,0.3c0.3,4.1,0.6,8.4,0.9,12.4c0,0.5,0.1,1,0.1,1.6c0,0.1,0,0.2,0,0.4
				C283.2,322.5,283.3,326.4,283.4,329z"/>
		</g>
		<path class="st6" d="M341.2,171.8c-0.2,0.3-0.4,0.6-0.6,0.8l-71.1,91.8l-0.1,0.1c-3.2,4.5-9.2,6.1-14.3,3.5
			c-5.6-2.8-7.9-9.6-5.1-15.2c0.3-0.5,0.6-1.1,0.9-1.5l51.1-77.2l-90.4-15.2l14.8-53.2l106.2,41.8l0,0c1.7,0.5,3.4,1.3,5,2.4
			C344.6,154.9,346.2,164.7,341.2,171.8z"/>
		<path class="st1" d="M299.3,225.7l-30,38.6l-0.1,0.1c-3.2,4.5-9.2,6.1-14.3,3.5c-5.6-2.8-7.9-9.6-5.1-15.2
			c0.3-0.5,0.6-1.1,0.9-1.5l25.6-38.7L299.3,225.7z"/>
		<path class="st10" d="M276.5,255.2c0,0,10.7,19.7,17.2,23.7c6.6,4,12.6,6.6,11.7,10.8s-14,8.6-27.5,0.9s-11.1-10.2-24.8-17.3
			c-13.7-7.1-13.4-10.2-11.9-14.5c1.5-4.3,8.7-12.1,11.3-9.7c1.4,1.4-1.7,7.3,2.8,10.3C258.6,261.6,266.6,266.2,276.5,255.2z"/>
		<circle class="st11" cx="276.5" cy="276.6" r="2"/>
		<circle class="st11" cx="265.6" cy="268.7" r="2"/>
		<path class="st6" d="M352,64.2l11.3,69.4l60.7,29c4.4,2,6.3,7.1,4.3,11.4c-2,4.4-7.1,6.3-11.4,4.3L350.4,150l-0.6-0.2
			c-3-1.4-5-4-5.7-6.9l-23.9-70.8"/>
		<path class="st1" d="M213.3,77.9c-17.8,14.4-26.3,34-21.8,57c-0.1-1.1-0.1-1.1,0,0c1.1,11,8.8,20.8,20.1,23.9
			c14.7,4.1,29.9-4.5,34-19.2c1.2-4.3,8.4-2.3,11.4-5.2c4.4-4.2,1.4-6.2,7.7-8.2l12-3.9L213.3,77.9z"/>
		<polyline class="st1" points="258.4,117.5 299.3,134.4 279.6,170.3 211.6,158.9 		"/>
		<path class="st1" d="M351.8,63.9c2.2,9.9,6.8,41.4,6.8,41.4l-24.8,7.1L318,71"/>
		<path class="st12" d="M394.8,54.7c0,0,1,7.6,0,11.5c-0.4,1.6-6.1-2-6.1-2"/>
		<path class="st1" d="M360.8,30.7l40.9,17.5l-6.7,8.7c0,0-4.5-4.9-10.9-13.8C381,38.6,360.8,30.7,360.8,30.7z"/>
		<path class="st1" d="M356.5,29.2l6.4,21.4l13.4-16.4l3,2.1c0,0-16.2,16.9-16.3,20.2c-0.1,3.3,0.3,14.9,0.3,14.9l-3.3,0.5
			c0,0,0.9-13.5,0.1-16.9c-0.8-3.5-7-25.4-7-25.4L356.5,29.2z"/>
		<g>
			<g>
				<g>
					<path class="st1" d="M402,43.8c4.3-1.9,3.8-25.4-11.1-33.6S359.7,1,359.7,1l1,4.1L350,6.6l1,6.4l-5.6,3.2
						c0,0-2.1,12.5,2.5,13.4c4.5,1,16.9,0.5,21-1.6c0,0,3.4,7.1,8.8,8.5s4,0,7.3,1.1C388,38.7,398.3,45.4,402,43.8z"/>
				</g>
				<g>
					<path class="st6" d="M360.5,12.4c8.5,1.8,23.9,9.5,27.3,18.6L360.5,12.4z"/>
				</g>
				<g>
					<path class="st6" d="M388.5,18.8c3.2,1.4,9,8.8,9,12.2L388.5,18.8z"/>
				</g>
			</g>
		</g>
		<path class="st13" d="M369,38.2c-0.1-4-4.9-7.7-7.5-0.7c-2.7,7.4,0.1,11.6,3.6,9"/>
		<line class="st14" x1="382.5" y1="68" x2="379.1" y2="66"/>
		<path class="st12" d="M420.8,161.1c3.1,1.1,9.8,3.8,10.4,4.1l6.5,2.6c0,0,1.9,0.8,2.1,1l4.9,5.1c0.8,0.7,0.9,1.9,0.1,2.7
			c-0.7,0.8-1.9,0.9-2.7,0.1L439,173c0,0-3.4-2.3-5.6-3.3c-0.2-0.1,5.5,4.3,5.5,4.3l3.7,6c0.6,0.9,0.4,2.1-0.5,2.7s-2.1,0.4-2.7-0.5
			l-3.1-4.8c0,0-6.2-4.5-5.3-3.6c1.1,1,5.2,5.2,5.2,5.2c0.7,0.8,0.6,2-0.2,2.7s-2,0.6-2.7-0.2c0,0-2.1-2.4-3.7-4
			c-0.2-0.2,2.7,3.6,2.7,3.6c0.7,0.8,0.6,2-0.2,2.7s-2,0.6-2.7-0.2l-3.6-4c-0.9,0.3-1.8,0.4-2.7,0.4c-1.4,0-8.4-2.2-8.6-4.6"/>
		<path class="st0" d="M480.8,312.2c0,29-23.5,52.5-52.5,52.5"/>
		<g>
			<g>
				<path class="st15" d="M278,284.1c24.6,0,44.8,19.2,46.3,43.5"/>
				<g>
					<polygon class="st16" points="322.2,327.1 324.3,330.4 326.1,326.9 					"/>
				</g>
			</g>
		</g>
		<line class="st13" x1="330.8" y1="104.8" x2="317.8" y2="70.9"/>
		<line class="st13" x1="212.8" y1="77.8" x2="276.4" y2="122.4"/>
	</g>
	<g id="musculo">
		<g>
			<g>
				<text transform="matrix(1 0 0 1 157.6875 200.9)" class="st17 st18 st19">Glúteos</text>
			</g>
			<g>
				<g>
					<line class="st20" x1="196.8" y1="184" x2="196.8" y2="144"/>
					<g>
						<circle class="st21" cx="196.8" cy="144" r="0.4"/>
					</g>
				</g>
			</g>
		</g>
		<path class="st16" d="M202.3,87.9c-7.7,9-18.2,29.8-9.7,54.7c8.2,19.1,21.1,16.8,30.9,18.8c12.7,2.5,25.2,4.3,25.2,4.3
			s-22.9-47.4-20.6-55.5C230.2,102.8,208.6,82.4,202.3,87.9z"/>
		<path class="st22" d="M428.5,224.3c-9.4,0-18.4,1.5-26.8,4.2c-1.5-3.8-5.3-14.1-6.5-18.1c15.6-1.1,33.6-12.8,30.2-29.6
			c0,0-0.1,0-0.1-0.1c0,0,0.1,0,0.1,0.1c0,0,0.1-0.5,0.3-1.1c0.1,0,0.3-0.1,0.4-0.1l3.6,4c1.6,1.9,4.6-0.6,3-2.5
			c0,0-2.8-3.8-2.7-3.6c3.1,2.6,3.5,5.7,6.4,4.2c2-2.6-0.6-3.2-3.1-6.2c0.3,0,0.6,0,0.9,0c2.7,1.8,2.8,2.1,4.1,4.2
			c-0.7,1.1-2,2.5-4.2,4.6c-2.6,6.5,8.9,16.6,8.9,16.6s0.5-0.9,0.3-1.7c-4-2.6,0.8-16.3,0.4-21.9c5-0.5,0.3-4.9-1.3-6.4
			c0.3-0.7,3.6-8.9,3.6-9.2c0,0-0.5-0.1-1.1-0.3c0.6,0.1,1.1,0.3,1.1,0.3c0.5-3.9-5.3-4.9-9.2-4.2c-1.1,0.2-3,4.7-5.6,7.5
			c-5.4-1.3-61-28.4-67.4-31.4l-4.6-28.3c0,0-2-13.6-4-25.8c0.4-1.9,2-8,5.4-9.8c-0.1,1.3-0.1,2.1-0.1,2.1l3.3-0.5c0,0,0-0.8-0.1-2
			c8.7,2.9,19.1,0.7,25.7-5c8.7,5.9,6.1-1.6,6.2-7.4l0,0l0.1,0.1l6.7-8.7c0,0-0.6-4.1,0.2-4.4c4.3-1.9,3.8-25.4-11.1-33.6
			s-31.3-9.2-31.3-9.2l1,4.1l-10.7,1.5l1,6.4l-5.6,3.2c0,0-2.2,12.7,2.6,13.5c-3.1,9.6-11,13.1-20.6,10.2c0.2,0.1,0.4,0.1,0.6,0.2
			c-6.1-1.7-12.8-1.6-19.4,0.5c-16.7,6.5-82.3,23.4-95.3,37.3l0,0c-3.5,2.9-6.7,6-9.5,9.2c-9.5,8.1-18.6,28.6-11.9,53
			c-1.4,1.2-0.8,4,1.4,3.9c3.2,6.8,7,10.6,11,12.9l18.7,21.1c1.2,4.2,4.9,16.7,5.6,20.9c0.6,10.6,12.5,31.1,6.9,35.6
			c-1.3,1-4.6,4.2-9.1,8.6c-53.7-45.5-144-3-141.6,68.4c-1.6,89.1,123.3,119.9,163.9,42.2c9.3,3.7,9.9,6.4,20.5,10.6
			c-4.7,2.2-2.1,8.3,2.6,8.2c4.3-0.7,20,2.8,17.4-6c11.2-2.8,12.6-9.7,1.8-13.1c13.6-7.1,18-26.9,8.4-39l77.9-88.7l7.5-3.8
			c0,0,2.9,6.7,4.7,11.1c-81.5,37.9-53,167.3,38.4,165.8C543.5,397,543.3,226.2,428.5,224.3z"/>
	</g>
</g>
<g id="Capa_2_1_">
</g>
<g id="Capa_3">
</g>
<g id="Capa_4">
</g>
</svg>
