<?xml version="1.0" encoding="utf-8"?>
<!-- Generator: Adobe Illustrator 22.0.1, SVG Export Plug-In . SVG Version: 6.00 Build 0)  -->
<svg version="1.1" id="Capa_1" xmlns="http://www.w3.org/2000/svg" xmlns:xlink="http://www.w3.org/1999/xlink" x="0px" y="0px"
	 viewBox="0 0 600 500" style="enable-background:new 0 0 600 500;" xml:space="preserve">
<style type="text/css">
	.st0{fill:none;stroke:#6F6B6A;stroke-width:1.000000e-02;stroke-miterlimit:10;}
	.st1{fill:#BEBBBC;}
	.st2{fill:#C6C6C5;}
	.st3{fill:#A19D9D;}
	.st4{fill:#6F6B6A;}
	.st5{fill:#1D1D1B;}
	.st6{fill:#ECECEC;}
	.st7{fill:#868282;}
	.st8{fill:#DDDBDC;}
	.st9{fill:#ECECEC;stroke:#6F6B6A;stroke-width:1.000000e-04;stroke-miterlimit:10;}
	.st10{fill:#43413F;}
	.st11{fill:#585554;}
	.st12{fill:none;stroke:#CC1719;stroke-linecap:round;stroke-miterlimit:10;}
	.st13{fill:#CC1719;}
	.st14{fill:none;stroke:#6F6B6A;stroke-width:1.000000e-04;stroke-miterlimit:10;}
	.st15{fill:#1E1E1C;}
	.st16{font-family:'ArialMT';}
	.st17{font-size:18px;}
	.st18{fill:none;stroke:#1D1D1B;stroke-width:0.25;stroke-linecap:round;stroke-miterlimit:10;}
</style>
<g id="Capa_1_1_">
</g>
<g id="Capa_2_1_">
</g>
<g id="Capa_3">
	<g id="grafica3">
		<path class="st0" d="M123.1,310.6c0-29,23.5-52.5,52.5-52.5"/>
		<path class="st1" d="M277.7,122.4l47.4-15.3c0,0,3.5-1.1,5.3-1.7c17.9-5.8,27.7-24.9,21.9-42.8s-24.9-27.7-42.8-21.9
			c-1.8,0.6-72.7,23.8-75.6,25.2c-7.4,3.5-14,7.6-19.7,12.1L277.7,122.4z"/>
		<g>
			<path class="st2" d="M342.2,171.8c-0.2,0.3-0.4,0.6-0.6,0.8l-71.1,91.8l-0.1,0.1c-3.2,4.5-9.2,6.1-14.3,3.5
				c-5.6-2.8-7.9-9.6-5.1-15.2c0.3-0.5,0.6-1.1,0.9-1.5l51.1-77.2l-90.4-15.2l14.8-53.2l106.2,41.8l0,0c1.7,0.5,3.4,1.3,5,2.4
				C345.6,154.9,347.2,164.7,342.2,171.8z"/>
			<path class="st3" d="M300.3,225.7l-30,38.6l-0.1,0.1c-3.2,4.5-9.2,6.1-14.3,3.5c-5.6-2.8-7.9-9.6-5.1-15.2
				c0.3-0.5,0.6-1.1,0.9-1.5l25.6-38.7L300.3,225.7z"/>
			<path class="st4" d="M277.5,255.2c0,0,10.7,19.7,17.2,23.7c6.6,4,12.6,6.6,11.7,10.8s-14,8.6-27.5,0.9s-11.1-10.2-24.8-17.3
				c-13.7-7.1-13.4-10.2-11.9-14.5c1.5-4.3,8.7-12.1,11.3-9.7c1.4,1.4-1.7,7.3,2.8,10.3C259.6,261.6,267.6,266.2,277.5,255.2z"/>
			<circle class="st5" cx="277.5" cy="276.6" r="2"/>
			<circle class="st5" cx="266.6" cy="268.7" r="2"/>
			<polyline class="st3" points="259.4,117.5 300.3,134.4 280.6,170.3 212.6,158.9 			"/>
		</g>
		<path class="st0" d="M225.8,310.6c0,29-23.5,52.5-52.5,52.5"/>
		<path class="st6" d="M399.6,43.4c0,15-12.2,27.2-27.2,27.2c-1.5,0-3-0.1-4.4-0.4c-1-0.2-1.9-0.4-2.9-0.6c-0.3-0.1-0.5-0.2-0.8-0.2
			c-0.1,0-0.1,0-0.2-0.1c-0.1,0-0.2-0.1-0.2-0.1l0,0c-6.1-1-8.4,10.5-8.3,10.9l-1.8-11.8c-0.2-1.2-1.6-7.2-4.1-12
			c-2.7-5.3-7.2-8.9-8.5-9.9c-3.4-2.8-8.5-5.3-13-6.4c1.3,0.3,5.9,1,7.1,1c3.7,0,6.8-1.7,9.4-3.9c0.7-0.6,1.3-1.2,1.8-2.1
			c0.3-0.5,0.5-1.1,0.6-1.8c0.6-1.4,1.2-2.7,2-4c1.1-1.8,2.3-3.4,3.8-4.9c4.9-5.1,11.9-8.3,19.5-8.3
			C387.4,16.1,399.6,28.3,399.6,43.4z"/>
		<g>
			<path class="st7" d="M284.4,329c0,8.5-11.3,7.7-10.9-0.2c0-0.9,0.2-5.2,0.5-10.6c0-0.1,0-0.1,0-0.2c0-0.5,0.1-1,0.1-1.6
				c0.2-3.9,0.4-8.3,0.6-12.5c0-0.1,0-0.1,0-0.2c0.2-3.5,0.3-4.5,0.5-7.4c1.9-0.1,3.6-0.1,3.6-0.1s1,0,3.5,0.1
				c0.2,2.8,0.5,3.9,0.7,7.3c0,0.1,0,0.2,0,0.3c0.3,4.1,0.6,8.4,0.9,12.4c0,0.5,0.1,1,0.1,1.6c0,0.1,0,0.2,0,0.4
				C284.2,322.5,284.3,326.4,284.4,329z"/>
			<path class="st7" d="M290.1,291.9c0,2.4-2.7,4.4-5.2,4.4h-12.7c-1,0-2.1-0.3-2.9-0.9c-1.2-0.8-2.1-2.1-2.1-3.5
				c0-1.5,0.9-2.8,2.2-3.6c0.9-0.5,1.9-0.9,2.9-0.9H285C287.4,287.4,290.1,289.4,290.1,291.9z"/>
			<path class="st1" d="M267.5,368.2c0-2.4,2.7-4.4,5.2-4.4h12.7c1,0,2.1,0.3,2.9,0.9c1.2,0.8,2.1,2.1,2.1,3.5
				c0,1.5-0.9,2.8-2.2,3.6c-0.9,0.5-1.9,0.9-2.9,0.9h-12.7C270.2,372.6,267.5,370.6,267.5,368.2z"/>
			<g>
				<path class="st1" d="M255,342.2c-12.4,33.2-44.4,56.8-81.9,56.8c-48.2,0-87.4-39.1-87.4-87.4s39.1-87.4,87.4-87.4
					c20.5,0,39.4,7.1,54.3,18.9c-4.3,4.1-9.6,9.4-15.2,15c-10.9-8-24.4-12.7-39-12.7c-36.5,0-66.1,29.6-66.1,66.1
					s29.6,66.1,66.1,66.1c31.2,0,57.4-21.7,64.3-50.8c5.2,1.1,10.2,2.2,14.7,3.3C252.1,334.6,253.2,338.6,255,342.2z"/>
				<path class="st1" d="M260.5,310.9c-2.2,2.1-4,4.5-5.4,7.1c-4.6-0.7-10.1-1.4-16-2.3c0.1-1.4,0.1-2.7,0.1-4.1
					c0-18.6-7.6-35.3-20-47.3c6.2-6,11.7-11.4,15.2-14.7C250.4,265.2,260.3,286.9,260.5,310.9z"/>
			</g>
			<path class="st1" d="M516.2,311.6c0,48.2-39.1,87.4-87.4,87.4c-48.2,0-87.3-39.1-87.3-87.4c0-34.5,19.9-64.2,48.9-78.5
				c2.4,5.7,5.2,12.5,8.1,19.7c-21.3,11-35.8,33.2-35.8,58.8c0,36.5,29.6,66.1,66.1,66.1s66.1-29.6,66.1-66.1s-29.6-66.1-66.1-66.1
				c-6.6,0-13,1-19.1,2.8c-2.8-7.4-5.5-14.2-7.7-19.8c8.4-2.7,17.5-4.2,26.8-4.2C477.1,224.3,516.2,263.4,516.2,311.6z"/>
			<path class="st8" d="M398.3,219.1L398.3,219.1c-0.6-0.1-1.6-0.1-2.7,0.1c-0.1,0-0.3,0-0.4,0.1c-2.1,0.3-4.5,0.9-6.4,1.4
				c-0.1,0-0.3,0.1-0.4,0.1s-0.3,0.1-0.4,0.1c-0.3,0.1-0.5,0.2-0.8,0.3c-0.7,0.3-1.3,0.5-1.5,0.7l-0.1,0.1l0,0
				c-3.7-0.7-7.4,3.7-7.4,3.7l-77.9,88.7c-4.1-5.5-10.2-9.4-17.3-10.6c18.9-21.3,83.1-93.5,85.5-97.2c1.6-2.5-1.9-12.2-4.3-12.2
				c-9.4,0.1-110.3,8.2-113.1,8.2c-1.8,0-5.2,1.3-2,10c2.7,7.3,21.2,71,27,91.1c-3.4,0.3-6.5,1.3-9.4,2.8
				c-3-16.7-10.5-44.8-28.2-60.8c0,0-1.5,1.4-3.9,3.8c-3.5,3.4-9,8.7-15.2,14.7c-16.6,16.1-38.1,37-38.7,37.9c-1,1.5-1.3,5.6,3.1,6
				c2.7,0.2,32,4.3,55.4,7.7c5.9,0.8,11.4,1.6,16,2.3c-1.9,3.7-3,7.8-3,12.2l0,0c-4.5-1-9.5-2.1-14.7-3.3
				c-21.5-4.7-46.6-10-58.9-12.4c0.9-1.1,1.4-2.5,1.4-4.1c0-3.7-3-6.6-6.6-6.6c-1.2,0-2.3,0.3-3.3,0.9c0.1-4.3,1.3-5,1.8-5.7
				c4.1-4.5,23.6-24.3,40.3-40.8c5.7-5.6,11-10.9,15.2-15c4.5-4.4,7.8-7.5,9.1-8.6c5.6-4.6-6.3-25.1-6.9-35.6l14.6-2.5l0,0
				C281,192,369.5,185.7,375,185.3l0,0c0.2,0,0.3,0,0.3,0s0.3-0.1,0.7-0.2l0,0l10.3-2.1c1.9,2.6,4.7,11.5,7.1,19.8
				c-2.6,0.3-4.9,0.5-5.6,0.6c-2.2,0.1-2.6,7.4,0.1,7.7c1,0.1,4-0.1,7.7-0.7C396.7,214.3,397.7,217.6,398.3,219.1z"/>
			<circle class="st5" cx="173.3" cy="310.6" r="2.2"/>
			<path class="st8" d="M433.2,309.3c-1.2-3-13.4-35.1-23.4-61c-2.8-7.4-5.5-14.2-7.7-19.8c-1.5-3.8-2.8-7-3.8-9.4c0,0,0,0-0.1,0
				c-0.7-0.1-1.6,0-2.6,0.1c-0.1,0-0.3,0-0.4,0.1c-2,0.3-4.4,0.9-6.4,1.4c-0.1,0-0.3,0.1-0.4,0.1s-0.3,0.1-0.4,0.1
				c-0.3,0.1-0.5,0.2-0.8,0.3c-0.7,0.3-1.2,0.5-1.5,0.7l-0.1,0.1v0.1c1.3,2.8,2.9,6.6,4.8,11.1c2.4,5.7,5.2,12.5,8.1,19.7
				c10.6,25.9,23,57,25.5,61.1c0.7,1.8,6.2,2,8.5,0.8C434.4,314,433.9,311,433.2,309.3z"/>
			<path class="st8" d="M429.3,314.5c-1.3,0-2.4-1.1-2.4-2.4s1.1-2.4,2.4-2.4s2.4,1.1,2.4,2.4C431.7,313.5,430.6,314.5,429.3,314.5z
				"/>
			<path class="st8" d="M386.2,182.9L386.2,182.9L376,185l0,0l-0.9,0.2l0,0v-3.7l11.2,0.2c0,0,0,0,0,0.1L386.2,182.9z"/>
			<path class="st3" d="M415,204c-4.3,3.4-12.9,5.4-19.4,6.4c-3.7,0.6-6.7,0.8-7.7,0.7c-2.7-0.2-2.3-7.6-0.1-7.7
				c0.7,0,3-0.2,5.6-0.6c2.2-0.3,4.6-0.7,6.7-1.1c20.1-4.6,19-16.5,18.7-18.2c-0.2-1.7-4.1-6.1-5.3-7.4c-1-1.1-4.6-0.1-11.4-1.2
				c-0.7-0.1-1.3-0.2-1.8-0.3l0,0c-5.8-1.1-6.2-3.7-4.1-5.6c0.2-0.2,0.5-0.3,1-0.5l0,0c3.4-1.1,12.9-1,14.7-0.5
				c0.2,0,0.3,0.1,0.3,0.1c0.2,0.4,0.9,1.3,1.9,2.5c0.1,0.1,0.2,0.2,0.2,0.3c1.3,1.6,3.3,3.6,5.8,5.8c0.1,0.1,0.2,0.2,0.3,0.3
				c1.6,1.3,3.4,2.7,5.5,4C428.4,189.4,421.8,198.6,415,204z"/>
			<path class="st8" d="M373.3,172.5c1.6-1,24.1-4.3,24.6-4.5c-2.3,0.4-6,4.5,2.4,6.3c0,0-14.5,1-14.3,4.1c0.2,4.1,0.2,3.2,0.2,3.2
				l-11.2-0.2C375,179.3,371.2,173.8,373.3,172.5z"/>
			<path class="st3" d="M443.3,200.9c0,0,0.5-0.9,0.3-1.7s-1.9,0.7-1.6-5.8s3.9-17.8,0.6-22.5l-4,2.3c0.7,4.6,2.4,4.9-4.2,11.1
				C431.9,190.7,443.3,200.9,443.3,200.9z"/>
			<path class="st3" d="M446.3,161.6c0,0-3.8-1-4.5-0.2s-6.3,11.4-5.4,11.5c0.3,0,0.1-0.9,2.3,0.2c1.4-0.8,4-2.3,4-2.3
				S446.3,161.9,446.3,161.6z"/>
			<path class="st3" d="M442.7,170.9l3.6-9.3c0,0-3.8-1-4.5-0.2"/>
			<path class="st3" d="M446.3,161.6c0.5-1.7-0.8-2.9-3-3.7c-1.6-0.6-3.4-1-6.2-0.5c-1.6,0.3-4.8,9.3-9.2,9.8s-16.2,0.5-16.2,0.5
				s5.8,8,14,13c0,0,0.6-4,5-4.8c4-0.7,5.4,0,5.4-1.1c0-2.2,0-2.7,2.7-7.9c1-2,2.2-4.1,3-5.4C442.3,160.6,446.3,161.6,446.3,161.6z"
				/>
			<polygon class="st8" points="244.9,196.4 244.2,196.5 244.2,196.5 229.6,199 229.6,199 228.2,192.8 243.1,192.5 			"/>
			<polygon class="st8" points="230,150.3 243.1,192.5 228.2,192.8 216.2,150.7 218.4,149.7 			"/>
			<path class="st3" d="M193.4,144c7.4,0.4,13.2-0.2,17.9,5.4c4.5,5.3,12-4.7,18.3-6.2c9.2-2.1,24.3,0.4,25.8-0.6
				c1-0.7,3.7-3-10.6-3.2c-14.3-0.2-36.6-0.1-49.3-0.4C192.5,139,190.7,142.6,193.4,144z"/>
			<path class="st3" d="M247,142.6c0,0-10.9,7.1-11.8,7.4c-3.2,0.9-16.9-0.3-16.9-0.3l3.1-1.9c0,0,10.2,0.9,13.2,0.1
				c3-0.9,9-5.5,9-5.5L247,142.6z"/>
			<path class="st8" d="M180,310.6c0,1.5-0.5,3-1.4,4.1c-1.2,1.6-3.1,2.5-5.2,2.5c-3.7,0-6.6-3-6.6-6.6c0-2.5,1.3-4.6,3.3-5.8
				c1-0.6,2.1-0.9,3.3-0.9C177,303.9,180,306.9,180,310.6z"/>
			<path class="st1" d="M274.7,357h-0.1c-7.1-1.1-13.2-5-17.3-10.6c-2.4-3.3-4.1-7.2-4.8-11.4c-0.2-1.4-0.4-2.9-0.4-4.4
				c0-1.3,0.1-2.6,0.3-3.8c1.9-12.9,13-22.8,26.4-22.8c10.4,0,19.5,6,23.9,14.7c1.8,3.6,2.8,7.6,2.8,11.9l0,0c0,4.4-1.1,8.6-3,12.2
				c-1.4,2.7-3.2,5.1-5.4,7.1c-1.9,1.7-3.9,3.2-6.2,4.4c-2.5,1.3-5.1,2.1-8,2.6c0.2-4.2,0.4-8.6,0.6-12.5c0-0.5,0.1-1.1,0.1-1.6
				c0-0.1,0-0.1,0-0.2c4.8-1.9,8.2-6.6,8.2-12.2c0-7.2-5.9-13.1-13.1-13.1c-5.5,0-10.3,3.4-12.2,8.3c-0.6,1.5-0.9,3.1-0.9,4.8
				c0,1.8,0.4,3.5,1,5.1c1.3,3.1,3.8,5.6,7,7"/>
			<path class="st1" d="M273.3,331.1c0-8.5,11.3-7.7,10.9,0.2c0,0.9-0.2,5.2-0.5,10.6c0,0.1,0,0.1,0,0.2c0,0.5-0.1,1-0.1,1.6
				c-0.2,3.9-0.4,8.3-0.6,12.5c0,0.1,0,0.1,0,0.2c-0.2,3.5-0.3,4.5-0.5,7.4c-1.9,0.1-3.6,0.1-3.6,0.1s-1,0-3.5-0.1
				c-0.2-2.8-0.5-3.9-0.7-7.3c0-0.1,0-0.2,0-0.3c-0.3-4.1-0.6-8.4-0.9-12.4c0-0.5-0.1-1-0.1-1.6c0-0.1,0-0.2,0-0.4
				C273.5,337.5,273.3,333.7,273.3,331.1z"/>
		</g>
		<path class="st6" d="M352.9,64.2l11.3,69.4l60.7,29c4.4,2,6.3,7.1,4.3,11.4c-2,4.4-7.1,6.3-11.4,4.3L351.4,150l-0.6-0.2
			c-3-1.4-5-4-5.7-6.9l-23.9-70.8"/>
		<path class="st1" d="M214.3,77.9c-17.8,14.4-26.3,34-21.8,57c-0.1-1.1-0.1-1.1,0,0c1.1,11,8.8,20.8,20.1,23.9
			c14.7,4.1,29.9-4.5,34-19.2c1.2-4.3,6.8-3.9,9.8-6.8c4.4-4.2,3.4-3.6,9.3-6.6l12-3.9L214.3,77.9z"/>
		<path class="st1" d="M352.7,63.9c2.2,9.9,6.8,41.4,6.8,41.4l-24.8,7.1L319,71"/>
		<path class="st9" d="M395.5,54.3c0,0,1,7.6,0,11.5c-0.4,1.6-6.8-2.9-6.8-2.9"/>
		<path class="st1" d="M361.8,30.7l40.9,17.5l-6.7,8.7c0,0-4.5-4.9-10.9-13.8C382,38.6,361.8,30.7,361.8,30.7z"/>
		<path class="st1" d="M357.4,29.2l6.4,21.4l13.4-16.4l3,2.1c0,0-16.2,16.9-16.3,20.2c-0.1,3.3,0.3,14.9,0.3,14.9l-3.3,0.5
			c0,0,0.9-13.5,0.1-16.9c-0.8-3.5-7-25.4-7-25.4L357.4,29.2z"/>
		<g>
			<path class="st1" d="M403,43.8c4.3-1.9,3.8-25.4-11.1-33.6S360.6,1,360.6,1l1,4.1l-10.7,1.5l1,6.4l-5.6,3.2
				c0,0-2.1,12.5,2.5,13.4c4.5,1,16.9,0.5,21-1.6c0,0,3.4,7.1,8.8,8.5s4,0,7.3,1.1C389,38.7,399.3,45.4,403,43.8z"/>
			<path class="st6" d="M361.5,12.4c8.5,1.8,23.9,9.5,27.3,18.6L361.5,12.4z"/>
			<path class="st6" d="M389.4,18.8c3.2,1.4,9,8.8,9,12.2L389.4,18.8z"/>
		</g>
		<path class="st9" d="M369.9,38.2c-0.1-4-4.9-7.7-7.5-0.7c-2.7,7.4,0.1,11.6,3.6,9"/>
		<line class="st0" x1="383.4" y1="68" x2="380.1" y2="66"/>
		<path class="st9" d="M421.8,161.1c3.1,1.1,9.8,3.8,10.4,4.1l6.5,2.6c0,0,1.9,0.8,2.1,1l4.9,5.1c0.8,0.7,0.9,1.9,0.1,2.7
			c-0.7,0.8-1.9,0.9-2.7,0.1L440,173c0,0-3.4-2.3-5.6-3.3c-0.2-0.1,5.5,4.3,5.5,4.3l3.7,6c0.6,0.9,0.4,2.1-0.5,2.7s-2.1,0.4-2.7-0.5
			l-3.1-4.8c0,0-6.2-4.5-5.3-3.6c1.1,1,5.2,5.2,5.2,5.2c0.7,0.8,0.6,2-0.2,2.7s-2,0.6-2.7-0.2c0,0-2.1-2.4-3.7-4
			c-0.2-0.2,2.7,3.6,2.7,3.6c0.7,0.8,0.6,2-0.2,2.7s-2,0.6-2.7-0.2l-3.6-4c-0.9,0.3-1.8,0.4-2.7,0.4c-1.4,0-8.4-2.2-8.6-4.6"/>
		<path class="st0" d="M429.3,364.6c-29,0-52.5-23.5-52.5-52.5"/>
		<path class="st0" d="M429.3,259.7c29,0,52.5,23.5,52.5,52.5"/>
		<g>
			<g>
				<path class="st6" d="M203.1,154l65.5,74L239,331.9l0,0v0.1c0,0,0,0.1-0.1,0.1c-1.9,6,1.5,12.3,7.4,14.2s12.2-1.4,14.1-7.3l0,0
					l40.1-108.8c0-0.1,0.1-0.1,0.1-0.2l0.4-1c1.6-4.9,0.6-10.1-2.2-14l0,0l-52.6-92.5"/>
				<path class="st1" d="M277.5,293.2L260.4,339v0.1c-1.7,5.2-7,8.5-12.6,7.6c-6.2-1-10.3-6.8-9.3-13c0.1-0.6,0.2-1.2,0.4-1.7
					l13-44.6L277.5,293.2z"/>
			</g>
			<g>
				<polyline class="st1" points="202.6,153.7 239.3,194.9 275.8,174.5 245.9,121.9 				"/>
				<path class="st10" d="M264.4,329c0,0,14.7,19,21.9,21.9c7.1,2.9,13.5,4.5,13.2,8.8s-12.5,10.7-27,5.3s-12.6-8.3-27.2-13.1
					c-14.6-4.9-14.9-8-14-12.4c0.9-4.5,6.7-13.3,9.6-11.3c1.6,1.1-0.5,7.5,4.4,9.7C248.8,339.4,258.5,343.8,264.4,329z"/>
				<circle class="st11" cx="270.1" cy="351.9" r="2"/>
				<circle class="st11" cx="259" cy="344.2" r="2"/>
			</g>
		</g>
		<g>
			<g>
				<path class="st12" d="M278.8,376.6c-24.8,0-45-19.3-46.5-43.7"/>
				<g>
					<polygon class="st13" points="234.4,333.4 232.2,330 230.4,333.6 					"/>
				</g>
			</g>
		</g>
		<line class="st14" x1="331.7" y1="104.5" x2="318.8" y2="70.6"/>
		<line class="st14" x1="213.8" y1="77.5" x2="277.4" y2="122.1"/>
	</g>
	<g id="musculo3">
		<g>
			<text transform="matrix(1 0 0 1 79.0047 202.9002)" class="st15 st16 st17">Isquiotibiales</text>
		</g>
		<text transform="matrix(1 0 0 1 403.0959 118.8614)" class="st15 st16 st17">Tibial anterior</text>
		<g>
			<g>
				<line class="st18" x1="193.7" y1="198.7" x2="234.3" y2="198.7"/>
				<g>
					<circle class="st5" cx="234.3" cy="198.7" r="0.4"/>
				</g>
			</g>
		</g>
		<g>
			<g>
				<line class="st18" x1="426.5" y1="128.2" x2="296.1" y2="242.7"/>
				<g>
					<path class="st5" d="M295.9,242.4c-0.2,0.1-0.2,0.4,0,0.5c0.1,0.2,0.4,0.2,0.5,0c0.2-0.1,0.2-0.4,0-0.5
						C296.3,242.3,296,242.3,295.9,242.4z"/>
				</g>
			</g>
		</g>
		<path class="st13" d="M302,221.2c0.9,1.2,1.9,2.7,0.9,7.1c-2.6,12.5-11.4,35-15.7,49.3c-1.1,3.8-8.4,11.1-11.5,22.5
			c-3.1,11.3-11.5,19.4-7.6,25.8s3.9,10.5,11.1,19.2c1.1,1.3-0.5,3.9-7.7-4.6c-4.2-5-9.9-11.6-9.2-20.8
			c2.4-29.7,14.7-48.4,20.8-56.1c6-7.6,3.6-17.3,7.9-25.7C295.3,229.6,302,221.2,302,221.2z"/>
		<path class="st13" d="M205.6,158.2c-1.3-3,12.7,0.3,12.7,0.3s34.4,55.4,52.8,63.9c0,0-1.1,6.2-2,6.2c-2.3,0-15.8-14.1-29.1-24.1
			C226.6,194.4,215.3,179.8,205.6,158.2z"/>
	</g>
</g>
<g id="Capa_4">
</g>
</svg>
