<?xml version="1.0" encoding="utf-8"?>
<!-- Generator: Adobe Illustrator 22.0.1, SVG Export Plug-In . SVG Version: 6.00 Build 0)  -->
<svg version="1.1" id="Capa_1" xmlns="http://www.w3.org/2000/svg" xmlns:xlink="http://www.w3.org/1999/xlink" x="0px" y="0px"
	 viewBox="0 0 600 500" style="enable-background:new 0 0 600 500;" xml:space="preserve">
<style type="text/css">
	.st0{fill:none;stroke:#6F6B6A;stroke-width:1.000000e-02;stroke-miterlimit:10;}
	.st1{fill:#BEBBBC;}
	.st2{fill:#DDDBDC;stroke:#6F6B6A;stroke-width:1.000000e-02;stroke-miterlimit:10;}
	.st3{fill:#C6C6C5;}
	.st4{fill:#A19D9D;}
	.st5{fill:#6F6B6A;}
	.st6{fill:#ECECEC;}
	.st7{fill:#DDDBDC;}
	.st8{fill:#868282;}
	.st9{fill:#1D1D1B;}
	.st10{fill:#ECECEC;stroke:#6F6B6A;stroke-width:1.000000e-04;stroke-miterlimit:10;}
	.st11{fill:#43413F;}
	.st12{fill:#585554;}
	.st13{fill:none;stroke:#CC1719;stroke-linecap:round;stroke-miterlimit:10;}
	.st14{fill:#CC1719;}
	.st15{fill:none;stroke:#6F6B6A;stroke-width:1.000000e-04;stroke-miterlimit:10;}
	.st16{fill:#1E1E1C;}
	.st17{font-family:'ArialMT';}
	.st18{font-size:18px;}
	.st19{fill:none;stroke:#1D1D1B;stroke-width:0.25;stroke-linecap:round;stroke-miterlimit:10;}
	.st20{fill:none;}
</style>
<g id="Capa_1_1_">
</g>
<g id="Capa_2_1_">
	<g id="grafica2">
		<g>
			<path class="st0" d="M120.2,309.8c0-29,23.5-52.5,52.5-52.5"/>
			<path class="st1" d="M277.1,122.2l47.4-15.3c0,0,3.5-1.1,5.3-1.7c17.9-5.8,27.7-24.9,21.9-42.8s-24.9-27.7-42.8-21.9
				c-1.8,0.6-72.7,23.8-75.6,25.2c-7.4,3.5-14,7.6-19.7,12.1L277.1,122.2z"/>
			<g>
				<g>
					<path class="st2" d="M200.5,152.3l4.5,3.5C203.5,154.8,202,153.6,200.5,152.3z"/>
					<path class="st2" d="M242.1,116.5l-3.8-4.4C239.8,113.5,241,114.9,242.1,116.5z"/>
					<g>
						<path class="st3" d="M313.8,220.7l-0.8,0.8l-81.8,82.6c-3.7,4-9.8,4.9-14.5,1.8c-5.2-3.4-6.7-10.4-3.3-15.7
							c0.3-0.5,0.7-1,1.1-1.5l0,0l65-76.2l-74.4-56.7l-4.5-3.5c-11.1-10.4-11.6-27.9-1.2-39s27.9-11.6,39-1.2l3.8,4.4l0,0l70.8,82.1
							C319.2,204.5,319.6,214.4,313.8,220.7z"/>
					</g>
					<g>
						<path class="st4" d="M256.4,194.9l-51.3-39.1l-4.5-3.5c-11.1-10.4-11.6-27.9-1.2-39s27.9-11.6,39-1.2l3.8,4.4l0,0l40.9,47.4
							L256.4,194.9z"/>
					</g>
					<g>
						<path class="st4" d="M265.8,269.3l-34.5,34.6l-0.1,0.1c-3.7,4-9.9,4.9-14.6,1.7c-5.2-3.5-6.6-10.5-3.1-15.7
							c0.3-0.5,0.7-1,1.1-1.4l30.3-35.3L265.8,269.3z"/>
					</g>
					<g>
						<path class="st5" d="M240.1,294.7c0,0,7.7,21.6,13.7,26.4c6,4.8,11.7,8,10.3,12.1s-14.9,6.9-27.4-2.3s-9.9-11.4-22.6-20.1
							S202,299.1,204,295c2.1-4.1,9.4-11.3,12.4-8.7c1.5,1.3-3.7,7.7,3.5,12.1C227.4,303.7,236.1,299.7,240.1,294.7z"/>
					</g>
				</g>
			</g>
			<path class="st0" d="M225.2,310.4c0,29-23.5,52.5-52.5,52.5"/>
			<path class="st6" d="M399,43.2c0,15-12.2,27.2-27.2,27.2c-1.5,0-3-0.1-4.4-0.4c-1-0.2-1.9-0.4-2.9-0.6c-0.3-0.1-0.5-0.2-0.8-0.2
				c-0.1,0-0.1,0-0.2-0.1c-0.1,0-0.2-0.1-0.2-0.1l0,0c-6.1-1-8.4,10.5-8.3,10.9l-1.8-11.8c-0.2-1.2-1.6-7.2-4.1-12
				c-2.7-5.3-7.2-8.9-8.5-9.9c-3.4-2.8-8.5-5.3-13-6.4c1.3,0.3,5.9,1,7.1,1c3.7,0,6.8-1.7,9.4-3.9c0.7-0.6,1.3-1.2,1.8-2.1
				c0.3-0.5,0.5-1.1,0.6-1.8c0.6-1.4,1.2-2.7,2-4c1.1-1.8,2.3-3.4,3.8-4.9c4.9-5.1,11.9-8.3,19.5-8.3C386.8,15.9,399,28.1,399,43.2z
				"/>
			<g>
				<path class="st7" d="M432.3,309.1c-1.2-3-13.4-35.1-23.4-61c-2.8-7.4-5.5-14.2-7.7-19.8c-1.5-3.8-2.8-7-3.8-9.4c0,0,0,0-0.1,0
					c-0.7-0.1-1.6,0-2.6,0.1c-0.1,0-0.3,0-0.4,0.1c-2,0.3-4.4,0.9-6.4,1.4c-0.1,0-0.3,0.1-0.4,0.1s-0.3,0.1-0.4,0.1
					c-0.3,0.1-0.5,0.2-0.8,0.3c-0.7,0.3-1.2,0.5-1.5,0.7l-0.1,0.1v0.1c1.3,2.8,2.9,6.6,4.8,11.1c2.4,5.7,5.2,12.5,8.1,19.7
					c10.6,25.9,23,57,25.5,61.1c0.7,1.8,6.2,2,8.5,0.8C433.5,313.8,433,310.8,432.3,309.1z"/>
				<path class="st8" d="M242.4,326.6c2.8-0.2,6.1-0.5,9.5-0.7c4.2-0.3,8.6-0.6,12.7-0.9c0.5,0,1-0.1,1.6-0.1
					c4.5-0.3,8.4-0.5,11.1-0.5c8.5,0,7.7,11.3-0.2,10.9c-0.9,0-5.2-0.3-10.8-0.5c-0.5,0-1-0.1-1.6-0.1c-4-0.2-8.4-0.4-12.7-0.6
					c-3.5-0.2-6.8-0.3-9.7-0.5c1.3-0.8,2.2-2.1,2.2-3.6C244.6,328.6,243.7,327.4,242.4,326.6z"/>
				<path class="st8" d="M221.7,330.1c0-2.4,2.7-4.4,5.2-4.4h12.7c1,0,2.1,0.3,2.9,0.9c1.2,0.8,2.1,2.1,2.1,3.5
					c0,1.5-0.9,2.8-2.2,3.6c-0.9,0.5-1.9,0.9-2.9,0.9h-12.7C224.4,334.5,221.7,332.5,221.7,330.1z"/>
				<path class="st1" d="M304.6,330.2c0,1.3-0.1,2.6-0.3,3.8c-1.9,12.9-13,22.8-26.4,22.8c-10.4,0-19.5-6-23.9-14.7
					c-1.8-3.6-2.8-7.6-2.8-11.9l0,0c0-4.4,1.1-8.6,3-12.2c1.4-2.7,3.2-5.1,5.4-7.1c1.8-1.8,3.9-3.2,6.2-4.4c2.9-1.5,6-2.4,9.4-2.8
					c0.9-0.1,1.8-0.1,2.8-0.1c1.4,0,2.8,0.1,4.2,0.3c7.1,1.1,13.2,5,17.3,10.6c2.4,3.3,4.1,7.2,4.8,11.4
					C304.5,327.2,304.6,328.6,304.6,330.2z M290,325.1c-2-4.7-6.6-8-12.1-8c-7.2,0-13.1,5.9-13.1,13.1s5.9,13.1,13.1,13.1
					c5.5,0,10.3-3.4,12.2-8.3c0.6-1.5,0.9-3.1,0.9-4.8C291,328.4,290.6,326.6,290,325.1z"/>
				<g>
					<g>
						<path class="st1" d="M254.1,342c-12.4,33.2-44.4,56.8-81.9,56.8c-48.2,0-87.4-39.1-87.4-87.4s39.1-87.4,87.4-87.4
							c20.5,0,39.4,7.1,54.3,18.9c-4.3,4.1-9.6,9.4-15.2,15c-10.9-8-24.4-12.7-39-12.7c-36.5,0-66.1,29.6-66.1,66.1
							s29.6,66.1,66.1,66.1c31.2,0,57.4-21.7,64.3-50.8c5.2,1.1,10.2,2.2,14.7,3.3C251.2,334.4,252.3,338.4,254.1,342z"/>
						<path class="st1" d="M259.6,310.7c-2.2,2.1-4,4.5-5.4,7.1c-4.6-0.7-10.1-1.4-16-2.3c0.1-1.4,0.1-2.7,0.1-4.1
							c0-18.6-7.6-35.3-20-47.3c6.2-6,11.7-11.4,15.2-14.7C249.5,265,259.4,286.7,259.6,310.7z"/>
					</g>
				</g>
				<path class="st1" d="M515.3,311.4c0,48.2-39.1,87.4-87.4,87.4c-48.2,0-87.3-39.1-87.3-87.4c0-34.5,19.9-64.2,48.9-78.5
					c2.4,5.7,5.2,12.5,8.1,19.7c-21.3,11-35.8,33.2-35.8,58.8c0,36.5,29.6,66.1,66.1,66.1s66.1-29.6,66.1-66.1s-29.6-66.1-66.1-66.1
					c-6.6,0-13,1-19.1,2.8c-2.8-7.4-5.5-14.2-7.7-19.8c8.4-2.7,17.5-4.2,26.8-4.2C476.2,224.1,515.3,263.2,515.3,311.4z"/>
				<path class="st7" d="M397.4,218.9L397.4,218.9c-0.6-0.1-1.6-0.1-2.7,0.1c-0.1,0-0.3,0-0.4,0.1c-2.1,0.3-4.5,0.9-6.4,1.4
					c-0.1,0-0.3,0.1-0.4,0.1s-0.3,0.1-0.4,0.1c-0.3,0.1-0.5,0.2-0.8,0.3c-0.7,0.3-1.3,0.5-1.5,0.7l-0.1,0.1l0,0
					c-3.7-0.7-7.4,3.7-7.4,3.7l-77.9,88.7c-4.1-5.5-10.2-9.4-17.3-10.6c18.9-21.3,83.1-93.5,85.5-97.2c1.6-2.5-1.9-12.2-4.3-12.2
					c-9.4,0.1-110.3,8.2-113.1,8.2c-1.8,0-5.2,1.3-2,10c2.7,7.3,21.2,71,27,91.1c-3.4,0.3-6.5,1.3-9.4,2.8
					c-3-16.7-10.5-44.8-28.2-60.8c0,0-1.5,1.4-3.9,3.8c-3.5,3.4-9,8.7-15.2,14.7c-16.6,16.1-38.1,37-38.7,37.9c-1,1.5-1.3,5.6,3.1,6
					c2.7,0.2,32,4.3,55.4,7.7c5.9,0.8,11.4,1.6,16,2.3c-1.9,3.7-3,7.8-3,12.2l0,0c-4.5-1-9.5-2.1-14.7-3.3
					c-21.5-4.7-46.6-10-58.9-12.4c0.9-1.1,1.4-2.5,1.4-4.1c0-3.7-3-6.6-6.6-6.6c-1.2,0-2.3,0.3-3.3,0.9c0.1-4.3,1.3-5,1.8-5.7
					c4.1-4.5,23.6-24.3,40.3-40.8c5.7-5.6,11-10.9,15.2-15c4.5-4.4,7.8-7.5,9.1-8.6c5.6-4.6-6.3-25.1-6.9-35.6l14.6-2.5l0,0
					c36.8-4.6,125.3-10.9,130.8-11.3l0,0c0.2,0,0.3,0,0.3,0s0.3-0.1,0.7-0.2l0,0l10.3-2.1c1.9,2.6,4.7,11.5,7.1,19.8
					c-2.6,0.3-4.9,0.5-5.6,0.6c-2.2,0.1-2.6,7.4,0.1,7.7c1,0.1,4-0.1,7.7-0.7C395.8,214.1,396.8,217.4,397.4,218.9z"/>
				<circle class="st9" cx="172.4" cy="310.4" r="2.2"/>
				<path class="st7" d="M385.3,182.7L385.3,182.7l-10.2,2.1l0,0l-0.9,0.2l0,0v-3.7l11.2,0.2c0,0,0,0,0,0.1L385.3,182.7z"/>
				<path class="st4" d="M414.1,203.8c-4.3,3.4-12.9,5.4-19.4,6.4c-3.7,0.6-6.7,0.8-7.7,0.7c-2.7-0.2-2.3-7.6-0.1-7.7
					c0.7,0,3-0.2,5.6-0.6c2.2-0.3,4.6-0.7,6.7-1.1c20.1-4.6,19-16.5,18.7-18.2c-0.2-1.7-4.1-6.1-5.3-7.4c-1-1.1-4.6-0.1-11.4-1.2
					c-0.7-0.1-1.3-0.2-1.8-0.3l0,0c-5.8-1.1-6.2-3.7-4.1-5.6c0.2-0.2,0.5-0.3,1-0.5l0,0c3.4-1.1,12.9-1,14.7-0.5
					c0.2,0,0.3,0.1,0.3,0.1c0.2,0.4,0.9,1.3,1.9,2.5c0.1,0.1,0.2,0.2,0.2,0.3c1.3,1.6,3.3,3.6,5.8,5.8c0.1,0.1,0.2,0.2,0.3,0.3
					c1.6,1.3,3.4,2.7,5.5,4C427.5,189.2,420.9,198.4,414.1,203.8z"/>
				<path class="st7" d="M372.4,172.3c1.6-1,24.1-4.3,24.6-4.5c-2.3,0.4-6,4.5,2.4,6.3c0,0-14.5,1-14.3,4.1c0.2,4.1,0.2,3.2,0.2,3.2
					l-11.2-0.2C374.1,179.1,370.3,173.6,372.4,172.3z"/>
				<path class="st4" d="M442.4,200.7c0,0,0.5-0.9,0.3-1.7s-1.9,0.7-1.6-5.8s3.9-17.8,0.6-22.5l-4,2.3c0.7,4.6,2.4,4.9-4.2,11.1
					C431,190.5,442.4,200.7,442.4,200.7z"/>
				<path class="st4" d="M445.4,161.4c0,0-3.8-1-4.5-0.2s-6.3,11.4-5.4,11.5c0.3,0,0.1-0.9,2.3,0.2c1.4-0.8,4-2.3,4-2.3
					S445.4,161.7,445.4,161.4z"/>
				<path class="st4" d="M445.4,161.4c0.5-1.7-0.8-2.9-3-3.7c-1.6-0.6-3.4-1-6.2-0.5c-1.6,0.3-4.8,9.3-9.2,9.8s-16.2,0.5-16.2,0.5
					s5.8,8,14,13c0,0,0.6-4,5-4.8c4-0.7,5.4,0,5.4-1.1c0-2.2,0-2.7,2.7-7.9c1-2,2.2-4.1,3-5.4C441.4,160.4,445.4,161.4,445.4,161.4z
					"/>
				<polygon class="st7" points="244,196.2 243.3,196.3 243.3,196.3 228.7,198.8 228.7,198.8 227.3,192.6 242.2,192.3 				"/>
				<polygon class="st7" points="229.1,150.1 242.2,192.3 227.3,192.6 215.3,150.5 217.5,149.5 				"/>
				<path class="st4" d="M192.5,143.8c7.4,0.4,13.2-0.2,17.9,5.4c4.5,5.3,12-4.7,18.3-6.2c9.2-2.1,24.3,0.4,25.8-0.6
					c1-0.7,3.7-3-10.6-3.2c-14.3-0.2-36.6-0.1-49.3-0.4C191.6,138.8,189.8,142.4,192.5,143.8z"/>
				<path class="st4" d="M246.1,142.4c0,0-10.9,7.1-11.8,7.4c-3.2,0.9-16.9-0.3-16.9-0.3l3.1-1.9c0,0,10.2,0.9,13.2,0.1
					c3-0.9,9-5.5,9-5.5L246.1,142.4z"/>
				<path class="st7" d="M179.1,310.4c0,1.5-0.5,3-1.4,4.1c-1.2,1.6-3.1,2.5-5.2,2.5c-3.7,0-6.6-3-6.6-6.6c0-2.5,1.3-4.6,3.3-5.8
					c1-0.6,2.1-0.9,3.3-0.9C176.1,303.7,179.1,306.7,179.1,310.4z"/>
				<path class="st1" d="M334.6,329.8c0,2.4-2.7,4.4-5.2,4.4h-12.7c-1,0-2.1-0.3-2.9-0.9c-1.2-0.8-2.1-2.1-2.1-3.5
					c0-1.5,0.9-2.8,2.2-3.6c0.9-0.5,1.9-0.9,2.9-0.9h12.7C331.8,325.3,334.6,327.3,334.6,329.8z"/>
				<path class="st1" d="M314.2,333.3c-2.8,0.2-6.1,0.5-9.5,0.7c-4.2,0.3-8.6,0.6-12.7,0.9c-0.5,0-1,0.1-1.6,0.1
					c-4.5,0.3-8.4,0.5-11.1,0.5c-8.5,0-7.7-11.3,0.2-10.9c0.9,0,5.2,0.3,10.8,0.5c0.5,0,1,0.1,1.6,0.1c4,0.2,8.4,0.4,12.7,0.6
					c3.5,0.2,6.8,0.3,9.7,0.5c-1.3,0.8-2.2,2.1-2.2,3.6C312.1,331.2,313,332.5,314.2,333.3z"/>
			</g>
			<path class="st6" d="M352.2,64l11.3,69.4l60.7,29c4.4,2,6.3,7.1,4.3,11.4c-2,4.4-7.1,6.3-11.4,4.3l-66.4-28.3l-0.6-0.2
				c-3-1.4-5-4-5.7-6.9l-23.9-70.8"/>
			<path class="st1" d="M352.1,63.7c2.2,9.9,6.8,41.4,6.8,41.4l-24.8,7.1l-15.7-41.4"/>
			<path class="st10" d="M394.9,54.1c0,0,1,7.6,0,11.5c-0.4,1.6-6.8-1.9-6.8-1.9"/>
			<path class="st1" d="M361.2,30.5L402.1,48l-6.7,8.7c0,0-4.5-4.9-10.9-13.8C381.3,38.4,361.2,30.5,361.2,30.5z"/>
			<path class="st1" d="M356.7,29l6.4,21.4L376.5,34l3,2.1c0,0-16.2,16.9-16.3,20.2c-0.1,3.3,0.3,14.9,0.3,14.9l-3.3,0.5
				c0,0,0.9-13.5,0.1-16.9c-0.8-3.5-7-25.4-7-25.4L356.7,29z"/>
			<g>
				<g>
					<g>
						<path class="st1" d="M402.3,43.6c4.3-1.9,3.8-25.4-11.1-33.6s-31.3-9.2-31.3-9.2l1,4.1l-10.7,1.5l1,6.4l-5.6,3.2
							c0,0-2.1,12.5,2.5,13.4c4.5,1,16.9,0.5,21-1.6c0,0,3.4,7.1,8.8,8.5c5.3,1.4,4,0,7.3,1.1C388.4,38.5,398.6,45.2,402.3,43.6z"/>
					</g>
					<g>
						<path class="st6" d="M360.9,12.2c8.5,1.8,23.9,9.5,27.3,18.6L360.9,12.2z"/>
					</g>
					<g>
						<path class="st6" d="M388.8,18.6c3.2,1.4,9,8.8,9,12.2L388.8,18.6z"/>
					</g>
				</g>
			</g>
			<path class="st10" d="M369.3,38c-0.1-4-4.9-7.7-7.5-0.7c-2.7,7.4,0.1,11.6,3.6,9"/>
			<line class="st0" x1="382.8" y1="67.8" x2="379.5" y2="65.8"/>
			<path class="st10" d="M421.1,160.9c3.1,1.1,9.8,3.8,10.4,4.1l6.5,2.6c0,0,1.9,0.8,2.1,1l4.9,5.1c0.8,0.7,0.9,1.9,0.1,2.7
				c-0.7,0.8-1.9,0.9-2.7,0.1l-3.1-3.7c0,0-3.4-2.3-5.6-3.3c-0.2-0.1,5.5,4.3,5.5,4.3l3.7,6c0.6,0.9,0.4,2.1-0.5,2.7
				s-2.1,0.4-2.7-0.5l-3.1-4.8c0,0-6.2-4.5-5.3-3.6c1.1,1,5.2,5.2,5.2,5.2c0.7,0.8,0.6,2-0.2,2.7s-2,0.6-2.7-0.2c0,0-2.1-2.4-3.7-4
				c-0.2-0.2,2.7,3.6,2.7,3.6c0.7,0.8,0.6,2-0.2,2.7s-2,0.6-2.7-0.2l-3.6-4c-0.9,0.3-1.8,0.4-2.7,0.4c-1.4,0-8.4-2.2-8.6-4.6"/>
			<path class="st0" d="M428.7,364.4c-29,0-52.5-23.5-52.5-52.5"/>
			<path class="st0" d="M428.7,259.5c29,0,52.5,23.5,52.5,52.5"/>
			<path class="st6" d="M329.8,196l-0.3,1l-25.8,100.4l-3.1,12.2c-1.1,5.1-5.6,8.9-10.9,8.9c-6.2,0.1-11.4-5-11.4-11.2
				c0-0.9,0.1-1.7,0.3-2.5c0.1-0.6,0.3-1.2,0.5-1.8c-0.1-0.1-0.1-0.1-0.2-0.1L297,201.3l-87.9-44.7L204,154
				c-12.8-8.3-16.5-25.4-8.2-38.1c8.3-12.8,25.4-16.5,38.1-8.2l4.5,3.6l84.5,68.1C328.3,182.9,331.3,189.4,329.8,196z"/>
			<path class="st1" d="M213.7,77.7c-17.8,14.4-26.3,34-21.8,57c-0.1-1.1-0.1-1.1,0,0c1.1,11,8.8,20.8,20.1,23.9
				c14.7,4.1,29.9-4.5,34-19.2c1.2-4.3,8.4-2.3,11.4-5.2c4.4-4.2,1.4-6.2,7.7-8.2l12-3.9L213.7,77.7z"/>
			<polyline class="st1" points="213.3,158.8 269.4,187.3 289.6,152.5 253,123 			"/>
			<path class="st1" d="M312.8,262l-12.1,47.4v0.1c-1.1,5.4-6,9.2-11.7,8.9c-6.2-0.3-11-5.7-10.7-11.9c0-0.6,0.1-1.2,0.2-1.8
				l8.1-45.7L312.8,262z"/>
			<path class="st11" d="M320.3,328.2c-15.5-0.7-14.5-4-29.9-4.1s-16.6-3-17.2-7.5c-0.5-4.5,2.6-13.8,5.3-13.8c0.1,0,0.2,0,0.3,0.1
				c0.1,0,0.1,0.1,0.2,0.1c0.5,0.4,0.8,1.2,1.3,2.2c1.1,2.3,2.6,5.5,6.4,5.6c2.9,0.1,6.5,0,9.8-2.1c1.4-0.9,2.8-2.3,4.1-4.1
				c1.2-1.8,2.3-4.2,3.2-7.2c0-0.1,0-0.1,0.1-0.2c0,0,17.6,12.7,25.3,13.3s14.2,0.1,15.3,4.3C345.5,319,335.8,328.8,320.3,328.2z"/>
			<circle class="st12" cx="314" cy="318.7" r="2"/>
			<circle class="st12" cx="301.7" cy="313.1" r="2"/>
			<g>
				<g>
					<path class="st13" d="M324.9,329.8c0,24.8-19.3,45-43.7,46.5"/>
					<g>
						<polygon class="st14" points="281.7,374.3 278.4,376.4 281.9,378.2 						"/>
					</g>
				</g>
			</g>
			<line class="st15" x1="331.5" y1="104.6" x2="318.6" y2="70.7"/>
			<line class="st15" x1="213.6" y1="77.6" x2="277.2" y2="122.2"/>
		</g>
	</g>
	<g id="musculo2">
		<g>
			<text transform="matrix(1 0 0 1 402.4999 116.5001)" class="st16 st17 st18">Cuádriceps</text>
		</g>
		<g>
			<text transform="matrix(1 0 0 1 117.56 174.6419)" class="st16 st17 st18">Gemelos</text>
		</g>
		<g>
			<g>
				<line class="st19" x1="199.9" y1="171.8" x2="287.8" y2="213.8"/>
				<g>
					<path class="st9" d="M287.6,214.1c0.2,0.1,0.4,0,0.5-0.2s0-0.4-0.2-0.5s-0.4,0-0.5,0.2S287.4,214,287.6,214.1z"/>
				</g>
			</g>
		</g>
		<g>
			<g>
				<line class="st19" x1="392.6" y1="112.7" x2="307.8" y2="164"/>
				<g>
					<path class="st9" d="M307.6,163.7c-0.2,0.1-0.2,0.3-0.1,0.5s0.3,0.2,0.5,0.1s0.2-0.3,0.1-0.5
						C308,163.7,307.8,163.6,307.6,163.7z"/>
				</g>
			</g>
		</g>
		<path class="st20" d="M428,224.1c-9.4,0-18.4,1.5-26.8,4.2c-1.5-3.8-2.8-7-3.8-9.4l0,0c-0.6-1.5-1.6-4.8-2.7-8.7
			c6.4-1,15-3,19.4-6.4c6.8-5.3,13.5-14.5,10.8-23.2c0,0-0.1,0-0.1-0.1c0,0,0.1,0,0.1,0.1c0,0,0.1-0.4,0.3-1
			c0.2-0.1,0.5-0.1,0.7-0.2l3.6,4c0.7,0.8,1.9,0.9,2.7,0.2c0.8-0.7,0.9-1.9,0.2-2.7c0,0-2.8-3.8-2.7-3.6c1.5,1.6,3.7,4,3.7,4
			c0.7,0.8,1.8,0.9,2.6,0.3c-0.7,0.7-1.5,1.5-2.5,2.5c-2.6,6.5,8.9,16.6,8.9,16.6s0.5-0.9,0.3-1.7s-1.9,0.7-1.6-5.8
			c0.2-3,1-7.1,1.5-11c0.5-0.6,0.6-1.4,0.2-2.1c0.1-1.1,0.2-2.1,0.2-3.1c0.7,0.2,1.5,0,2-0.5c0.7-0.8,0.7-2-0.1-2.7l-3.1-3.3
			c0.6-1.5,3.5-8.7,3.5-9c0,0-0.5-0.1-1.1-0.3c0.6,0.1,1.1,0.3,1.1,0.3c0.5-1.7-0.8-2.9-3-3.7c-1.6-0.6-3.4-1-6.2-0.5
			c-1.1,0.2-3,4.6-5.5,7.5c-2-0.8-7-2.8-9.6-3.8l-57.6-27.5l-4.6-28.3c0,0-2-13.6-4-25.8c0.4-1.9,2-8,5.4-9.8
			c-0.1,1.3,3.1,0.8,3.1-0.4l0,0c0.1,0,0.1,0,0.2,0.1c0.3,0.1,0.5,0.2,0.8,0.2c0.9,0.3,1.9,0.5,2.9,0.6c1.4,0.2,2.9,0.4,4.4,0.4
			c6.6,0,12.6-2.3,17.3-6.2c1.8,0.9,5.5,2.6,5.9,1.4c0.6-2.4,0.5-6.1,0.3-8.6c0.1-0.1,0.1-0.2,0.2-0.3l0.1,0.1l6.7-8.7
			c0,0-0.6-4.1,0.2-4.4c4.3-1.9,3.8-25.4-11.1-33.6C376.4,2,360,1,360,1l1,4.1l-10.7,1.5l1,6.4l-5.6,3.2c0,0-2.1,12.5,2.5,13.4h0.1
			c-0.6,1.1-1.2,2.3-1.7,3.5c-0.2,0.7-0.4,1.3-0.6,1.8c-0.5,0.9-1.1,1.5-1.8,2.1c-2.6,2.2-5.7,3.9-9.4,3.9c-1.2,0-5.7-0.8-7.1-1
			c0.2,0.1,0.4,0.1,0.6,0.2c-6.1-1.7-12.8-1.6-19.4,0.5c-1.8,0.6-72.7,23.8-75.6,25.2c-7.4,3.5-14,7.6-19.7,12.1l0,0
			c-17.3,14.1-25.8,33-22.1,55.3c0.1,1.6,0.4,3.2,0.8,4.8c0.1,0.5,0.2,1,0.4,1.5c-1.7,1.1-2.3,3.4-0.2,4.5c0.6,0,1.2,0.1,1.9,0.1
			c0.8,1.7,1.8,3.3,2.9,4.8c0.2,0.2,0.4,0.5,0.5,0.7s0.3,0.3,0.4,0.5c0.7,0.8,1.5,1.6,2.3,2.4c1.4,1.3,2.9,2.5,4.5,3.5l14.9,11.4
			l8.7,31.7l0,0c0.6,10.6,12.5,31.1,6.9,35.6c-1.3,1-4.6,4.2-9.1,8.6c-14.9-11.8-33.8-18.9-54.3-18.9c-48.2,0-87.4,39.1-87.4,87.4
			c0,48.2,39.1,87.4,87.4,87.4c37.5,0,69.4-23.6,81.8-56.7l0,0c4.4,8.7,13.4,14.7,23.9,14.7c13.4,0,24.5-9.9,26.4-22.8
			c0.1,0,0.3,0,0.4,0c3.3-0.2,6.4-0.5,9.1-0.7c0.9,0.6,1.9,0.9,2.9,0.9h12.7c2.4,0,5.2-2,5.2-4.4c0-1.4-0.9-2.6-2-3.4
			c3.7-1.3,6.6-3.2,8.6-5.2c4.8,43.7,41.9,77.6,86.8,77.6c48.2,0,87.4-39.1,87.4-87.4C515.3,263.2,476.2,224.1,428,224.1z"/>
		<path class="st14" d="M251.8,124c-1.2-7.5,32.9,6.9,53.3,29.1c1.6,1.8,6.5,10.3,10.4,14.1c3.9,3.9,7,10.6,8.7,12.4
			c0,0-8.3,10.7-11.4,10.9C303.3,191.2,254.2,140,251.8,124z"/>
		<path class="st14" d="M297.6,201.1c0,0-16.9,103.2-17.4,102.4s-1.1-1.3-1.9-1.4c-0.1-2.9,0.9-6.3,1.9-16.3
			c0.5-5.2,0.5-10.9-1.1-20C275.4,245.4,286.2,199.2,297.6,201.1z"/>
	</g>
</g>
<g id="Capa_3">
</g>
<g id="Capa_4">
</g>
</svg>
