<svg xmlns="http://www.w3.org/2000/svg" viewBox="0 0 800 710">
<style type="text/css">
	@import url('https://fonts.googleapis.com/css2?family=Barlow+Semi+Condensed:wght@500');
	.st0{display:none;}
	.st1{display:inline;}
	.st2{fill:none;stroke:#6F6B6A;stroke-width:0.25;stroke-linecap:round;stroke-miterlimit:10;}
	.st3{fill:#C6C6C5;}
	.st4{fill:none;stroke:#6F6B6A;stroke-width:0.25;stroke-miterlimit:10;}
	.st5{fill:#BEBBBC;stroke:#6F6B6A;stroke-width:0.25;stroke-miterlimit:10;}
	.st6{fill:#A19D9D;}
	.st7{fill:#6F6B6A;}
	.st8{fill:#868282;stroke:#6F6B6A;stroke-width:0.25;stroke-miterlimit:10;}
	.st9{fill:#BEBBBC;stroke:#6F6B6A;stroke-width:0.5;stroke-miterlimit:10;}
	.st10{fill:#A19D9D;stroke:#6F6B6A;stroke-width:0.25;stroke-miterlimit:10;}
	.st11{fill:none;}
	.st12{fill:#DDDBDC;stroke:#6F6B6A;stroke-width:0.25;stroke-miterlimit:10;}
	.st13{fill:#BEBBBC;}
	.st14{fill:#ECECEC;stroke:#6F6B6A;stroke-width:0.25;stroke-miterlimit:10;}
	.st15{fill:#43413F;stroke:#6F6B6A;stroke-width:0.25;stroke-miterlimit:10;}
	.st16{fill:#585554;stroke:#6F6B6A;stroke-width:0.25;stroke-miterlimit:10;}
	.st17{fill:#ECECEC;}
	.st18{fill:none;stroke:#CC1719;stroke-width:2;stroke-linecap:round;stroke-miterlimit:10;}
	.st19{fill:#CC1719;}
	.st20{fill:#1E1E1C;}
	.st21{font-family:'Barlow Semi Condensed', sans-serif;
		font-weight: 500;
		font-style: medium;}
	.st22{font-size:24px;}
	.st23{fill:none;stroke:#1D1E1C;stroke-width:0.5;stroke-miterlimit:10;}
	.st24{fill:#1D1E1C;}
	.st25{fill:#DDDBDC;stroke:#6F6B6A;stroke-width:1.000000e-02;stroke-miterlimit:10;}
	.st26{font-size:23.7833px;}
	.st27{fill:none;stroke:#1D1D1B;stroke-width:0.5;stroke-linecap:round;stroke-miterlimit:10;}
	.st28{fill:#1D1D1B;}
	.st29{fill:#C6C6C5;stroke:#6F6B6A;stroke-width:0.25;stroke-miterlimit:10;}
	.st30{fill:#6F6B6A;stroke:#6F6B6A;stroke-width:0.25;stroke-miterlimit:10;}
	.st31{fill:#1D1D1B;stroke:#6F6B6A;stroke-width:0.25;stroke-miterlimit:10;}
	.st32{display:inline;fill:none;}
	.st33{display:inline;fill:none;stroke:#6F6B6A;stroke-width:0.25;stroke-miterlimit:10;}
	.st34{display:inline;fill:none;stroke:#1D1D1B;stroke-width:1.000000e-02;stroke-linecap:round;stroke-miterlimit:10;}
	.st35{fill:#575756;stroke:#6F6B6A;stroke-width:0.25;stroke-miterlimit:10;}
	.st36{display:inline;fill:#ECECEC;stroke:#6F6B6A;stroke-width:0.25;stroke-miterlimit:10;}
	.st37{display:inline;fill:#BEBBBC;}
	.st38{display:inline;fill:none;stroke:#6F6B6A;stroke-width:1.000000e-04;stroke-miterlimit:10;}
	.st39{display:inline;fill:#BEBBBC;stroke:#6F6B6A;stroke-width:0.25;stroke-miterlimit:10;}
	.st40{display:inline;fill:#585554;}
	.st41{display:inline;fill:#CC1719;}
</style>
<g id="pedaleo1" class="st0">
	<g id="grafica-1" class="st1">
		<path class="st2" d="M307.3,403.6c0,34.5-27.9,62.4-62.4,62.4"/>
		<path class="st2" d="M176.6,392.6c0-34.5,27.9-62.4,62.4-62.4"/>
		<path class="st2" d="M484.9,398.8c0-34.5,27.9-62.4,62.4-62.4"/>
		<g>
			<g>
				<g>
					<g>
						<path class="st3" d="M394.6,300.3l-0.5,1.2c0,0.1-0.1,0.1-0.1,0.2l-47.7,129.4h0c-2.3,7-9.8,10.9-16.8,8.7
							c-7.1-2.2-11-9.8-8.8-16.9c0-0.1,0-0.1,0.1-0.2l0-0.1l0,0l35.2-123.5l-80-90.3l-3.9-5.1c-10.5-14.7-7.8-35.2,7-45.8
							c14.7-10.5,35.2-7.1,45.8,7.6l3.4,6L392,283.5l0,0C395.4,288.3,396.5,294.4,394.6,300.3z"/>
						<path class="st4" d="M394.6,300.3l-0.5,1.2c0,0.1-0.1,0.1-0.1,0.2l-47.7,129.4h0c-2.3,7-9.8,10.9-16.8,8.7
							c-7.1-2.2-11-9.8-8.8-16.9c0-0.1,0-0.1,0.1-0.2l0-0.1l0,0l35.2-123.5l-80-90.3l-3.9-5.1c-10.5-14.7-7.8-35.2,7-45.8
							c14.7-10.5,35.2-7.1,45.8,7.6l3.4,6L392,283.5l0,0C395.4,288.3,396.5,294.4,394.6,300.3z"/>
					</g>
					<path class="st5" d="M328.3,171.5l-3.4-6C326.3,167.4,327.4,169.4,328.3,171.5z"/>
					<path class="st5" d="M351.1,419.2c0,0,17.5,22.5,26,26c8.5,3.5,16,5.4,15.7,10.5s-14.8,12.7-32.1,6.3
						c-17.3-6.4-15-9.8-32.4-15.6c-17.4-5.8-17.7-9.5-16.7-14.8c1-5.3,8-15.8,11.4-13.5c2,1.4-0.6,8.9,5.2,11.6
						C332.5,431.6,344.2,436.9,351.1,419.2z"/>
					<circle class="st5" cx="358.9" cy="442.3" r="2.4"/>
					<circle class="st5" cx="343.7" cy="437.2" r="2.4"/>
					<g>
						<path class="st6" d="M366.7,376.6l-20.4,54.5l-0.1,0.2c-2,6.2-8.3,10.1-15,9c-7.3-1.2-12.3-8.1-11.1-15.5
							c0.1-0.7,0.3-1.4,0.5-2.1l15.4-53L366.7,376.6z"/>
						<path class="st4" d="M366.7,376.6l-20.4,54.5l-0.1,0.2c-2,6.2-8.3,10.1-15,9c-7.3-1.2-12.3-8.1-11.1-15.5
							c0.1-0.7,0.3-1.4,0.5-2.1l15.4-53L366.7,376.6z"/>
					</g>
				</g>
				<g>
					<g>
						<path class="st6" d="M364.7,235.5l-36.4-64l-3.4-6c-10.5-14.7-31-18.1-45.8-7.6c-14.7,10.5-17.5,31-7,45.8l3.9,5.1l45.2,51
							L364.7,235.5z"/>
						<path class="st4" d="M364.7,235.5l-36.4-64l-3.4-6c-10.5-14.7-31-18.1-45.8-7.6c-14.7,10.5-17.5,31-7,45.8l3.9,5.1l45.2,51
							L364.7,235.5z"/>
					</g>
					<g>
						<path class="st7" d="M351.1,419.2c0,0,17.5,22.5,26,26c8.5,3.5,16,5.4,15.7,10.5s-14.8,12.7-32.1,6.3
							c-17.3-6.4-15-9.8-32.4-15.6c-17.4-5.8-17.7-9.5-16.7-14.8c1-5.3,8-15.8,11.4-13.5c2,1.4-0.6,8.9,5.2,11.6
							C332.5,431.6,344.2,436.9,351.1,419.2z"/>
						<path class="st4" d="M351.1,419.2c0,0,17.5,22.5,26,26c8.5,3.5,16,5.4,15.7,10.5s-14.8,12.7-32.1,6.3
							c-17.3-6.4-15-9.8-32.4-15.6c-17.4-5.8-17.7-9.5-16.7-14.8c1-5.3,8-15.8,11.4-13.5c2,1.4-0.6,8.9,5.2,11.6
							C332.5,431.6,344.2,436.9,351.1,419.2z"/>
					</g>
				</g>
			</g>
		</g>
		<g>
			<path class="st8" d="M379.6,460.9c-1-0.7-2.3-1.1-3.5-1.1h-3.3c0.2-3.2,0.3-4.5,0.5-8.5c0-0.1,0-0.2,0-0.3
				c0.2-5,0.5-10.2,0.7-14.8c0-0.6,0.1-1.3,0.1-1.9c0-0.1,0-0.1,0-0.2c0.3-6.5,0.5-11.5,0.6-12.6c0.5-9.5-13-10.4-13-0.3
				c0,3.1,0.2,7.7,0.5,12.8c0,0.1,0,0.3,0,0.4c0,0.6,0.1,1.2,0.1,1.8c0.3,4.7,0.7,9.8,1,14.7c0,0.1,0,0.2,0,0.3
				c0.3,3.9,0.6,5.2,0.8,8.4h-3.3c-2.9,0-6.1,2.4-6.1,5.3c0,2.9,3.2,5.3,6.1,5.3h15.1c1.2,0,2.4-0.4,3.4-1c1.5-1,2.7-2.5,2.7-4.2
				C382.2,463.4,381.1,461.9,379.6,460.9z"/>
			<g>
				<path class="st9" d="M340,434.5c-14.7,39.4-52.8,67.5-97.3,67.5c-57.4,0-103.9-46.5-103.9-103.9s46.5-103.9,103.9-103.9
					c24.4,0,46.8,8.4,64.6,22.5c-5.1,4.9-11.4,11.2-18.1,17.9c-13-9.5-29.1-15.2-46.4-15.2c-43.4,0-78.7,35.2-78.7,78.7
					s35.2,78.7,78.7,78.7c37.1,0,68.3-25.8,76.5-60.4c6.2,1.4,12.1,2.7,17.5,3.9C336.6,425.4,337.8,430.2,340,434.5z"/>
				<path class="st9" d="M346.5,397.3c-2.6,2.4-4.7,5.3-6.4,8.5c-5.5-0.8-12-1.7-19-2.7c0.1-1.6,0.2-3.3,0.2-4.9
					c0-22.1-9.1-42-23.7-56.3c7.4-7.2,14-13.5,18.1-17.5C334.5,342.9,346.3,368.7,346.5,397.3z"/>
			</g>
			<path class="st9" d="M650.7,398.1c0,57.4-46.5,103.9-103.9,103.9s-103.9-46.5-103.9-103.9c0-41,23.7-76.4,58.2-93.3
				c2.8,6.8,6.2,14.8,9.6,23.4c-25.3,13.1-42.6,39.5-42.6,69.9c0,43.4,35.2,78.7,78.7,78.7c43.4,0,78.7-35.2,78.7-78.7
				s-35.2-78.7-78.7-78.7c-7.9,0-15.5,1.2-22.7,3.3c-3.4-8.8-6.6-16.9-9.2-23.6c10-3.2,20.8-5,31.9-5
				C604.2,294.2,650.7,340.8,650.7,398.1z"/>
			<path class="st10" d="M567.5,219.8c0.6-2-1-3.5-3.6-4.4c-1.9-0.7-4-1.2-7.4-0.6c-1.9,0.3-5.7,11.1-10.9,11.7
				c-5.2,0.6-19.3,0.6-19.2,0.7c0,0-13.5-0.7-17.5,0.6c0,0,0,0,0,0c-0.5,0.2-0.9,0.4-1.1,0.6c-2.4,2.2-1.9,5.3,4.9,6.7c0,0,0,0,0,0
				c0.7,0.1,1.4,0.2,2.1,0.3c8,1.4,12.3,0.1,13.5,1.5c1.4,1.6,6.1,6.8,6.3,8.9c0.3,2.1,1.6,16.2-22.3,21.7c-2.4,0.6-5.4,1-8,1.4
				c-3.1,0.4-5.8,0.7-6.6,0.7c-2.6,0.1-3.1,8.9,0.1,9.1c1.2,0.1,4.7-0.1,9.1-0.8c7.6-1.2,17.9-3.6,23-7.6c8.1-6.3,16-17.3,12.8-27.6
				c0,0-0.1-0.1-0.1-0.1c0,0,0.1,0.1,0.1,0.1c0,0,0.7-4.8,5.9-5.8c4.7-0.9,6.4,0,6.4-1.3c0-2.6-0.2-2.3,0.3-2.3
				c0.3,0,0.1-1.1,2.7,0.3c0.8,5.5,2.9,5.8-5,13.2c-3.1,7.7,10.5,19.8,10.5,19.8s0.6-1.1,0.4-2.1s-2.3,0.9-1.9-6.9
				c0.4-7.8,4.6-21.2,0.7-26.7l-0.1,0c0,0,0.1,0,0.1,0S567.5,220.1,567.5,219.8L567.5,219.8z"/>
			<path class="st11" d="M372.3,437.1"/>
			<path class="st12" d="M552,395.3c-1.4-3.6-15.9-41.7-27.8-72.5c-3.4-8.8-6.6-16.9-9.2-23.6c-1.8-4.5-6.4-16.8-7.7-21.6
				c-4.4,0.7-7.9,0.9-9.1,0.8c-3.2-0.3-2.7-9-0.1-9.1c0.9-0.1,3.5-0.3,6.6-0.7c-2.9-10-6.2-20.4-8.5-23.6h0l-0.1-1.4
				c0,0,0-0.1,0-0.1l0,0c0,0,0.1,1-0.2-3.8c-0.2-3.7,17-4.8,17-4.8c-10-2.1-5.6-7.1-2.9-7.5c-0.7,0.2-27.4,4.1-29.3,5.3
				c-2.5,1.5,2.1,8.1,2.1,10.7h0v4.4c-6.5,0.5-154.7,13.3-154.7,13.3l-2-4.5l-15.7-50.3l-13.7-0.7l-2.7,1.2l14.4,50.1l0,0l1.6,7.3v0
				c0.7,12.6,14.8,36.9,8.2,42.4c-1.5,1.2-5.4,5-10.8,10.2c-5.1,4.9-11.4,11.2-18.1,17.9c-19.8,19.7-43,43.2-47.9,48.5
				c-0.7,0.8-2.1,1.7-2.2,6.8c-2.4,1.4-4,3.9-4,6.8c0,4.4,3.5,7.9,7.9,7.9c2.5,0,4.8-1.2,6.2-3c14.7,2.8,44.5,9.1,70,14.7
				c6.2,1.4,12.1,2.7,17.5,3.9v0c0-5.2,1.3-10.2,3.5-14.5c-5.5-0.8-12-1.7-19-2.7c-27.9-4-62.7-8.9-65.9-9.1
				c-5.3-0.4-4.9-5.3-3.7-7.1c0.7-1.1,26.3-25.9,46-45c7.4-7.1,14-13.5,18.1-17.5c2.9-2.8,4.7-4.5,4.7-4.5
				c21.1,19,30,52.5,33.5,72.3c3.4-1.7,7.2-2.9,11.2-3.3c-6.9-23.9-28.9-99.7-32.1-108.3c-3.8-10.3,0.3-11.8,2.3-11.8
				c3.3,0,123.4-9.6,134.5-9.7c2.9,0,7.1,11.5,5.2,14.5c-2.9,4.4-79.1,90.3-101.6,115.6c8.4,1.3,15.7,6,20.6,12.6L486.5,296
				c0,0,4.4-5.3,8.9-4.4c0,0,0,0,0,0.1c1.5,3.3,3.5,7.8,5.7,13.2c2.8,6.8,6.2,14.8,9.7,23.4c12.6,30.8,27.3,67.8,30.3,72.7
				c0.8,2.1,7.4,2.4,10.2,1C553.3,401,552.8,397.4,552,395.3z"/>
			<path class="st5" d="M374.4,405.9c3.7,1.6,6.7,4.6,8.3,8.3c0.8,1.9,1.2,3.9,1.2,6.1c0,2-0.4,3.9-1.1,5.7
				c-2.3,5.8-7.9,9.8-14.5,9.8c-8.6,0-15.6-7-15.6-15.6c0-6.6,4-12.2,9.8-14.4c0-0.1,0-0.1,0-0.2c0-0.6,0.1-1.2,0.1-1.9
				c0.2-4.6,0.5-9.8,0.7-14.8c-3.4,0.5-6.5,1.6-9.5,3.1c-2.7,1.4-5.2,3.2-7.4,5.2c-2.6,2.4-4.7,5.3-6.4,8.5
				c-2.2,4.3-3.5,9.3-3.5,14.5v0c0,5.1,1.2,9.9,3.3,14.2c5.2,10.4,16,17.5,28.4,17.5c16,0,29.2-11.8,31.4-27.2
				c0.2-1.5,0.3-3,0.3-4.6c0-1.8-0.1-3.6-0.4-5.3c-0.8-5-2.8-9.6-5.7-13.5c-4.8-6.6-12.3-11.2-20.7-12.6
				C373.2,388.9,374.4,405.9,374.4,405.9z"/>
			<path class="st5" d="M375.6,369.6h-15.1c-1.2,0-2.4,0.4-3.4,1c-1.5,1-2.7,2.5-2.7,4.2c0,1.7,1.1,3.2,2.6,4.2
				c1,0.7,2.3,1.1,3.5,1.1h3.3c-0.2,3.2-0.3,4.5-0.5,8.5c0,0.1,0,0.2,0,0.3c-0.2,5-0.5,10.2-0.7,14.8c0,0.6-0.1,1.3-0.1,1.9
				c0,0.1,0,0.1,0,0.2c-0.3,6.5-0.5,11.5-0.6,12.6c-0.5,9.5,13,10.4,13,0.3c0-3.1-0.2-7.7-0.5-12.8c0-0.1,0-0.3,0-0.4
				c0-0.6-0.1-1.2-0.1-1.8c-0.3-4.7-0.7-9.8-1-14.7c0-0.1,0-0.2,0-0.3c-0.3-3.9-0.6-5.2-0.8-8.4h3.3c2.9,0,6.1-2.4,6.1-5.3
				C381.8,372,378.6,369.6,375.6,369.6z"/>
			<path class="st13" d="M373.2,388.9"/>
		</g>
		<path class="st14" d="M443.7,231.8c-0.2,0.3-0.5,0.7-0.8,1l-84.6,109.1l-0.1,0.1c-3.8,5.3-11,7.2-17,4.2c-6.6-3.3-9.3-11.4-6-18.1
			c0.3-0.6,0.7-1.3,1.1-1.8l60.8-91.9l-107.6-18.1l17.5-63.2l126.3,49.7l0,0c2.1,0.6,4.1,1.5,5.9,2.8
			C447.8,211.8,449.7,223.4,443.7,231.8z"/>
		<path class="st5" d="M393.9,296l-35.6,46l-0.1,0.1c-3.8,5.3-11,7.2-17,4.2c-6.6-3.3-9.3-11.4-6-18.1c0.3-0.6,0.7-1.3,1.1-1.8
			l30.5-46.1L393.9,296z"/>
		<path class="st15" d="M366.8,331c0,0,12.7,23.4,20.5,28.2c7.8,4.8,15,7.9,13.9,12.8c-1.1,5-16.6,10.2-32.7,1.1
			c-16.1-9.1-13.2-12.1-29.5-20.6c-16.2-8.5-16-12.2-14.1-17.3c1.9-5.1,10.4-14.4,13.4-11.5c1.7,1.6-2,8.7,3.3,12.2
			C345.5,338.6,354.9,344.1,366.8,331z"/>
		<circle class="st16" cx="366.8" cy="356.5" r="2.4"/>
		<circle class="st16" cx="353.8" cy="347" r="2.4"/>
		<path class="st14" d="M456.4,103.9l13.4,82.5l72.1,34.5c5.2,2.3,7.5,8.4,5.1,13.6c-2.3,5.2-8.4,7.5-13.6,5.1L454.6,206l-0.7-0.3
			c-3.6-1.6-6-4.7-6.8-8.2l-28.5-84.2"/>
		<path class="st5" d="M464.4,152.7c0,0-4.2-28.4-7-43.5c-0.2-1.9-0.6-3.7-1.1-5.6c0,0,0-0.1,0-0.1l0,0c-0.2-0.6-0.3-1.1-0.5-1.7
			c-6.9-21.3-29.7-32.9-50.9-26.1c-2.1,0.7-86.5,28.3-89.9,29.9c-8.8,4.1-16.7,9-23.4,14.4l0,0c-21.1,17.1-29.8,40.4-25.2,67.8
			c3.4,16.1,9.8,24.3,23.2,28.4c17.5,4.8,35.5-5.4,40.4-22.8c1.4-5.1,10-2.8,13.6-6.2c5.3-5,1.7-7.3,9.2-9.7L367,173l56.4-18.2
			c0,0,4.1-1.3,6.2-2c0.6-0.2,1.2-0.4,1.8-0.6l3.4,9L464.4,152.7z"/>
		<path class="st14" d="M512,79.1c0-17.9-14.5-32.4-32.4-32.4c-9.1,0-17.4,3.8-23.2,9.8c-1.7,1.7-3.2,3.7-4.5,5.8
			c-0.9,1.5-1.7,3.1-2.4,4.7c-0.2,0.8-0.4,1.5-0.8,2.1c-0.6,1.1-1.3,1.8-2.1,2.5c-3.1,2.6-6.8,4.7-11.2,4.7c-1.4,0-6.8-0.9-8.4-1.2
			c5.3,1.4,11.4,4.3,15.4,7.6c1.5,1.2,6.8,5.6,10.1,11.8c3,5.7,4.6,12.9,4.9,14.3l2.1,14c0-0.4,2.7-14.2,9.9-12.9c0,0,0,0,0,0
			c0.1,0,0.2,0,0.3,0.1c0.1,0,0.1,0,0.2,0.1c0.3,0.1,0.6,0.2,1,0.3c1.1,0.3,2.2,0.6,3.4,0.8c1.7,0.3,3.5,0.4,5.3,0.4
			c7.9,0,15.1-2.8,20.7-7.5c1.1,0.7,6.6,3.9,7.1,2.3c0.8-3.1,0.6-8,0.3-11.1C510.4,90.5,512,85,512,79.1z"/>
		<path class="st13" d="M467.1,64.1l48.6,20.8l-7.9,10.4c0,0-5.4-5.8-13-16.4C491,73.5,467.1,64.1,467.1,64.1z"/>
		<path class="st13" d="M461.7,62.3l7.6,25.4l16-19.6l3.6,2.5c0,0-19.3,20.1-19.4,24c-0.1,3.9,0.4,17.7,0.4,17.7l-3.9,0.6
			c0,0,1.1-16,0.1-20.1c-1-4.1-8.3-30.2-8.3-30.2L461.7,62.3z"/>
		<g>
			<g>
				<g>
					<path class="st13" d="M516,79.6c5.1-2.3,4.6-30.2-13.2-40s-37.2-10.9-37.2-10.9l1.1,4.9L454,35.4l1.1,7.7l-6.7,3.8
						c0,0-2.5,14.8,2.9,16c5.3,1.1,20.1,0.7,24.9-2c0,0,4.1,8.5,10.4,10.1c6.4,1.6,4.7,0,8.6,1.3C499.4,73.6,511.6,81.6,516,79.6z"
						/>
					<path class="st4" d="M516,79.6c5.1-2.3,4.6-30.2-13.2-40s-37.2-10.9-37.2-10.9l1.1,4.9L454,35.4l1.1,7.7l-6.7,3.8
						c0,0-2.5,14.8,2.9,16c5.3,1.1,20.1,0.7,24.9-2c0,0,4.1,8.5,10.4,10.1c6.4,1.6,4.7,0,8.6,1.3C499.4,73.6,511.6,81.6,516,79.6z"
						/>
				</g>
				<g>
					<path class="st17" d="M466.7,42.3c10.1,2.2,28.5,11.3,32.5,22.1L466.7,42.3z"/>
					<path class="st4" d="M466.7,42.3c10.1,2.2,28.5,11.3,32.5,22.1L466.7,42.3z"/>
				</g>
				<g>
					<path class="st17" d="M499.8,49.9c3.8,1.6,10.7,10.4,10.7,14.5L499.8,49.9z"/>
					<path class="st4" d="M499.8,49.9c3.8,1.6,10.7,10.4,10.7,14.5L499.8,49.9z"/>
				</g>
			</g>
		</g>
		<path class="st4" d="M476.7,72.9c-0.1-4.8-5.9-9.2-8.9-0.8c-3.2,8.8,0.1,13.7,4.3,10.7"/>
		<line class="st4" x1="492.8" y1="108.4" x2="488.8" y2="106"/>
		<path class="st14" d="M537.8,218.9c3.7,1.4,11.7,4.5,12.3,4.9l7.7,3.1c0,0,2.3,0.9,2.5,1.2l5.8,6.1c0.9,0.9,1,2.3,0.2,3.3
			c-0.9,0.9-2.3,1-3.3,0.2l-3.7-4.5c0,0-4.1-2.7-6.7-3.9c-0.2-0.1,6.6,5.1,6.5,5.1c0.1,0,4.4,7.1,4.4,7.1c0.7,1.1,0.4,2.5-0.6,3.2
			c-1.1,0.7-2.5,0.4-3.2-0.6l-3.7-5.7c0,0-7.3-5.3-6.3-4.3c1.3,1.2,6.2,6.2,6.2,6.2c0.8,1,0.7,2.4-0.3,3.3c-1,0.8-2.4,0.7-3.3-0.3
			c0,0-2.6-2.8-4.4-4.7c-0.2-0.2,3.2,4.3,3.2,4.3c0.8,1,0.7,2.4-0.3,3.3c-1,0.8-2.4,0.7-3.3-0.3l-4.3-4.8c-1,0.3-2.1,0.5-3.3,0.5
			c-1.7,0-10-2.6-10.3-5.5"/>
		<path class="st2" d="M609.8,398.8c0,34.5-27.9,62.4-62.4,62.4"/>
		<g>
			<g>
				<path class="st18" d="M368.5,365.4c28.5,0,52,21.6,54.8,49.4"/>
				<g>
					<polygon class="st19" points="419.2,413.8 423.6,420.5 427.2,413.3 					"/>
				</g>
			</g>
		</g>
		<line class="st4" x1="431.2" y1="152.1" x2="415.9" y2="111.8"/>
		<line class="st4" x1="291" y1="120.1" x2="366.6" y2="173"/>
		<polyline class="st5" points="345.2,167.2 393.9,187.4 370.4,230 289.5,216.4 		"/>
		<path class="st19" d="M279.9,132.5c-5.5,6.2-11.9,17.2-14.3,30.9c-1.4,8.1-0.6,18.9,1.4,28.6c1.2,5.9,3.1,9.3,7,14.6
			c9.1,10.8,20.9,11.3,30.3,13.2c15.1,3,30,5.1,30,5.1s-27.2-56.4-24.5-66C312.3,150.1,287.4,125.9,279.9,132.5z"/>
	</g>
	<g id="texto-1" class="st1">
		<g>
			<text transform="matrix(1 0 0 1 193.2559 247.6102)" class="st20 st21 st22">Glúteos</text>
		</g>
		<g>
			<g>
				<line class="st23" x1="274.8" y1="247.6" x2="274.8" y2="200.1"/>
				<g>
					<circle class="st24" cx="274.8" cy="200.1" r="0.8"/>
				</g>
			</g>
		</g>
	</g>
</g>
<g id="pedaleo2" class="st0">
	<g id="grafica2" class="st1">
		<path class="st4" d="M180.8,396.2c0-34.5,27.9-62.4,62.4-62.4"/>
		<g>
			<g>
				<path class="st25" d="M276.3,208.9l5.4,4.1C279.8,211.9,278,210.5,276.3,208.9z"/>
				<path class="st25" d="M325.8,166.3l-4.5-5.2C323,162.7,324.5,164.5,325.8,166.3z"/>
				<g>
					<path class="st3" d="M411,290.2l-0.9,0.9l-97.3,98.2c-4.4,4.8-11.7,5.8-17.3,2.1c-6.2-4.1-7.9-12.4-3.9-18.6
						c0.4-0.6,0.9-1.2,1.3-1.7l0,0l77.3-90.6L281.7,213l-5.4-4.1c-13.2-12.4-13.8-33.2-1.4-46.4c12.4-13.2,33.2-13.8,46.4-1.4
						l4.5,5.2l0,0L410,264C417.5,271,417.9,282.7,411,290.2z"/>
					<path class="st4" d="M411,290.2l-0.9,0.9l-97.3,98.2c-4.4,4.8-11.7,5.8-17.3,2.1c-6.2-4.1-7.9-12.4-3.9-18.6
						c0.4-0.6,0.9-1.2,1.3-1.7l0,0l77.3-90.6L281.7,213l-5.4-4.1c-13.2-12.4-13.8-33.2-1.4-46.4c12.4-13.2,33.2-13.8,46.4-1.4
						l4.5,5.2l0,0L410,264C417.5,271,417.9,282.7,411,290.2z"/>
				</g>
				<g>
					<path class="st6" d="M342.8,259.5l-61-46.5l-5.4-4.1c-13.2-12.4-13.8-33.2-1.4-46.4c12.4-13.2,33.2-13.8,46.4-1.4l4.5,5.2l0,0
						l48.6,56.3L342.8,259.5z"/>
					<path class="st4" d="M342.8,259.5l-61-46.5l-5.4-4.1c-13.2-12.4-13.8-33.2-1.4-46.4c12.4-13.2,33.2-13.8,46.4-1.4l4.5,5.2l0,0
						l48.6,56.3L342.8,259.5z"/>
				</g>
				<g>
					<path class="st6" d="M353.9,348.1l-41.1,41.2l-0.1,0.1c-4.4,4.8-11.8,5.8-17.4,2.1c-6.2-4.1-7.8-12.5-3.7-18.7
						c0.4-0.6,0.9-1.2,1.3-1.7l36-41.9L353.9,348.1z"/>
					<path class="st4" d="M353.9,348.1l-41.1,41.2l-0.1,0.1c-4.4,4.8-11.8,5.8-17.4,2.1c-6.2-4.1-7.8-12.5-3.7-18.7
						c0.4-0.6,0.9-1.2,1.3-1.7l36-41.9L353.9,348.1z"/>
				</g>
				<g>
					<path class="st7" d="M323.4,378.3c0,0,9.1,25.7,16.3,31.4c7.2,5.7,14,9.6,12.3,14.4s-17.7,8.2-32.6-2.7s-11.7-13.6-26.9-23.9
						c-15.1-10.3-14.4-13.9-12-18.8c2.5-4.8,11.2-13.5,14.8-10.3c1.8,1.6-4.4,9.1,4.2,14.4C308.3,388.9,318.6,384.2,323.4,378.3z"/>
					<path class="st4" d="M323.4,378.3c0,0,9.1,25.7,16.3,31.4c7.2,5.7,14,9.6,12.3,14.4s-17.7,8.2-32.6-2.7s-11.7-13.6-26.9-23.9
						c-15.1-10.3-14.4-13.9-12-18.8c2.5-4.8,11.2-13.5,14.8-10.3c1.8,1.6-4.4,9.1,4.2,14.4C308.3,388.9,318.6,384.2,323.4,378.3z"/>
				</g>
			</g>
		</g>
		<path class="st4" d="M305.6,396.9c0,34.5-27.9,62.4-62.4,62.4"/>
		<g>
			<path class="st8" d="M367.6,413.5c-3.2,0-7.9,0.2-13.2,0.6c-0.6,0-1.2,0.1-1.9,0.1c-4.8,0.3-10.1,0.7-15.1,1.1
				c-4,0.3-7.9,0.6-11.3,0.9c-1-0.7-2.3-1.1-3.5-1.1h-15.1c-2.9,0-6.1,2.4-6.1,5.3c0,2.9,3.2,5.3,6.1,5.3h15.1c1.2,0,2.4-0.4,3.4-1
				c3.4,0.2,7.4,0.3,11.5,0.5c5.1,0.2,10.4,0.5,15.1,0.7c0.6,0,1.3,0.1,1.9,0.1c6.6,0.3,11.7,0.6,12.8,0.6
				C376.8,426.9,377.7,413.5,367.6,413.5z"/>
			<path class="st5" d="M400.1,420.4c0,1.5-0.1,3.1-0.3,4.6c-2.2,15.4-15.4,27.2-31.4,27.2c-12.4,0-23.2-7.1-28.4-17.5
				c-2.1-4.3-3.3-9.1-3.3-14.2v0c0-5.2,1.3-10.2,3.5-14.5c1.6-3.2,3.8-6,6.4-8.5c2.2-2.1,4.7-3.9,7.4-5.2c3.4-1.7,7.2-2.9,11.2-3.3
				c1.1-0.1,2.2-0.2,3.3-0.2c1.7,0,3.4,0.1,5,0.4c8.4,1.3,15.7,6,20.6,12.6c2.9,3.9,4.9,8.5,5.7,13.5
				C399.9,416.8,400.1,418.6,400.1,420.4z M382.7,414.3c-2.4-5.6-7.9-9.5-14.3-9.5c-8.6,0-15.6,7-15.6,15.6c0,8.6,7,15.6,15.6,15.6
				c6.6,0,12.2-4.1,14.5-9.8c0.7-1.8,1.1-3.7,1.1-5.7C383.9,418.2,383.5,416.2,382.7,414.3z"/>
			<g>
				<g>
					<path class="st5" d="M340,434.5c-14.7,39.4-52.8,67.5-97.3,67.5c-57.4,0-103.9-46.5-103.9-103.9s46.5-103.9,103.9-103.9
						c24.4,0,46.8,8.4,64.6,22.5c-5.1,4.9-11.4,11.2-18.1,17.9c-13-9.5-29.1-15.2-46.4-15.2c-43.4,0-78.7,35.2-78.7,78.7
						s35.2,78.7,78.7,78.7c37.1,0,68.3-25.8,76.5-60.4c6.2,1.4,12.1,2.7,17.5,3.9C336.6,425.4,337.8,430.2,340,434.5z"/>
					<path class="st5" d="M346.5,397.3c-2.6,2.4-4.7,5.3-6.4,8.5c-5.5-0.8-12-1.7-19-2.7c0.1-1.6,0.2-3.3,0.2-4.9
						c0-22.1-9.1-42-23.7-56.3c7.4-7.2,14-13.5,18.1-17.5C334.5,342.9,346.3,368.7,346.5,397.3z"/>
				</g>
			</g>
			<path class="st5" d="M650.7,398.1c0,57.4-46.5,103.9-103.9,103.9s-103.9-46.5-103.9-103.9c0-41,23.7-76.4,58.2-93.3
				c2.8,6.8,6.2,14.8,9.6,23.4c-25.3,13.1-42.6,39.5-42.6,69.9c0,43.4,35.2,78.7,78.7,78.7c43.4,0,78.7-35.2,78.7-78.7
				s-35.2-78.7-78.7-78.7c-7.9,0-15.5,1.2-22.7,3.3c-3.4-8.8-6.6-16.9-9.2-23.6c10-3.2,20.8-5,31.9-5
				C604.2,294.2,650.7,340.8,650.7,398.1z"/>
			<path class="st10" d="M567.5,219.8c0.6-2-1-3.5-3.6-4.4c-1.9-0.7-4-1.2-7.4-0.6c-1.9,0.3-5.7,11.1-10.9,11.7
				c-5.2,0.6-19.3,0.6-19.3,0.6s0,0,0.1,0.1c0,0,0,0,0,0c-2.1-0.6-13.5-0.7-17.5,0.6c0,0,0,0,0,0c-0.5,0.2-0.9,0.4-1.1,0.6
				c-2.4,2.2-1.9,5.3,4.9,6.7c0,0,0,0,0,0c0.7,0.1,1.4,0.2,2.1,0.3c8,1.4,12.3,0.1,13.5,1.5c1.4,1.6,6.1,6.8,6.3,8.9
				c0.3,2.1,1.6,16.2-22.3,21.7c-2.4,0.6-5.4,1-8,1.4c-3.1,0.4-5.8,0.7-6.6,0.7c-2.6,0.1-3.1,8.9,0.1,9.1c1.2,0.1,4.7-0.1,9.1-0.8
				c7.6-1.2,17.9-3.6,23-7.6c8.1-6.3,16-17.3,12.8-27.6c0,0-0.1-0.1-0.1-0.1c0,0,0.1,0.1,0.1,0.1c0,0,0.7-4.8,5.9-5.8
				c4.7-0.9,6.4,0,6.4-1.3c0-2.6-0.2-2.3,0.3-2.3c0.3,0,0.1-1.1,2.7,0.3c0.8,5.5,2.9,5.8-5,13.2c-3.1,7.7,10.5,19.8,10.5,19.8
				s0.6-1.1,0.4-2.1s-2.3,0.9-1.9-6.9c0.4-7.8,4.6-21.2,0.7-26.7l-0.1,0c0,0,0.1,0,0.1,0S567.5,220.1,567.5,219.8L567.5,219.8z"/>
			<path class="st12" d="M552,395.3c-1.4-3.6-15.9-41.7-27.8-72.5c-3.4-8.8-6.6-16.9-9.2-23.6c-1.8-4.5-6.4-16.8-7.7-21.6
				c-4.4,0.7-7.9,0.9-9.1,0.8c-3.2-0.3-2.7-9-0.1-9.1c0.9-0.1,3.5-0.3,6.6-0.7c-2.9-10-6.2-20.4-8.5-23.6h0c0,0,0-0.5-0.3-5.3
				c-0.2-3.7,17-4.8,17-4.8c-10-2.1-5.6-7.1-2.9-7.5c-0.7,0.2-27.4,4.1-29.3,5.3c-2.5,1.5,2.1,8.1,2.1,10.7h0v4.4
				c-6.5,0.5-154.7,13.3-154.7,13.3l-17.7-54.8l-13.7-0.7l-2.7,1.2l15.9,57.4c0.7,12.6,14.8,36.9,8.2,42.4c-1.5,1.2-5.4,5-10.8,10.2
				c-5.1,4.9-11.4,11.2-18.1,17.9c-19.8,19.7-43,43.2-47.9,48.5c-0.7,0.8-2.1,1.7-2.2,6.8c-2.4,1.4-4,3.9-4,6.8
				c0,4.4,3.5,7.9,7.9,7.9c2.5,0,4.8-1.2,6.2-3c14.7,2.8,44.5,9.1,70,14.7c6.2,1.4,12.1,2.7,17.5,3.9v0c0-5.2,1.3-10.2,3.5-14.5
				c-5.5-0.8-12-1.7-19-2.7c-27.9-4-62.7-8.9-65.9-9.1c-5.3-0.4-4.9-5.3-3.7-7.1c0.7-1.1,26.3-25.9,46-45c7.4-7.1,14-13.5,18.1-17.5
				c2.9-2.8,4.7-4.5,4.7-4.5c21.1,19,30,52.5,33.5,72.3c3.4-1.7,7.2-2.9,11.2-3.3c-6.9-23.9-28.9-99.7-32.1-108.3
				c-3.8-10.3,0.3-11.8,2.3-11.8c3.3,0,123.4-9.6,134.5-9.7c2.9,0,7.1,11.5,5.2,14.5c-2.9,4.4-79.1,90.3-101.6,115.6
				c8.4,1.3,15.7,6,20.6,12.6L486.5,296c0,0,4.4-5.3,8.9-4.4c0,0,3.5,7.9,5.7,13.2c2.8,6.8,6.2,14.8,9.7,23.4
				c12.6,30.8,27.3,67.8,30.3,72.7c0.8,2.1,7.4,2.4,10.2,1C553.3,401,552.8,397.4,552,395.3z"/>
			<path class="st5" d="M429.6,414.7h-15.1c-1.2,0-2.3,0.4-3.4,1c-3.3-0.2-7.1-0.3-11-0.5c-5.1-0.2-10.4-0.5-15.1-0.7
				c-0.6,0-1.3-0.1-1.9-0.1c-6.6-0.3-11.7-0.6-12.8-0.6c-9.5-0.5-10.4,13-0.3,13c3.2,0,7.9-0.2,13.2-0.6c0.6,0,1.2-0.1,1.9-0.1
				c4.8-0.3,10.1-0.7,15.1-1.1c3.9-0.3,7.6-0.6,10.8-0.8c1,0.7,2.3,1.1,3.4,1.1h15.1c2.9,0,6.1-2.4,6.1-5.3
				C435.7,417,432.5,414.7,429.6,414.7z"/>
		</g>
		<path class="st14" d="M456.7,103.9l13.4,82.5l72.1,34.5c5.2,2.3,7.5,8.4,5.1,13.6c-2.3,5.2-8.4,7.5-13.6,5.1L454.9,206l-0.7-0.3
			c-3.6-1.6-6-4.7-6.8-8.2L419,113.2"/>
		<path class="st14" d="M512.3,79.1c0-17.9-14.5-32.4-32.4-32.4c-9.1,0-17.4,3.8-23.2,9.8c-1.7,1.7-3.2,3.7-4.5,5.8
			c-0.9,1.5-1.7,3.1-2.4,4.7c-0.2,0.8-0.4,1.5-0.8,2.1c-0.6,1.1-1.3,1.8-2.1,2.5c-3.1,2.6-6.8,4.7-11.2,4.7c-1.4,0-6.8-0.9-8.4-1.2
			c5.3,1.4,11.4,4.3,15.4,7.6c1.5,1.2,6.8,5.6,10.1,11.8c3,5.7,4.6,12.9,4.9,14.3l2.1,14c0-0.4,2.7-14.2,9.9-12.9c0,0,0,0,0,0
			c0.1,0,0.2,0,0.3,0.1c0.1,0,0.1,0,0.2,0.1c0.3,0.1,0.6,0.2,1,0.3c1.1,0.3,2.2,0.6,3.4,0.8c1.7,0.3,3.5,0.4,5.3,0.4
			c7.8,0,15-2.8,20.6-7.4c2.1,1.1,6.6,3.1,7,1.7c0.7-2.8,0.6-7.2,0.3-10.3C510.7,90.7,512.3,85.1,512.3,79.1z"/>
		<path class="st13" d="M467.4,64.1l48.6,20.8l-7.9,10.4c0,0-5.4-5.8-13-16.4C491.3,73.5,467.4,64.1,467.4,64.1z"/>
		<path class="st13" d="M462.1,62.3l7.6,25.4l16-19.6l3.6,2.5c0,0-19.3,20.1-19.4,24c-0.1,3.9,0.4,17.7,0.4,17.7l-3.9,0.6
			c0,0,1.1-16,0.1-20.1c-1-4.1-8.3-30.2-8.3-30.2L462.1,62.3z"/>
		<g>
			<g>
				<g>
					<path class="st13" d="M516.3,79.6c5.1-2.3,4.6-30.2-13.2-40c-17.8-9.8-37.2-10.9-37.2-10.9l1.1,4.9l-12.7,1.8l1.1,7.7l-6.7,3.8
						c0,0-2.5,14.8,2.9,16c5.3,1.1,20.1,0.7,24.9-2c0,0,4.1,8.5,10.4,10.1c6.4,1.6,4.7,0,8.6,1.3C499.7,73.6,511.9,81.6,516.3,79.6z
						"/>
					<path class="st4" d="M516.3,79.6c5.1-2.3,4.6-30.2-13.2-40c-17.8-9.8-37.2-10.9-37.2-10.9l1.1,4.9l-12.7,1.8l1.1,7.7l-6.7,3.8
						c0,0-2.5,14.8,2.9,16c5.3,1.1,20.1,0.7,24.9-2c0,0,4.1,8.5,10.4,10.1c6.4,1.6,4.7,0,8.6,1.3C499.7,73.6,511.9,81.6,516.3,79.6z
						"/>
				</g>
				<g>
					<path class="st17" d="M467,42.3c10.1,2.2,28.5,11.3,32.5,22.1L467,42.3z"/>
					<path class="st4" d="M467,42.3c10.1,2.2,28.5,11.3,32.5,22.1L467,42.3z"/>
				</g>
				<g>
					<path class="st17" d="M500.2,49.9c3.8,1.6,10.7,10.4,10.7,14.5L500.2,49.9z"/>
					<path class="st4" d="M500.2,49.9c3.8,1.6,10.7,10.4,10.7,14.5L500.2,49.9z"/>
				</g>
			</g>
		</g>
		<path class="st4" d="M477,72.9c-0.1-4.8-5.9-9.2-8.9-0.8c-3.2,8.8,0.1,13.7,4.3,10.7"/>
		<line class="st4" x1="493.1" y1="108.4" x2="489.2" y2="106"/>
		<path class="st14" d="M537.8,218.9c3.7,1.4,11.7,4.5,12.3,4.9l7.7,3.1c0,0,2.3,0.9,2.5,1.2l5.8,6.1c0.9,0.9,1,2.3,0.2,3.3
			c-0.9,0.9-2.3,1-3.3,0.2l-3.7-4.5c0,0-4.1-2.7-6.7-3.9c-0.2-0.1,6.6,5.1,6.5,5.1c0.1,0,4.4,7.1,4.4,7.1c0.7,1.1,0.4,2.5-0.6,3.2
			c-1.1,0.7-2.5,0.4-3.2-0.6l-3.7-5.7c0,0-7.3-5.3-6.3-4.3c1.3,1.2,6.2,6.2,6.2,6.2c0.8,1,0.7,2.4-0.3,3.3c-1,0.8-2.4,0.7-3.3-0.3
			c0,0-2.6-2.8-4.4-4.7c-0.2-0.2,3.2,4.3,3.2,4.3c0.8,1,0.7,2.4-0.3,3.3c-1,0.8-2.4,0.7-3.3-0.3l-4.3-4.8c-1,0.3-2.1,0.5-3.3,0.5
			c-1.7,0-10-2.6-10.3-5.5"/>
		<path class="st4" d="M547.7,461.2c-34.5,0-62.4-27.9-62.4-62.4"/>
		<path class="st4" d="M547.7,336.3c34.5,0,62.4,27.9,62.4,62.4"/>
		<path class="st14" d="M430.1,260.8l-0.3,1.2l-30.7,119.4l-3.7,14.5c-1.3,6-6.6,10.5-13,10.6c-7.4,0.1-13.5-5.9-13.6-13.3
			c0-1,0.1-2,0.3-3c0.2-0.7,0.4-1.4,0.6-2.1c-0.1-0.1-0.2-0.1-0.2-0.2L391,267.1l-104.4-53.1l-6-3.1c-15.2-9.8-19.6-30.1-9.7-45.4
			s30.1-19.6,45.4-9.7l5.3,4.3l100.5,81C428.3,245.2,431.8,253,430.1,260.8z"/>
		<g>
			<path class="st5" d="M464.7,152.7c0,0-4.2-28.4-7-43.5c-0.2-1.9-0.6-3.7-1.1-5.6c0,0,0-0.1,0-0.1l0,0c-0.2-0.6-0.3-1.1-0.5-1.7
				c-6.9-21.3-29.7-32.9-50.9-26.1c-2.1,0.7-86.5,28.3-89.9,29.9c-8.8,4.1-16.7,9-23.4,14.4l75.5,52.9l56.4-18.2c0,0,4.1-1.3,6.2-2
				c0.6-0.2,1.2-0.4,1.8-0.6l3.4,9L464.7,152.7z"/>
			<path class="st5" d="M266,188.7c0.3,1.3,0.8,7.2,5.1,13.7c4.2,8,12.1,12.2,18.8,14.1c17.5,4.8,35.5-5.4,40.4-22.8
				c1.4-5.1,10-2.8,13.6-6.2c5.3-5,1.7-7.3,9.2-9.7l14.3-4.6l-75.8-52.9C270.4,137.3,260.7,161.3,266,188.7z"/>
		</g>
		<polyline class="st5" points="291.6,216.6 358.2,250.5 382.3,209.2 338.7,174 		"/>
		<path class="st5" d="M409.9,339.4l-14.4,56.3l0,0.2c-1.4,6.4-7.2,11-13.9,10.6c-7.4-0.4-13.1-6.8-12.7-14.2c0-0.7,0.1-1.4,0.3-2.1
			l9.6-54.4L409.9,339.4z"/>
		<g>
			<g>
				<path class="st18" d="M424.3,420c0,28.7-21.8,52.2-49.7,55.1"/>
				<g>
					<polygon class="st19" points="375.5,471 368.9,475.4 376,478.9 					"/>
				</g>
			</g>
		</g>
		<line class="st4" x1="432" y1="152.1" x2="416.7" y2="111.8"/>
		<line class="st4" x1="291.8" y1="120.1" x2="367.4" y2="173"/>
		<path class="st19" d="M337.2,175.3c-1.4-9,39.1,8.2,63.4,34.6c1.9,2.1,7.7,12.2,12.3,16.8c4.6,4.6,8.3,12.6,10.4,14.7
			c0,0-9.8,12.7-13.5,13C398.6,255.2,340.2,194.3,337.2,175.3z"/>
		<path class="st19" d="M391.7,266.9c0,0-20.2,124.1-20.8,123.1c-0.5-1-1.3-2.2-2.2-2.2c-0.1-3.4,1.1-8.3,2.3-20.1
			c0.6-6.2,0.6-12.9-1.3-23.7C365.3,319.5,378.1,264.7,391.7,266.9z"/>
		<path class="st15" d="M418.8,418c-18.4-0.8-17.3-4.7-35.6-4.9c-18.3-0.1-19.8-3.6-20.4-8.9c-0.6-5.4,3.1-16.5,6.3-16.4
			c0.1,0,0.3,0,0.4,0.1c0.1,0,0.2,0.1,0.2,0.2c0.5,0.4,1,1.4,1.5,2.6c1.3,2.7,3,6.5,7.6,6.7c3.5,0.1,7.7,0,11.6-2.5
			c1.7-1.1,3.3-2.7,4.8-4.9c1.4-2.2,2.7-4.9,3.8-8.5c0-0.1,0.1-0.1,0.1-0.2c0,0,21,15.1,30.1,15.8c9.1,0.7,16.9,0.2,18.2,5.1
			C448.7,407.1,437.2,418.8,418.8,418z"/>
		<circle class="st16" cx="411.3" cy="406.7" r="2.4"/>
		<circle class="st16" cx="396.7" cy="400.1" r="2.4"/>
	</g>
	<g id="texto2" class="st1">
		<g>
			<text transform="matrix(1 0 0 1 510.8495 174.832)" class="st20 st21 st26">Cuádriceps</text>
		</g>
		<g>
			<text transform="matrix(1 0 0 1 186.5493 248.6025)" class="st20 st21 st26">Gemelos</text>
		</g>
		<g>
			<g>
				<line class="st27" x1="274.8" y1="243.6" x2="379.1" y2="293.4"/>
				<g>
					<path class="st28" d="M378.7,294c0.4,0.2,0.8,0,1-0.4c0.2-0.4,0-0.8-0.4-1c-0.4-0.2-0.8,0-1,0.4
						C378.2,293.4,378.3,293.9,378.7,294z"/>
				</g>
			</g>
		</g>
		<g>
			<g>
				<line class="st27" x1="503.9" y1="173.3" x2="403.3" y2="234.2"/>
				<g>
					<path class="st28" d="M403,233.5c-0.4,0.2-0.5,0.7-0.3,1s0.7,0.5,1,0.3c0.4-0.2,0.5-0.7,0.3-1
						C403.8,233.4,403.3,233.3,403,233.5z"/>
				</g>
			</g>
		</g>
	</g>
</g>
<g id="pedale3">
	<g id="grafica3">
		<path class="st4" d="M183.2,396.9c0-34.5,27.9-62.4,62.4-62.4"/>
		<path class="st4" d="M547.3,336.3c34.5,0,62.4,27.9,62.4,62.4"/>
		<g>
			<path class="st29" d="M443.7,231.8c-0.2,0.3-0.5,0.7-0.8,1l-84.6,109.1l-0.1,0.1c-3.8,5.3-11,7.2-17,4.2
				c-6.6-3.3-9.3-11.4-6-18.1c0.3-0.6,0.7-1.3,1.1-1.8l60.8-91.9l-107.6-18.1l17.5-63.2l126.3,49.7l0,0c2.1,0.6,4.1,1.5,5.9,2.8
				C447.8,211.8,449.7,223.4,443.7,231.8z"/>
			<path class="st10" d="M393.9,296l-35.6,46l-0.1,0.1c-3.8,5.3-11,7.2-17,4.2c-6.6-3.3-9.3-11.4-6-18.1c0.3-0.6,0.7-1.3,1.1-1.8
				l30.5-46.1L393.9,296z"/>
			<path class="st30" d="M366.8,331c0,0,12.7,23.4,20.5,28.2c7.8,4.8,15,7.9,13.9,12.8c-1.1,5-16.6,10.2-32.7,1.1
				c-16.1-9.1-13.2-12.1-29.5-20.6c-16.2-8.5-16-12.2-14.1-17.3c1.9-5.1,10.4-14.4,13.4-11.5c1.7,1.6-2,8.7,3.3,12.2
				C345.5,338.6,354.9,344.1,366.8,331z"/>
			<polyline class="st10" points="345.2,167.2 393.9,187.4 370.4,230 289.5,216.4 			"/>
		</g>
		<path class="st4" d="M305.3,396.9c0,34.5-27.9,62.4-62.4,62.4"/>
		<path class="st14" d="M512,79.1c0-17.9-14.5-32.4-32.4-32.4c-9.1,0-17.4,3.8-23.2,9.8c-1.7,1.7-3.2,3.7-4.5,5.8
			c-0.9,1.5-1.7,3.1-2.4,4.7c-0.2,0.8-0.4,1.5-0.8,2.1c-0.6,1.1-1.3,1.8-2.1,2.5c-3.1,2.6-6.8,4.7-11.2,4.7c-1.4,0-6.8-0.9-8.4-1.2
			c5.3,1.4,11.4,4.3,15.4,7.6c1.5,1.2,6.8,5.6,10.1,11.8c3,5.7,4.6,12.9,4.9,14.3l2.1,14c0-0.4,2.7-14.2,9.9-12.9c0,0,0,0,0,0
			c0.1,0,0.2,0,0.3,0.1c0.1,0,0.1,0,0.2,0.1c0.3,0.1,0.6,0.2,1,0.3c1.1,0.3,2.2,0.6,3.4,0.8c1.7,0.3,3.5,0.4,5.3,0.4
			c8.1,0,15.6-3,21.3-8c2.3,1.5,5.9,3.6,6.3,2.3c0.7-2.8,0.6-7.2,0.3-10.3C510.3,90.7,512,85.1,512,79.1z"/>
		<g>
			<path class="st8" d="M375.6,369.6h-15.1c-1.2,0-2.4,0.4-3.4,1c-1.5,1-2.7,2.5-2.7,4.2c0,1.7,1.1,3.2,2.6,4.2
				c1,0.7,2.3,1.1,3.5,1.1h3.3c-0.2,3.2-0.3,4.5-0.5,8.5c0,0.1,0,0.2,0,0.3c-0.2,5-0.5,10.2-0.7,14.8c0,0.6-0.1,1.3-0.1,1.9
				c0,0.1,0,0.1,0,0.2c-0.3,6.5-0.5,11.5-0.6,12.6c-0.5,9.5,13,10.4,13,0.3c0-3.1-0.2-7.7-0.5-12.8c0-0.1,0-0.3,0-0.4
				c0-0.6-0.1-1.2-0.1-1.8c-0.3-4.7-0.7-9.8-1-14.7c0-0.1,0-0.2,0-0.3c-0.3-3.9-0.6-5.2-0.8-8.4h3.3c2.9,0,6.1-2.4,6.1-5.3
				C381.8,372,378.6,369.6,375.6,369.6z"/>
			<g>
				<path class="st5" d="M340,434.5c-14.7,39.4-52.8,67.5-97.3,67.5c-57.4,0-103.9-46.5-103.9-103.9s46.5-103.9,103.9-103.9
					c24.4,0,46.8,8.4,64.6,22.5c-5.1,4.9-11.4,11.2-18.1,17.9c-13-9.5-29.1-15.2-46.4-15.2c-43.4,0-78.7,35.2-78.7,78.7
					s35.2,78.7,78.7,78.7c37.1,0,68.3-25.8,76.5-60.4c6.2,1.4,12.1,2.7,17.5,3.9C336.6,425.4,337.8,430.2,340,434.5z"/>
				<path class="st5" d="M346.5,397.3c-2.6,2.4-4.7,5.3-6.4,8.5c-5.5-0.8-12-1.7-19-2.7c0.1-1.6,0.2-3.3,0.2-4.9
					c0-22.1-9.1-42-23.7-56.3c7.4-7.2,14-13.5,18.1-17.5C334.5,342.9,346.3,368.7,346.5,397.3z"/>
			</g>
			<path class="st5" d="M650.7,398.1c0,57.4-46.5,103.9-103.9,103.9s-103.9-46.5-103.9-103.9c0-41,23.7-76.4,58.2-93.3
				c2.8,6.8,6.2,14.8,9.6,23.4c-25.3,13.1-42.6,39.5-42.6,69.9c0,43.4,35.2,78.7,78.7,78.7c43.4,0,78.7-35.2,78.7-78.7
				s-35.2-78.7-78.7-78.7c-7.9,0-15.5,1.2-22.7,3.3c-3.4-8.8-6.6-16.9-9.2-23.6c10-3.2,20.8-5,31.9-5
				C604.2,294.2,650.7,340.8,650.7,398.1z"/>
			<circle class="st31" cx="242.9" cy="396.9" r="2.7"/>
			<path class="st12" d="M547.3,401.6c-1.5,0-2.8-1.3-2.8-2.8c0-1.5,1.3-2.8,2.8-2.8c1.5,0,2.8,1.3,2.8,2.8
				C550.2,400.3,548.9,401.6,547.3,401.6z"/>
			<path class="st10" d="M563.9,215.3c-1.9-0.7-4-1.2-7.4-0.6c-1.9,0.3-5.7,11.1-10.9,11.7c-5.2,0.6-19.3,0.6-19.3,0.6
				s-13.4-0.6-17.4,0.7c0,0,0,0,0,0c-0.5,0.2-0.9,0.4-1.1,0.6c-2.4,2.2-1.9,5.3,4.9,6.7c0,0,0,0,0,0c0.7,0.1,1.4,0.2,2.1,0.3
				c8,1.4,12.3,0.1,13.5,1.5c1.4,1.6,6.1,6.8,6.3,8.9c0.3,2.1,1.6,16.2-22.3,21.7c-2.4,0.6-5.4,1-8,1.4c-3.1,0.4-5.8,0.7-6.6,0.7
				c-2.6,0.1-3.1,8.9,0.1,9.1c1.2,0.1,4.7-0.1,9.1-0.8c7.6-1.2,17.9-3.6,23-7.6c8.1-6.3,16-17.3,12.8-27.6c0,0-0.1-0.1-0.1-0.1
				c0,0,0.1,0.1,0.1,0.1c0,0,0.7-4.8,5.9-5.8c4.7-0.9,6.4,0,6.4-1.3c0-2.6-0.2-2.3,0.3-2.3c0.3,0,0.1-1.1,2.7,0.3
				c0.8,5.5,2.9,5.8-5,13.2c-3.1,7.7,10.5,19.8,10.5,19.8s0.6-1.1,0.4-2.1s-2.3,0.9-1.9-6.9c0.4-7.8,4.6-21.2,0.7-26.7l-0.1,0
				c0,0,0.1,0,0.1,0s4.3-10.6,4.3-11C568.2,217.8,566.5,216.3,563.9,215.3z M567.4,219.7C567.4,219.7,567.4,219.7,567.4,219.7
				C567.4,219.7,567.4,219.7,567.4,219.7z"/>
			<path class="st4" d="M364.4,402.9"/>
			<path class="st12" d="M552,395.3c-1.4-3.6-15.9-41.7-27.8-72.5c-3.4-8.8-6.6-16.9-9.2-23.6c-1.8-4.5-6.4-16.8-7.7-21.6
				c-4.4,0.7-7.9,0.9-9.1,0.8c-3.2-0.3-2.7-9-0.1-9.1c0.9-0.1,3.5-0.3,6.6-0.7c-2.9-10-6.2-20.4-8.5-23.6h0l-0.1-1.4
				c0,0,0-0.1,0-0.1l0,0c0,0,0.1,1-0.2-3.8c-0.2-3.7,17-4.8,17-4.8c-10-2.1-5.6-7.1-2.9-7.5c-0.7,0.2-27.4,4.1-29.3,5.3
				c-2.5,1.5,2.1,8.1,2.1,10.7h0v4.4c-6.5,0.5-154.7,13.3-154.7,13.3l-17.7-54.5l-13.7-0.7l-2.7,1.2l15.9,57.1v0
				c0.7,12.6,14.8,36.9,8.2,42.4c-1.5,1.2-5.4,5-10.8,10.2c-5.1,4.9-11.4,11.2-18.1,17.9c-19.8,19.7-43,43.2-47.9,48.5
				c-0.7,0.8-2.1,1.5-2.2,6.8c-2.4,1.4-4,3.9-4,6.8c0,4.4,3.5,7.9,7.9,7.9c2.5,0,6.5-3.4,6.2-3c14.7,2.8,44.5,9.1,70,14.7
				c6.2,1.4,12.1,2.7,17.5,3.9v0c0-5.2,1.3-10.2,3.5-14.5c-5.5-0.8-12-1.7-19-2.7c-27.9-4-62.7-8.9-65.9-9.1
				c-5.3-0.4-4.9-5.3-3.7-7.1c0.7-1.1,26.3-25.9,46-45c7.4-7.1,14-13.5,18.1-17.5c2.9-2.8,4.7-4.5,4.7-4.5
				c21.1,19,30,52.7,33.5,72.6c3.4-1.7,7.2-2.9,11.2-3.3c-6.9-23.9-28.9-99.9-32.1-108.6c-3.8-10.3,0.3-11.8,2.3-11.8
				c3.3,0,123.4-9.6,134.5-9.7c2.9,0,7.1,11.5,5.2,14.5c-2.9,4.4-79.1,90.6-101.6,115.9c8.4,1.3,15.7,6,20.6,12.6L486.5,296
				c0,0,4.4-5.3,8.9-4.4c0,0,3.5,7.9,5.7,13.2c2.8,6.8,6.2,14.8,9.7,23.4c12.6,30.8,27.3,67.8,30.3,72.7c0.8,2.1,7.4,2.4,10.2,1
				C553.3,401,552.8,397.4,552,395.3z"/>
			<path class="st5" d="M363.5,452c0,0-0.1,0-0.1,0c-8.4-1.3-15.7-6-20.6-12.6c-2.9-3.9-4.9-8.5-5.7-13.5c-0.3-1.7-0.4-3.5-0.4-5.3
				c0-1.6,0.1-3.1,0.3-4.6c2.2-15.4,15.4-27.2,31.4-27.2c12.4,0,23.2,7.1,28.4,17.5c2.1,4.3,3.3,9.1,3.3,14.2v0
				c0,5.2-1.3,10.2-3.5,14.5c-1.6,3.2-3.8,6-6.4,8.5c-2.2,2.1-4.7,3.9-7.4,5.2c-2.9,1.5-6.1,2.5-9.5,3.1c0.2-5,0.5-10.2,0.7-14.8
				c0-0.6,0.1-1.3,0.1-1.9c0-0.1,0-0.1,0-0.2c5.7-2.3,9.8-7.9,9.8-14.4c0-8.6-7-15.6-15.6-15.6c-6.6,0-12.2,4.1-14.5,9.8
				c-0.7,1.8-1.1,3.7-1.1,5.7c0,2.2,0.4,4.2,1.2,6.1c1.6,3.7,4.6,6.7,8.3,8.3"/>
			<path class="st5" d="M379.6,460.9c-1-0.7-2.3-1.1-3.5-1.1h-3.3c0.2-3.2,0.3-4.5,0.5-8.5c0-0.1,0-0.2,0-0.3
				c0.2-5,0.5-10.2,0.7-14.8c0-0.6,0.1-1.3,0.1-1.9c0-0.1,0-0.1,0-0.2c0.3-6.5,0.5-11.5,0.6-12.6c0.5-9.5-13-10.4-13-0.3
				c0,3.1,0.2,7.7,0.5,12.8c0,0.1,0,0.3,0,0.4c0,0.6,0.1,1.2,0.1,1.8c0.3,4.7,0.7,9.8,1,14.7c0,0.1,0,0.2,0,0.3
				c0.3,3.9,0.6,5.2,0.8,8.4h-3.3c-2.9,0-6.1,2.4-6.1,5.3c0,2.9,3.2,5.3,6.1,5.3h15.1c1.2,0,2.4-0.4,3.4-1c1.5-1,2.7-2.5,2.7-4.2
				C382.2,463.4,381.1,461.9,379.6,460.9z"/>
		</g>
		<path class="st14" d="M456.4,103.9l13.4,82.5l72.1,34.5c5.2,2.3,7.5,8.4,5.1,13.6c-2.3,5.2-8.4,7.5-13.6,5.1L454.6,206l-0.7-0.3
			c-3.6-1.6-6-4.7-6.8-8.2l-28.5-84.2"/>
		<path class="st5" d="M464.4,152.7c0,0-4.2-28.4-7-43.5c-0.2-1.9-0.6-3.7-1.1-5.6c0,0,0-0.1,0-0.1l0,0c-0.2-0.6-0.3-1.1-0.5-1.7
			c-6.9-21.3-29.7-32.9-50.9-26.1c-2.1,0.7-86.5,28.3-89.9,29.9c-8.8,4.1-16.7,9-23.4,14.4l0,0c-21.1,17.1-31.2,40.4-25.9,67.8
			c-0.1-1.3-0.1-1.3,0,0.1c1.3,13.1,10.4,24.7,23.9,28.4c17.5,4.8,35.5-5.4,40.4-22.8c1.4-5.1,8.1-4.6,11.7-8c5.3-5,4-4.2,11.1-7.9
			L367,173l56.4-18.2c0,0,4.1-1.3,6.2-2c0.6-0.2,1.2-0.4,1.8-0.6l3.4,9L464.4,152.7z"/>
		<path class="st13" d="M467.1,64.1l48.6,20.8l-7.9,10.4c0,0-5.4-5.8-13-16.4C491,73.5,467.1,64.1,467.1,64.1z"/>
		<path class="st13" d="M461.7,62.3l7.6,25.4l16-19.6l3.6,2.5c0,0-19.3,20.1-19.4,24c-0.1,3.9,0.4,17.7,0.4,17.7l-3.9,0.6
			c0,0,1.1-16,0.1-20.1c-1-4.1-8.3-30.2-8.3-30.2L461.7,62.3z"/>
		<g>
			<g>
				<g>
					<path class="st13" d="M516,79.6c5.1-2.3,4.6-30.2-13.2-40s-37.2-10.9-37.2-10.9l1.1,4.9L454,35.4l1.1,7.7l-6.7,3.8
						c0,0-2.5,14.8,2.9,16c5.3,1.1,20.1,0.7,24.9-2c0,0,4.1,8.5,10.4,10.1c6.4,1.6,4.7,0,8.6,1.3C499.4,73.6,511.6,81.6,516,79.6z"
						/>
					<path class="st4" d="M516,79.6c5.1-2.3,4.6-30.2-13.2-40s-37.2-10.9-37.2-10.9l1.1,4.9L454,35.4l1.1,7.7l-6.7,3.8
						c0,0-2.5,14.8,2.9,16c5.3,1.1,20.1,0.7,24.9-2c0,0,4.1,8.5,10.4,10.1c6.4,1.6,4.7,0,8.6,1.3C499.4,73.6,511.6,81.6,516,79.6z"
						/>
				</g>
				<g>
					<path class="st17" d="M466.7,42.3c10.1,2.2,28.5,11.3,32.5,22.1L466.7,42.3z"/>
					<path class="st4" d="M466.7,42.3c10.1,2.2,28.5,11.3,32.5,22.1L466.7,42.3z"/>
				</g>
				<g>
					<path class="st17" d="M499.8,49.9c3.8,1.6,10.7,10.4,10.7,14.5L499.8,49.9z"/>
					<path class="st4" d="M499.8,49.9c3.8,1.6,10.7,10.4,10.7,14.5L499.8,49.9z"/>
				</g>
			</g>
		</g>
		<path class="st4" d="M476.7,72.9c-0.1-4.8-5.9-9.2-8.9-0.8c-3.2,8.8,0.1,13.7,4.3,10.7"/>
		<line class="st4" x1="492.8" y1="108.4" x2="488.8" y2="106"/>
		<path class="st4" d="M547.3,461.2c-34.5,0-62.4-27.9-62.4-62.4"/>
		<path class="st14" d="M278.3,210.7l77.9,87.9l-35.2,123.5l0,0l0,0.1c0,0.1,0,0.1-0.1,0.2c-2.2,7.1,1.7,14.6,8.8,16.9
			c7,2.2,14.5-1.7,16.8-8.7h0l47.7-129.4c0-0.1,0.1-0.1,0.1-0.2l0.5-1.2c1.9-5.9,0.8-12-2.6-16.7l0,0l-62.6-110"/>
		<path class="st5" d="M366.8,376.2l-20.4,54.5l-0.1,0.2c-2,6.2-8.3,10.1-15,9c-7.3-1.2-12.3-8.1-11.1-15.5c0.1-0.7,0.3-1.4,0.5-2.1
			l15.4-53L366.8,376.2z"/>
		<polyline class="st5" points="277.7,210.4 321.4,259.4 364.8,235 329.2,172.5 		"/>
		<path class="st15" d="M351.2,418.7c0,0,17.5,22.5,26,26c8.5,3.5,16,5.4,15.7,10.5c-0.3,5.1-14.8,12.7-32.1,6.3
			c-17.3-6.4-15-9.8-32.4-15.6c-17.4-5.8-17.7-9.5-16.7-14.8c1-5.3,8-15.8,11.4-13.5c2,1.4-0.6,8.9,5.2,11.6
			C332.6,431.2,344.2,436.4,351.2,418.7z"/>
		<circle class="st16" cx="358" cy="446" r="2.4"/>
		<circle class="st16" cx="344.7" cy="436.9" r="2.4"/>
		<g>
			<g>
				<path class="st18" d="M368.3,475.4c-28.7,0-52.2-21.8-55.1-49.7"/>
				<g>
					<polygon class="st19" points="317.4,426.6 313,420 309.4,427.2 					"/>
				</g>
			</g>
		</g>
		<line class="st4" x1="431.2" y1="151.8" x2="415.9" y2="111.5"/>
		<line class="st4" x1="291" y1="119.7" x2="366.6" y2="172.7"/>
		<path class="st19" d="M395.9,290.6c1,1.4,2.2,3.2,1.1,8.5c-3.1,14.9-13.6,41.6-18.6,58.7c-1.3,4.5-10,13.2-13.7,26.7
			c-3.7,13.5-13.7,23-9,30.7c4.7,7.7,4.7,12.5,13.2,22.8c1.3,1.5-0.6,4.6-9.1-5.5c-5-6-11.8-13.8-10.9-24.7
			c2.8-35.4,17.5-57.6,24.7-66.7c7.2-9.1,4.2-20.6,9.3-30.6S395.9,290.6,395.9,290.6z"/>
		<path class="st19" d="M281.3,215.6c-1.6-3.5,15.1,0.4,15.1,0.4s40.9,65.9,62.8,75.9c0,0-1.3,7.4-2.4,7.4
			c-2.7,0-18.8-16.8-34.6-28.7C306.3,258.7,292.8,241.3,281.3,215.6z"/>
		<path class="st14" d="M537.8,218.9c3.7,1.4,11.7,4.5,12.3,4.9l7.7,3.1c0,0,2.3,0.9,2.5,1.2l5.8,6.1c0.9,0.9,1,2.3,0.2,3.3
			c-0.9,0.9-2.3,1-3.3,0.2l-3.7-4.5c0,0-4.1-2.7-6.7-3.9c-0.2-0.1,6.6,5.1,6.5,5.1c0.1,0,4.4,7.1,4.4,7.1c0.7,1.1,0.4,2.5-0.6,3.2
			c-1.1,0.7-2.5,0.4-3.2-0.6l-3.7-5.7c0,0-7.3-5.3-6.3-4.3c1.3,1.2,6.2,6.2,6.2,6.2c0.8,1,0.7,2.4-0.3,3.3c-1,0.8-2.4,0.7-3.3-0.3
			c0,0-2.6-2.8-4.4-4.7c-0.2-0.2,3.2,4.3,3.2,4.3c0.8,1,0.7,2.4-0.3,3.3c-1,0.8-2.4,0.7-3.3-0.3l-4.3-4.8c-1,0.3-2.1,0.5-3.3,0.5
			c-1.7,0-10-2.6-10.3-5.5"/>
	</g>
	<g id="texto3">
		<g>
			<text transform="matrix(1 0 0 1 120.852 253.6269)" class="st20 st21 st26">Isquiotibiales</text>
		</g>
		<g>
			<g>
				<line class="st27" x1="253.9" y1="247.8" x2="301.9" y2="247.8"/>
				<g>
					<path class="st28" d="M301.9,248.5c0.4,0,0.8-0.3,0.8-0.8c0-0.4-0.3-0.8-0.8-0.8s-0.8,0.3-0.8,0.8
						C301.1,248.2,301.5,248.5,301.9,248.5z"/>
				</g>
			</g>
		</g>
		<g>
			<g>
				<line class="st27" x1="547.2" y1="165.3" x2="392.4" y2="301.2"/>
				<g>
					<path class="st28" d="M391.9,300.6c-0.3,0.3-0.3,0.7-0.1,1.1s0.7,0.3,1.1,0.1c0.3-0.3,0.3-0.7,0.1-1.1S392.2,300.4,391.9,300.6
						z"/>
				</g>
			</g>
		</g>
		<text transform="matrix(1 0 0 1 551.0131 166.1034)" class="st20 st21 st26">Tibial anterior</text>
	</g>
</g>
<g id="pedaleo4" class="st0">
	<g>
		<rect x="491.6" y="154.1" class="st32" width="135.3" height="56.3"/>
		<text transform="matrix(1 0 0 1 518.9565 174.3466)" class="st1"><tspan x="0" y="0" class="st20 st21 st26">Flexores de </tspan><tspan x="43.4" y="28.5" class="st20 st21 st26">cadera</tspan></text>
	</g>
	<path class="st33" d="M547.1,337.6c34.5,0,62.5,28,62.5,62.5"/>
	<path class="st34" d="M476.9,72.6c-0.1-4.8-5.9-9.2-8.9-0.8c-3.2,8.8,0.1,13.8,4.3,10.7"/>
	<g class="st1">
		<path class="st29" d="M431.6,263.1l-0.3,1.2L400.5,384l-3.7,14.5c-1.3,6-6.6,10.6-13,10.6c-7.4,0.1-13.5-5.9-13.6-13.4
			c0-1,0.1-2,0.3-3c0.2-0.7,0.4-1.4,0.7-2.1c-0.1-0.1-0.2-0.1-0.2-0.2l21.6-121l-104.6-53.2l-6.1-3.1c-15.2-9.9-19.6-30.2-9.7-45.4
			c9.9-15.2,30.2-19.6,45.4-9.7l5.3,4.3l100.7,81.1C429.8,247.5,433.3,255.3,431.6,263.1z"/>
		<polyline class="st10" points="292.8,218.8 359.6,252.7 383.7,211.3 340,176.2 		"/>
		<path class="st10" d="M411.3,341.8l-14.4,56.4l0,0.2c-1.4,6.4-7.2,11-13.9,10.6c-7.4-0.4-13.1-6.8-12.7-14.2
			c0-0.7,0.1-1.4,0.3-2.1l9.7-54.5L411.3,341.8z"/>
		<path class="st30" d="M420.3,420.6c-18.5-0.8-17.3-4.7-35.7-4.9c-18.4-0.1-19.8-3.6-20.4-9c-0.7-5.4,3.1-16.5,6.3-16.4
			c0.1,0,0.3,0,0.4,0.1c0.1,0,0.2,0.1,0.2,0.2c0.5,0.4,1,1.4,1.5,2.6c1.3,2.8,3,6.5,7.6,6.7c3.5,0.1,7.7,0,11.6-2.5
			c1.7-1.1,3.3-2.7,4.8-4.9c1.4-2.2,2.7-5,3.8-8.5c0-0.1,0.1-0.1,0.1-0.2c0,0,21,15.1,30.1,15.8c9.2,0.7,16.9,0.2,18.2,5.1
			C450.2,409.7,438.8,421.4,420.3,420.6z"/>
	</g>
	<path class="st33" d="M305.1,397.1c0,34.5-28,62.5-62.5,62.5"/>
	<path class="st33" d="M180.1,397.1c0-34.5,28-62.5,62.5-62.5"/>
	<g class="st1">
		<g>
			<g>
				<path class="st5" d="M339.9,434.8c-14.8,39.5-52.9,67.6-97.5,67.6c-57.5,0-104.1-46.6-104.1-104.1s46.6-104.1,104.1-104.1
					c24.4,0,46.9,8.4,64.7,22.5c-5.1,4.9-11.4,11.2-18.2,17.9c-13-9.5-29.1-15.2-46.5-15.2c-43.5,0-78.8,35.3-78.8,78.8
					s35.3,78.8,78.8,78.8c37.2,0,68.4-25.8,76.7-60.5c6.2,1.4,12.1,2.7,17.5,3.9C336.5,425.7,337.7,430.6,339.9,434.8z"/>
				<path class="st5" d="M346.4,397.5c-2.6,2.5-4.7,5.3-6.4,8.5c-5.5-0.8-12-1.7-19-2.7c0.1-1.6,0.2-3.3,0.2-4.9
					c0-22.1-9.1-42.1-23.8-56.4c7.4-7.2,14-13.5,18.2-17.6C334.4,343.1,346.2,368.9,346.4,397.5z"/>
			</g>
		</g>
		<path class="st5" d="M651.2,398.4c0,57.5-46.6,104.1-104.1,104.1S443,455.9,443,398.4c0-41.1,23.8-76.5,58.3-93.5
			c2.8,6.8,6.2,14.9,9.7,23.4c-25.4,13.1-42.7,39.5-42.7,70.1c0,43.5,35.3,78.8,78.8,78.8c43.5,0,78.8-35.3,78.8-78.8
			s-35.3-78.8-78.8-78.8c-7.9,0-15.5,1.2-22.7,3.3c-3.4-8.8-6.6-17-9.2-23.6c10.1-3.2,20.8-5,31.9-5
			C604.6,294.3,651.2,340.9,651.2,398.4z"/>
		<circle class="st31" cx="242.6" cy="397.1" r="2.7"/>
		<path class="st12" d="M550.5,399c0,1.6-1.3,2.8-2.8,2.8c-1.6,0-2.8-1.3-2.8-2.8c0-1.6,1.3-2.8,2.8-2.8
			C549.2,396.2,550.5,397.5,550.5,399z"/>
		<path class="st10" d="M567.9,219.7c0.6-2-1-3.5-3.6-4.4c-1.9-0.7-4-1.2-7.4-0.6c-1.9,0.3-5.7,11.1-10.9,11.7
			c-5.2,0.6-19.3,0.6-19.3,0.6s0,0,0.1,0.1c0,0,0,0,0,0c-2.1-0.6-13.5-0.7-17.5,0.6c0,0,0,0,0,0c-0.5,0.2-0.9,0.4-1.1,0.6
			c-2.4,2.2-1.9,5.4,4.9,6.7c0,0,0,0,0,0c0.7,0.1,1.4,0.2,2.2,0.3c8.1,1.4,12.3,0.1,13.5,1.5c1.4,1.6,6.1,6.8,6.4,8.9
			c0.3,2.1,1.6,16.3-22.3,21.7c-2.5,0.6-5.4,1-8,1.4c-3.1,0.4-5.8,0.7-6.7,0.7c-2.6,0.1-3.1,8.9,0.1,9.2c1.2,0.1,4.7-0.1,9.1-0.8
			c7.7-1.2,17.9-3.6,23.1-7.6c8.1-6.4,16-17.3,12.9-27.6c0,0-0.1-0.1-0.1-0.1c0,0,0.1,0.1,0.1,0.1c0,0,0.7-4.8,5.9-5.8
			c4.7-0.9,6.4,0,6.4-1.3c0-2.6-0.2-2.3,0.3-2.3c0.3,0,0.1-1.1,2.7,0.3c0.3-0.2,0,0,0,0c0.8,5.5,2.9,5.8-5,13.2
			c-3.1,7.7,10.5,19.8,10.5,19.8s0.6-1.1,0.4-2.1s-2.3,0.9-1.9-6.9c0.4-7.8,4.6-21.2,0.7-26.8C563.6,230.7,567.9,220,567.9,219.7
			L567.9,219.7z"/>
		<path class="st4" d="M372.3,437.4"/>
		<path class="st12" d="M552.3,395.6c-1.4-3.6-16-41.8-27.9-72.7c-3.4-8.8-6.6-17-9.2-23.6c-1.8-4.6-6.4-16.9-7.8-21.6
			c-4.4,0.7-8,0.9-9.1,0.8c-3.3-0.3-2.7-9-0.1-9.2c0.9-0.1,3.5-0.3,6.7-0.7c-2.9-10-6.2-20.5-8.5-23.6h0l-0.1-1.4c0,0,0-0.1,0-0.1
			l0,0c0,0,0.1,1-0.2-3.8c-0.2-3.7,17-4.8,17-4.8c-10-2.1-5.6-7.1-2.9-7.6c-0.7,0.2-27.4,4.1-29.4,5.3c-2.5,1.5,2.1,8.1,2.1,10.7h0
			v4.4c-6.5,0.5-155,13.3-155,13.3l-17.8-54.6l-13.8-0.7l-2.7,1.2l16,57.2v0c0.7,12.6,14.9,37,8.2,42.5c-1.5,1.2-5.4,5-10.8,10.2
			c-5.1,4.9-11.4,11.2-18.2,17.9c-19.8,19.7-43.1,43.3-48,48.6c-0.7,0.9-2.1,1.7-2.2,6.8c-2.4,1.4-4,3.9-4,6.9
			c0,4.4,3.5,7.9,7.9,7.9c2.5,0,4.8-1.2,6.2-3c14.7,2.8,44.6,9.1,70.2,14.7c6.2,1.4,12.1,2.7,17.5,3.9v0c0-5.2,1.3-10.2,3.5-14.6
			c-5.5-0.8-12-1.7-19-2.7c-27.9-4-62.9-8.9-66-9.1c-5.3-0.4-4.9-5.3-3.7-7.1c0.7-1.1,26.3-25.9,46.1-45.1
			c7.4-7.2,14-13.5,18.2-17.6c2.9-2.9,4.7-4.5,4.7-4.5c21.1,19,30,52.6,33.6,72.4c3.4-1.8,7.2-2.9,11.2-3.3
			c-6.9-24-28.9-99.9-32.2-108.6c-3.8-10.4,0.3-11.9,2.4-11.9c3.4,0,123.6-9.6,134.8-9.7c2.9,0,7.1,11.5,5.2,14.5
			c-2.9,4.4-79.3,90.5-101.8,115.9c8.4,1.3,15.8,6,20.6,12.6l92.8-105.7c0,0,4.4-5.3,8.9-4.4c0,0,0,0,0,0.1
			c1.5,3.3,3.5,7.9,5.7,13.2c2.9,6.8,6.2,14.9,9.7,23.4c12.6,30.9,27.4,67.9,30.3,72.8c0.8,2.1,7.4,2.4,10.2,1
			C553.7,401.2,553.1,397.6,552.3,395.6z"/>
		<g>
			<path class="st8" d="M429.1,415.4H414c-1.2,0-2.4,0.4-3.4,1c-3.4-0.2-7.4-0.3-11.5-0.5c-5.1-0.2-10.4-0.5-15.1-0.7
				c-0.6,0-1.3-0.1-1.9-0.1c-6.6-0.3-11.7-0.6-12.8-0.6c-9.5-0.5-10.5,13-0.3,13c3.2,0,7.9-0.2,13.3-0.6c0.6,0,1.2-0.1,1.9-0.1
				c4.8-0.3,10.1-0.7,15.1-1.1c4-0.3,7.9-0.6,11.3-0.9c1,0.7,2.3,1.1,3.5,1.1h15.1c2.9,0,6.2-2.4,6.2-5.3
				C435.3,417.8,432,415.4,429.1,415.4z"/>
			<path class="st5" d="M336.5,420.6c0-1.6,0.1-3.1,0.3-4.6c2.2-15.4,15.5-27.2,31.5-27.2c12.4,0,23.2,7.1,28.4,17.6
				c2.1,4.3,3.4,9.1,3.4,14.2v0c0,5.2-1.3,10.2-3.5,14.6c-1.6,3.2-3.8,6.1-6.4,8.5c-2.2,2.1-4.7,3.9-7.4,5.2
				c-3.4,1.8-7.2,2.9-11.2,3.3c-1.1,0.1-2.2,0.2-3.3,0.2c-1.7,0-3.4-0.1-5-0.4c-8.4-1.3-15.8-6-20.6-12.6c-2.9-3.9-4.9-8.5-5.7-13.5
				C336.6,424.1,336.5,422.4,336.5,420.6z M353.9,426.7c2.4,5.6,7.9,9.5,14.4,9.5c8.6,0,15.6-7,15.6-15.6s-7-15.6-15.6-15.6
				c-6.6,0-12.2,4.1-14.5,9.9c-0.7,1.8-1.1,3.7-1.1,5.7C352.7,422.7,353.1,424.8,353.9,426.7z"/>
			<circle class="st35" cx="314.4" cy="421.1" r="2.3"/>
			<path class="st5" d="M366.5,414.3c-3.2,0-7.9,0.2-13.3,0.6c-0.6,0-1.2,0.1-1.9,0.1c-4.8,0.3-10.1,0.7-15.1,1.1
				c-3.9,0.3-7.6,0.6-10.9,0.8c-1-0.7-2.3-1.1-3.4-1.1h-15.1c-2.9,0-6.2,2.4-6.2,5.3c0,2.9,3.2,5.3,6.2,5.3H322c1.2,0,2.3-0.4,3.4-1
				c3.3,0.2,7.1,0.3,11.1,0.5c5.1,0.2,10.4,0.5,15.1,0.7c0.6,0,1.3,0.1,1.9,0.1c6.6,0.3,11.7,0.6,12.8,0.6
				C375.7,427.7,376.7,414.2,366.5,414.3z"/>
		</g>
	</g>
	<path class="st36" d="M456.5,103.5l13.5,82.7l72.3,34.6c5.2,2.3,7.5,8.4,5.1,13.6c-2.3,5.2-8.4,7.5-13.6,5.1l-79.1-33.7l-0.7-0.3
		c-3.6-1.6-6-4.7-6.8-8.3l-28.5-84.4"/>
	<path class="st37" d="M456.4,103.2c2.6,11.8,8.1,49.3,8.1,49.3l-29.6,8.5l-18.7-49.3"/>
	<line class="st38" x1="431.5" y1="152" x2="416.2" y2="111.7"/>
	<path class="st39" d="M464.5,152.5c0,0-4.2-28.5-7-43.6c-0.2-1.9-0.6-3.7-1.1-5.6c0,0,0-0.1,0-0.1l0,0c-0.2-0.6-0.3-1.1-0.5-1.7
		c-6.9-21.3-29.7-33-51-26.1c-2.1,0.7-86.7,28.4-90,30c-8.8,4.2-16.7,9-23.5,14.5l0,0c-21.1,17.2-31.3,40.5-26,67.9
		c-0.1-1.3-0.1-1.3,0,0.1c1.3,13.1,10.4,24.7,23.9,28.5c17.5,4.8,35.6-5.4,40.5-22.9c1.4-5.1,7.4-4.6,11-8.1c5.3-5,4.3-5.5,11.8-7.9
		l14.3-4.6l56.5-18.3c0,0,4.1-1.3,6.3-2c0.6-0.2,1.2-0.4,1.8-0.6l3.4,9L464.5,152.5z"/>
	<path class="st36" d="M512.2,78.7c0-17.9-14.5-32.5-32.5-32.5c-9.1,0-17.4,3.8-23.3,9.8c-1.7,1.7-3.2,3.7-4.5,5.8
		c-0.9,1.5-1.7,3.1-2.4,4.7c-0.2,0.8-0.4,1.5-0.8,2.1c-0.6,1.1-1.3,1.8-2.1,2.5c-3.1,2.6-6.8,4.7-11.2,4.7c-1.4,0-6.8-0.9-8.4-1.2
		c5.3,1.4,11.4,4.3,15.4,7.6c1.5,1.2,6.8,5.6,10.1,11.8c3,5.7,4.6,12.9,4.9,14.3l2.1,14.1c0-0.4,2.7-14.2,9.9-13c0,0,0,0,0,0
		c0.1,0,0.2,0,0.3,0.1c0.1,0,0.1,0,0.2,0.1c0.3,0.1,0.7,0.2,1,0.3c1.1,0.3,2.2,0.6,3.4,0.8c1.7,0.3,3.5,0.4,5.3,0.4
		c7.9,0,15.2-2.8,20.8-7.6c2.5,1.3,6.5,3.1,6.8,1.9c0.7-2.8,0.6-7.2,0.3-10.3C510.6,90.4,512.2,84.7,512.2,78.7z"/>
	<path class="st37" d="M467.2,63.7L516,84.5L508,94.9c0,0-5.4-5.8-13-16.4C491.2,73.1,467.2,63.7,467.2,63.7z"/>
	<path class="st37" d="M461.9,61.9l7.6,25.5l16-19.6l3.6,2.5c0,0-19.3,20.2-19.5,24c-0.1,3.9,0.4,17.7,0.4,17.7l-3.9,0.6
		c0,0,1.1-16,0.1-20.2c-1-4.1-8.3-30.3-8.3-30.3L461.9,61.9z"/>
	<line class="st33" x1="492.9" y1="108.1" x2="489" y2="105.7"/>
	<path class="st33" d="M547.6,461.5c-34.5,0-62.5-28-62.5-62.5"/>
	<g class="st1">
		<path class="st14" d="M327.4,167.2l84.4,97.8c7.5,7,7.9,18.8,1,26.3l-0.9,0.9l-97.5,98.4c-4.4,4.8-11.7,5.8-17.3,2.1
			c-6.2-4.1-8-12.4-3.9-18.7c0.4-0.6,0.9-1.2,1.4-1.7l0,0l77.4-90.8l-88.7-67.5"/>
		<polyline class="st5" points="327,166.7 376.1,223.6 344.5,260.5 282.6,213.7 		"/>
		<path class="st5" d="M355.6,349.2l-41.1,41.2l-0.1,0.1c-4.4,4.8-11.8,5.8-17.4,2.1c-6.2-4.1-7.9-12.5-3.7-18.7
			c0.4-0.6,0.9-1.2,1.3-1.7l36-42L355.6,349.2z"/>
		<path class="st15" d="M325.1,379.5c0,0,9.1,25.8,16.3,31.5c7.2,5.7,14,9.6,12.3,14.4c-1.7,4.8-17.8,8.2-32.7-2.7
			c-14.9-10.9-11.8-13.6-26.9-23.9c-15.2-10.3-14.5-14-12-18.8c2.5-4.8,11.2-13.5,14.8-10.3c1.8,1.6-4.4,9.1,4.2,14.4
			C309.9,390.2,320.3,385.5,325.1,379.5z"/>
	</g>
	<circle class="st40" cx="321" cy="406.9" r="2.4"/>
	<circle class="st40" cx="311.6" cy="393.9" r="2.4"/>
	<g class="st1">
		<g>
			<g>
				<path class="st13" d="M516.2,79.2c5.1-2.3,4.6-30.2-13.2-40s-37.3-10.9-37.3-10.9l1.1,4.9L454.1,35l1.1,7.7l-6.7,3.8
					c0,0-2.5,14.8,2.9,16c5.3,1.1,20.2,0.7,25-2c0,0,4.1,8.5,10.5,10.1c6.4,1.6,4.7,0,8.7,1.3C499.6,73.2,511.8,81.2,516.2,79.2z"/>
				<path class="st4" d="M516.2,79.2c5.1-2.3,4.6-30.2-13.2-40s-37.3-10.9-37.3-10.9l1.1,4.9L454.1,35l1.1,7.7l-6.7,3.8
					c0,0-2.5,14.8,2.9,16c5.3,1.1,20.2,0.7,25-2c0,0,4.1,8.5,10.5,10.1c6.4,1.6,4.7,0,8.7,1.3C499.6,73.2,511.8,81.2,516.2,79.2z"/>
			</g>
			<g>
				<path class="st17" d="M466.8,41.8c10.1,2.2,28.5,11.4,32.5,22.1L466.8,41.8z"/>
				<path class="st4" d="M466.8,41.8c10.1,2.2,28.5,11.4,32.5,22.1L466.8,41.8z"/>
			</g>
			<g>
				<path class="st17" d="M500.1,49.4c3.8,1.6,10.7,10.5,10.7,14.5L500.1,49.4z"/>
				<path class="st4" d="M500.1,49.4c3.8,1.6,10.7,10.5,10.7,14.5L500.1,49.4z"/>
			</g>
		</g>
	</g>
	<path class="st33" d="M477.4,74.9c-0.1-4.8-5.9-9.2-8.9-0.8c-3.2,8.8,0.1,13.7,4.3,10.7"/>
	<g class="st1">
		<g>
			<path class="st18" d="M312.4,421.1c0-28.7,21.8-52.2,49.7-55.1"/>
			<g>
				<polygon class="st19" points="361.1,370.1 367.8,365.7 360.6,362.1 				"/>
			</g>
		</g>
	</g>
	<path class="st36" d="M537.7,218.7c3.7,1.4,11.7,4.5,12.4,4.9l7.7,3.1c0,0,2.3,0.9,2.5,1.2l5.8,6.1c0.9,0.9,1,2.3,0.2,3.3
		c-0.9,0.9-2.3,1-3.3,0.2l-3.7-4.5c0,0-4.1-2.8-6.7-3.9c-0.2-0.1,6.6,5.1,6.5,5.1c0.1,0,4.4,7.1,4.4,7.1c0.7,1.1,0.4,2.5-0.6,3.2
		c-1.1,0.7-2.5,0.4-3.2-0.6l-3.7-5.7c0,0-7.3-5.3-6.3-4.3c1.3,1.2,6.2,6.3,6.2,6.3c0.8,1,0.7,2.4-0.3,3.3c-1,0.8-2.4,0.7-3.3-0.3
		c0,0-2.6-2.8-4.4-4.7c-0.2-0.2,3.2,4.3,3.2,4.3c0.8,1,0.7,2.4-0.3,3.3c-1,0.8-2.4,0.7-3.3-0.3l-4.3-4.8c-1,0.3-2.1,0.5-3.3,0.5
		c-1.7,0-10-2.6-10.3-5.5"/>
	<line class="st33" x1="291.3" y1="119.9" x2="367" y2="172.9"/>
	<path class="st41" d="M316.9,142.3c-2.8,1.2,3.9,19.1-3.3,29c-7.2,9.9,8.1,25.8,8.1,25.8s14.6,5.4,13.9,4.6
		c-0.6-0.8,8.1-13.3,1-22.8c-2.6-3.4-2.3-3.7-0.8-1.9c2.4,2.8,6.3,7.3,6.3,7.3l-5.3-18.4L316.9,142.3z"/>
	<g>
		<g class="st1">
			<line class="st27" x1="499.3" y1="166" x2="330.5" y2="166"/>
			<g>
				<path class="st28" d="M330.5,165.3c-0.4,0-0.8,0.3-0.8,0.8s0.3,0.8,0.8,0.8c0.4,0,0.8-0.3,0.8-0.8S330.9,165.3,330.5,165.3z"/>
			</g>
		</g>
	</g>
	<g id="texto4_00000011028988058625258760000008081351682956978855_">
		<g id="texto4" class="st1">
			<g>
				<circle class="st28" cx="3391.2" cy="989.8" r="21.1"/>
				
					<text transform="matrix(1 0 0 1 3383.8071 999.4071)" style="fill:#FFFFFF; font-family:'BarlowSemiCondensed-SemiBold'; font-size:28.5176px;">4</text>
			</g>
			
				<text transform="matrix(1 0 0 1 3433.5581 1003.3202)" class="st20" style="font-family:'BarlowSemiCondensed-Light'; font-size:42.1283px;">Avance</text>
		</g>
		<g class="st1">
			<rect x="3243.9" y="1048" class="st11" width="432.2" height="55.9"/>
			<text transform="matrix(1 0 0 1 3243.8774 1064.3859)"><tspan x="0" y="0" class="st20" style="font-family:'BarlowSemiCondensed-Light'; font-size:23.4497px;">Fin del ciclo, el ciclista debe prepararse para el </tspan><tspan x="0" y="29.3" class="st20" style="font-family:'BarlowSemiCondensed-Light'; font-size:23.4497px;">siguiente empuje.</tspan></text>
		</g>
	</g>
	<line class="st33" x1="431.5" y1="152.2" x2="416.2" y2="112"/>
</g>
</svg>
