<?xml version="1.0" encoding="utf-8"?>
<!-- Generator: Adobe Illustrator 22.0.1, SVG Export Plug-In . SVG Version: 6.00 Build 0)  -->
<svg version="1.1" id="Capa_1" xmlns="http://www.w3.org/2000/svg" xmlns:xlink="http://www.w3.org/1999/xlink" x="0px" y="0px"
	 viewBox="0 0 600 500" style="enable-background:new 0 0 600 500;" xml:space="preserve">
<style type="text/css">
	.st0{fill:none;stroke:#6F6B6A;stroke-width:0.1;stroke-miterlimit:10;}
	.st1{fill:#BEBBBC;}
	.st2{fill:none;stroke:#1D1D1B;stroke-width:1.000000e-02;stroke-linecap:round;stroke-miterlimit:10;}
	.st3{fill:#C6C6C5;}
	.st4{fill:#A19D9D;}
	.st5{fill:#6F6B6A;}
	.st6{fill:none;stroke:#6F6B6A;stroke-width:1.000000e-02;stroke-miterlimit:10;}
	.st7{fill:#ECECEC;}
	.st8{fill:#DDDBDC;}
	.st9{fill:#1D1D1B;}
	.st10{fill:#868282;}
	.st11{fill:#575756;}
	.st12{fill:none;stroke:#6F6B6A;stroke-width:1.000000e-04;stroke-miterlimit:10;}
	.st13{fill:#ECECEC;stroke:#6F6B6A;stroke-width:1.000000e-04;stroke-miterlimit:10;}
	.st14{fill:#43413F;}
	.st15{fill:#585554;}
	.st16{fill:none;stroke:#CC1719;stroke-linecap:round;stroke-miterlimit:10;}
	.st17{fill:#CC1719;}
	.st18{fill:#1E1E1C;}
	.st19{font-family:'ArialMT';}
	.st20{font-size:18px;}
	.st21{fill:none;stroke:#1D1D1B;stroke-width:0.25;stroke-linecap:round;stroke-miterlimit:10;}
</style>
<g id="Capa_1_1_">
</g>
<g id="Capa_2_1_">
</g>
<g id="Capa_3">
</g>
<g id="Capa_4">
	<g id="grafica4">
		<path class="st0" d="M428.4,260.8c29,0,52.6,23.5,52.6,52.6"/>
		<path class="st1" d="M276.9,122.2l47.5-15.4c0,0,3.5-1.1,5.3-1.7c17.9-5.8,27.8-25,22-42.9s-25-27.8-42.9-22
			c-1.8,0.6-72.9,23.9-75.7,25.2c-7.4,3.5-14,7.6-19.7,12.2L276.9,122.2z"/>
		<path class="st2" d="M369.4,37.9c-0.1-4-4.9-7.7-7.5-0.7c-2.7,7.4,0.1,11.6,3.7,9"/>
		<g>
			<path class="st3" d="M331.3,198.1l-0.3,1l-25.9,100.6l-3.1,12.2c-1.1,5.1-5.6,8.9-11,8.9c-6.3,0.1-11.4-5-11.4-11.2
				c0-0.9,0.1-1.7,0.3-2.5c0.1-0.6,0.3-1.2,0.5-1.8c-0.1-0.1-0.1-0.1-0.2-0.1l18.1-101.8l-88-44.7l-5.1-2.6
				c-12.8-8.3-16.5-25.4-8.2-38.2s25.4-16.5,38.2-8.2l4.5,3.6l84.7,68.2C329.8,185,332.7,191.5,331.3,198.1z"/>
			<polyline class="st4" points="214.6,160.8 270.7,189.4 291,154.6 254.3,125 			"/>
			<path class="st4" d="M314.3,264.3l-12.1,47.5v0.1c-1.2,5.4-6.1,9.2-11.7,8.9c-6.3-0.3-11-5.7-10.7-11.9c0-0.6,0.1-1.2,0.2-1.8
				l8.1-45.8L314.3,264.3z"/>
			<path class="st5" d="M321.8,330.5c-15.5-0.7-14.6-4-30-4.1s-16.7-3-17.2-7.5s2.6-13.9,5.3-13.8c0.1,0,0.2,0,0.3,0.1
				c0.1,0,0.1,0.1,0.2,0.1c0.5,0.4,0.8,1.2,1.3,2.2c1.1,2.3,2.6,5.5,6.4,5.6c2.9,0.1,6.5,0,9.8-2.1c1.4-0.9,2.8-2.3,4.1-4.1
				c1.2-1.8,2.3-4.2,3.2-7.2c0-0.1,0-0.1,0.1-0.2c0,0,17.7,12.7,25.3,13.3c7.7,0.6,14.3,0.1,15.3,4.3
				C347,321.3,337.3,331.2,321.8,330.5z"/>
		</g>
		<path class="st6" d="M225,310.8c0,29-23.5,52.6-52.6,52.6"/>
		<path class="st6" d="M119.8,310.8c0-29,23.5-52.6,52.6-52.6"/>
		<path class="st7" d="M399.1,43c0,15.1-12.2,27.3-27.3,27.3c-1.5,0-3-0.1-4.4-0.4c-1-0.2-1.9-0.4-2.9-0.6c-0.3-0.1-0.5-0.2-0.8-0.2
			c-0.1,0-0.1,0-0.2-0.1c-0.1,0-0.2-0.1-0.2-0.1l0,0c-6.1-1-8.4,10.5-8.4,10.9L353.1,68c-0.2-1.2-1.6-7.2-4.1-12
			c-2.7-5.3-7.2-8.9-8.5-10c-3.4-2.8-8.5-5.3-13-6.4c1.3,0.3,5.9,1,7.1,1c3.7,0,6.8-1.7,9.4-3.9c0.7-0.6,1.3-1.2,1.8-2.1
			c0.3-0.5,0.5-1.1,0.6-1.8c0.6-1.4,1.2-2.7,2-4c1.1-1.8,2.3-3.4,3.8-4.9c5-5.1,11.9-8.3,19.6-8.3C386.9,15.7,399.1,28,399.1,43z"/>
		<g>
			<g>
				<g>
					<path class="st1" d="M254.2,342.5c-12.4,33.2-44.5,56.9-82,56.9c-48.3,0-87.5-39.2-87.5-87.5s39.2-87.5,87.5-87.5
						c20.6,0,39.5,7.1,54.4,19c-4.3,4.2-9.6,9.4-15.3,15.1c-11-8-24.5-12.8-39.1-12.8c-36.6,0-66.3,29.7-66.3,66.3
						s29.7,66.3,66.3,66.3c31.3,0,57.5-21.7,64.5-50.9c5.2,1.1,10.2,2.2,14.7,3.3C251.3,334.8,252.4,338.9,254.2,342.5z"/>
					<path class="st1" d="M259.7,311.1c-2.2,2.1-4,4.5-5.4,7.1c-4.6-0.7-10.1-1.4-16-2.3c0.1-1.4,0.1-2.8,0.1-4.1
						c0-18.6-7.7-35.4-20-47.4c6.2-6,11.8-11.4,15.3-14.8C249.6,265.3,259.5,287.1,259.7,311.1z"/>
				</g>
			</g>
			<path class="st1" d="M516,311.9c0,48.3-39.2,87.5-87.5,87.5S341,360.2,341,311.9c0-34.5,20-64.4,49-78.6
				c2.4,5.7,5.2,12.5,8.1,19.7c-21.3,11-35.9,33.3-35.9,58.9c0,36.6,29.7,66.3,66.3,66.3s66.3-29.7,66.3-66.3s-29.7-66.3-66.3-66.3
				c-6.7,0-13.1,1-19.1,2.8c-2.9-7.4-5.5-14.3-7.7-19.9c8.5-2.7,17.5-4.2,26.9-4.2C476.8,224.3,516,263.5,516,311.9z"/>
			<path class="st8" d="M397.8,219.1L397.8,219.1c-0.6-0.1-1.6-0.1-2.7,0.1c-0.1,0-0.3,0-0.4,0.1c-2.1,0.3-4.5,0.9-6.4,1.4
				c-0.1,0-0.3,0.1-0.4,0.1s-0.3,0.1-0.4,0.1c-0.3,0.1-0.5,0.2-0.8,0.3c-0.7,0.3-1.3,0.5-1.5,0.7l-0.1,0.1l0,0
				c-3.7-0.7-7.5,3.7-7.5,3.7l-78,88.9c-4.1-5.5-10.2-9.5-17.3-10.6c19-21.4,83.2-93.7,85.6-97.4c1.6-2.5-1.9-12.2-4.4-12.2
				c-9.4,0.1-110.5,8.2-113.3,8.2c-1.8,0-5.2,1.3-2,10c2.7,7.3,21.2,71.1,27,91.3c-3.4,0.3-6.5,1.3-9.4,2.8
				c-3-16.7-10.5-44.9-28.2-60.9c0,0-1.5,1.4-4,3.8c-3.5,3.4-9.1,8.8-15.3,14.8c-16.7,16.1-38.2,37-38.8,37.9c-1,1.5-1.3,5.6,3.1,6
				c2.7,0.2,32,4.3,55.5,7.7c5.9,0.8,11.4,1.6,16,2.3c-1.9,3.7-3,7.8-3,12.2l0,0c-4.5-1-9.5-2.1-14.7-3.3c-21.5-4.7-46.6-10-59-12.4
				c0.9-1.1,1.4-2.5,1.4-4.1c0-3.7-3-6.6-6.6-6.6c-1.2,0-2.3,0.3-3.3,0.9c0.1-4.3,1.3-5,1.9-5.8c4.1-4.5,23.7-24.3,40.3-40.9
				c5.7-5.6,11-10.9,15.3-15.1c4.5-4.4,7.8-7.5,9.1-8.6c5.6-4.6-6.3-25.1-6.9-35.7l14.6-2.5l0,0c36.8-4.6,125.6-11,131-11.3l0,0
				c0.2,0,0.3,0,0.3,0s0.3-0.1,0.7-0.2l0,0l10.3-2.1c1.9,2.6,4.7,11.5,7.1,19.9c-2.6,0.3-4.9,0.5-5.6,0.6c-2.2,0.1-2.6,7.5,0.1,7.7
				c1,0.1,4-0.1,7.7-0.7C396.2,214.4,397.2,217.6,397.8,219.1z"/>
			<circle class="st9" cx="172.4" cy="310.8" r="2.2"/>
			<path class="st8" d="M432.8,309.5c-1.2-3-13.4-35.1-23.5-61.1c-2.9-7.4-5.5-14.3-7.7-19.9c-1.5-3.8-2.8-7.1-3.8-9.4
				c0,0,0,0-0.1,0c-0.7-0.1-1.6,0-2.6,0.1c-0.1,0-0.3,0-0.4,0.1c-2,0.3-4.5,0.9-6.4,1.4c-0.1,0-0.3,0.1-0.4,0.1s-0.3,0.1-0.4,0.1
				c-0.3,0.1-0.5,0.2-0.8,0.3c-0.7,0.3-1.2,0.5-1.5,0.7l-0.1,0.1v0.1c1.3,2.8,2.9,6.6,4.8,11.1c2.4,5.7,5.2,12.5,8.1,19.7
				c10.6,25.9,23,57.1,25.5,61.2c0.7,1.8,6.2,2,8.6,0.9C434,314.2,433.5,311.2,432.8,309.5z"/>
			<path class="st8" d="M431.3,312.4c0,1.3-1.1,2.4-2.4,2.4s-2.4-1.1-2.4-2.4s1.1-2.4,2.4-2.4S431.3,311.1,431.3,312.4z"/>
			<path class="st8" d="M385.7,182.9L385.7,182.9l-10.3,2.1l0,0l-0.9,0.2l0,0v-3.7l11.2,0.2c0,0,0,0,0,0.1L385.7,182.9L385.7,182.9z
				"/>
			<path class="st4" d="M414.5,204c-4.3,3.4-13,5.4-19.4,6.4c-3.7,0.6-6.7,0.8-7.7,0.7c-2.7-0.2-2.3-7.6-0.1-7.7
				c0.7,0,3-0.2,5.6-0.6c2.2-0.3,4.7-0.7,6.7-1.1c20.1-4.6,19-16.5,18.8-18.3c-0.2-1.7-4.2-6.1-5.3-7.5c-1-1.1-4.6-0.1-11.4-1.2
				c-0.7-0.1-1.3-0.2-1.8-0.3l0,0c-5.8-1.1-6.2-3.8-4.2-5.6c0.2-0.2,0.5-0.3,1-0.5l0,0c3.4-1.1,12.9-1,14.7-0.5
				c0.2,0,0.3,0.1,0.3,0.1c0.2,0.4,0.9,1.3,1.9,2.5c0.1,0.1,0.2,0.2,0.2,0.3c1.3,1.6,3.3,3.6,5.8,5.8c0.1,0.1,0.2,0.2,0.3,0.3
				c1.6,1.3,3.4,2.7,5.5,4C428,189.4,421.3,198.6,414.5,204z"/>
			<path class="st8" d="M372.7,172.4c1.6-1,24.1-4.3,24.7-4.5c-2.3,0.4-6,4.6,2.4,6.4c0,0-14.5,1-14.3,4.1c0.2,4.1,0.2,3.2,0.2,3.2
				l-11.2-0.2C374.4,179.3,370.6,173.7,372.7,172.4z"/>
			<path class="st4" d="M442.9,200.9c0,0,0.5-0.9,0.3-1.7s-1.9,0.7-1.6-5.8s3.9-17.9,0.6-22.5l-4,2.3c0.7,4.6,2.4,4.9-4.2,11.1
				C431.4,190.7,442.9,200.9,442.9,200.9z"/>
			<path class="st4" d="M445.9,161.6c0,0-3.9-1-4.5-0.2c-0.6,0.9-6.4,11.4-5.4,11.5c0.3,0,0.1-0.9,2.3,0.2c1.4-0.8,4-2.3,4-2.3
				S445.9,161.9,445.9,161.6z"/>
			<path class="st4" d="M442.3,170.8l3.6-9.3c0,0-3.9-1-4.5-0.2"/>
			<path class="st4" d="M445.9,161.6c0.5-1.7-0.8-2.9-3-3.7c-1.6-0.6-3.4-1-6.2-0.5c-1.6,0.3-4.8,9.3-9.2,9.8s-16.3,0.5-16.3,0.5
				s5.9,8,14,13.1c0,0,0.6-4,5-4.9c4-0.7,5.4,0,5.4-1.1c0-2.2,0-2.7,2.7-7.9c1-2,2.2-4.1,3-5.4C441.9,160.5,445.9,161.6,445.9,161.6
				z"/>
			<polygon class="st8" points="244.1,196.4 243.4,196.5 243.4,196.5 228.7,199 228.7,199 227.3,192.8 242.3,192.4 			"/>
			<polygon class="st8" points="229.1,150.2 242.3,192.4 227.3,192.8 215.3,150.6 217.5,149.6 			"/>
			<path class="st4" d="M192.5,143.9c7.4,0.4,13.2-0.2,17.9,5.4c4.5,5.3,12-4.8,18.3-6.2c9.2-2.1,24.4,0.4,25.8-0.6
				c1-0.7,3.7-3-10.6-3.2c-14.4-0.2-36.7-0.1-49.4-0.4C191.6,138.9,189.7,142.5,192.5,143.9z"/>
			<path class="st4" d="M246.2,142.5c0,0-10.9,7.1-11.9,7.4c-3.2,0.9-16.9-0.3-16.9-0.3l3.1-1.9c0,0,10.2,0.9,13.3,0.1
				c3-0.9,9.1-5.5,9.1-5.5L246.2,142.5z"/>
			<path class="st8" d="M179,310.8c0,1.5-0.5,3-1.4,4.1c-1.2,1.6-3.1,2.6-5.2,2.6c-3.7,0-6.6-3-6.6-6.6c0-2.5,1.3-4.6,3.3-5.8
				c1-0.6,2.1-0.9,3.3-0.9C176,304.1,179,307.1,179,310.8z"/>
			<g>
				<path class="st10" d="M313.6,334.1c-2.8,0.2-6.1,0.5-9.5,0.7c-4.2,0.3-8.6,0.6-12.7,0.9c-0.5,0-1,0.1-1.6,0.1
					c-4.5,0.3-8.5,0.5-11.1,0.5c-8.6,0-7.8-11.3,0.2-10.9c1,0,5.2,0.3,10.8,0.5c0.5,0,1,0.1,1.6,0.1c4,0.2,8.4,0.4,12.7,0.6
					c3.5,0.2,6.8,0.3,9.7,0.5c-1.3,0.8-2.2,2.1-2.2,3.6C311.4,332.1,312.3,333.3,313.6,334.1z"/>
				<path class="st10" d="M334.4,330.6c0,2.4-2.7,4.4-5.2,4.4h-12.7c-1,0-2.1-0.3-2.9-0.9c-1.2-0.8-2.2-2.1-2.2-3.5
					c0-1.5,0.9-2.8,2.2-3.6c0.9-0.5,1.9-0.9,2.9-0.9h12.7C331.7,326.2,334.4,328.2,334.4,330.6z"/>
				<path class="st1" d="M251.3,330.5c0-1.3,0.1-2.6,0.3-3.8c1.9-12.9,13-22.9,26.5-22.9c10.5,0,19.5,6,23.9,14.8
					c1.8,3.6,2.8,7.7,2.8,12l0,0c0,4.4-1.1,8.6-3,12.2c-1.4,2.7-3.2,5.1-5.4,7.2c-1.8,1.8-3.9,3.2-6.2,4.4c-2.9,1.5-6,2.4-9.4,2.8
					c-0.9,0.1-1.8,0.1-2.8,0.1c-1.4,0-2.8-0.1-4.2-0.3c-7.1-1.1-13.3-5-17.3-10.6c-2.4-3.3-4.1-7.2-4.8-11.4
					C251.4,333.5,251.3,332,251.3,330.5z M266,335.6c2,4.7,6.6,8,12.1,8c7.2,0,13.1-5.9,13.1-13.1s-5.9-13.1-13.1-13.1
					c-5.5,0-10.3,3.4-12.2,8.3c-0.6,1.5-0.9,3.1-0.9,4.8C264.9,332.3,265.3,334.1,266,335.6z"/>
				<path class="st1" d="M221.3,330.9c0-2.4,2.7-4.4,5.2-4.4h12.7c1,0,2.1,0.3,2.9,0.9c1.2,0.8,2.2,2.1,2.2,3.5
					c0,1.5-0.9,2.8-2.2,3.6c-0.9,0.5-1.9,0.9-2.9,0.9h-12.7C224,335.4,221.3,333.4,221.3,330.9z"/>
				<circle class="st11" cx="232.8" cy="330.9" r="1.9"/>
				<path class="st1" d="M241.7,327.4c2.8-0.2,6.1-0.5,9.5-0.7c4.2-0.3,8.6-0.6,12.7-0.9c0.5,0,1-0.1,1.6-0.1
					c4.5-0.3,8.5-0.5,11.1-0.5c8.6,0,7.8,11.3-0.2,10.9c-1,0-5.2-0.3-10.8-0.5c-0.5,0-1-0.1-1.6-0.1c-4-0.2-8.4-0.4-12.7-0.6
					c-3.5-0.2-6.8-0.3-9.7-0.5c1.3-0.8,2.2-2.1,2.2-3.6C243.8,329.5,242.9,328.2,241.7,327.4z"/>
			</g>
		</g>
		<path class="st7" d="M352.3,63.9l11.3,69.5l60.8,29.1c4.4,2,6.3,7.1,4.3,11.5s-7.1,6.3-11.5,4.3L350.7,150l-0.6-0.2
			c-3-1.4-5-4-5.7-6.9l-24-71"/>
		<path class="st1" d="M213.4,77.6c-17.8,14.4-26.3,34-21.9,57.1c-0.1-1.1-0.1-1.1,0,0c1.1,11,8.8,20.8,20.1,24
			c14.7,4.1,29.9-4.5,34-19.2c1.2-4.3,6.3-3.9,9.3-6.8c4.5-4.2,3.6-4.6,9.9-6.6l12.1-3.9L213.4,77.6z"/>
		<path class="st1" d="M352.1,63.6c2.2,10,6.8,41.5,6.8,41.5l-24.9,7.1l-15.8-41.5"/>
		<line class="st12" x1="331.2" y1="104.6" x2="318.4" y2="70.7"/>
		<path class="st1" d="M352.1,63.6c2.2,10,6.8,41.5,6.8,41.5l-24.9,7.1l-2.9-7.6"/>
		<path class="st13" d="M395,54c0,0,1,7.6,0,11.5c-0.4,1.6-7.4-2.5-7.4-2.5"/>
		<path class="st1" d="M361.3,30.4l41,17.5l-6.7,8.7c0,0-4.5-4.9-10.9-13.8C381.4,38.3,361.3,30.4,361.3,30.4z"/>
		<path class="st1" d="M356.8,28.9l6.4,21.4l13.4-16.5l3,2.1c0,0-16.2,17-16.4,20.2c-0.1,3.3,0.3,14.9,0.3,14.9l-3.3,0.5
			c0,0,0.9-13.5,0.1-17s-7-25.5-7-25.5L356.8,28.9z"/>
		<line class="st6" x1="382.9" y1="67.7" x2="379.6" y2="65.7"/>
		<path class="st6" d="M428.9,365c-29,0-52.6-23.5-52.6-52.6"/>
		<g>
			<path class="st7" d="M243.7,117.4l71,82.3c6.3,5.9,6.7,15.8,0.8,22.1l-0.8,0.8l-82,82.7c-3.7,4-9.8,4.9-14.6,1.8
				c-5.2-3.4-6.7-10.5-3.3-15.7c0.3-0.5,0.7-1,1.1-1.5l0,0l65.1-76.4l-74.6-56.8"/>
			<polyline class="st1" points="243.4,117 284.7,164.9 258,195.9 206,156.5 			"/>
			<path class="st1" d="M267.4,270.5l-34.6,34.7l-0.1,0.1c-3.7,4-9.9,4.9-14.6,1.7c-5.2-3.5-6.6-10.5-3.1-15.7
				c0.3-0.5,0.7-1,1.1-1.4l30.3-35.3L267.4,270.5z"/>
			<path class="st14" d="M241.7,296c0,0,7.7,21.7,13.7,26.5c6.1,4.8,11.8,8,10.3,12.1c-1.4,4.1-14.9,6.9-27.5-2.3
				c-12.5-9.2-9.9-11.4-22.6-20.1s-12.2-11.7-10.1-15.8s9.4-11.4,12.5-8.7c1.5,1.3-3.7,7.7,3.6,12.1C229,304.9,237.7,301,241.7,296z
				"/>
		</g>
		<circle class="st15" cx="238.3" cy="319" r="2"/>
		<circle class="st15" cx="230.4" cy="308.1" r="2"/>
		<g>
			<g>
				<g>
					<path class="st1" d="M402.5,43.5c4.3-1.9,3.8-25.4-11.1-33.7c-15-8.2-31.3-9.2-31.3-9.2l1,4.1l-10.7,1.5l1,6.5l-5.6,3.2
						c0,0-2.1,12.5,2.5,13.5c4.5,1,17,0.5,21-1.6c0,0,3.4,7.1,8.8,8.5c5.4,1.4,4,0,7.3,1.1C388.5,38.4,398.8,45.1,402.5,43.5z"/>
				</g>
				<g>
					<path class="st7" d="M360.9,12c8.5,1.8,24,9.5,27.3,18.6L360.9,12z"/>
				</g>
				<g>
					<path class="st7" d="M388.9,18.4c3.2,1.4,9,8.8,9,12.2L388.9,18.4z"/>
				</g>
			</g>
		</g>
		<path class="st13" d="M369.9,39.8c-0.1-4-4.9-7.7-7.5-0.7c-2.7,7.4,0.1,11.6,3.6,9"/>
		<g>
			<g>
				<path class="st16" d="M231.1,330.9c0-24.8,19.3-45,43.7-46.5"/>
				<g>
					<polygon class="st17" points="274.3,286.5 277.6,284.3 274.1,282.5 					"/>
				</g>
			</g>
		</g>
		<path class="st13" d="M417.9,159.2c3.1,1.1,9.8,3.8,10.4,4.1l6.5,2.6c0,0,1.9,0.8,2.1,1l4.9,5.1c0.8,0.7,0.9,1.9,0.1,2.7
			c-0.7,0.8-1.9,0.9-2.7,0.1l-3.1-3.8c0,0-3.4-2.3-5.7-3.3c-0.2-0.1,5.5,4.3,5.5,4.3l3.7,6c0.6,0.9,0.4,2.1-0.5,2.7
			s-2.1,0.4-2.7-0.5l-3.1-4.8c0,0-6.2-4.5-5.3-3.6c1.1,1,5.2,5.3,5.2,5.3c0.7,0.8,0.6,2.1-0.2,2.7c-0.8,0.7-2.1,0.6-2.7-0.2
			c0,0-2.2-2.4-3.7-4c-0.2-0.2,2.7,3.6,2.7,3.6c0.7,0.8,0.6,2.1-0.2,2.7c-0.8,0.7-2,0.6-2.7-0.2l-3.6-4c-0.9,0.3-1.8,0.4-2.7,0.4
			c-1.4,0-8.4-2.2-8.7-4.6"/>
		<line class="st12" x1="213.3" y1="77.6" x2="276.9" y2="122.2"/>
	</g>
	<g id="musculo4">
		<g>
			<text transform="matrix(1 0 0 1 393.9302 124.4673)" class="st18 st19 st20">Flexores de cadera </text>
		</g>
		<path class="st17" d="M234.9,96.5c-2.3,1,3.3,16.1-2.8,24.4s6.8,21.7,6.8,21.7s12.2,4.6,11.7,3.9s6.8-11.2,0.8-19.2
			c-2.2-2.9-1.7-3.4-0.4-2c1.9,2,5,5.5,5,5.5l-4.6-14.5L234.9,96.5z"/>
		<g>
			<g>
				<line class="st21" x1="388" y1="120.6" x2="245.8" y2="120.6"/>
				<g>
					<circle class="st9" cx="245.8" cy="120.6" r="0.4"/>
				</g>
			</g>
		</g>
	</g>
</g>
</svg>
