<?xml version="1.0" encoding="utf-8"?>
<!-- Generator: Adobe Illustrator 22.0.1, SVG Export Plug-In . SVG Version: 6.00 Build 0)  -->
<svg version="1.1" id="Capa_1" xmlns="http://www.w3.org/2000/svg" xmlns:xlink="http://www.w3.org/1999/xlink" x="0px" y="0px"
	 viewBox="0 0 600 400" style="enable-background:new 0 0 600 400;" xml:space="preserve">
<style type="text/css">
	.st0{fill:#1E1E1C;}
	.st1{font-family:'ArialMT';}
	.st2{font-size:29.4355px;}
	.st3{fill:#929292;}
	.st4{fill:none;stroke:#1D1D1B;stroke-miterlimit:10;}
	.st5{fill:#1D1D1B;}
	.st6{fill:#FFFFFF;}
	.st7{fill:none;stroke:#1D1D1B;stroke-width:13;stroke-miterlimit:10;}
	.st8{fill:none;stroke:#929292;stroke-width:10;stroke-miterlimit:10;}
	.st9{fill:none;stroke:#6F6F6E;stroke-miterlimit:10;}
</style>
<g>
	<text transform="matrix(1 0 0 1 481.8138 230.3379)" class="st0 st1 st2">622mm</text>
</g>
<g>
	<path class="st0" d="M73.7,373.2L73.7,373.2c-2.8,0-5-2.3-5-5V78c0-2.8,2.3-5,5-5l0,0c2.8,0,5,2.3,5,5v290.2
		C78.7,371,76.5,373.2,73.7,373.2z"/>
	<path class="st3" d="M52.7,223.1L52.7,223.1c0-1.9,1.6-3.5,3.5-3.5h35.3c1.9,0,3.5,1.6,3.5,3.5l0,0c0,1.9-1.6,3.5-3.5,3.5H56.2
		C54.3,226.6,52.7,225,52.7,223.1z"/>
	<polyline class="st4" points="76.2,117 94.9,223.1 76.2,338.9 	"/>
	<polyline class="st4" points="71.4,117 52.7,223.1 71.4,338.9 	"/>
</g>
<g>
	<circle class="st5" cx="302.2" cy="225.3" r="12.4"/>
	<line class="st4" x1="302.2" y1="76.1" x2="302.2" y2="371.2"/>
	<line class="st4" x1="253.8" y1="362.9" x2="350.1" y2="90"/>
	<line class="st4" x1="255.5" y1="89.6" x2="350.9" y2="362.8"/>
	<line class="st4" x1="399.5" y1="119.5" x2="203.1" y2="331.9"/>
	<line class="st4" x1="205.1" y1="119.3" x2="401.2" y2="332"/>
	<line class="st4" x1="433.6" y1="166" x2="170.4" y2="286.2"/>
	<line class="st4" x1="172.1" y1="163.3" x2="434.2" y2="285.9"/>
	<line class="st4" x1="157.6" y1="224.6" x2="446.8" y2="224.6"/>
	<circle class="st6" cx="302.2" cy="225.3" r="5"/>
	<circle class="st7" cx="302.2" cy="226.6" r="150.5"/>
	<circle class="st8" cx="302.2" cy="226.6" r="144.6"/>
</g>
<polyline class="st9" points="297.2,74.7 514.2,74.7 514.2,194.8 "/>
<polyline class="st9" points="297.2,378.6 514.2,378.6 514.2,241.6 "/>
<line class="st9" x1="68.2" y1="82.6" x2="68.2" y2="44.8"/>
<line class="st9" x1="79.5" y1="82.6" x2="79.5" y2="44.8"/>
<g>
	<text transform="matrix(1 0 0 1 39.1966 41.4219)" class="st0 st1 st2">25mm</text>
</g>
</svg>
