<svg xmlns="http://www.w3.org/2000/svg" viewBox="0 0 550 450">
<style type="text/css">
	@import url('https://fonts.googleapis.com/css2?family=Barlow+Semi+Condensed:wght@400');
	.st0{fill:#1E1E1C;}
	.st1{fill:#929292;}
	.st2{fill:none;stroke:#1D1D1B;stroke-miterlimit:10;}
	.st3{fill:#1D1D1B;}
	.st4{fill:#FFFFFF;}
	.st5{fill:none;stroke:#1D1D1B;stroke-width:13;stroke-miterlimit:10;}
	.st6{fill:none;stroke:#929292;stroke-width:10;stroke-miterlimit:10;}
	.st7{fill:none;stroke:#6F6F6E;stroke-miterlimit:10;}
	.st8{font-family:'Barlow Semi Condensed', sans-serif;
		font-weight: 400;
		font-style: regular;}
	.st9{font-size:29.4355px;}
</style>
	<g>
	<g>
		<text transform="matrix(1 0 0 1 454.085 253.5121)" class="st0 st8 st9">700mm</text>
	</g>
	<g>
		<path class="st0" d="M46,396.4L46,396.4c-2.8,0-5-2.3-5-5V101.2c0-2.8,2.3-5,5-5h0c2.8,0,5,2.3,5,5v290.2
			C51,394.2,48.7,396.4,46,396.4z"/>
		<path class="st1" d="M25,246.3L25,246.3c0-1.9,1.6-3.5,3.5-3.5h35.3c1.9,0,3.5,1.6,3.5,3.5v0c0,1.9-1.6,3.5-3.5,3.5H28.4
			C26.5,249.7,25,248.2,25,246.3z"/>
		<polyline class="st2" points="48.5,140.2 67.2,246.3 48.5,362.1 		"/>
		<polyline class="st2" points="43.7,140.2 25,246.3 43.7,362.1 		"/>
	</g>
	<g>
		<circle class="st3" cx="274.5" cy="248.5" r="12.4"/>
		<line class="st2" x1="274.5" y1="99.3" x2="274.5" y2="394.4"/>
		<line class="st2" x1="226" y1="386.1" x2="322.3" y2="113.2"/>
		<line class="st2" x1="227.7" y1="112.8" x2="323.2" y2="386"/>
		<line class="st2" x1="371.8" y1="142.7" x2="175.4" y2="355.1"/>
		<line class="st2" x1="177.4" y1="142.5" x2="373.5" y2="355.2"/>
		<line class="st2" x1="405.9" y1="189.2" x2="142.7" y2="309.4"/>
		<line class="st2" x1="144.4" y1="186.5" x2="406.4" y2="309.1"/>
		<line class="st2" x1="129.9" y1="247.8" x2="419.1" y2="247.8"/>
		<circle class="st4" cx="274.5" cy="248.5" r="5"/>
		<circle class="st5" cx="274.5" cy="249.7" r="150.5"/>
		<circle class="st6" cx="274.5" cy="249.7" r="144.6"/>
	</g>
	<polyline class="st7" points="269.5,92 486.5,92 486.5,219.6 	"/>
	<polyline class="st7" points="269.5,407 486.5,407 486.5,262 	"/>
	<line class="st7" x1="40.5" y1="105.8" x2="40.5" y2="68"/>
	<line class="st7" x1="51.8" y1="105.8" x2="51.8" y2="68"/>
	<g>
		<text transform="matrix(1 0 0 1 11.4658 64.5961)" class="st0 st8 st9">25mm</text>
	</g>
</g>
</svg>
