<svg xmlns="http://www.w3.org/2000/svg" viewBox="0 0 550 450">
<style type="text/css">
	@import url('https://fonts.googleapis.com/css2?family=Barlow+Semi+Condensed:wght@400');
	.st0{fill:#1E1E1C;}
	.st1{font-family:'Barlow Semi Condensed', sans-serif;
		font-weight: 400;
		font-style: regular;}
	.st2{font-size:29.4355px;}
	.st3{fill:#929292;}
	.st4{fill:none;stroke:#1D1D1B;stroke-miterlimit:10;}
	.st5{fill:#1D1D1B;}
	.st6{fill:#FFFFFF;}
	.st7{fill:none;stroke:#1D1D1B;stroke-width:13;stroke-miterlimit:10;}
	.st8{fill:none;stroke:#929292;stroke-width:10;stroke-miterlimit:10;}
	.st9{fill:none;stroke:#6F6F6E;stroke-miterlimit:10;}
</style>
	<g>
	<g>
		<text transform="matrix(1 0 0 1 454.0103 253.5121)" class="st0 st1 st2">622mm</text>
	</g>
	<g>
		<path class="st0" d="M45.9,396.4L45.9,396.4c-2.8,0-5-2.3-5-5V101.2c0-2.8,2.3-5,5-5h0c2.8,0,5,2.3,5,5v290.2
			C50.9,394.2,48.7,396.4,45.9,396.4z"/>
		<path class="st3" d="M24.9,246.3L24.9,246.3c0-1.9,1.6-3.5,3.5-3.5h35.3c1.9,0,3.5,1.6,3.5,3.5v0c0,1.9-1.6,3.5-3.5,3.5H28.4
			C26.5,249.7,24.9,248.2,24.9,246.3z"/>
		<polyline class="st4" points="48.4,140.2 67.1,246.3 48.4,362.1 		"/>
		<polyline class="st4" points="43.6,140.2 24.9,246.3 43.6,362.1 		"/>
	</g>
	<g>
		<circle class="st5" cx="274.4" cy="248.5" r="12.4"/>
		<line class="st4" x1="274.4" y1="99.3" x2="274.4" y2="394.4"/>
		<line class="st4" x1="226" y1="386.1" x2="322.3" y2="113.2"/>
		<line class="st4" x1="227.7" y1="112.8" x2="323.1" y2="386"/>
		<line class="st4" x1="371.7" y1="142.7" x2="175.3" y2="355.1"/>
		<line class="st4" x1="177.3" y1="142.5" x2="373.4" y2="355.2"/>
		<line class="st4" x1="405.8" y1="189.2" x2="142.6" y2="309.4"/>
		<line class="st4" x1="144.3" y1="186.5" x2="406.4" y2="309.1"/>
		<line class="st4" x1="129.8" y1="247.8" x2="419" y2="247.8"/>
		<circle class="st6" cx="274.4" cy="248.5" r="5"/>
		<circle class="st7" cx="274.4" cy="249.7" r="150.5"/>
		<circle class="st8" cx="274.4" cy="249.7" r="144.6"/>
	</g>
	<polyline class="st9" points="269.4,97.9 486.4,97.9 486.4,218 	"/>
	<polyline class="st9" points="269.4,401.8 486.4,401.8 486.4,264.8 	"/>
	<line class="st9" x1="40.4" y1="105.8" x2="40.4" y2="68"/>
	<line class="st9" x1="51.7" y1="105.8" x2="51.7" y2="68"/>
	<g>
		<text transform="matrix(1 0 0 1 11.3931 64.5961)" class="st0 st1 st2">25mm</text>
	</g>
</g>
</svg>
