<?xml version="1.0" encoding="utf-8"?>
<!-- Generator: Adobe Illustrator 22.0.1, SVG Export Plug-In . SVG Version: 6.00 Build 0)  -->
<svg version="1.1" id="Capa_1" xmlns="http://www.w3.org/2000/svg" xmlns:xlink="http://www.w3.org/1999/xlink" x="0px" y="0px"
	 viewBox="0 0 600 400" style="enable-background:new 0 0 600 400;" xml:space="preserve">
<style type="text/css">
	.st0{fill:#1E1E1C;}
	.st1{font-family:'ArialMT';}
	.st2{font-size:28px;}
	.st3{fill:#929292;}
	.st4{fill:none;stroke:#1D1D1B;stroke-miterlimit:10;}
	.st5{fill:#1D1D1B;}
	.st6{fill:#FFFFFF;}
	.st7{fill:none;stroke:#1D1D1B;stroke-width:13;stroke-miterlimit:10;}
	.st8{fill:none;stroke:#929292;stroke-width:10;stroke-miterlimit:10;}
	.st9{fill:none;stroke:#6F6F6E;stroke-miterlimit:10;}
</style>
<g>
	<g>
		<text transform="matrix(1 0 0 1 475.7709 226.6269)" class="st0 st1 st2">700mm</text>
	</g>
	<g>
		<path class="st0" d="M67.7,370.5L67.7,370.5c-2.8,0-5-2.3-5-5V75.3c0-2.8,2.3-5,5-5l0,0c2.8,0,5,2.3,5,5v290.2
			C72.7,368.3,70.4,370.5,67.7,370.5z"/>
		<path class="st3" d="M46.7,220.4L46.7,220.4c0-1.9,1.6-3.5,3.5-3.5h35.3c1.9,0,3.5,1.6,3.5,3.5l0,0c0,1.9-1.6,3.5-3.5,3.5H50.2
			C48.2,223.8,46.7,222.3,46.7,220.4z"/>
		<polyline class="st4" points="70.2,114.3 88.9,220.4 70.2,336.2 		"/>
		<polyline class="st4" points="65.4,114.3 46.7,220.4 65.4,336.2 		"/>
	</g>
	<g>
		<circle class="st5" cx="296.2" cy="222.6" r="12.4"/>
		<line class="st4" x1="296.2" y1="73.4" x2="296.2" y2="368.5"/>
		<line class="st4" x1="247.7" y1="360.2" x2="344" y2="87.3"/>
		<line class="st4" x1="249.4" y1="86.9" x2="344.9" y2="360.1"/>
		<line class="st4" x1="393.5" y1="116.8" x2="197.1" y2="329.2"/>
		<line class="st4" x1="199.1" y1="116.6" x2="395.2" y2="329.3"/>
		<line class="st4" x1="427.6" y1="163.3" x2="164.4" y2="283.5"/>
		<line class="st4" x1="166.1" y1="160.6" x2="428.1" y2="283.2"/>
		<line class="st4" x1="151.6" y1="221.9" x2="440.8" y2="221.9"/>
		<circle class="st6" cx="296.2" cy="222.6" r="5"/>
		<circle class="st7" cx="296.2" cy="223.8" r="150.5"/>
		<circle class="st8" cx="296.2" cy="223.8" r="144.6"/>
	</g>
	<polyline class="st9" points="291.2,62.6 508.2,62.6 508.2,193.7 	"/>
	<polyline class="st9" points="291.2,384.5 508.2,384.5 508.2,236.1 	"/>
	<line class="st9" x1="62.2" y1="79.9" x2="62.2" y2="42.1"/>
	<line class="st9" x1="73.5" y1="79.9" x2="73.5" y2="42.1"/>
	<g>
		<text transform="matrix(1 0 0 1 33.1517 36.7109)" class="st0 st1 st2">25mm</text>
	</g>
</g>
</svg>
