<?xml version="1.0" encoding="utf-8"?>
<!-- Generator: Adobe Illustrator 22.0.1, SVG Export Plug-In . SVG Version: 6.00 Build 0)  -->
<svg version="1.1" id="Capa_1" xmlns="http://www.w3.org/2000/svg" xmlns:xlink="http://www.w3.org/1999/xlink" x="0px" y="0px"
	 viewBox="0 0 1000 1000" style="enable-background:new 0 0 1000 1000;" xml:space="preserve">
<style type="text/css">
	.st0{fill:#EDEDED;}
	.st1{clip-path:url(#SVGID_3_);}
	.st2{fill:#1E1E1C;}
	.st3{font-family:'ArialMT';}
	.st4{font-size:66.9128px;}
	.st5{fill:none;stroke:#1D1E1C;stroke-width:0.25;stroke-miterlimit:10;}
	.st6{fill:#1D1E1C;}
</style>
<g>
	<g>
		<circle id="SVGID_1_" class="st0" cx="480" cy="500" r="362.6"/>
	</g>
	<g>
		<defs>
			<circle id="SVGID_2_" cx="480" cy="500" r="362.6"/>
		</defs>
		<clipPath id="SVGID_3_">
			<use xlink:href="#SVGID_2_"  style="overflow:visible;"/>
		</clipPath>
		<g class="st1">
			
				<image style="overflow:visible;enable-background:new    ;" width="640" height="426" xlink:href="zapatilla.png"  transform="matrix(2.0817 0 0 2.0817 33.7994 104.5426)">
			</image>
		</g>
	</g>
</g>
<g>
	<text transform="matrix(1 0 0 1 126.0198 484.6392)" class="st2 st3 st4">Cala</text>
</g>
<g>
	<text transform="matrix(1 0 0 1 601.2971 688.4653)" class="st2 st3 st4">Pedal</text>
</g>
<g>
	<g>
		<line class="st5" x1="592.3" y1="668.4" x2="503.7" y2="668.4"/>
		<g>
			<path class="st6" d="M503.7,668c-0.2,0-0.4,0.2-0.4,0.4s0.2,0.4,0.4,0.4c0.2,0,0.4-0.2,0.4-0.4S503.9,668,503.7,668z"/>
		</g>
	</g>
</g>
<g>
	<g>
		<line class="st5" x1="271.9" y1="470.7" x2="385.6" y2="470.7"/>
		<g>
			<circle class="st6" cx="385.6" cy="470.7" r="0.4"/>
		</g>
	</g>
</g>
</svg>
